; NON-PLATED HOLES START AT T1
; THROUGH (PLATED) HOLES START AT T100
M48
INCH,LZ
T1C0.125984
T100C0.031497
T101C0.035000
T102C0.038000
T103C0.040000
T104C0.042000
T105C0.022334
T106C0.051181
T107C0.035433
%
T1
X022488Y001036
X022512Y022335
X001242Y022328
X001276Y001024
T100
X009058Y004742
X009058Y003757
T101
X014808Y022742
X018058Y022742
X005808Y003742
X013808Y019742
X014808Y019742
X018058Y021742
X013808Y022742
X005808Y004742
X018058Y020742
T102
X002808Y003492
X010558Y013242
X020558Y008492
X020558Y012492
X020558Y006492
X002808Y004492
X020558Y007492
X001808Y004492
X020558Y011492
X001808Y008992
X001808Y006492
X002808Y006492
X020558Y009492
X001808Y003492
X008558Y013242
X007558Y013242
X003308Y012492
X002808Y008992
X020558Y005492
X020558Y010492
X003308Y013492
X009558Y013242
T103
X001058Y020492
X001058Y013992
X001058Y016492
X001058Y011992
X001058Y018492
T104
X012558Y019742
X012558Y022722
T105
X021782Y012981
X012808Y010984
X021782Y015976
X021782Y013979
X012808Y011982
X012808Y012981
X012808Y004993
X012808Y005992
X012808Y009985
X012808Y002996
X021782Y006990
X021782Y009985
X012808Y008987
X021782Y014978
X021782Y004993
X021782Y007988
X012808Y006990
X012808Y014978
X021782Y008987
X021782Y016975
X021782Y003995
X012808Y016975
X012808Y015976
X012808Y007988
X012808Y013979
X021782Y010984
X021782Y005992
X012808Y003995
X021782Y011982
X021782Y002996
T106
X010782Y016958
X006058Y016958
X006058Y021742
X010782Y021742
X008420Y022549
T107
X020558Y013492
X004808Y012492
X021058Y014242
X009058Y005742
X005558Y010992
X008058Y011492
X004558Y006492
X005558Y014242
X004808Y019492
X008058Y002242
T00
M30
