G04 MADE WITH FRITZING*
G04 WWW.FRITZING.ORG*
G04 DOUBLE SIDED*
G04 HOLES PLATED*
G04 CONTOUR ON CENTER OF CONTOUR VECTOR*
%ASAXBY*%
%FSLAX23Y23*%
%MOIN*%
%OFA0B0*%
%SFA1.0B1.0*%
%ADD10C,0.070000*%
%ADD11C,0.129921*%
%ADD12C,0.082000*%
%ADD13C,0.062992*%
%ADD14C,0.080000*%
%ADD15C,0.075433*%
%ADD16C,0.075000*%
%ADD17C,0.078000*%
%ADD18R,0.082000X0.082000*%
%ADD19R,0.062992X0.062992*%
%ADD20R,0.062992X0.074803*%
%ADD21R,0.031496X0.035433*%
%ADD22R,0.080000X0.080000*%
%ADD23R,0.079986X0.080000*%
%ADD24R,0.075000X0.075000*%
%ADD25R,0.074803X0.062992*%
%ADD26R,0.078000X0.078000*%
%ADD27R,0.048000X0.088000*%
%ADD28R,0.141732X0.086614*%
%ADD29C,0.032000*%
%ADD30C,0.024000*%
%ADD31C,0.048000*%
%ADD32R,0.001000X0.001000*%
%LNCOPPER0*%
G90*
G70*
G54D10*
X1732Y533D03*
X1732Y433D03*
G54D11*
X1082Y1933D03*
X1163Y2170D03*
X1641Y2170D03*
X1163Y1697D03*
X1641Y1697D03*
X1082Y1933D03*
X1163Y2170D03*
X1641Y2170D03*
X1163Y1697D03*
X1641Y1697D03*
G54D12*
X875Y2024D03*
X875Y1726D03*
G54D13*
X557Y285D03*
X557Y383D03*
G54D14*
X2032Y1833D03*
X2032Y1633D03*
X2032Y2033D03*
X2032Y1433D03*
X2032Y1233D03*
G54D15*
X357Y1208D03*
X357Y858D03*
X512Y1081D03*
X512Y1382D03*
X733Y909D03*
X632Y1483D03*
X282Y1283D03*
X282Y533D03*
X282Y1883D03*
X432Y133D03*
X1682Y1033D03*
X1581Y1221D03*
X632Y508D03*
X1607Y208D03*
X532Y733D03*
X733Y1066D03*
X732Y1483D03*
G54D16*
X2032Y933D03*
X2132Y933D03*
X2032Y933D03*
X2132Y933D03*
X682Y1733D03*
X682Y2033D03*
X782Y1733D03*
X782Y2033D03*
G54D17*
X182Y1358D03*
X182Y1258D03*
X182Y1158D03*
X182Y1058D03*
X182Y958D03*
X182Y858D03*
X182Y758D03*
X182Y658D03*
X182Y1583D03*
X182Y1583D03*
X182Y1683D03*
X182Y1883D03*
X182Y1983D03*
X182Y333D03*
X182Y433D03*
X1832Y533D03*
X1932Y533D03*
X1832Y533D03*
X1932Y533D03*
X1932Y433D03*
X1832Y433D03*
X1832Y533D03*
X1932Y533D03*
X1832Y533D03*
X1932Y533D03*
X1932Y433D03*
X1832Y433D03*
X1532Y333D03*
X1632Y333D03*
X1732Y333D03*
X1832Y333D03*
X1932Y333D03*
X1732Y933D03*
X1732Y833D03*
X1732Y733D03*
X1732Y933D03*
X1732Y833D03*
X1732Y733D03*
X1632Y633D03*
X1732Y633D03*
X1832Y633D03*
X1932Y633D03*
X1632Y633D03*
X1732Y633D03*
X1832Y633D03*
X1932Y633D03*
G54D15*
X2282Y933D03*
G54D18*
X875Y2025D03*
G54D19*
X557Y285D03*
G54D20*
X556Y1733D03*
X434Y1733D03*
X554Y2033D03*
X432Y2033D03*
G54D21*
X432Y1916D03*
X507Y1916D03*
X470Y1838D03*
G54D22*
X2032Y2033D03*
G54D23*
X2032Y1433D03*
G54D24*
X2032Y933D03*
X2032Y933D03*
X682Y1733D03*
G54D20*
X1799Y1133D03*
X1677Y1133D03*
X510Y883D03*
X632Y883D03*
X1677Y1233D03*
X1799Y1233D03*
X1799Y1333D03*
X1677Y1333D03*
G54D25*
X332Y333D03*
X332Y211D03*
G54D20*
X554Y1583D03*
X432Y1583D03*
X510Y988D03*
X632Y988D03*
G54D26*
X1732Y933D03*
X1732Y933D03*
G54D27*
X2041Y727D03*
X2132Y727D03*
X2223Y727D03*
G54D28*
X2132Y483D03*
G54D29*
X956Y2033D02*
X1049Y1960D01*
D02*
X912Y2028D02*
X956Y2033D01*
G54D30*
D02*
X1682Y833D02*
X1532Y1009D01*
D02*
X1532Y1009D02*
X1532Y1133D01*
D02*
X1483Y1133D02*
X1471Y1136D01*
D02*
X1532Y1133D02*
X1483Y1133D01*
D02*
X1702Y833D02*
X1682Y833D01*
D02*
X1679Y1102D02*
X1681Y1062D01*
D02*
X1695Y1008D02*
X1719Y960D01*
D02*
X382Y284D02*
X358Y307D01*
D02*
X530Y285D02*
X382Y284D01*
D02*
X383Y134D02*
X331Y183D01*
D02*
X331Y183D02*
X332Y185D01*
D02*
X403Y134D02*
X383Y134D01*
D02*
X182Y284D02*
X182Y303D01*
D02*
X281Y234D02*
X232Y234D01*
D02*
X232Y234D02*
X182Y284D01*
D02*
X300Y226D02*
X281Y234D01*
D02*
X432Y384D02*
X383Y433D01*
D02*
X383Y433D02*
X212Y433D01*
D02*
X530Y384D02*
X432Y384D01*
D02*
X632Y434D02*
X632Y480D01*
D02*
X607Y383D02*
X632Y434D01*
D02*
X584Y383D02*
X607Y383D01*
D02*
X632Y833D02*
X632Y852D01*
D02*
X552Y754D02*
X632Y833D01*
D02*
X2082Y433D02*
X2094Y446D01*
D02*
X1962Y433D02*
X2082Y433D01*
G54D31*
D02*
X1733Y1633D02*
X1990Y1633D01*
D02*
X1680Y1670D02*
X1733Y1633D01*
G54D30*
D02*
X793Y832D02*
X632Y833D01*
D02*
X82Y1932D02*
X131Y1983D01*
D02*
X131Y1983D02*
X152Y1983D01*
D02*
X82Y1683D02*
X82Y1932D01*
D02*
X152Y1683D02*
X82Y1683D01*
D02*
X83Y1184D02*
X82Y1683D01*
D02*
X107Y1158D02*
X83Y1184D01*
D02*
X152Y1158D02*
X107Y1158D01*
D02*
X1732Y364D02*
X1732Y407D01*
D02*
X1802Y533D02*
X1758Y533D01*
D02*
X1932Y364D02*
X1932Y403D01*
D02*
X1832Y464D02*
X1832Y503D01*
D02*
X1832Y403D02*
X1832Y364D01*
D02*
X781Y2083D02*
X732Y2133D01*
D02*
X632Y2133D02*
X579Y2065D01*
D02*
X1932Y464D02*
X1932Y503D01*
D02*
X432Y1928D02*
X432Y2002D01*
D02*
X833Y1833D02*
X480Y1837D01*
D02*
X877Y1788D02*
X833Y1833D01*
D02*
X653Y1733D02*
X582Y1733D01*
G54D31*
D02*
X2132Y1758D02*
X2081Y1834D01*
D02*
X2132Y1484D02*
X2132Y1758D01*
D02*
X2082Y1434D02*
X2132Y1484D01*
D02*
X2081Y1834D02*
X2074Y1834D01*
D02*
X2074Y1434D02*
X2082Y1434D01*
G54D30*
D02*
X471Y1218D02*
X382Y1133D01*
D02*
X383Y1033D02*
X308Y958D01*
D02*
X382Y1133D02*
X383Y1033D01*
D02*
X308Y958D02*
X212Y958D01*
D02*
X793Y1225D02*
X471Y1218D01*
D02*
X357Y759D02*
X212Y758D01*
D02*
X432Y834D02*
X357Y759D01*
D02*
X434Y1094D02*
X432Y834D01*
D02*
X481Y1143D02*
X434Y1094D01*
D02*
X793Y1147D02*
X481Y1143D01*
D02*
X328Y858D02*
X212Y858D01*
D02*
X453Y1299D02*
X378Y1228D01*
D02*
X793Y1304D02*
X453Y1299D01*
D02*
X431Y1382D02*
X432Y1552D01*
D02*
X232Y1384D02*
X431Y1382D01*
D02*
X209Y1372D02*
X232Y1384D01*
D02*
X433Y1615D02*
X434Y1701D01*
D02*
X793Y989D02*
X658Y988D01*
D02*
X510Y956D02*
X510Y915D01*
D02*
X511Y1020D02*
X511Y1052D01*
D02*
X431Y1382D02*
X483Y1382D01*
D02*
X541Y1382D02*
X793Y1383D01*
D02*
X793Y910D02*
X762Y910D01*
D02*
X632Y1583D02*
X632Y1512D01*
D02*
X580Y1583D02*
X632Y1583D01*
D02*
X607Y658D02*
X212Y658D01*
D02*
X732Y783D02*
X607Y658D01*
D02*
X1031Y783D02*
X732Y783D01*
D02*
X1321Y1066D02*
X1031Y783D01*
D02*
X1394Y1068D02*
X1321Y1066D01*
D02*
X232Y1259D02*
X212Y1259D01*
D02*
X256Y1271D02*
X232Y1259D01*
D02*
X1081Y733D02*
X783Y733D01*
D02*
X1337Y991D02*
X1081Y733D01*
D02*
X632Y584D02*
X332Y584D01*
D02*
X332Y584D02*
X302Y554D01*
D02*
X783Y733D02*
X632Y584D01*
D02*
X1394Y990D02*
X1337Y991D01*
D02*
X1536Y1304D02*
X1471Y1304D01*
D02*
X1583Y1336D02*
X1536Y1304D01*
D02*
X1651Y1334D02*
X1583Y1336D01*
G54D29*
D02*
X1800Y1434D02*
X1799Y1365D01*
G54D31*
D02*
X2132Y1934D02*
X1130Y1933D01*
D02*
X2283Y1734D02*
X2132Y1934D01*
D02*
X2283Y1234D02*
X2283Y1734D01*
D02*
X2074Y1234D02*
X2283Y1234D01*
G54D29*
D02*
X2032Y983D02*
X1933Y1083D01*
D02*
X1933Y1083D02*
X1928Y1422D01*
D02*
X2032Y968D02*
X2032Y983D01*
G54D30*
D02*
X1799Y1165D02*
X1799Y1202D01*
D02*
X2132Y905D02*
X2132Y766D01*
D02*
X1532Y909D02*
X1471Y910D01*
D02*
X1557Y883D02*
X1532Y909D01*
D02*
X1558Y558D02*
X1557Y883D01*
D02*
X1632Y364D02*
X1631Y458D01*
D02*
X1631Y458D02*
X1558Y558D01*
D02*
X1507Y733D02*
X1507Y833D01*
D02*
X1507Y833D02*
X1471Y833D01*
D02*
X1507Y509D02*
X1507Y733D01*
D02*
X1531Y484D02*
X1507Y509D01*
D02*
X1532Y364D02*
X1531Y484D01*
D02*
X212Y1883D02*
X253Y1883D01*
G54D29*
D02*
X1433Y1484D02*
X1432Y1401D01*
D02*
X1433Y1634D02*
X1433Y1484D01*
D02*
X566Y1884D02*
X883Y1883D01*
D02*
X1232Y1832D02*
X1433Y1634D01*
D02*
X932Y1834D02*
X1232Y1832D01*
D02*
X883Y1883D02*
X932Y1834D01*
D02*
X517Y1911D02*
X566Y1884D01*
D02*
X932Y1684D02*
X905Y1704D01*
D02*
X1083Y1684D02*
X932Y1684D01*
D02*
X1121Y1690D02*
X1083Y1684D01*
G54D30*
D02*
X956Y2083D02*
X956Y2033D01*
D02*
X1082Y2183D02*
X956Y2083D01*
D02*
X1127Y2176D02*
X1082Y2183D01*
D02*
X883Y1984D02*
X881Y1992D01*
D02*
X833Y1934D02*
X883Y1984D01*
D02*
X732Y1934D02*
X833Y1934D01*
D02*
X682Y1984D02*
X732Y1934D01*
D02*
X682Y2005D02*
X682Y1984D01*
G54D29*
D02*
X2283Y433D02*
X1982Y134D01*
D02*
X2232Y633D02*
X2283Y584D01*
D02*
X1982Y134D02*
X466Y133D01*
D02*
X2283Y584D02*
X2283Y433D01*
D02*
X2132Y633D02*
X2232Y633D01*
D02*
X2132Y689D02*
X2132Y633D01*
G54D30*
D02*
X1651Y1230D02*
X1609Y1225D01*
D02*
X1552Y1222D02*
X1471Y1225D01*
D02*
X1831Y983D02*
X1833Y733D01*
D02*
X1833Y733D02*
X1762Y733D01*
D02*
X1738Y1080D02*
X1831Y983D01*
D02*
X1737Y1332D02*
X1738Y1080D01*
D02*
X1773Y1333D02*
X1737Y1332D01*
G54D29*
D02*
X1818Y1100D02*
X1817Y1102D01*
D02*
X2032Y633D02*
X1933Y733D01*
D02*
X1933Y983D02*
X1818Y1100D01*
D02*
X1933Y733D02*
X1933Y983D01*
D02*
X2132Y633D02*
X2032Y633D01*
D02*
X1741Y1489D02*
X1433Y1484D01*
D02*
X1800Y1434D02*
X1741Y1489D01*
D02*
X1928Y1422D02*
X1800Y1434D01*
D02*
X1996Y1429D02*
X1928Y1422D01*
G54D30*
D02*
X1683Y233D02*
X1632Y233D01*
D02*
X1632Y233D02*
X1627Y229D01*
D02*
X1732Y284D02*
X1683Y233D01*
D02*
X1732Y303D02*
X1732Y284D01*
G54D29*
D02*
X2039Y766D02*
X2034Y899D01*
G54D30*
D02*
X793Y1068D02*
X762Y1067D01*
D02*
X782Y1533D02*
X752Y1504D01*
D02*
X782Y1705D02*
X782Y1533D01*
D02*
X490Y2088D02*
X490Y1978D01*
D02*
X490Y1978D02*
X504Y1928D01*
D02*
X454Y2134D02*
X490Y2088D01*
D02*
X331Y2133D02*
X454Y2134D01*
D02*
X203Y2005D02*
X331Y2133D01*
G54D31*
D02*
X1833Y2034D02*
X1990Y2034D01*
D02*
X1733Y2182D02*
X1833Y2034D01*
D02*
X1688Y2176D02*
X1733Y2182D01*
G54D30*
D02*
X1832Y664D02*
X1833Y733D01*
G54D31*
D02*
X2283Y1234D02*
X2282Y973D01*
D02*
X2283Y783D02*
X2282Y893D01*
D02*
X2242Y745D02*
X2283Y783D01*
G54D30*
D02*
X1832Y603D02*
X1832Y564D01*
D02*
X1932Y564D02*
X1932Y603D01*
G54D29*
D02*
X2132Y633D02*
X2132Y521D01*
G54D32*
X1153Y2234D02*
X1171Y2234D01*
X1631Y2234D02*
X1650Y2234D01*
X1148Y2233D02*
X1177Y2233D01*
X1626Y2233D02*
X1655Y2233D01*
X1144Y2232D02*
X1180Y2232D01*
X1622Y2232D02*
X1659Y2232D01*
X1141Y2231D02*
X1183Y2231D01*
X1619Y2231D02*
X1662Y2231D01*
X1138Y2230D02*
X1186Y2230D01*
X1616Y2230D02*
X1665Y2230D01*
X1136Y2229D02*
X1189Y2229D01*
X1614Y2229D02*
X1667Y2229D01*
X1134Y2228D02*
X1191Y2228D01*
X1612Y2228D02*
X1669Y2228D01*
X1132Y2227D02*
X1193Y2227D01*
X1610Y2227D02*
X1671Y2227D01*
X1130Y2226D02*
X1194Y2226D01*
X1608Y2226D02*
X1672Y2226D01*
X1129Y2225D02*
X1196Y2225D01*
X1607Y2225D02*
X1674Y2225D01*
X1127Y2224D02*
X1197Y2224D01*
X1605Y2224D02*
X1676Y2224D01*
X1125Y2223D02*
X1199Y2223D01*
X1604Y2223D02*
X1677Y2223D01*
X1124Y2222D02*
X1200Y2222D01*
X1602Y2222D02*
X1679Y2222D01*
X1123Y2221D02*
X1202Y2221D01*
X1601Y2221D02*
X1680Y2221D01*
X1121Y2220D02*
X1203Y2220D01*
X1600Y2220D02*
X1681Y2220D01*
X1120Y2219D02*
X1204Y2219D01*
X1599Y2219D02*
X1682Y2219D01*
X1119Y2218D02*
X1205Y2218D01*
X1597Y2218D02*
X1683Y2218D01*
X1118Y2217D02*
X1206Y2217D01*
X1596Y2217D02*
X1685Y2217D01*
X1117Y2216D02*
X1207Y2216D01*
X1595Y2216D02*
X1686Y2216D01*
X1116Y2215D02*
X1208Y2215D01*
X1594Y2215D02*
X1687Y2215D01*
X1115Y2214D02*
X1209Y2214D01*
X1593Y2214D02*
X1688Y2214D01*
X1114Y2213D02*
X1210Y2213D01*
X1593Y2213D02*
X1688Y2213D01*
X1113Y2212D02*
X1211Y2212D01*
X1592Y2212D02*
X1689Y2212D01*
X1112Y2211D02*
X1212Y2211D01*
X1591Y2211D02*
X1690Y2211D01*
X1112Y2210D02*
X1213Y2210D01*
X1590Y2210D02*
X1691Y2210D01*
X1111Y2209D02*
X1213Y2209D01*
X1589Y2209D02*
X1692Y2209D01*
X1110Y2208D02*
X1214Y2208D01*
X1589Y2208D02*
X1692Y2208D01*
X1110Y2207D02*
X1215Y2207D01*
X1588Y2207D02*
X1693Y2207D01*
X1109Y2206D02*
X1216Y2206D01*
X1587Y2206D02*
X1694Y2206D01*
X1108Y2205D02*
X1216Y2205D01*
X1586Y2205D02*
X1694Y2205D01*
X1108Y2204D02*
X1217Y2204D01*
X1586Y2204D02*
X1695Y2204D01*
X1107Y2203D02*
X1217Y2203D01*
X1585Y2203D02*
X1696Y2203D01*
X1106Y2202D02*
X1218Y2202D01*
X1585Y2202D02*
X1696Y2202D01*
X1106Y2201D02*
X1219Y2201D01*
X1584Y2201D02*
X1697Y2201D01*
X1105Y2200D02*
X1219Y2200D01*
X1584Y2200D02*
X1697Y2200D01*
X1105Y2199D02*
X1220Y2199D01*
X1583Y2199D02*
X1698Y2199D01*
X1104Y2198D02*
X1220Y2198D01*
X1583Y2198D02*
X1698Y2198D01*
X1104Y2197D02*
X1221Y2197D01*
X1582Y2197D02*
X1699Y2197D01*
X1103Y2196D02*
X1221Y2196D01*
X1582Y2196D02*
X1699Y2196D01*
X1103Y2195D02*
X1156Y2195D01*
X1168Y2195D02*
X1222Y2195D01*
X1581Y2195D02*
X1634Y2195D01*
X1647Y2195D02*
X1700Y2195D01*
X1102Y2194D02*
X1153Y2194D01*
X1171Y2194D02*
X1222Y2194D01*
X1581Y2194D02*
X1631Y2194D01*
X1650Y2194D02*
X1700Y2194D01*
X1102Y2193D02*
X1151Y2193D01*
X1174Y2193D02*
X1222Y2193D01*
X1580Y2193D02*
X1629Y2193D01*
X1652Y2193D02*
X1701Y2193D01*
X1102Y2192D02*
X1149Y2192D01*
X1176Y2192D02*
X1223Y2192D01*
X1580Y2192D02*
X1627Y2192D01*
X1654Y2192D02*
X1701Y2192D01*
X1101Y2191D02*
X1147Y2191D01*
X1177Y2191D02*
X1223Y2191D01*
X1580Y2191D02*
X1625Y2191D01*
X1656Y2191D02*
X1701Y2191D01*
X1101Y2190D02*
X1146Y2190D01*
X1178Y2190D02*
X1223Y2190D01*
X1579Y2190D02*
X1624Y2190D01*
X1657Y2190D02*
X1702Y2190D01*
X1101Y2189D02*
X1145Y2189D01*
X1180Y2189D02*
X1224Y2189D01*
X1579Y2189D02*
X1623Y2189D01*
X1658Y2189D02*
X1702Y2189D01*
X1100Y2188D02*
X1144Y2188D01*
X1181Y2188D02*
X1224Y2188D01*
X1579Y2188D02*
X1622Y2188D01*
X1659Y2188D02*
X1702Y2188D01*
X1100Y2187D02*
X1143Y2187D01*
X1182Y2187D02*
X1224Y2187D01*
X1578Y2187D02*
X1621Y2187D01*
X1660Y2187D02*
X1702Y2187D01*
X1100Y2186D02*
X1142Y2186D01*
X1183Y2186D02*
X1224Y2186D01*
X1578Y2186D02*
X1620Y2186D01*
X1661Y2186D02*
X1703Y2186D01*
X1100Y2185D02*
X1141Y2185D01*
X1183Y2185D02*
X1225Y2185D01*
X1578Y2185D02*
X1619Y2185D01*
X1662Y2185D02*
X1703Y2185D01*
X1099Y2184D02*
X1140Y2184D01*
X1184Y2184D02*
X1225Y2184D01*
X1578Y2184D02*
X1619Y2184D01*
X1662Y2184D02*
X1703Y2184D01*
X1099Y2183D02*
X1140Y2183D01*
X1185Y2183D02*
X1225Y2183D01*
X1577Y2183D02*
X1618Y2183D01*
X1663Y2183D02*
X1703Y2183D01*
X1099Y2182D02*
X1139Y2182D01*
X1185Y2182D02*
X1225Y2182D01*
X1577Y2182D02*
X1617Y2182D01*
X1663Y2182D02*
X1704Y2182D01*
X1099Y2181D02*
X1139Y2181D01*
X1186Y2181D02*
X1226Y2181D01*
X1577Y2181D02*
X1617Y2181D01*
X1664Y2181D02*
X1704Y2181D01*
X1099Y2180D02*
X1138Y2180D01*
X1186Y2180D02*
X1226Y2180D01*
X1577Y2180D02*
X1616Y2180D01*
X1664Y2180D02*
X1704Y2180D01*
X1099Y2179D02*
X1138Y2179D01*
X1187Y2179D02*
X1226Y2179D01*
X1577Y2179D02*
X1616Y2179D01*
X1665Y2179D02*
X1704Y2179D01*
X1098Y2178D02*
X1137Y2178D01*
X1187Y2178D02*
X1226Y2178D01*
X1577Y2178D02*
X1616Y2178D01*
X1665Y2178D02*
X1704Y2178D01*
X1098Y2177D02*
X1137Y2177D01*
X1187Y2177D02*
X1226Y2177D01*
X1577Y2177D02*
X1615Y2177D01*
X1666Y2177D02*
X1704Y2177D01*
X1098Y2176D02*
X1137Y2176D01*
X1188Y2176D02*
X1226Y2176D01*
X1576Y2176D02*
X1615Y2176D01*
X1666Y2176D02*
X1705Y2176D01*
X1098Y2175D02*
X1136Y2175D01*
X1188Y2175D02*
X1226Y2175D01*
X1576Y2175D02*
X1615Y2175D01*
X1666Y2175D02*
X1705Y2175D01*
X1098Y2174D02*
X1136Y2174D01*
X1188Y2174D02*
X1226Y2174D01*
X1576Y2174D02*
X1615Y2174D01*
X1666Y2174D02*
X1705Y2174D01*
X1098Y2173D02*
X1136Y2173D01*
X1188Y2173D02*
X1226Y2173D01*
X1576Y2173D02*
X1615Y2173D01*
X1666Y2173D02*
X1705Y2173D01*
X1098Y2172D02*
X1136Y2172D01*
X1188Y2172D02*
X1226Y2172D01*
X1576Y2172D02*
X1614Y2172D01*
X1667Y2172D02*
X1705Y2172D01*
X1098Y2171D02*
X1136Y2171D01*
X1188Y2171D02*
X1227Y2171D01*
X1576Y2171D02*
X1614Y2171D01*
X1667Y2171D02*
X1705Y2171D01*
X1098Y2170D02*
X1136Y2170D01*
X1188Y2170D02*
X1227Y2170D01*
X1576Y2170D02*
X1614Y2170D01*
X1667Y2170D02*
X1705Y2170D01*
X1098Y2169D02*
X1136Y2169D01*
X1188Y2169D02*
X1227Y2169D01*
X1576Y2169D02*
X1614Y2169D01*
X1667Y2169D02*
X1705Y2169D01*
X1098Y2168D02*
X1136Y2168D01*
X1188Y2168D02*
X1227Y2168D01*
X1576Y2168D02*
X1614Y2168D01*
X1667Y2168D02*
X1705Y2168D01*
X1098Y2167D02*
X1136Y2167D01*
X1188Y2167D02*
X1226Y2167D01*
X1576Y2167D02*
X1614Y2167D01*
X1666Y2167D02*
X1705Y2167D01*
X1098Y2166D02*
X1136Y2166D01*
X1188Y2166D02*
X1226Y2166D01*
X1576Y2166D02*
X1615Y2166D01*
X1666Y2166D02*
X1705Y2166D01*
X1098Y2165D02*
X1136Y2165D01*
X1188Y2165D02*
X1226Y2165D01*
X1576Y2165D02*
X1615Y2165D01*
X1666Y2165D02*
X1705Y2165D01*
X1098Y2164D02*
X1137Y2164D01*
X1188Y2164D02*
X1226Y2164D01*
X1576Y2164D02*
X1615Y2164D01*
X1666Y2164D02*
X1705Y2164D01*
X1098Y2163D02*
X1137Y2163D01*
X1187Y2163D02*
X1226Y2163D01*
X1576Y2163D02*
X1615Y2163D01*
X1666Y2163D02*
X1704Y2163D01*
X1098Y2162D02*
X1137Y2162D01*
X1187Y2162D02*
X1226Y2162D01*
X1577Y2162D02*
X1616Y2162D01*
X1665Y2162D02*
X1704Y2162D01*
X1098Y2161D02*
X1138Y2161D01*
X1187Y2161D02*
X1226Y2161D01*
X1577Y2161D02*
X1616Y2161D01*
X1665Y2161D02*
X1704Y2161D01*
X1099Y2160D02*
X1138Y2160D01*
X1186Y2160D02*
X1226Y2160D01*
X1577Y2160D02*
X1616Y2160D01*
X1665Y2160D02*
X1704Y2160D01*
X1099Y2159D02*
X1139Y2159D01*
X1186Y2159D02*
X1226Y2159D01*
X1577Y2159D02*
X1617Y2159D01*
X1664Y2159D02*
X1704Y2159D01*
X1099Y2158D02*
X1139Y2158D01*
X1185Y2158D02*
X1225Y2158D01*
X1577Y2158D02*
X1617Y2158D01*
X1664Y2158D02*
X1704Y2158D01*
X1099Y2157D02*
X1140Y2157D01*
X1185Y2157D02*
X1225Y2157D01*
X1577Y2157D02*
X1618Y2157D01*
X1663Y2157D02*
X1704Y2157D01*
X1099Y2156D02*
X1140Y2156D01*
X1184Y2156D02*
X1225Y2156D01*
X1578Y2156D02*
X1618Y2156D01*
X1663Y2156D02*
X1703Y2156D01*
X1100Y2155D02*
X1141Y2155D01*
X1183Y2155D02*
X1225Y2155D01*
X1578Y2155D02*
X1619Y2155D01*
X1662Y2155D02*
X1703Y2155D01*
X1100Y2154D02*
X1142Y2154D01*
X1183Y2154D02*
X1224Y2154D01*
X1578Y2154D02*
X1620Y2154D01*
X1661Y2154D02*
X1703Y2154D01*
X1100Y2153D02*
X1143Y2153D01*
X1182Y2153D02*
X1224Y2153D01*
X1578Y2153D02*
X1621Y2153D01*
X1660Y2153D02*
X1703Y2153D01*
X1100Y2152D02*
X1143Y2152D01*
X1181Y2152D02*
X1224Y2152D01*
X1579Y2152D02*
X1622Y2152D01*
X1659Y2152D02*
X1702Y2152D01*
X1101Y2151D02*
X1145Y2151D01*
X1180Y2151D02*
X1224Y2151D01*
X1579Y2151D02*
X1623Y2151D01*
X1658Y2151D02*
X1702Y2151D01*
X1101Y2150D02*
X1146Y2150D01*
X1179Y2150D02*
X1223Y2150D01*
X1579Y2150D02*
X1624Y2150D01*
X1657Y2150D02*
X1702Y2150D01*
X1101Y2149D02*
X1147Y2149D01*
X1177Y2149D02*
X1223Y2149D01*
X1580Y2149D02*
X1625Y2149D01*
X1656Y2149D02*
X1701Y2149D01*
X1102Y2148D02*
X1148Y2148D01*
X1176Y2148D02*
X1223Y2148D01*
X1580Y2148D02*
X1627Y2148D01*
X1654Y2148D02*
X1701Y2148D01*
X1102Y2147D02*
X1150Y2147D01*
X1174Y2147D02*
X1222Y2147D01*
X1580Y2147D02*
X1629Y2147D01*
X1652Y2147D02*
X1701Y2147D01*
X1102Y2146D02*
X1153Y2146D01*
X1172Y2146D02*
X1222Y2146D01*
X1581Y2146D02*
X1631Y2146D01*
X1650Y2146D02*
X1700Y2146D01*
X636Y2145D02*
X721Y2145D01*
X1103Y2145D02*
X1156Y2145D01*
X1169Y2145D02*
X1222Y2145D01*
X1581Y2145D02*
X1634Y2145D01*
X1647Y2145D02*
X1700Y2145D01*
X628Y2144D02*
X633Y2144D01*
X637Y2144D02*
X735Y2144D01*
X1103Y2144D02*
X1221Y2144D01*
X1581Y2144D02*
X1700Y2144D01*
X626Y2143D02*
X634Y2143D01*
X639Y2143D02*
X737Y2143D01*
X1104Y2143D02*
X1221Y2143D01*
X1582Y2143D02*
X1699Y2143D01*
X625Y2142D02*
X635Y2142D01*
X640Y2142D02*
X738Y2142D01*
X1104Y2142D02*
X1220Y2142D01*
X1582Y2142D02*
X1699Y2142D01*
X624Y2141D02*
X636Y2141D01*
X641Y2141D02*
X739Y2141D01*
X1105Y2141D02*
X1220Y2141D01*
X1583Y2141D02*
X1698Y2141D01*
X623Y2140D02*
X637Y2140D01*
X642Y2140D02*
X740Y2140D01*
X1105Y2140D02*
X1219Y2140D01*
X1583Y2140D02*
X1698Y2140D01*
X622Y2139D02*
X638Y2139D01*
X643Y2139D02*
X741Y2139D01*
X1106Y2139D02*
X1219Y2139D01*
X1584Y2139D02*
X1697Y2139D01*
X622Y2138D02*
X639Y2138D01*
X643Y2138D02*
X741Y2138D01*
X1106Y2138D02*
X1218Y2138D01*
X1585Y2138D02*
X1696Y2138D01*
X621Y2137D02*
X640Y2137D01*
X644Y2137D02*
X742Y2137D01*
X1107Y2137D02*
X1218Y2137D01*
X1585Y2137D02*
X1696Y2137D01*
X621Y2136D02*
X641Y2136D01*
X644Y2136D02*
X742Y2136D01*
X1107Y2136D02*
X1217Y2136D01*
X1586Y2136D02*
X1695Y2136D01*
X621Y2135D02*
X642Y2135D01*
X644Y2135D02*
X742Y2135D01*
X1108Y2135D02*
X1216Y2135D01*
X1586Y2135D02*
X1695Y2135D01*
X621Y2134D02*
X642Y2134D01*
X645Y2134D02*
X742Y2134D01*
X1109Y2134D02*
X1216Y2134D01*
X1587Y2134D02*
X1694Y2134D01*
X621Y2133D02*
X643Y2133D01*
X645Y2133D02*
X742Y2133D01*
X1109Y2133D02*
X1215Y2133D01*
X1588Y2133D02*
X1693Y2133D01*
X621Y2132D02*
X643Y2132D01*
X645Y2132D02*
X742Y2132D01*
X1110Y2132D02*
X1214Y2132D01*
X1588Y2132D02*
X1693Y2132D01*
X621Y2131D02*
X742Y2131D01*
X1111Y2131D02*
X1213Y2131D01*
X1589Y2131D02*
X1692Y2131D01*
X621Y2130D02*
X742Y2130D01*
X1112Y2130D02*
X1213Y2130D01*
X1590Y2130D02*
X1691Y2130D01*
X621Y2129D02*
X742Y2129D01*
X1112Y2129D02*
X1212Y2129D01*
X1591Y2129D02*
X1690Y2129D01*
X622Y2128D02*
X642Y2128D01*
X644Y2128D02*
X741Y2128D01*
X1113Y2128D02*
X1211Y2128D01*
X1591Y2128D02*
X1689Y2128D01*
X622Y2127D02*
X640Y2127D01*
X643Y2127D02*
X741Y2127D01*
X1114Y2127D02*
X1210Y2127D01*
X1592Y2127D02*
X1689Y2127D01*
X623Y2126D02*
X639Y2126D01*
X642Y2126D02*
X740Y2126D01*
X1115Y2126D02*
X1209Y2126D01*
X1593Y2126D02*
X1688Y2126D01*
X624Y2125D02*
X636Y2125D01*
X642Y2125D02*
X739Y2125D01*
X1116Y2125D02*
X1209Y2125D01*
X1594Y2125D02*
X1687Y2125D01*
X625Y2124D02*
X633Y2124D01*
X641Y2124D02*
X738Y2124D01*
X1117Y2124D02*
X1208Y2124D01*
X1595Y2124D02*
X1686Y2124D01*
X626Y2123D02*
X630Y2123D01*
X639Y2123D02*
X737Y2123D01*
X1118Y2123D02*
X1206Y2123D01*
X1596Y2123D02*
X1685Y2123D01*
X638Y2122D02*
X735Y2122D01*
X1119Y2122D02*
X1205Y2122D01*
X1597Y2122D02*
X1684Y2122D01*
X1120Y2121D02*
X1204Y2121D01*
X1598Y2121D02*
X1683Y2121D01*
X1121Y2120D02*
X1203Y2120D01*
X1600Y2120D02*
X1681Y2120D01*
X1123Y2119D02*
X1202Y2119D01*
X1601Y2119D02*
X1680Y2119D01*
X1124Y2118D02*
X1200Y2118D01*
X1602Y2118D02*
X1679Y2118D01*
X1125Y2117D02*
X1199Y2117D01*
X1604Y2117D02*
X1677Y2117D01*
X1127Y2116D02*
X1198Y2116D01*
X1605Y2116D02*
X1676Y2116D01*
X1128Y2115D02*
X1196Y2115D01*
X1607Y2115D02*
X1674Y2115D01*
X1130Y2114D02*
X1194Y2114D01*
X1608Y2114D02*
X1673Y2114D01*
X1132Y2113D02*
X1193Y2113D01*
X1610Y2113D02*
X1671Y2113D01*
X1134Y2112D02*
X1191Y2112D01*
X1612Y2112D02*
X1669Y2112D01*
X1136Y2111D02*
X1189Y2111D01*
X1614Y2111D02*
X1667Y2111D01*
X1138Y2110D02*
X1187Y2110D01*
X1616Y2110D02*
X1665Y2110D01*
X1140Y2109D02*
X1184Y2109D01*
X1619Y2109D02*
X1662Y2109D01*
X1143Y2108D02*
X1181Y2108D01*
X1622Y2108D02*
X1659Y2108D01*
X1147Y2107D02*
X1177Y2107D01*
X1626Y2107D02*
X1655Y2107D01*
X1152Y2106D02*
X1172Y2106D01*
X1630Y2106D02*
X1651Y2106D01*
X1162Y2105D02*
X1162Y2105D01*
X778Y2095D02*
X783Y2095D01*
X776Y2094D02*
X786Y2094D01*
X774Y2093D02*
X787Y2093D01*
X773Y2092D02*
X788Y2092D01*
X772Y2091D02*
X789Y2091D01*
X771Y2090D02*
X790Y2090D01*
X771Y2089D02*
X791Y2089D01*
X770Y2088D02*
X791Y2088D01*
X770Y2087D02*
X791Y2087D01*
X769Y2086D02*
X792Y2086D01*
X769Y2085D02*
X792Y2085D01*
X769Y2084D02*
X792Y2084D01*
X769Y2083D02*
X792Y2083D01*
X769Y2082D02*
X792Y2082D01*
X769Y2081D02*
X792Y2081D01*
X769Y2080D02*
X792Y2080D01*
X769Y2079D02*
X792Y2079D01*
X769Y2078D02*
X792Y2078D01*
X769Y2077D02*
X792Y2077D01*
X769Y2076D02*
X792Y2076D01*
X769Y2075D02*
X792Y2075D01*
X769Y2074D02*
X792Y2074D01*
X769Y2073D02*
X792Y2073D01*
X769Y2072D02*
X792Y2072D01*
X769Y2071D02*
X792Y2071D01*
X769Y2070D02*
X792Y2070D01*
X769Y2069D02*
X792Y2069D01*
X769Y2068D02*
X792Y2068D01*
X769Y2067D02*
X792Y2067D01*
X769Y2066D02*
X792Y2066D01*
X769Y2065D02*
X792Y2065D01*
X769Y2064D02*
X792Y2064D01*
X769Y2063D02*
X792Y2063D01*
X769Y2062D02*
X792Y2062D01*
X769Y2061D02*
X792Y2061D01*
X770Y2060D02*
X793Y2060D01*
X770Y2059D02*
X793Y2059D01*
X770Y2058D02*
X793Y2058D01*
X770Y2057D02*
X793Y2057D01*
X770Y2056D02*
X793Y2056D01*
X770Y2055D02*
X793Y2055D01*
X770Y2054D02*
X793Y2054D01*
X770Y2053D02*
X793Y2053D01*
X770Y2052D02*
X793Y2052D01*
X770Y2051D02*
X793Y2051D01*
X770Y2050D02*
X793Y2050D01*
X770Y2049D02*
X793Y2049D01*
X770Y2048D02*
X793Y2048D01*
X770Y2047D02*
X793Y2047D01*
X770Y2046D02*
X793Y2046D01*
X770Y2045D02*
X793Y2045D01*
X770Y2044D02*
X793Y2044D01*
X770Y2043D02*
X793Y2043D01*
X770Y2042D02*
X793Y2042D01*
X770Y2041D02*
X793Y2041D01*
X770Y2040D02*
X793Y2040D01*
X770Y2039D02*
X793Y2039D01*
X770Y2038D02*
X793Y2038D01*
X770Y2037D02*
X793Y2037D01*
X770Y2036D02*
X793Y2036D01*
X770Y2035D02*
X793Y2035D01*
X770Y2034D02*
X793Y2034D01*
X770Y2033D02*
X793Y2033D01*
X770Y2032D02*
X793Y2032D01*
X770Y2031D02*
X793Y2031D01*
X771Y2030D02*
X792Y2030D01*
X771Y2029D02*
X792Y2029D01*
X772Y2028D02*
X791Y2028D01*
X772Y2027D02*
X791Y2027D01*
X773Y2026D02*
X790Y2026D01*
X774Y2025D02*
X789Y2025D01*
X775Y2024D02*
X788Y2024D01*
X777Y2023D02*
X786Y2023D01*
X780Y2022D02*
X783Y2022D01*
X1074Y1998D02*
X1089Y1998D01*
X1068Y1997D02*
X1095Y1997D01*
X1064Y1996D02*
X1099Y1996D01*
X1061Y1995D02*
X1102Y1995D01*
X1058Y1994D02*
X1105Y1994D01*
X1056Y1993D02*
X1107Y1993D01*
X1053Y1992D02*
X1109Y1992D01*
X1051Y1991D02*
X1111Y1991D01*
X1050Y1990D02*
X1113Y1990D01*
X1048Y1989D02*
X1115Y1989D01*
X1046Y1988D02*
X1116Y1988D01*
X1045Y1987D02*
X1118Y1987D01*
X1044Y1986D02*
X1119Y1986D01*
X1042Y1985D02*
X1121Y1985D01*
X1041Y1984D02*
X1122Y1984D01*
X1040Y1983D02*
X1123Y1983D01*
X1039Y1982D02*
X1124Y1982D01*
X1038Y1981D02*
X1125Y1981D01*
X1036Y1980D02*
X1127Y1980D01*
X1035Y1979D02*
X1127Y1979D01*
X1035Y1978D02*
X1128Y1978D01*
X1034Y1977D02*
X1129Y1977D01*
X1033Y1976D02*
X1130Y1976D01*
X1032Y1975D02*
X1131Y1975D01*
X1031Y1974D02*
X1132Y1974D01*
X1030Y1973D02*
X1133Y1973D01*
X1030Y1972D02*
X1133Y1972D01*
X1029Y1971D02*
X1134Y1971D01*
X1028Y1970D02*
X1135Y1970D01*
X1028Y1969D02*
X1135Y1969D01*
X1027Y1968D02*
X1136Y1968D01*
X1026Y1967D02*
X1137Y1967D01*
X1026Y1966D02*
X1137Y1966D01*
X1025Y1965D02*
X1138Y1965D01*
X1025Y1964D02*
X1138Y1964D01*
X1024Y1963D02*
X1139Y1963D01*
X1024Y1962D02*
X1139Y1962D01*
X1023Y1961D02*
X1140Y1961D01*
X1023Y1960D02*
X1140Y1960D01*
X1022Y1959D02*
X1076Y1959D01*
X1087Y1959D02*
X1141Y1959D01*
X1022Y1958D02*
X1073Y1958D01*
X1090Y1958D02*
X1141Y1958D01*
X1021Y1957D02*
X1070Y1957D01*
X1093Y1957D02*
X1142Y1957D01*
X1021Y1956D02*
X1068Y1956D01*
X1095Y1956D02*
X1142Y1956D01*
X1021Y1955D02*
X1067Y1955D01*
X1096Y1955D02*
X1142Y1955D01*
X1020Y1954D02*
X1065Y1954D01*
X1098Y1954D02*
X1143Y1954D01*
X1020Y1953D02*
X1064Y1953D01*
X1099Y1953D02*
X1143Y1953D01*
X1020Y1952D02*
X1063Y1952D01*
X1100Y1952D02*
X1143Y1952D01*
X1020Y1951D02*
X1062Y1951D01*
X1101Y1951D02*
X1143Y1951D01*
X1019Y1950D02*
X1061Y1950D01*
X1102Y1950D02*
X1144Y1950D01*
X1019Y1949D02*
X1060Y1949D01*
X1102Y1949D02*
X1144Y1949D01*
X1019Y1948D02*
X1060Y1948D01*
X1103Y1948D02*
X1144Y1948D01*
X1018Y1947D02*
X1059Y1947D01*
X1104Y1947D02*
X1144Y1947D01*
X1018Y1946D02*
X1059Y1946D01*
X1104Y1946D02*
X1145Y1946D01*
X1018Y1945D02*
X1058Y1945D01*
X1105Y1945D02*
X1145Y1945D01*
X1018Y1944D02*
X1058Y1944D01*
X1105Y1944D02*
X1145Y1944D01*
X1018Y1943D02*
X1057Y1943D01*
X1106Y1943D02*
X1145Y1943D01*
X1018Y1942D02*
X1057Y1942D01*
X1106Y1942D02*
X1145Y1942D01*
X1018Y1941D02*
X1056Y1941D01*
X1107Y1941D02*
X1145Y1941D01*
X1017Y1940D02*
X1056Y1940D01*
X1107Y1940D02*
X1146Y1940D01*
X1017Y1939D02*
X1056Y1939D01*
X1107Y1939D02*
X1146Y1939D01*
X1017Y1938D02*
X1056Y1938D01*
X1107Y1938D02*
X1146Y1938D01*
X1017Y1937D02*
X1056Y1937D01*
X1107Y1937D02*
X1146Y1937D01*
X1017Y1936D02*
X1055Y1936D01*
X1107Y1936D02*
X1146Y1936D01*
X1017Y1935D02*
X1055Y1935D01*
X1108Y1935D02*
X1146Y1935D01*
X1017Y1934D02*
X1055Y1934D01*
X1108Y1934D02*
X1146Y1934D01*
X1017Y1933D02*
X1055Y1933D01*
X1108Y1933D02*
X1146Y1933D01*
X1017Y1932D02*
X1055Y1932D01*
X1108Y1932D02*
X1146Y1932D01*
X1017Y1931D02*
X1055Y1931D01*
X1107Y1931D02*
X1146Y1931D01*
X1017Y1930D02*
X1056Y1930D01*
X1107Y1930D02*
X1146Y1930D01*
X1017Y1929D02*
X1056Y1929D01*
X1107Y1929D02*
X1146Y1929D01*
X1017Y1928D02*
X1056Y1928D01*
X1107Y1928D02*
X1146Y1928D01*
X1017Y1927D02*
X1056Y1927D01*
X1107Y1927D02*
X1146Y1927D01*
X1018Y1926D02*
X1057Y1926D01*
X1106Y1926D02*
X1145Y1926D01*
X1018Y1925D02*
X1057Y1925D01*
X1106Y1925D02*
X1145Y1925D01*
X1018Y1924D02*
X1057Y1924D01*
X1106Y1924D02*
X1145Y1924D01*
X1018Y1923D02*
X1058Y1923D01*
X1105Y1923D02*
X1145Y1923D01*
X1018Y1922D02*
X1058Y1922D01*
X1105Y1922D02*
X1145Y1922D01*
X1018Y1921D02*
X1059Y1921D01*
X1104Y1921D02*
X1145Y1921D01*
X1019Y1920D02*
X1059Y1920D01*
X1104Y1920D02*
X1144Y1920D01*
X1019Y1919D02*
X1060Y1919D01*
X1103Y1919D02*
X1144Y1919D01*
X1019Y1918D02*
X1061Y1918D01*
X1102Y1918D02*
X1144Y1918D01*
X1019Y1917D02*
X1062Y1917D01*
X1101Y1917D02*
X1144Y1917D01*
X1020Y1916D02*
X1063Y1916D01*
X1100Y1916D02*
X1143Y1916D01*
X1020Y1915D02*
X1064Y1915D01*
X1099Y1915D02*
X1143Y1915D01*
X1020Y1914D02*
X1065Y1914D01*
X1098Y1914D02*
X1143Y1914D01*
X1021Y1913D02*
X1066Y1913D01*
X1097Y1913D02*
X1142Y1913D01*
X1021Y1912D02*
X1067Y1912D01*
X1095Y1912D02*
X1142Y1912D01*
X1021Y1911D02*
X1069Y1911D01*
X1094Y1911D02*
X1142Y1911D01*
X1022Y1910D02*
X1071Y1910D01*
X1092Y1910D02*
X1141Y1910D01*
X1022Y1909D02*
X1074Y1909D01*
X1089Y1909D02*
X1141Y1909D01*
X1022Y1908D02*
X1141Y1908D01*
X1023Y1907D02*
X1140Y1907D01*
X1023Y1906D02*
X1140Y1906D01*
X1024Y1905D02*
X1139Y1905D01*
X1024Y1904D02*
X1139Y1904D01*
X1025Y1903D02*
X1138Y1903D01*
X1025Y1902D02*
X1138Y1902D01*
X1026Y1901D02*
X1137Y1901D01*
X1027Y1900D02*
X1136Y1900D01*
X1027Y1899D02*
X1136Y1899D01*
X1028Y1898D02*
X1135Y1898D01*
X1029Y1897D02*
X1134Y1897D01*
X1029Y1896D02*
X1134Y1896D01*
X1030Y1895D02*
X1133Y1895D01*
X1031Y1894D02*
X1132Y1894D01*
X1032Y1893D02*
X1131Y1893D01*
X1032Y1892D02*
X1131Y1892D01*
X1033Y1891D02*
X1130Y1891D01*
X1034Y1890D02*
X1129Y1890D01*
X1035Y1889D02*
X1128Y1889D01*
X1036Y1888D02*
X1127Y1888D01*
X1037Y1887D02*
X1126Y1887D01*
X1038Y1886D02*
X1125Y1886D01*
X1039Y1885D02*
X1124Y1885D01*
X1040Y1884D02*
X1123Y1884D01*
X1042Y1883D02*
X1121Y1883D01*
X1043Y1882D02*
X1120Y1882D01*
X1044Y1881D02*
X1119Y1881D01*
X1046Y1880D02*
X1117Y1880D01*
X1047Y1879D02*
X1116Y1879D01*
X1049Y1878D02*
X1114Y1878D01*
X1051Y1877D02*
X1112Y1877D01*
X1052Y1876D02*
X1111Y1876D01*
X1054Y1875D02*
X1108Y1875D01*
X1057Y1874D02*
X1106Y1874D01*
X1059Y1873D02*
X1104Y1873D01*
X1062Y1872D02*
X1101Y1872D01*
X1066Y1871D02*
X1097Y1871D01*
X1070Y1870D02*
X1093Y1870D01*
X1078Y1869D02*
X1085Y1869D01*
X872Y1799D02*
X880Y1799D01*
X870Y1798D02*
X882Y1798D01*
X869Y1797D02*
X883Y1797D01*
X868Y1796D02*
X884Y1796D01*
X867Y1795D02*
X885Y1795D01*
X866Y1794D02*
X886Y1794D01*
X866Y1793D02*
X886Y1793D01*
X865Y1792D02*
X887Y1792D01*
X865Y1791D02*
X887Y1791D01*
X865Y1790D02*
X887Y1790D01*
X865Y1789D02*
X887Y1789D01*
X864Y1788D02*
X887Y1788D01*
X864Y1787D02*
X887Y1787D01*
X864Y1786D02*
X887Y1786D01*
X864Y1785D02*
X887Y1785D01*
X864Y1784D02*
X887Y1784D01*
X864Y1783D02*
X887Y1783D01*
X864Y1782D02*
X887Y1782D01*
X864Y1781D02*
X887Y1781D01*
X864Y1780D02*
X887Y1780D01*
X864Y1779D02*
X887Y1779D01*
X864Y1778D02*
X887Y1778D01*
X864Y1777D02*
X887Y1777D01*
X864Y1776D02*
X887Y1776D01*
X864Y1775D02*
X887Y1775D01*
X864Y1774D02*
X887Y1774D01*
X864Y1773D02*
X887Y1773D01*
X864Y1772D02*
X887Y1772D01*
X864Y1771D02*
X887Y1771D01*
X864Y1770D02*
X887Y1770D01*
X864Y1769D02*
X887Y1769D01*
X864Y1768D02*
X887Y1768D01*
X864Y1767D02*
X887Y1767D01*
X864Y1766D02*
X887Y1766D01*
X864Y1765D02*
X887Y1765D01*
X864Y1764D02*
X887Y1764D01*
X864Y1763D02*
X887Y1763D01*
X864Y1762D02*
X887Y1762D01*
X1155Y1762D02*
X1169Y1762D01*
X1634Y1762D02*
X1647Y1762D01*
X864Y1761D02*
X887Y1761D01*
X1149Y1761D02*
X1175Y1761D01*
X1628Y1761D02*
X1653Y1761D01*
X864Y1760D02*
X887Y1760D01*
X1145Y1760D02*
X1179Y1760D01*
X1624Y1760D02*
X1657Y1760D01*
X864Y1759D02*
X887Y1759D01*
X1142Y1759D02*
X1182Y1759D01*
X1620Y1759D02*
X1661Y1759D01*
X863Y1758D02*
X887Y1758D01*
X1139Y1758D02*
X1185Y1758D01*
X1617Y1758D02*
X1664Y1758D01*
X863Y1757D02*
X886Y1757D01*
X1137Y1757D02*
X1188Y1757D01*
X1615Y1757D02*
X1666Y1757D01*
X863Y1756D02*
X886Y1756D01*
X1135Y1756D02*
X1190Y1756D01*
X1613Y1756D02*
X1668Y1756D01*
X863Y1755D02*
X886Y1755D01*
X1133Y1755D02*
X1192Y1755D01*
X1611Y1755D02*
X1670Y1755D01*
X863Y1754D02*
X886Y1754D01*
X1131Y1754D02*
X1194Y1754D01*
X1609Y1754D02*
X1672Y1754D01*
X863Y1753D02*
X886Y1753D01*
X1129Y1753D02*
X1195Y1753D01*
X1607Y1753D02*
X1674Y1753D01*
X863Y1752D02*
X886Y1752D01*
X1127Y1752D02*
X1197Y1752D01*
X1606Y1752D02*
X1675Y1752D01*
X863Y1751D02*
X886Y1751D01*
X1126Y1751D02*
X1198Y1751D01*
X1604Y1751D02*
X1677Y1751D01*
X863Y1750D02*
X886Y1750D01*
X1125Y1750D02*
X1200Y1750D01*
X1603Y1750D02*
X1678Y1750D01*
X863Y1749D02*
X886Y1749D01*
X1123Y1749D02*
X1201Y1749D01*
X1602Y1749D02*
X1679Y1749D01*
X863Y1748D02*
X886Y1748D01*
X1122Y1748D02*
X1202Y1748D01*
X1600Y1748D02*
X1681Y1748D01*
X863Y1747D02*
X886Y1747D01*
X1121Y1747D02*
X1204Y1747D01*
X1599Y1747D02*
X1682Y1747D01*
X863Y1746D02*
X886Y1746D01*
X1120Y1746D02*
X1205Y1746D01*
X1598Y1746D02*
X1683Y1746D01*
X863Y1745D02*
X886Y1745D01*
X1118Y1745D02*
X1206Y1745D01*
X1597Y1745D02*
X1684Y1745D01*
X863Y1744D02*
X886Y1744D01*
X1117Y1744D02*
X1207Y1744D01*
X1596Y1744D02*
X1685Y1744D01*
X863Y1743D02*
X886Y1743D01*
X1116Y1743D02*
X1208Y1743D01*
X1595Y1743D02*
X1686Y1743D01*
X863Y1742D02*
X886Y1742D01*
X1115Y1742D02*
X1209Y1742D01*
X1594Y1742D02*
X1687Y1742D01*
X863Y1741D02*
X886Y1741D01*
X1115Y1741D02*
X1210Y1741D01*
X1593Y1741D02*
X1688Y1741D01*
X863Y1740D02*
X886Y1740D01*
X1114Y1740D02*
X1211Y1740D01*
X1592Y1740D02*
X1689Y1740D01*
X863Y1739D02*
X886Y1739D01*
X1113Y1739D02*
X1212Y1739D01*
X1591Y1739D02*
X1690Y1739D01*
X863Y1738D02*
X886Y1738D01*
X1112Y1738D02*
X1212Y1738D01*
X1590Y1738D02*
X1691Y1738D01*
X863Y1737D02*
X886Y1737D01*
X1111Y1737D02*
X1213Y1737D01*
X1590Y1737D02*
X1691Y1737D01*
X863Y1736D02*
X886Y1736D01*
X1111Y1736D02*
X1214Y1736D01*
X1589Y1736D02*
X1692Y1736D01*
X863Y1735D02*
X886Y1735D01*
X1110Y1735D02*
X1215Y1735D01*
X1588Y1735D02*
X1693Y1735D01*
X863Y1734D02*
X886Y1734D01*
X1109Y1734D02*
X1215Y1734D01*
X1587Y1734D02*
X1694Y1734D01*
X863Y1733D02*
X886Y1733D01*
X1108Y1733D02*
X1216Y1733D01*
X1587Y1733D02*
X1694Y1733D01*
X863Y1732D02*
X886Y1732D01*
X1108Y1732D02*
X1217Y1732D01*
X1586Y1732D02*
X1695Y1732D01*
X863Y1731D02*
X886Y1731D01*
X1107Y1731D02*
X1217Y1731D01*
X1585Y1731D02*
X1695Y1731D01*
X863Y1730D02*
X886Y1730D01*
X1107Y1730D02*
X1218Y1730D01*
X1585Y1730D02*
X1696Y1730D01*
X863Y1729D02*
X886Y1729D01*
X1106Y1729D02*
X1218Y1729D01*
X1584Y1729D02*
X1697Y1729D01*
X863Y1728D02*
X886Y1728D01*
X1105Y1728D02*
X1219Y1728D01*
X1584Y1728D02*
X1697Y1728D01*
X863Y1727D02*
X886Y1727D01*
X1105Y1727D02*
X1219Y1727D01*
X1583Y1727D02*
X1698Y1727D01*
X863Y1726D02*
X885Y1726D01*
X1104Y1726D02*
X1220Y1726D01*
X1583Y1726D02*
X1698Y1726D01*
X863Y1725D02*
X885Y1725D01*
X1104Y1725D02*
X1220Y1725D01*
X1582Y1725D02*
X1699Y1725D01*
X863Y1724D02*
X885Y1724D01*
X1103Y1724D02*
X1221Y1724D01*
X1582Y1724D02*
X1699Y1724D01*
X863Y1723D02*
X885Y1723D01*
X1103Y1723D02*
X1158Y1723D01*
X1166Y1723D02*
X1221Y1723D01*
X1581Y1723D02*
X1637Y1723D01*
X1644Y1723D02*
X1700Y1723D01*
X863Y1722D02*
X885Y1722D01*
X1103Y1722D02*
X1154Y1722D01*
X1170Y1722D02*
X1222Y1722D01*
X1581Y1722D02*
X1632Y1722D01*
X1649Y1722D02*
X1700Y1722D01*
X864Y1721D02*
X884Y1721D01*
X1102Y1721D02*
X1151Y1721D01*
X1173Y1721D02*
X1222Y1721D01*
X1580Y1721D02*
X1630Y1721D01*
X1651Y1721D02*
X1700Y1721D01*
X864Y1720D02*
X884Y1720D01*
X1102Y1720D02*
X1150Y1720D01*
X1175Y1720D02*
X1223Y1720D01*
X1580Y1720D02*
X1628Y1720D01*
X1653Y1720D02*
X1701Y1720D01*
X865Y1719D02*
X883Y1719D01*
X1101Y1719D02*
X1148Y1719D01*
X1177Y1719D02*
X1223Y1719D01*
X1580Y1719D02*
X1626Y1719D01*
X1655Y1719D02*
X1701Y1719D01*
X866Y1718D02*
X882Y1718D01*
X1101Y1718D02*
X1146Y1718D01*
X1178Y1718D02*
X1223Y1718D01*
X1579Y1718D02*
X1625Y1718D01*
X1656Y1718D02*
X1702Y1718D01*
X867Y1717D02*
X881Y1717D01*
X1101Y1717D02*
X1145Y1717D01*
X1179Y1717D02*
X1224Y1717D01*
X1579Y1717D02*
X1623Y1717D01*
X1658Y1717D02*
X1702Y1717D01*
X868Y1716D02*
X880Y1716D01*
X1101Y1716D02*
X1144Y1716D01*
X1180Y1716D02*
X1224Y1716D01*
X1579Y1716D02*
X1622Y1716D01*
X1659Y1716D02*
X1702Y1716D01*
X871Y1715D02*
X878Y1715D01*
X1100Y1715D02*
X1143Y1715D01*
X1181Y1715D02*
X1224Y1715D01*
X1579Y1715D02*
X1621Y1715D01*
X1660Y1715D02*
X1702Y1715D01*
X1100Y1714D02*
X1142Y1714D01*
X1182Y1714D02*
X1224Y1714D01*
X1578Y1714D02*
X1620Y1714D01*
X1660Y1714D02*
X1703Y1714D01*
X1100Y1713D02*
X1141Y1713D01*
X1183Y1713D02*
X1225Y1713D01*
X1578Y1713D02*
X1620Y1713D01*
X1661Y1713D02*
X1703Y1713D01*
X1099Y1712D02*
X1140Y1712D01*
X1184Y1712D02*
X1225Y1712D01*
X1578Y1712D02*
X1619Y1712D01*
X1662Y1712D02*
X1703Y1712D01*
X1099Y1711D02*
X1140Y1711D01*
X1184Y1711D02*
X1225Y1711D01*
X1578Y1711D02*
X1618Y1711D01*
X1663Y1711D02*
X1703Y1711D01*
X1099Y1710D02*
X1139Y1710D01*
X1185Y1710D02*
X1225Y1710D01*
X1577Y1710D02*
X1618Y1710D01*
X1663Y1710D02*
X1704Y1710D01*
X1099Y1709D02*
X1139Y1709D01*
X1185Y1709D02*
X1225Y1709D01*
X1577Y1709D02*
X1617Y1709D01*
X1664Y1709D02*
X1704Y1709D01*
X1099Y1708D02*
X1138Y1708D01*
X1186Y1708D02*
X1226Y1708D01*
X1577Y1708D02*
X1617Y1708D01*
X1664Y1708D02*
X1704Y1708D01*
X1099Y1707D02*
X1138Y1707D01*
X1186Y1707D02*
X1226Y1707D01*
X1577Y1707D02*
X1616Y1707D01*
X1665Y1707D02*
X1704Y1707D01*
X1098Y1706D02*
X1138Y1706D01*
X1187Y1706D02*
X1226Y1706D01*
X1577Y1706D02*
X1616Y1706D01*
X1665Y1706D02*
X1704Y1706D01*
X1098Y1705D02*
X1137Y1705D01*
X1187Y1705D02*
X1226Y1705D01*
X1577Y1705D02*
X1615Y1705D01*
X1666Y1705D02*
X1704Y1705D01*
X1098Y1704D02*
X1137Y1704D01*
X1188Y1704D02*
X1226Y1704D01*
X1576Y1704D02*
X1615Y1704D01*
X1666Y1704D02*
X1705Y1704D01*
X1098Y1703D02*
X1137Y1703D01*
X1188Y1703D02*
X1226Y1703D01*
X1576Y1703D02*
X1615Y1703D01*
X1666Y1703D02*
X1705Y1703D01*
X1098Y1702D02*
X1136Y1702D01*
X1188Y1702D02*
X1226Y1702D01*
X1576Y1702D02*
X1615Y1702D01*
X1666Y1702D02*
X1705Y1702D01*
X1098Y1701D02*
X1136Y1701D01*
X1188Y1701D02*
X1226Y1701D01*
X1576Y1701D02*
X1615Y1701D01*
X1666Y1701D02*
X1705Y1701D01*
X1098Y1700D02*
X1136Y1700D01*
X1188Y1700D02*
X1226Y1700D01*
X1576Y1700D02*
X1614Y1700D01*
X1667Y1700D02*
X1705Y1700D01*
X1098Y1699D02*
X1136Y1699D01*
X1188Y1699D02*
X1227Y1699D01*
X1576Y1699D02*
X1614Y1699D01*
X1667Y1699D02*
X1705Y1699D01*
X1098Y1698D02*
X1136Y1698D01*
X1188Y1698D02*
X1227Y1698D01*
X1576Y1698D02*
X1614Y1698D01*
X1667Y1698D02*
X1705Y1698D01*
X1098Y1697D02*
X1136Y1697D01*
X1188Y1697D02*
X1227Y1697D01*
X1576Y1697D02*
X1614Y1697D01*
X1667Y1697D02*
X1705Y1697D01*
X1098Y1696D02*
X1136Y1696D01*
X1188Y1696D02*
X1227Y1696D01*
X1576Y1696D02*
X1614Y1696D01*
X1667Y1696D02*
X1705Y1696D01*
X1098Y1695D02*
X1136Y1695D01*
X1188Y1695D02*
X1226Y1695D01*
X1576Y1695D02*
X1614Y1695D01*
X1666Y1695D02*
X1705Y1695D01*
X1098Y1694D02*
X1136Y1694D01*
X1188Y1694D02*
X1226Y1694D01*
X1576Y1694D02*
X1615Y1694D01*
X1666Y1694D02*
X1705Y1694D01*
X1098Y1693D02*
X1136Y1693D01*
X1188Y1693D02*
X1226Y1693D01*
X1576Y1693D02*
X1615Y1693D01*
X1666Y1693D02*
X1705Y1693D01*
X1098Y1692D02*
X1137Y1692D01*
X1188Y1692D02*
X1226Y1692D01*
X1576Y1692D02*
X1615Y1692D01*
X1666Y1692D02*
X1705Y1692D01*
X1098Y1691D02*
X1137Y1691D01*
X1187Y1691D02*
X1226Y1691D01*
X1576Y1691D02*
X1615Y1691D01*
X1666Y1691D02*
X1705Y1691D01*
X1098Y1690D02*
X1137Y1690D01*
X1187Y1690D02*
X1226Y1690D01*
X1577Y1690D02*
X1615Y1690D01*
X1665Y1690D02*
X1704Y1690D01*
X1098Y1689D02*
X1138Y1689D01*
X1187Y1689D02*
X1226Y1689D01*
X1577Y1689D02*
X1616Y1689D01*
X1665Y1689D02*
X1704Y1689D01*
X1099Y1688D02*
X1138Y1688D01*
X1186Y1688D02*
X1226Y1688D01*
X1577Y1688D02*
X1616Y1688D01*
X1665Y1688D02*
X1704Y1688D01*
X1099Y1687D02*
X1138Y1687D01*
X1186Y1687D02*
X1226Y1687D01*
X1577Y1687D02*
X1617Y1687D01*
X1664Y1687D02*
X1704Y1687D01*
X1099Y1686D02*
X1139Y1686D01*
X1185Y1686D02*
X1225Y1686D01*
X1577Y1686D02*
X1617Y1686D01*
X1664Y1686D02*
X1704Y1686D01*
X1099Y1685D02*
X1139Y1685D01*
X1185Y1685D02*
X1225Y1685D01*
X1577Y1685D02*
X1618Y1685D01*
X1663Y1685D02*
X1704Y1685D01*
X1099Y1684D02*
X1140Y1684D01*
X1184Y1684D02*
X1225Y1684D01*
X1578Y1684D02*
X1618Y1684D01*
X1663Y1684D02*
X1703Y1684D01*
X1100Y1683D02*
X1141Y1683D01*
X1184Y1683D02*
X1225Y1683D01*
X1578Y1683D02*
X1619Y1683D01*
X1662Y1683D02*
X1703Y1683D01*
X1100Y1682D02*
X1141Y1682D01*
X1183Y1682D02*
X1225Y1682D01*
X1578Y1682D02*
X1620Y1682D01*
X1661Y1682D02*
X1703Y1682D01*
X1100Y1681D02*
X1142Y1681D01*
X1182Y1681D02*
X1224Y1681D01*
X1578Y1681D02*
X1621Y1681D01*
X1660Y1681D02*
X1703Y1681D01*
X1100Y1680D02*
X1143Y1680D01*
X1181Y1680D02*
X1224Y1680D01*
X1579Y1680D02*
X1621Y1680D01*
X1660Y1680D02*
X1702Y1680D01*
X1101Y1679D02*
X1144Y1679D01*
X1180Y1679D02*
X1224Y1679D01*
X1579Y1679D02*
X1622Y1679D01*
X1659Y1679D02*
X1702Y1679D01*
X1101Y1678D02*
X1145Y1678D01*
X1179Y1678D02*
X1224Y1678D01*
X1579Y1678D02*
X1624Y1678D01*
X1657Y1678D02*
X1702Y1678D01*
X1101Y1677D02*
X1146Y1677D01*
X1178Y1677D02*
X1223Y1677D01*
X1579Y1677D02*
X1625Y1677D01*
X1656Y1677D02*
X1702Y1677D01*
X1102Y1676D02*
X1148Y1676D01*
X1177Y1676D02*
X1223Y1676D01*
X1580Y1676D02*
X1626Y1676D01*
X1655Y1676D02*
X1701Y1676D01*
X1102Y1675D02*
X1150Y1675D01*
X1175Y1675D02*
X1222Y1675D01*
X1580Y1675D02*
X1628Y1675D01*
X1653Y1675D02*
X1701Y1675D01*
X1102Y1674D02*
X1152Y1674D01*
X1173Y1674D02*
X1222Y1674D01*
X1581Y1674D02*
X1630Y1674D01*
X1651Y1674D02*
X1700Y1674D01*
X1103Y1673D02*
X1154Y1673D01*
X1170Y1673D02*
X1222Y1673D01*
X1581Y1673D02*
X1633Y1673D01*
X1648Y1673D02*
X1700Y1673D01*
X1103Y1672D02*
X1161Y1672D01*
X1164Y1672D02*
X1221Y1672D01*
X1581Y1672D02*
X1639Y1672D01*
X1642Y1672D02*
X1700Y1672D01*
X1103Y1671D02*
X1221Y1671D01*
X1582Y1671D02*
X1699Y1671D01*
X1104Y1670D02*
X1220Y1670D01*
X1582Y1670D02*
X1699Y1670D01*
X1104Y1669D02*
X1220Y1669D01*
X1583Y1669D02*
X1698Y1669D01*
X1105Y1668D02*
X1219Y1668D01*
X1583Y1668D02*
X1698Y1668D01*
X1105Y1667D02*
X1219Y1667D01*
X1584Y1667D02*
X1697Y1667D01*
X1106Y1666D02*
X1218Y1666D01*
X1584Y1666D02*
X1697Y1666D01*
X1107Y1665D02*
X1218Y1665D01*
X1585Y1665D02*
X1696Y1665D01*
X1107Y1664D02*
X1217Y1664D01*
X1586Y1664D02*
X1695Y1664D01*
X1108Y1663D02*
X1217Y1663D01*
X1586Y1663D02*
X1695Y1663D01*
X1108Y1662D02*
X1216Y1662D01*
X1587Y1662D02*
X1694Y1662D01*
X1109Y1661D02*
X1215Y1661D01*
X1587Y1661D02*
X1694Y1661D01*
X1110Y1660D02*
X1215Y1660D01*
X1588Y1660D02*
X1693Y1660D01*
X1111Y1659D02*
X1214Y1659D01*
X1589Y1659D02*
X1692Y1659D01*
X1111Y1658D02*
X1213Y1658D01*
X1590Y1658D02*
X1691Y1658D01*
X1112Y1657D02*
X1212Y1657D01*
X1590Y1657D02*
X1691Y1657D01*
X1113Y1656D02*
X1212Y1656D01*
X1591Y1656D02*
X1690Y1656D01*
X1114Y1655D02*
X1211Y1655D01*
X1592Y1655D02*
X1689Y1655D01*
X1115Y1654D02*
X1210Y1654D01*
X1593Y1654D02*
X1688Y1654D01*
X1116Y1653D02*
X1209Y1653D01*
X1594Y1653D02*
X1687Y1653D01*
X1116Y1652D02*
X1208Y1652D01*
X1595Y1652D02*
X1686Y1652D01*
X1117Y1651D02*
X1207Y1651D01*
X1596Y1651D02*
X1685Y1651D01*
X1119Y1650D02*
X1206Y1650D01*
X1597Y1650D02*
X1684Y1650D01*
X1120Y1649D02*
X1205Y1649D01*
X1598Y1649D02*
X1683Y1649D01*
X1121Y1648D02*
X1204Y1648D01*
X1599Y1648D02*
X1682Y1648D01*
X1122Y1647D02*
X1202Y1647D01*
X1600Y1647D02*
X1681Y1647D01*
X1123Y1646D02*
X1201Y1646D01*
X1602Y1646D02*
X1679Y1646D01*
X1125Y1645D02*
X1200Y1645D01*
X1603Y1645D02*
X1678Y1645D01*
X1126Y1644D02*
X1198Y1644D01*
X1604Y1644D02*
X1677Y1644D01*
X1128Y1643D02*
X1197Y1643D01*
X1606Y1643D02*
X1675Y1643D01*
X1129Y1642D02*
X1195Y1642D01*
X1608Y1642D02*
X1673Y1642D01*
X1131Y1641D02*
X1193Y1641D01*
X1609Y1641D02*
X1672Y1641D01*
X1133Y1640D02*
X1192Y1640D01*
X1611Y1640D02*
X1670Y1640D01*
X1135Y1639D02*
X1190Y1639D01*
X1613Y1639D02*
X1668Y1639D01*
X1137Y1638D02*
X1188Y1638D01*
X1615Y1638D02*
X1666Y1638D01*
X1139Y1637D02*
X1185Y1637D01*
X1618Y1637D02*
X1663Y1637D01*
X1142Y1636D02*
X1182Y1636D01*
X1621Y1636D02*
X1660Y1636D01*
X1146Y1635D02*
X1179Y1635D01*
X1624Y1635D02*
X1657Y1635D01*
X1150Y1634D02*
X1175Y1634D01*
X1628Y1634D02*
X1653Y1634D01*
X1156Y1633D02*
X1168Y1633D01*
X1634Y1633D02*
X1647Y1633D01*
X912Y1459D02*
X957Y1459D01*
X990Y1459D02*
X1036Y1459D01*
X1069Y1459D02*
X1115Y1459D01*
X1148Y1459D02*
X1193Y1459D01*
X1226Y1459D02*
X1272Y1459D01*
X1305Y1459D02*
X1351Y1459D01*
X911Y1458D02*
X957Y1458D01*
X990Y1458D02*
X1036Y1458D01*
X1069Y1458D02*
X1115Y1458D01*
X1147Y1458D02*
X1194Y1458D01*
X1226Y1458D02*
X1272Y1458D01*
X1305Y1458D02*
X1351Y1458D01*
X911Y1457D02*
X957Y1457D01*
X990Y1457D02*
X1036Y1457D01*
X1069Y1457D02*
X1115Y1457D01*
X1147Y1457D02*
X1194Y1457D01*
X1226Y1457D02*
X1272Y1457D01*
X1305Y1457D02*
X1351Y1457D01*
X911Y1456D02*
X957Y1456D01*
X990Y1456D02*
X1036Y1456D01*
X1069Y1456D02*
X1115Y1456D01*
X1147Y1456D02*
X1194Y1456D01*
X1226Y1456D02*
X1272Y1456D01*
X1305Y1456D02*
X1351Y1456D01*
X911Y1455D02*
X957Y1455D01*
X990Y1455D02*
X1036Y1455D01*
X1069Y1455D02*
X1115Y1455D01*
X1147Y1455D02*
X1194Y1455D01*
X1226Y1455D02*
X1272Y1455D01*
X1305Y1455D02*
X1351Y1455D01*
X911Y1454D02*
X957Y1454D01*
X990Y1454D02*
X1036Y1454D01*
X1069Y1454D02*
X1115Y1454D01*
X1147Y1454D02*
X1194Y1454D01*
X1226Y1454D02*
X1272Y1454D01*
X1305Y1454D02*
X1351Y1454D01*
X911Y1453D02*
X957Y1453D01*
X990Y1453D02*
X1036Y1453D01*
X1069Y1453D02*
X1115Y1453D01*
X1147Y1453D02*
X1194Y1453D01*
X1226Y1453D02*
X1272Y1453D01*
X1305Y1453D02*
X1351Y1453D01*
X911Y1452D02*
X957Y1452D01*
X990Y1452D02*
X1036Y1452D01*
X1069Y1452D02*
X1115Y1452D01*
X1147Y1452D02*
X1194Y1452D01*
X1226Y1452D02*
X1272Y1452D01*
X1305Y1452D02*
X1351Y1452D01*
X911Y1451D02*
X957Y1451D01*
X990Y1451D02*
X1036Y1451D01*
X1069Y1451D02*
X1115Y1451D01*
X1147Y1451D02*
X1194Y1451D01*
X1226Y1451D02*
X1272Y1451D01*
X1305Y1451D02*
X1351Y1451D01*
X911Y1450D02*
X957Y1450D01*
X990Y1450D02*
X1036Y1450D01*
X1069Y1450D02*
X1115Y1450D01*
X1147Y1450D02*
X1194Y1450D01*
X1226Y1450D02*
X1272Y1450D01*
X1305Y1450D02*
X1351Y1450D01*
X911Y1449D02*
X957Y1449D01*
X990Y1449D02*
X1036Y1449D01*
X1069Y1449D02*
X1115Y1449D01*
X1147Y1449D02*
X1194Y1449D01*
X1226Y1449D02*
X1272Y1449D01*
X1305Y1449D02*
X1351Y1449D01*
X911Y1448D02*
X957Y1448D01*
X990Y1448D02*
X1036Y1448D01*
X1069Y1448D02*
X1115Y1448D01*
X1147Y1448D02*
X1194Y1448D01*
X1226Y1448D02*
X1272Y1448D01*
X1305Y1448D02*
X1351Y1448D01*
X911Y1447D02*
X957Y1447D01*
X990Y1447D02*
X1036Y1447D01*
X1069Y1447D02*
X1115Y1447D01*
X1147Y1447D02*
X1194Y1447D01*
X1226Y1447D02*
X1272Y1447D01*
X1305Y1447D02*
X1351Y1447D01*
X911Y1446D02*
X957Y1446D01*
X990Y1446D02*
X1036Y1446D01*
X1069Y1446D02*
X1115Y1446D01*
X1147Y1446D02*
X1194Y1446D01*
X1226Y1446D02*
X1272Y1446D01*
X1305Y1446D02*
X1351Y1446D01*
X911Y1445D02*
X957Y1445D01*
X990Y1445D02*
X1036Y1445D01*
X1069Y1445D02*
X1115Y1445D01*
X1147Y1445D02*
X1194Y1445D01*
X1226Y1445D02*
X1272Y1445D01*
X1305Y1445D02*
X1351Y1445D01*
X911Y1444D02*
X957Y1444D01*
X990Y1444D02*
X1036Y1444D01*
X1069Y1444D02*
X1115Y1444D01*
X1147Y1444D02*
X1194Y1444D01*
X1226Y1444D02*
X1272Y1444D01*
X1305Y1444D02*
X1351Y1444D01*
X911Y1443D02*
X957Y1443D01*
X990Y1443D02*
X1036Y1443D01*
X1069Y1443D02*
X1115Y1443D01*
X1147Y1443D02*
X1194Y1443D01*
X1226Y1443D02*
X1272Y1443D01*
X1305Y1443D02*
X1351Y1443D01*
X911Y1442D02*
X957Y1442D01*
X990Y1442D02*
X1036Y1442D01*
X1069Y1442D02*
X1115Y1442D01*
X1147Y1442D02*
X1194Y1442D01*
X1226Y1442D02*
X1272Y1442D01*
X1305Y1442D02*
X1351Y1442D01*
X911Y1441D02*
X957Y1441D01*
X990Y1441D02*
X1036Y1441D01*
X1069Y1441D02*
X1115Y1441D01*
X1147Y1441D02*
X1194Y1441D01*
X1226Y1441D02*
X1272Y1441D01*
X1305Y1441D02*
X1351Y1441D01*
X911Y1440D02*
X957Y1440D01*
X990Y1440D02*
X1036Y1440D01*
X1069Y1440D02*
X1115Y1440D01*
X1147Y1440D02*
X1194Y1440D01*
X1226Y1440D02*
X1272Y1440D01*
X1305Y1440D02*
X1351Y1440D01*
X911Y1439D02*
X957Y1439D01*
X990Y1439D02*
X1036Y1439D01*
X1069Y1439D02*
X1115Y1439D01*
X1147Y1439D02*
X1194Y1439D01*
X1226Y1439D02*
X1272Y1439D01*
X1305Y1439D02*
X1351Y1439D01*
X911Y1438D02*
X957Y1438D01*
X990Y1438D02*
X1036Y1438D01*
X1069Y1438D02*
X1115Y1438D01*
X1147Y1438D02*
X1194Y1438D01*
X1226Y1438D02*
X1272Y1438D01*
X1305Y1438D02*
X1351Y1438D01*
X911Y1437D02*
X957Y1437D01*
X990Y1437D02*
X1036Y1437D01*
X1069Y1437D02*
X1115Y1437D01*
X1147Y1437D02*
X1194Y1437D01*
X1226Y1437D02*
X1272Y1437D01*
X1305Y1437D02*
X1351Y1437D01*
X911Y1436D02*
X957Y1436D01*
X990Y1436D02*
X1036Y1436D01*
X1069Y1436D02*
X1115Y1436D01*
X1147Y1436D02*
X1194Y1436D01*
X1226Y1436D02*
X1272Y1436D01*
X1305Y1436D02*
X1351Y1436D01*
X911Y1435D02*
X957Y1435D01*
X990Y1435D02*
X1036Y1435D01*
X1069Y1435D02*
X1115Y1435D01*
X1147Y1435D02*
X1194Y1435D01*
X1226Y1435D02*
X1272Y1435D01*
X1305Y1435D02*
X1351Y1435D01*
X911Y1434D02*
X957Y1434D01*
X990Y1434D02*
X1036Y1434D01*
X1069Y1434D02*
X1115Y1434D01*
X1147Y1434D02*
X1194Y1434D01*
X1226Y1434D02*
X1272Y1434D01*
X1305Y1434D02*
X1351Y1434D01*
X911Y1433D02*
X957Y1433D01*
X990Y1433D02*
X1036Y1433D01*
X1069Y1433D02*
X1115Y1433D01*
X1147Y1433D02*
X1194Y1433D01*
X1226Y1433D02*
X1272Y1433D01*
X1305Y1433D02*
X1351Y1433D01*
X911Y1432D02*
X957Y1432D01*
X990Y1432D02*
X1036Y1432D01*
X1069Y1432D02*
X1115Y1432D01*
X1147Y1432D02*
X1194Y1432D01*
X1226Y1432D02*
X1272Y1432D01*
X1305Y1432D02*
X1351Y1432D01*
X911Y1431D02*
X957Y1431D01*
X990Y1431D02*
X1036Y1431D01*
X1069Y1431D02*
X1115Y1431D01*
X1147Y1431D02*
X1194Y1431D01*
X1226Y1431D02*
X1272Y1431D01*
X1305Y1431D02*
X1351Y1431D01*
X911Y1430D02*
X957Y1430D01*
X990Y1430D02*
X1036Y1430D01*
X1069Y1430D02*
X1115Y1430D01*
X1147Y1430D02*
X1194Y1430D01*
X1226Y1430D02*
X1272Y1430D01*
X1305Y1430D02*
X1351Y1430D01*
X911Y1429D02*
X957Y1429D01*
X990Y1429D02*
X1036Y1429D01*
X1069Y1429D02*
X1115Y1429D01*
X1147Y1429D02*
X1194Y1429D01*
X1226Y1429D02*
X1272Y1429D01*
X1305Y1429D02*
X1351Y1429D01*
X911Y1428D02*
X957Y1428D01*
X990Y1428D02*
X1036Y1428D01*
X1069Y1428D02*
X1115Y1428D01*
X1147Y1428D02*
X1194Y1428D01*
X1226Y1428D02*
X1272Y1428D01*
X1305Y1428D02*
X1351Y1428D01*
X911Y1427D02*
X957Y1427D01*
X990Y1427D02*
X1036Y1427D01*
X1069Y1427D02*
X1115Y1427D01*
X1147Y1427D02*
X1194Y1427D01*
X1226Y1427D02*
X1272Y1427D01*
X1305Y1427D02*
X1351Y1427D01*
X911Y1426D02*
X957Y1426D01*
X990Y1426D02*
X1036Y1426D01*
X1069Y1426D02*
X1115Y1426D01*
X1147Y1426D02*
X1194Y1426D01*
X1226Y1426D02*
X1272Y1426D01*
X1305Y1426D02*
X1351Y1426D01*
X911Y1425D02*
X957Y1425D01*
X990Y1425D02*
X1036Y1425D01*
X1069Y1425D02*
X1115Y1425D01*
X1147Y1425D02*
X1194Y1425D01*
X1226Y1425D02*
X1272Y1425D01*
X1305Y1425D02*
X1351Y1425D01*
X911Y1424D02*
X957Y1424D01*
X990Y1424D02*
X1036Y1424D01*
X1069Y1424D02*
X1115Y1424D01*
X1147Y1424D02*
X1194Y1424D01*
X1226Y1424D02*
X1272Y1424D01*
X1305Y1424D02*
X1351Y1424D01*
X911Y1423D02*
X957Y1423D01*
X990Y1423D02*
X1036Y1423D01*
X1069Y1423D02*
X1115Y1423D01*
X1147Y1423D02*
X1194Y1423D01*
X1226Y1423D02*
X1272Y1423D01*
X1305Y1423D02*
X1351Y1423D01*
X911Y1422D02*
X957Y1422D01*
X990Y1422D02*
X1036Y1422D01*
X1069Y1422D02*
X1115Y1422D01*
X1147Y1422D02*
X1194Y1422D01*
X1226Y1422D02*
X1272Y1422D01*
X1305Y1422D02*
X1351Y1422D01*
X911Y1421D02*
X957Y1421D01*
X990Y1421D02*
X1036Y1421D01*
X1069Y1421D02*
X1115Y1421D01*
X1147Y1421D02*
X1194Y1421D01*
X1226Y1421D02*
X1272Y1421D01*
X1305Y1421D02*
X1351Y1421D01*
X911Y1420D02*
X957Y1420D01*
X990Y1420D02*
X1036Y1420D01*
X1069Y1420D02*
X1115Y1420D01*
X1147Y1420D02*
X1194Y1420D01*
X1226Y1420D02*
X1272Y1420D01*
X1305Y1420D02*
X1351Y1420D01*
X911Y1419D02*
X957Y1419D01*
X990Y1419D02*
X1036Y1419D01*
X1069Y1419D02*
X1115Y1419D01*
X1147Y1419D02*
X1194Y1419D01*
X1226Y1419D02*
X1272Y1419D01*
X1305Y1419D02*
X1351Y1419D01*
X911Y1418D02*
X957Y1418D01*
X990Y1418D02*
X1036Y1418D01*
X1069Y1418D02*
X1115Y1418D01*
X1147Y1418D02*
X1194Y1418D01*
X1226Y1418D02*
X1272Y1418D01*
X1305Y1418D02*
X1351Y1418D01*
X911Y1417D02*
X957Y1417D01*
X990Y1417D02*
X1036Y1417D01*
X1069Y1417D02*
X1115Y1417D01*
X1147Y1417D02*
X1194Y1417D01*
X1226Y1417D02*
X1272Y1417D01*
X1305Y1417D02*
X1351Y1417D01*
X911Y1416D02*
X957Y1416D01*
X990Y1416D02*
X1036Y1416D01*
X1069Y1416D02*
X1115Y1416D01*
X1147Y1416D02*
X1194Y1416D01*
X1226Y1416D02*
X1272Y1416D01*
X1305Y1416D02*
X1351Y1416D01*
X911Y1415D02*
X957Y1415D01*
X990Y1415D02*
X1036Y1415D01*
X1069Y1415D02*
X1115Y1415D01*
X1147Y1415D02*
X1194Y1415D01*
X1226Y1415D02*
X1272Y1415D01*
X1305Y1415D02*
X1351Y1415D01*
X911Y1414D02*
X957Y1414D01*
X990Y1414D02*
X1036Y1414D01*
X1069Y1414D02*
X1115Y1414D01*
X1147Y1414D02*
X1194Y1414D01*
X1226Y1414D02*
X1272Y1414D01*
X1305Y1414D02*
X1351Y1414D01*
X911Y1413D02*
X957Y1413D01*
X990Y1413D02*
X1036Y1413D01*
X1069Y1413D02*
X1115Y1413D01*
X1147Y1413D02*
X1194Y1413D01*
X1226Y1413D02*
X1272Y1413D01*
X1305Y1413D02*
X1351Y1413D01*
X911Y1412D02*
X957Y1412D01*
X990Y1412D02*
X1036Y1412D01*
X1069Y1412D02*
X1115Y1412D01*
X1147Y1412D02*
X1194Y1412D01*
X1226Y1412D02*
X1272Y1412D01*
X1305Y1412D02*
X1351Y1412D01*
X911Y1411D02*
X957Y1411D01*
X990Y1411D02*
X1036Y1411D01*
X1069Y1411D02*
X1115Y1411D01*
X1147Y1411D02*
X1194Y1411D01*
X1226Y1411D02*
X1272Y1411D01*
X1305Y1411D02*
X1351Y1411D01*
X911Y1410D02*
X957Y1410D01*
X990Y1410D02*
X1036Y1410D01*
X1069Y1410D02*
X1115Y1410D01*
X1147Y1410D02*
X1194Y1410D01*
X1226Y1410D02*
X1272Y1410D01*
X1305Y1410D02*
X1351Y1410D01*
X911Y1409D02*
X957Y1409D01*
X990Y1409D02*
X1036Y1409D01*
X1069Y1409D02*
X1115Y1409D01*
X1147Y1409D02*
X1194Y1409D01*
X1226Y1409D02*
X1272Y1409D01*
X1305Y1409D02*
X1351Y1409D01*
X911Y1408D02*
X957Y1408D01*
X990Y1408D02*
X1036Y1408D01*
X1069Y1408D02*
X1115Y1408D01*
X1147Y1408D02*
X1194Y1408D01*
X1226Y1408D02*
X1272Y1408D01*
X1305Y1408D02*
X1351Y1408D01*
X788Y1407D02*
X875Y1407D01*
X1388Y1407D02*
X1475Y1407D01*
X788Y1406D02*
X875Y1406D01*
X1388Y1406D02*
X1475Y1406D01*
X788Y1405D02*
X875Y1405D01*
X1388Y1405D02*
X1475Y1405D01*
X788Y1404D02*
X875Y1404D01*
X1388Y1404D02*
X1475Y1404D01*
X788Y1403D02*
X875Y1403D01*
X1388Y1403D02*
X1475Y1403D01*
X788Y1402D02*
X875Y1402D01*
X1388Y1402D02*
X1475Y1402D01*
X788Y1401D02*
X875Y1401D01*
X1388Y1401D02*
X1475Y1401D01*
X788Y1400D02*
X875Y1400D01*
X1388Y1400D02*
X1475Y1400D01*
X788Y1399D02*
X875Y1399D01*
X1388Y1399D02*
X1475Y1399D01*
X788Y1398D02*
X875Y1398D01*
X1388Y1398D02*
X1475Y1398D01*
X788Y1397D02*
X875Y1397D01*
X1388Y1397D02*
X1475Y1397D01*
X788Y1396D02*
X875Y1396D01*
X1388Y1396D02*
X1475Y1396D01*
X788Y1395D02*
X850Y1395D01*
X861Y1395D02*
X875Y1395D01*
X1388Y1395D02*
X1403Y1395D01*
X1413Y1395D02*
X1475Y1395D01*
X788Y1394D02*
X848Y1394D01*
X862Y1394D02*
X875Y1394D01*
X1388Y1394D02*
X1401Y1394D01*
X1415Y1394D02*
X1475Y1394D01*
X788Y1393D02*
X847Y1393D01*
X864Y1393D02*
X875Y1393D01*
X1388Y1393D02*
X1399Y1393D01*
X1416Y1393D02*
X1475Y1393D01*
X788Y1392D02*
X846Y1392D01*
X865Y1392D02*
X875Y1392D01*
X1388Y1392D02*
X1398Y1392D01*
X1417Y1392D02*
X1475Y1392D01*
X788Y1391D02*
X845Y1391D01*
X866Y1391D02*
X875Y1391D01*
X1388Y1391D02*
X1397Y1391D01*
X1418Y1391D02*
X1475Y1391D01*
X788Y1390D02*
X845Y1390D01*
X866Y1390D02*
X875Y1390D01*
X1388Y1390D02*
X1397Y1390D01*
X1419Y1390D02*
X1475Y1390D01*
X788Y1389D02*
X844Y1389D01*
X867Y1389D02*
X875Y1389D01*
X1388Y1389D02*
X1396Y1389D01*
X1419Y1389D02*
X1475Y1389D01*
X788Y1388D02*
X844Y1388D01*
X867Y1388D02*
X875Y1388D01*
X1388Y1388D02*
X1396Y1388D01*
X1420Y1388D02*
X1475Y1388D01*
X788Y1387D02*
X843Y1387D01*
X868Y1387D02*
X875Y1387D01*
X1388Y1387D02*
X1396Y1387D01*
X1420Y1387D02*
X1475Y1387D01*
X788Y1386D02*
X843Y1386D01*
X868Y1386D02*
X875Y1386D01*
X1388Y1386D02*
X1395Y1386D01*
X1420Y1386D02*
X1475Y1386D01*
X788Y1385D02*
X843Y1385D01*
X868Y1385D02*
X875Y1385D01*
X1388Y1385D02*
X1395Y1385D01*
X1420Y1385D02*
X1475Y1385D01*
X788Y1384D02*
X843Y1384D01*
X868Y1384D02*
X875Y1384D01*
X1388Y1384D02*
X1395Y1384D01*
X1420Y1384D02*
X1475Y1384D01*
X788Y1383D02*
X843Y1383D01*
X868Y1383D02*
X875Y1383D01*
X1388Y1383D02*
X1395Y1383D01*
X1420Y1383D02*
X1475Y1383D01*
X788Y1382D02*
X843Y1382D01*
X868Y1382D02*
X875Y1382D01*
X1388Y1382D02*
X1395Y1382D01*
X1420Y1382D02*
X1475Y1382D01*
X788Y1381D02*
X843Y1381D01*
X868Y1381D02*
X875Y1381D01*
X1388Y1381D02*
X1395Y1381D01*
X1420Y1381D02*
X1475Y1381D01*
X788Y1380D02*
X843Y1380D01*
X867Y1380D02*
X875Y1380D01*
X1388Y1380D02*
X1396Y1380D01*
X1420Y1380D02*
X1475Y1380D01*
X788Y1379D02*
X844Y1379D01*
X867Y1379D02*
X875Y1379D01*
X1388Y1379D02*
X1396Y1379D01*
X1419Y1379D02*
X1475Y1379D01*
X788Y1378D02*
X844Y1378D01*
X867Y1378D02*
X875Y1378D01*
X1388Y1378D02*
X1397Y1378D01*
X1419Y1378D02*
X1475Y1378D01*
X788Y1377D02*
X845Y1377D01*
X866Y1377D02*
X875Y1377D01*
X1388Y1377D02*
X1397Y1377D01*
X1418Y1377D02*
X1475Y1377D01*
X788Y1376D02*
X846Y1376D01*
X865Y1376D02*
X875Y1376D01*
X1388Y1376D02*
X1398Y1376D01*
X1417Y1376D02*
X1475Y1376D01*
X788Y1375D02*
X847Y1375D01*
X864Y1375D02*
X875Y1375D01*
X1388Y1375D02*
X1399Y1375D01*
X1417Y1375D02*
X1475Y1375D01*
X788Y1374D02*
X848Y1374D01*
X863Y1374D02*
X875Y1374D01*
X1388Y1374D02*
X1400Y1374D01*
X1415Y1374D02*
X1475Y1374D01*
X788Y1373D02*
X849Y1373D01*
X861Y1373D02*
X875Y1373D01*
X1388Y1373D02*
X1402Y1373D01*
X1414Y1373D02*
X1475Y1373D01*
X788Y1372D02*
X852Y1372D01*
X859Y1372D02*
X875Y1372D01*
X1388Y1372D02*
X1404Y1372D01*
X1411Y1372D02*
X1475Y1372D01*
X788Y1371D02*
X875Y1371D01*
X1388Y1371D02*
X1475Y1371D01*
X788Y1370D02*
X875Y1370D01*
X1388Y1370D02*
X1475Y1370D01*
X788Y1369D02*
X875Y1369D01*
X1388Y1369D02*
X1475Y1369D01*
X788Y1368D02*
X875Y1368D01*
X1388Y1368D02*
X1475Y1368D01*
X788Y1367D02*
X875Y1367D01*
X1388Y1367D02*
X1475Y1367D01*
X788Y1366D02*
X875Y1366D01*
X1388Y1366D02*
X1475Y1366D01*
X788Y1365D02*
X875Y1365D01*
X1388Y1365D02*
X1475Y1365D01*
X788Y1364D02*
X875Y1364D01*
X1388Y1364D02*
X1475Y1364D01*
X788Y1363D02*
X875Y1363D01*
X1388Y1363D02*
X1475Y1363D01*
X788Y1362D02*
X875Y1362D01*
X1388Y1362D02*
X1475Y1362D01*
X788Y1361D02*
X875Y1361D01*
X1388Y1361D02*
X1475Y1361D01*
X788Y1328D02*
X875Y1328D01*
X1388Y1328D02*
X1475Y1328D01*
X788Y1327D02*
X875Y1327D01*
X1388Y1327D02*
X1475Y1327D01*
X788Y1326D02*
X875Y1326D01*
X1388Y1326D02*
X1475Y1326D01*
X788Y1325D02*
X875Y1325D01*
X1388Y1325D02*
X1475Y1325D01*
X788Y1324D02*
X875Y1324D01*
X1388Y1324D02*
X1475Y1324D01*
X788Y1323D02*
X875Y1323D01*
X1388Y1323D02*
X1475Y1323D01*
X788Y1322D02*
X875Y1322D01*
X1388Y1322D02*
X1475Y1322D01*
X788Y1321D02*
X875Y1321D01*
X1388Y1321D02*
X1475Y1321D01*
X788Y1320D02*
X875Y1320D01*
X1388Y1320D02*
X1475Y1320D01*
X788Y1319D02*
X875Y1319D01*
X1388Y1319D02*
X1475Y1319D01*
X788Y1318D02*
X875Y1318D01*
X1388Y1318D02*
X1475Y1318D01*
X788Y1317D02*
X853Y1317D01*
X858Y1317D02*
X875Y1317D01*
X1388Y1317D02*
X1405Y1317D01*
X1410Y1317D02*
X1475Y1317D01*
X788Y1316D02*
X850Y1316D01*
X861Y1316D02*
X875Y1316D01*
X1388Y1316D02*
X1402Y1316D01*
X1413Y1316D02*
X1475Y1316D01*
X788Y1315D02*
X848Y1315D01*
X863Y1315D02*
X875Y1315D01*
X1388Y1315D02*
X1400Y1315D01*
X1415Y1315D02*
X1475Y1315D01*
X788Y1314D02*
X847Y1314D01*
X864Y1314D02*
X875Y1314D01*
X1388Y1314D02*
X1399Y1314D01*
X1416Y1314D02*
X1475Y1314D01*
X788Y1313D02*
X846Y1313D01*
X865Y1313D02*
X875Y1313D01*
X1388Y1313D02*
X1398Y1313D01*
X1417Y1313D02*
X1475Y1313D01*
X788Y1312D02*
X845Y1312D01*
X866Y1312D02*
X875Y1312D01*
X1388Y1312D02*
X1397Y1312D01*
X1418Y1312D02*
X1475Y1312D01*
X788Y1311D02*
X844Y1311D01*
X866Y1311D02*
X875Y1311D01*
X1388Y1311D02*
X1397Y1311D01*
X1419Y1311D02*
X1475Y1311D01*
X788Y1310D02*
X844Y1310D01*
X867Y1310D02*
X875Y1310D01*
X1388Y1310D02*
X1396Y1310D01*
X1419Y1310D02*
X1475Y1310D01*
X788Y1309D02*
X844Y1309D01*
X867Y1309D02*
X875Y1309D01*
X1388Y1309D02*
X1396Y1309D01*
X1420Y1309D02*
X1475Y1309D01*
X788Y1308D02*
X843Y1308D01*
X868Y1308D02*
X875Y1308D01*
X1388Y1308D02*
X1395Y1308D01*
X1420Y1308D02*
X1475Y1308D01*
X788Y1307D02*
X843Y1307D01*
X868Y1307D02*
X875Y1307D01*
X1388Y1307D02*
X1395Y1307D01*
X1420Y1307D02*
X1475Y1307D01*
X788Y1306D02*
X843Y1306D01*
X868Y1306D02*
X875Y1306D01*
X1388Y1306D02*
X1395Y1306D01*
X1420Y1306D02*
X1475Y1306D01*
X788Y1305D02*
X843Y1305D01*
X868Y1305D02*
X875Y1305D01*
X1388Y1305D02*
X1395Y1305D01*
X1420Y1305D02*
X1475Y1305D01*
X788Y1304D02*
X843Y1304D01*
X868Y1304D02*
X875Y1304D01*
X1388Y1304D02*
X1395Y1304D01*
X1420Y1304D02*
X1475Y1304D01*
X788Y1303D02*
X843Y1303D01*
X868Y1303D02*
X875Y1303D01*
X1388Y1303D02*
X1395Y1303D01*
X1420Y1303D02*
X1475Y1303D01*
X788Y1302D02*
X843Y1302D01*
X868Y1302D02*
X875Y1302D01*
X1388Y1302D02*
X1395Y1302D01*
X1420Y1302D02*
X1475Y1302D01*
X788Y1301D02*
X844Y1301D01*
X867Y1301D02*
X875Y1301D01*
X1388Y1301D02*
X1396Y1301D01*
X1420Y1301D02*
X1475Y1301D01*
X788Y1300D02*
X844Y1300D01*
X867Y1300D02*
X875Y1300D01*
X1388Y1300D02*
X1396Y1300D01*
X1419Y1300D02*
X1475Y1300D01*
X788Y1299D02*
X844Y1299D01*
X866Y1299D02*
X875Y1299D01*
X1388Y1299D02*
X1397Y1299D01*
X1419Y1299D02*
X1475Y1299D01*
X788Y1298D02*
X845Y1298D01*
X866Y1298D02*
X875Y1298D01*
X1388Y1298D02*
X1397Y1298D01*
X1418Y1298D02*
X1475Y1298D01*
X788Y1297D02*
X846Y1297D01*
X865Y1297D02*
X875Y1297D01*
X1388Y1297D02*
X1398Y1297D01*
X1417Y1297D02*
X1475Y1297D01*
X788Y1296D02*
X847Y1296D01*
X864Y1296D02*
X875Y1296D01*
X1388Y1296D02*
X1399Y1296D01*
X1416Y1296D02*
X1475Y1296D01*
X788Y1295D02*
X848Y1295D01*
X863Y1295D02*
X875Y1295D01*
X1388Y1295D02*
X1400Y1295D01*
X1415Y1295D02*
X1475Y1295D01*
X788Y1294D02*
X850Y1294D01*
X861Y1294D02*
X875Y1294D01*
X1388Y1294D02*
X1402Y1294D01*
X1413Y1294D02*
X1475Y1294D01*
X788Y1293D02*
X854Y1293D01*
X857Y1293D02*
X875Y1293D01*
X1388Y1293D02*
X1406Y1293D01*
X1409Y1293D02*
X1475Y1293D01*
X788Y1292D02*
X875Y1292D01*
X1388Y1292D02*
X1475Y1292D01*
X788Y1291D02*
X875Y1291D01*
X1388Y1291D02*
X1475Y1291D01*
X788Y1290D02*
X875Y1290D01*
X1388Y1290D02*
X1475Y1290D01*
X788Y1289D02*
X875Y1289D01*
X1388Y1289D02*
X1475Y1289D01*
X788Y1288D02*
X875Y1288D01*
X1388Y1288D02*
X1475Y1288D01*
X788Y1287D02*
X875Y1287D01*
X1388Y1287D02*
X1475Y1287D01*
X788Y1286D02*
X875Y1286D01*
X1388Y1286D02*
X1475Y1286D01*
X788Y1285D02*
X875Y1285D01*
X1388Y1285D02*
X1475Y1285D01*
X788Y1284D02*
X875Y1284D01*
X1388Y1284D02*
X1475Y1284D01*
X788Y1283D02*
X875Y1283D01*
X1388Y1283D02*
X1475Y1283D01*
X788Y1282D02*
X875Y1282D01*
X1388Y1282D02*
X1475Y1282D01*
X788Y1249D02*
X875Y1249D01*
X1388Y1249D02*
X1475Y1249D01*
X788Y1248D02*
X875Y1248D01*
X1388Y1248D02*
X1475Y1248D01*
X788Y1247D02*
X875Y1247D01*
X1388Y1247D02*
X1475Y1247D01*
X788Y1246D02*
X875Y1246D01*
X1388Y1246D02*
X1475Y1246D01*
X788Y1245D02*
X875Y1245D01*
X1388Y1245D02*
X1475Y1245D01*
X788Y1244D02*
X875Y1244D01*
X1388Y1244D02*
X1475Y1244D01*
X788Y1243D02*
X875Y1243D01*
X1388Y1243D02*
X1475Y1243D01*
X788Y1242D02*
X875Y1242D01*
X1388Y1242D02*
X1475Y1242D01*
X788Y1241D02*
X875Y1241D01*
X1388Y1241D02*
X1475Y1241D01*
X788Y1240D02*
X875Y1240D01*
X1388Y1240D02*
X1475Y1240D01*
X788Y1239D02*
X875Y1239D01*
X1388Y1239D02*
X1475Y1239D01*
X788Y1238D02*
X852Y1238D01*
X859Y1238D02*
X875Y1238D01*
X1388Y1238D02*
X1404Y1238D01*
X1411Y1238D02*
X1475Y1238D01*
X788Y1237D02*
X849Y1237D01*
X862Y1237D02*
X875Y1237D01*
X1388Y1237D02*
X1402Y1237D01*
X1414Y1237D02*
X1475Y1237D01*
X788Y1236D02*
X848Y1236D01*
X863Y1236D02*
X875Y1236D01*
X1388Y1236D02*
X1400Y1236D01*
X1415Y1236D02*
X1475Y1236D01*
X788Y1235D02*
X847Y1235D01*
X864Y1235D02*
X875Y1235D01*
X1388Y1235D02*
X1399Y1235D01*
X1417Y1235D02*
X1475Y1235D01*
X788Y1234D02*
X846Y1234D01*
X865Y1234D02*
X875Y1234D01*
X1388Y1234D02*
X1398Y1234D01*
X1418Y1234D02*
X1475Y1234D01*
X788Y1233D02*
X845Y1233D01*
X866Y1233D02*
X875Y1233D01*
X1388Y1233D02*
X1397Y1233D01*
X1418Y1233D02*
X1475Y1233D01*
X788Y1232D02*
X844Y1232D01*
X867Y1232D02*
X875Y1232D01*
X1388Y1232D02*
X1397Y1232D01*
X1419Y1232D02*
X1475Y1232D01*
X788Y1231D02*
X844Y1231D01*
X867Y1231D02*
X875Y1231D01*
X1388Y1231D02*
X1396Y1231D01*
X1419Y1231D02*
X1475Y1231D01*
X788Y1230D02*
X843Y1230D01*
X867Y1230D02*
X875Y1230D01*
X1388Y1230D02*
X1396Y1230D01*
X1420Y1230D02*
X1475Y1230D01*
X788Y1229D02*
X843Y1229D01*
X868Y1229D02*
X875Y1229D01*
X1388Y1229D02*
X1395Y1229D01*
X1420Y1229D02*
X1475Y1229D01*
X788Y1228D02*
X843Y1228D01*
X868Y1228D02*
X875Y1228D01*
X1388Y1228D02*
X1395Y1228D01*
X1420Y1228D02*
X1475Y1228D01*
X788Y1227D02*
X843Y1227D01*
X868Y1227D02*
X875Y1227D01*
X1388Y1227D02*
X1395Y1227D01*
X1420Y1227D02*
X1475Y1227D01*
X788Y1226D02*
X843Y1226D01*
X868Y1226D02*
X875Y1226D01*
X1388Y1226D02*
X1395Y1226D01*
X1420Y1226D02*
X1475Y1226D01*
X788Y1225D02*
X843Y1225D01*
X868Y1225D02*
X875Y1225D01*
X1388Y1225D02*
X1395Y1225D01*
X1420Y1225D02*
X1475Y1225D01*
X788Y1224D02*
X843Y1224D01*
X868Y1224D02*
X875Y1224D01*
X1388Y1224D02*
X1395Y1224D01*
X1420Y1224D02*
X1475Y1224D01*
X788Y1223D02*
X843Y1223D01*
X868Y1223D02*
X875Y1223D01*
X1388Y1223D02*
X1396Y1223D01*
X1420Y1223D02*
X1475Y1223D01*
X788Y1222D02*
X844Y1222D01*
X867Y1222D02*
X875Y1222D01*
X1388Y1222D02*
X1396Y1222D01*
X1420Y1222D02*
X1475Y1222D01*
X788Y1221D02*
X844Y1221D01*
X867Y1221D02*
X875Y1221D01*
X1388Y1221D02*
X1396Y1221D01*
X1419Y1221D02*
X1475Y1221D01*
X788Y1220D02*
X845Y1220D01*
X866Y1220D02*
X875Y1220D01*
X1388Y1220D02*
X1397Y1220D01*
X1419Y1220D02*
X1475Y1220D01*
X788Y1219D02*
X845Y1219D01*
X866Y1219D02*
X875Y1219D01*
X1388Y1219D02*
X1398Y1219D01*
X1418Y1219D02*
X1475Y1219D01*
X788Y1218D02*
X846Y1218D01*
X865Y1218D02*
X875Y1218D01*
X1388Y1218D02*
X1398Y1218D01*
X1417Y1218D02*
X1475Y1218D01*
X788Y1217D02*
X847Y1217D01*
X864Y1217D02*
X875Y1217D01*
X1388Y1217D02*
X1399Y1217D01*
X1416Y1217D02*
X1475Y1217D01*
X788Y1216D02*
X849Y1216D01*
X862Y1216D02*
X875Y1216D01*
X1388Y1216D02*
X1401Y1216D01*
X1415Y1216D02*
X1475Y1216D01*
X788Y1215D02*
X851Y1215D01*
X860Y1215D02*
X875Y1215D01*
X1388Y1215D02*
X1403Y1215D01*
X1413Y1215D02*
X1475Y1215D01*
X788Y1214D02*
X875Y1214D01*
X1388Y1214D02*
X1475Y1214D01*
X788Y1213D02*
X875Y1213D01*
X1388Y1213D02*
X1475Y1213D01*
X788Y1212D02*
X875Y1212D01*
X1388Y1212D02*
X1475Y1212D01*
X788Y1211D02*
X875Y1211D01*
X1388Y1211D02*
X1475Y1211D01*
X788Y1210D02*
X875Y1210D01*
X1388Y1210D02*
X1475Y1210D01*
X788Y1209D02*
X875Y1209D01*
X1388Y1209D02*
X1475Y1209D01*
X788Y1208D02*
X875Y1208D01*
X1388Y1208D02*
X1475Y1208D01*
X788Y1207D02*
X875Y1207D01*
X1388Y1207D02*
X1475Y1207D01*
X788Y1206D02*
X875Y1206D01*
X1388Y1206D02*
X1475Y1206D01*
X788Y1205D02*
X875Y1205D01*
X1388Y1205D02*
X1475Y1205D01*
X788Y1204D02*
X875Y1204D01*
X1388Y1204D02*
X1475Y1204D01*
X788Y1203D02*
X875Y1203D01*
X1388Y1203D02*
X1475Y1203D01*
X788Y1171D02*
X875Y1171D01*
X1388Y1171D02*
X1475Y1171D01*
X788Y1170D02*
X875Y1170D01*
X1388Y1170D02*
X1475Y1170D01*
X788Y1169D02*
X875Y1169D01*
X1388Y1169D02*
X1475Y1169D01*
X788Y1168D02*
X875Y1168D01*
X1388Y1168D02*
X1475Y1168D01*
X788Y1167D02*
X875Y1167D01*
X1388Y1167D02*
X1475Y1167D01*
X788Y1166D02*
X875Y1166D01*
X1388Y1166D02*
X1475Y1166D01*
X788Y1165D02*
X875Y1165D01*
X1388Y1165D02*
X1475Y1165D01*
X788Y1164D02*
X875Y1164D01*
X1388Y1164D02*
X1475Y1164D01*
X788Y1163D02*
X875Y1163D01*
X1388Y1163D02*
X1475Y1163D01*
X788Y1162D02*
X875Y1162D01*
X1388Y1162D02*
X1475Y1162D01*
X788Y1161D02*
X875Y1161D01*
X1388Y1161D02*
X1475Y1161D01*
X788Y1160D02*
X875Y1160D01*
X1388Y1160D02*
X1475Y1160D01*
X788Y1159D02*
X851Y1159D01*
X860Y1159D02*
X875Y1159D01*
X1388Y1159D02*
X1403Y1159D01*
X1412Y1159D02*
X1475Y1159D01*
X788Y1158D02*
X849Y1158D01*
X862Y1158D02*
X875Y1158D01*
X1388Y1158D02*
X1401Y1158D01*
X1414Y1158D02*
X1475Y1158D01*
X788Y1157D02*
X847Y1157D01*
X864Y1157D02*
X875Y1157D01*
X1388Y1157D02*
X1400Y1157D01*
X1416Y1157D02*
X1475Y1157D01*
X788Y1156D02*
X846Y1156D01*
X865Y1156D02*
X875Y1156D01*
X1388Y1156D02*
X1398Y1156D01*
X1417Y1156D02*
X1475Y1156D01*
X788Y1155D02*
X845Y1155D01*
X866Y1155D02*
X875Y1155D01*
X1388Y1155D02*
X1398Y1155D01*
X1418Y1155D02*
X1475Y1155D01*
X788Y1154D02*
X845Y1154D01*
X866Y1154D02*
X875Y1154D01*
X1388Y1154D02*
X1397Y1154D01*
X1418Y1154D02*
X1475Y1154D01*
X788Y1153D02*
X844Y1153D01*
X867Y1153D02*
X875Y1153D01*
X1388Y1153D02*
X1396Y1153D01*
X1419Y1153D02*
X1475Y1153D01*
X788Y1152D02*
X844Y1152D01*
X867Y1152D02*
X875Y1152D01*
X1388Y1152D02*
X1396Y1152D01*
X1419Y1152D02*
X1475Y1152D01*
X788Y1151D02*
X843Y1151D01*
X868Y1151D02*
X875Y1151D01*
X1388Y1151D02*
X1396Y1151D01*
X1420Y1151D02*
X1475Y1151D01*
X788Y1150D02*
X843Y1150D01*
X868Y1150D02*
X875Y1150D01*
X1388Y1150D02*
X1395Y1150D01*
X1420Y1150D02*
X1475Y1150D01*
X788Y1149D02*
X843Y1149D01*
X868Y1149D02*
X875Y1149D01*
X1388Y1149D02*
X1395Y1149D01*
X1420Y1149D02*
X1475Y1149D01*
X788Y1148D02*
X843Y1148D01*
X868Y1148D02*
X875Y1148D01*
X1388Y1148D02*
X1395Y1148D01*
X1420Y1148D02*
X1475Y1148D01*
X788Y1147D02*
X843Y1147D01*
X868Y1147D02*
X875Y1147D01*
X1388Y1147D02*
X1395Y1147D01*
X1420Y1147D02*
X1475Y1147D01*
X788Y1146D02*
X843Y1146D01*
X868Y1146D02*
X875Y1146D01*
X1388Y1146D02*
X1395Y1146D01*
X1420Y1146D02*
X1475Y1146D01*
X788Y1145D02*
X843Y1145D01*
X868Y1145D02*
X875Y1145D01*
X1388Y1145D02*
X1395Y1145D01*
X1420Y1145D02*
X1475Y1145D01*
X788Y1144D02*
X843Y1144D01*
X868Y1144D02*
X875Y1144D01*
X1388Y1144D02*
X1396Y1144D01*
X1420Y1144D02*
X1475Y1144D01*
X788Y1143D02*
X844Y1143D01*
X867Y1143D02*
X875Y1143D01*
X1388Y1143D02*
X1396Y1143D01*
X1419Y1143D02*
X1475Y1143D01*
X788Y1142D02*
X844Y1142D01*
X867Y1142D02*
X875Y1142D01*
X1388Y1142D02*
X1396Y1142D01*
X1419Y1142D02*
X1475Y1142D01*
X788Y1141D02*
X845Y1141D01*
X866Y1141D02*
X875Y1141D01*
X1388Y1141D02*
X1397Y1141D01*
X1418Y1141D02*
X1475Y1141D01*
X788Y1140D02*
X846Y1140D01*
X865Y1140D02*
X875Y1140D01*
X1388Y1140D02*
X1398Y1140D01*
X1418Y1140D02*
X1475Y1140D01*
X788Y1139D02*
X846Y1139D01*
X865Y1139D02*
X875Y1139D01*
X1388Y1139D02*
X1399Y1139D01*
X1417Y1139D02*
X1475Y1139D01*
X788Y1138D02*
X848Y1138D01*
X863Y1138D02*
X875Y1138D01*
X1388Y1138D02*
X1400Y1138D01*
X1416Y1138D02*
X1475Y1138D01*
X788Y1137D02*
X849Y1137D01*
X862Y1137D02*
X875Y1137D01*
X1388Y1137D02*
X1401Y1137D01*
X1414Y1137D02*
X1475Y1137D01*
X788Y1136D02*
X851Y1136D01*
X859Y1136D02*
X875Y1136D01*
X1388Y1136D02*
X1404Y1136D01*
X1412Y1136D02*
X1475Y1136D01*
X788Y1135D02*
X875Y1135D01*
X1388Y1135D02*
X1475Y1135D01*
X788Y1134D02*
X875Y1134D01*
X1388Y1134D02*
X1475Y1134D01*
X788Y1133D02*
X875Y1133D01*
X1388Y1133D02*
X1475Y1133D01*
X788Y1132D02*
X875Y1132D01*
X1388Y1132D02*
X1475Y1132D01*
X788Y1131D02*
X875Y1131D01*
X1388Y1131D02*
X1475Y1131D01*
X788Y1130D02*
X875Y1130D01*
X1388Y1130D02*
X1475Y1130D01*
X788Y1129D02*
X875Y1129D01*
X1388Y1129D02*
X1475Y1129D01*
X788Y1128D02*
X875Y1128D01*
X1388Y1128D02*
X1475Y1128D01*
X788Y1127D02*
X875Y1127D01*
X1388Y1127D02*
X1475Y1127D01*
X788Y1126D02*
X875Y1126D01*
X1388Y1126D02*
X1475Y1126D01*
X788Y1125D02*
X875Y1125D01*
X1388Y1125D02*
X1475Y1125D01*
X788Y1124D02*
X875Y1124D01*
X1388Y1124D02*
X1475Y1124D01*
X788Y1092D02*
X875Y1092D01*
X1388Y1092D02*
X1475Y1092D01*
X788Y1091D02*
X875Y1091D01*
X1388Y1091D02*
X1475Y1091D01*
X788Y1090D02*
X875Y1090D01*
X1388Y1090D02*
X1475Y1090D01*
X788Y1089D02*
X875Y1089D01*
X1388Y1089D02*
X1475Y1089D01*
X788Y1088D02*
X875Y1088D01*
X1388Y1088D02*
X1475Y1088D01*
X788Y1087D02*
X875Y1087D01*
X1388Y1087D02*
X1475Y1087D01*
X788Y1086D02*
X875Y1086D01*
X1388Y1086D02*
X1475Y1086D01*
X788Y1085D02*
X875Y1085D01*
X1388Y1085D02*
X1475Y1085D01*
X788Y1084D02*
X875Y1084D01*
X1388Y1084D02*
X1475Y1084D01*
X788Y1083D02*
X875Y1083D01*
X1388Y1083D02*
X1475Y1083D01*
X788Y1082D02*
X875Y1082D01*
X1388Y1082D02*
X1475Y1082D01*
X788Y1081D02*
X875Y1081D01*
X1388Y1081D02*
X1475Y1081D01*
X788Y1080D02*
X850Y1080D01*
X861Y1080D02*
X875Y1080D01*
X1388Y1080D02*
X1402Y1080D01*
X1413Y1080D02*
X1475Y1080D01*
X788Y1079D02*
X848Y1079D01*
X863Y1079D02*
X875Y1079D01*
X1388Y1079D02*
X1401Y1079D01*
X1415Y1079D02*
X1475Y1079D01*
X788Y1078D02*
X847Y1078D01*
X864Y1078D02*
X875Y1078D01*
X1388Y1078D02*
X1399Y1078D01*
X1416Y1078D02*
X1475Y1078D01*
X788Y1077D02*
X846Y1077D01*
X865Y1077D02*
X875Y1077D01*
X1388Y1077D02*
X1398Y1077D01*
X1417Y1077D02*
X1475Y1077D01*
X788Y1076D02*
X845Y1076D01*
X866Y1076D02*
X875Y1076D01*
X1388Y1076D02*
X1397Y1076D01*
X1418Y1076D02*
X1475Y1076D01*
X788Y1075D02*
X845Y1075D01*
X866Y1075D02*
X875Y1075D01*
X1388Y1075D02*
X1397Y1075D01*
X1419Y1075D02*
X1475Y1075D01*
X788Y1074D02*
X844Y1074D01*
X867Y1074D02*
X875Y1074D01*
X1388Y1074D02*
X1396Y1074D01*
X1419Y1074D02*
X1475Y1074D01*
X788Y1073D02*
X844Y1073D01*
X867Y1073D02*
X875Y1073D01*
X1388Y1073D02*
X1396Y1073D01*
X1420Y1073D02*
X1475Y1073D01*
X788Y1072D02*
X843Y1072D01*
X868Y1072D02*
X875Y1072D01*
X1388Y1072D02*
X1396Y1072D01*
X1420Y1072D02*
X1475Y1072D01*
X788Y1071D02*
X843Y1071D01*
X868Y1071D02*
X875Y1071D01*
X1388Y1071D02*
X1395Y1071D01*
X1420Y1071D02*
X1475Y1071D01*
X788Y1070D02*
X843Y1070D01*
X868Y1070D02*
X875Y1070D01*
X1388Y1070D02*
X1395Y1070D01*
X1420Y1070D02*
X1475Y1070D01*
X788Y1069D02*
X843Y1069D01*
X868Y1069D02*
X875Y1069D01*
X1388Y1069D02*
X1395Y1069D01*
X1420Y1069D02*
X1475Y1069D01*
X788Y1068D02*
X843Y1068D01*
X868Y1068D02*
X875Y1068D01*
X1388Y1068D02*
X1395Y1068D01*
X1420Y1068D02*
X1475Y1068D01*
X788Y1067D02*
X843Y1067D01*
X868Y1067D02*
X875Y1067D01*
X1388Y1067D02*
X1395Y1067D01*
X1420Y1067D02*
X1475Y1067D01*
X788Y1066D02*
X843Y1066D01*
X868Y1066D02*
X875Y1066D01*
X1388Y1066D02*
X1395Y1066D01*
X1420Y1066D02*
X1475Y1066D01*
X788Y1065D02*
X843Y1065D01*
X867Y1065D02*
X875Y1065D01*
X1388Y1065D02*
X1396Y1065D01*
X1420Y1065D02*
X1475Y1065D01*
X788Y1064D02*
X844Y1064D01*
X867Y1064D02*
X875Y1064D01*
X1388Y1064D02*
X1396Y1064D01*
X1419Y1064D02*
X1475Y1064D01*
X788Y1063D02*
X844Y1063D01*
X867Y1063D02*
X875Y1063D01*
X1388Y1063D02*
X1397Y1063D01*
X1419Y1063D02*
X1475Y1063D01*
X788Y1062D02*
X845Y1062D01*
X866Y1062D02*
X875Y1062D01*
X1388Y1062D02*
X1397Y1062D01*
X1418Y1062D02*
X1475Y1062D01*
X788Y1061D02*
X846Y1061D01*
X865Y1061D02*
X875Y1061D01*
X1388Y1061D02*
X1398Y1061D01*
X1417Y1061D02*
X1475Y1061D01*
X788Y1060D02*
X847Y1060D01*
X864Y1060D02*
X875Y1060D01*
X1388Y1060D02*
X1399Y1060D01*
X1416Y1060D02*
X1475Y1060D01*
X788Y1059D02*
X848Y1059D01*
X863Y1059D02*
X875Y1059D01*
X1388Y1059D02*
X1400Y1059D01*
X1415Y1059D02*
X1475Y1059D01*
X788Y1058D02*
X850Y1058D01*
X861Y1058D02*
X875Y1058D01*
X1388Y1058D02*
X1402Y1058D01*
X1414Y1058D02*
X1475Y1058D01*
X788Y1057D02*
X852Y1057D01*
X859Y1057D02*
X875Y1057D01*
X1388Y1057D02*
X1405Y1057D01*
X1411Y1057D02*
X1475Y1057D01*
X788Y1056D02*
X875Y1056D01*
X1388Y1056D02*
X1475Y1056D01*
X788Y1055D02*
X875Y1055D01*
X1388Y1055D02*
X1475Y1055D01*
X788Y1054D02*
X875Y1054D01*
X1388Y1054D02*
X1475Y1054D01*
X788Y1053D02*
X875Y1053D01*
X1388Y1053D02*
X1475Y1053D01*
X788Y1052D02*
X875Y1052D01*
X1388Y1052D02*
X1475Y1052D01*
X788Y1051D02*
X875Y1051D01*
X1388Y1051D02*
X1475Y1051D01*
X788Y1050D02*
X875Y1050D01*
X1388Y1050D02*
X1475Y1050D01*
X788Y1049D02*
X875Y1049D01*
X1388Y1049D02*
X1475Y1049D01*
X788Y1048D02*
X875Y1048D01*
X1388Y1048D02*
X1475Y1048D01*
X788Y1047D02*
X875Y1047D01*
X1388Y1047D02*
X1475Y1047D01*
X788Y1046D02*
X875Y1046D01*
X1388Y1046D02*
X1475Y1046D01*
X788Y1013D02*
X875Y1013D01*
X1388Y1013D02*
X1475Y1013D01*
X788Y1012D02*
X875Y1012D01*
X1388Y1012D02*
X1475Y1012D01*
X788Y1011D02*
X875Y1011D01*
X1388Y1011D02*
X1475Y1011D01*
X788Y1010D02*
X875Y1010D01*
X1388Y1010D02*
X1475Y1010D01*
X788Y1009D02*
X875Y1009D01*
X1388Y1009D02*
X1475Y1009D01*
X788Y1008D02*
X875Y1008D01*
X1388Y1008D02*
X1475Y1008D01*
X788Y1007D02*
X875Y1007D01*
X1388Y1007D02*
X1475Y1007D01*
X788Y1006D02*
X875Y1006D01*
X1388Y1006D02*
X1475Y1006D01*
X788Y1005D02*
X875Y1005D01*
X1388Y1005D02*
X1475Y1005D01*
X788Y1004D02*
X875Y1004D01*
X1388Y1004D02*
X1475Y1004D01*
X788Y1003D02*
X875Y1003D01*
X1388Y1003D02*
X1475Y1003D01*
X788Y1002D02*
X852Y1002D01*
X858Y1002D02*
X875Y1002D01*
X1388Y1002D02*
X1405Y1002D01*
X1411Y1002D02*
X1475Y1002D01*
X788Y1001D02*
X850Y1001D01*
X861Y1001D02*
X875Y1001D01*
X1388Y1001D02*
X1402Y1001D01*
X1414Y1001D02*
X1475Y1001D01*
X788Y1000D02*
X848Y1000D01*
X863Y1000D02*
X875Y1000D01*
X1388Y1000D02*
X1400Y1000D01*
X1415Y1000D02*
X1475Y1000D01*
X788Y999D02*
X847Y999D01*
X864Y999D02*
X875Y999D01*
X1388Y999D02*
X1399Y999D01*
X1416Y999D02*
X1475Y999D01*
X788Y998D02*
X846Y998D01*
X865Y998D02*
X875Y998D01*
X1388Y998D02*
X1398Y998D01*
X1417Y998D02*
X1475Y998D01*
X788Y997D02*
X845Y997D01*
X866Y997D02*
X875Y997D01*
X1388Y997D02*
X1397Y997D01*
X1418Y997D02*
X1475Y997D01*
X788Y996D02*
X844Y996D01*
X867Y996D02*
X875Y996D01*
X1388Y996D02*
X1397Y996D01*
X1419Y996D02*
X1475Y996D01*
X788Y995D02*
X844Y995D01*
X867Y995D02*
X875Y995D01*
X1388Y995D02*
X1396Y995D01*
X1419Y995D02*
X1475Y995D01*
X788Y994D02*
X844Y994D01*
X867Y994D02*
X875Y994D01*
X1388Y994D02*
X1396Y994D01*
X1420Y994D02*
X1475Y994D01*
X788Y993D02*
X843Y993D01*
X868Y993D02*
X875Y993D01*
X1388Y993D02*
X1395Y993D01*
X1420Y993D02*
X1475Y993D01*
X788Y992D02*
X843Y992D01*
X868Y992D02*
X875Y992D01*
X1388Y992D02*
X1395Y992D01*
X1420Y992D02*
X1475Y992D01*
X788Y991D02*
X843Y991D01*
X868Y991D02*
X875Y991D01*
X1388Y991D02*
X1395Y991D01*
X1420Y991D02*
X1475Y991D01*
X788Y990D02*
X843Y990D01*
X868Y990D02*
X875Y990D01*
X1388Y990D02*
X1395Y990D01*
X1420Y990D02*
X1475Y990D01*
X788Y989D02*
X843Y989D01*
X868Y989D02*
X875Y989D01*
X1388Y989D02*
X1395Y989D01*
X1420Y989D02*
X1475Y989D01*
X788Y988D02*
X843Y988D01*
X868Y988D02*
X875Y988D01*
X1388Y988D02*
X1395Y988D01*
X1420Y988D02*
X1475Y988D01*
X788Y987D02*
X843Y987D01*
X868Y987D02*
X875Y987D01*
X1388Y987D02*
X1396Y987D01*
X1420Y987D02*
X1475Y987D01*
X788Y986D02*
X844Y986D01*
X867Y986D02*
X875Y986D01*
X1388Y986D02*
X1396Y986D01*
X1420Y986D02*
X1475Y986D01*
X788Y985D02*
X844Y985D01*
X867Y985D02*
X875Y985D01*
X1388Y985D02*
X1396Y985D01*
X1419Y985D02*
X1475Y985D01*
X788Y984D02*
X845Y984D01*
X866Y984D02*
X875Y984D01*
X1388Y984D02*
X1397Y984D01*
X1419Y984D02*
X1475Y984D01*
X788Y983D02*
X845Y983D01*
X866Y983D02*
X875Y983D01*
X1388Y983D02*
X1397Y983D01*
X1418Y983D02*
X1475Y983D01*
X788Y982D02*
X846Y982D01*
X865Y982D02*
X875Y982D01*
X1388Y982D02*
X1398Y982D01*
X1417Y982D02*
X1475Y982D01*
X788Y981D02*
X847Y981D01*
X864Y981D02*
X875Y981D01*
X1388Y981D02*
X1399Y981D01*
X1416Y981D02*
X1475Y981D01*
X788Y980D02*
X848Y980D01*
X863Y980D02*
X875Y980D01*
X1388Y980D02*
X1401Y980D01*
X1415Y980D02*
X1475Y980D01*
X788Y979D02*
X850Y979D01*
X861Y979D02*
X875Y979D01*
X1388Y979D02*
X1402Y979D01*
X1413Y979D02*
X1475Y979D01*
X788Y978D02*
X875Y978D01*
X1388Y978D02*
X1407Y978D01*
X1409Y978D02*
X1475Y978D01*
X788Y977D02*
X875Y977D01*
X1388Y977D02*
X1475Y977D01*
X788Y976D02*
X875Y976D01*
X1388Y976D02*
X1475Y976D01*
X788Y975D02*
X875Y975D01*
X1388Y975D02*
X1475Y975D01*
X788Y974D02*
X875Y974D01*
X1388Y974D02*
X1475Y974D01*
X788Y973D02*
X875Y973D01*
X1388Y973D02*
X1475Y973D01*
X788Y972D02*
X875Y972D01*
X1388Y972D02*
X1475Y972D01*
X788Y971D02*
X875Y971D01*
X1388Y971D02*
X1475Y971D01*
X788Y970D02*
X875Y970D01*
X1388Y970D02*
X1475Y970D01*
X788Y969D02*
X875Y969D01*
X1388Y969D02*
X1475Y969D01*
X788Y968D02*
X875Y968D01*
X1388Y968D02*
X1475Y968D01*
X788Y967D02*
X875Y967D01*
X1388Y967D02*
X1475Y967D01*
X788Y935D02*
X875Y935D01*
X1388Y935D02*
X1475Y935D01*
X788Y934D02*
X875Y934D01*
X1388Y934D02*
X1475Y934D01*
X788Y933D02*
X875Y933D01*
X1388Y933D02*
X1475Y933D01*
X788Y932D02*
X875Y932D01*
X1388Y932D02*
X1475Y932D01*
X788Y931D02*
X875Y931D01*
X1388Y931D02*
X1475Y931D01*
X788Y930D02*
X875Y930D01*
X1388Y930D02*
X1475Y930D01*
X788Y929D02*
X875Y929D01*
X1388Y929D02*
X1475Y929D01*
X788Y928D02*
X875Y928D01*
X1388Y928D02*
X1475Y928D01*
X788Y927D02*
X875Y927D01*
X1388Y927D02*
X1475Y927D01*
X788Y926D02*
X875Y926D01*
X1388Y926D02*
X1475Y926D01*
X788Y925D02*
X875Y925D01*
X1388Y925D02*
X1475Y925D01*
X788Y924D02*
X875Y924D01*
X1388Y924D02*
X1475Y924D01*
X788Y923D02*
X852Y923D01*
X859Y923D02*
X875Y923D01*
X1388Y923D02*
X1404Y923D01*
X1412Y923D02*
X1475Y923D01*
X788Y922D02*
X849Y922D01*
X862Y922D02*
X875Y922D01*
X1388Y922D02*
X1401Y922D01*
X1414Y922D02*
X1475Y922D01*
X788Y921D02*
X848Y921D01*
X863Y921D02*
X875Y921D01*
X1388Y921D02*
X1400Y921D01*
X1416Y921D02*
X1475Y921D01*
X788Y920D02*
X846Y920D01*
X864Y920D02*
X875Y920D01*
X1388Y920D02*
X1399Y920D01*
X1417Y920D02*
X1475Y920D01*
X788Y919D02*
X846Y919D01*
X865Y919D02*
X875Y919D01*
X1388Y919D02*
X1398Y919D01*
X1418Y919D02*
X1475Y919D01*
X788Y918D02*
X845Y918D01*
X866Y918D02*
X875Y918D01*
X1388Y918D02*
X1397Y918D01*
X1418Y918D02*
X1475Y918D01*
X788Y917D02*
X844Y917D01*
X867Y917D02*
X875Y917D01*
X1388Y917D02*
X1396Y917D01*
X1419Y917D02*
X1475Y917D01*
X788Y916D02*
X844Y916D01*
X867Y916D02*
X875Y916D01*
X1388Y916D02*
X1396Y916D01*
X1419Y916D02*
X1475Y916D01*
X788Y915D02*
X843Y915D01*
X867Y915D02*
X875Y915D01*
X1388Y915D02*
X1396Y915D01*
X1420Y915D02*
X1475Y915D01*
X788Y914D02*
X843Y914D01*
X868Y914D02*
X875Y914D01*
X1388Y914D02*
X1395Y914D01*
X1420Y914D02*
X1475Y914D01*
X788Y913D02*
X843Y913D01*
X868Y913D02*
X875Y913D01*
X1388Y913D02*
X1395Y913D01*
X1420Y913D02*
X1475Y913D01*
X788Y912D02*
X843Y912D01*
X868Y912D02*
X875Y912D01*
X1388Y912D02*
X1395Y912D01*
X1420Y912D02*
X1475Y912D01*
X788Y911D02*
X843Y911D01*
X868Y911D02*
X875Y911D01*
X1388Y911D02*
X1395Y911D01*
X1420Y911D02*
X1475Y911D01*
X788Y910D02*
X843Y910D01*
X868Y910D02*
X875Y910D01*
X1388Y910D02*
X1395Y910D01*
X1420Y910D02*
X1475Y910D01*
X788Y909D02*
X843Y909D01*
X868Y909D02*
X875Y909D01*
X1388Y909D02*
X1395Y909D01*
X1420Y909D02*
X1475Y909D01*
X788Y908D02*
X843Y908D01*
X868Y908D02*
X875Y908D01*
X1388Y908D02*
X1396Y908D01*
X1420Y908D02*
X1475Y908D01*
X788Y907D02*
X844Y907D01*
X867Y907D02*
X875Y907D01*
X1388Y907D02*
X1396Y907D01*
X1420Y907D02*
X1475Y907D01*
X788Y906D02*
X844Y906D01*
X867Y906D02*
X875Y906D01*
X1388Y906D02*
X1396Y906D01*
X1419Y906D02*
X1475Y906D01*
X788Y905D02*
X845Y905D01*
X866Y905D02*
X875Y905D01*
X1388Y905D02*
X1397Y905D01*
X1419Y905D02*
X1475Y905D01*
X788Y904D02*
X845Y904D01*
X866Y904D02*
X875Y904D01*
X1388Y904D02*
X1398Y904D01*
X1418Y904D02*
X1475Y904D01*
X788Y903D02*
X846Y903D01*
X865Y903D02*
X875Y903D01*
X1388Y903D02*
X1398Y903D01*
X1417Y903D02*
X1475Y903D01*
X788Y902D02*
X847Y902D01*
X864Y902D02*
X875Y902D01*
X1388Y902D02*
X1400Y902D01*
X1416Y902D02*
X1475Y902D01*
X788Y901D02*
X849Y901D01*
X862Y901D02*
X875Y901D01*
X1388Y901D02*
X1401Y901D01*
X1414Y901D02*
X1475Y901D01*
X788Y900D02*
X851Y900D01*
X860Y900D02*
X875Y900D01*
X1388Y900D02*
X1403Y900D01*
X1412Y900D02*
X1475Y900D01*
X788Y899D02*
X875Y899D01*
X1388Y899D02*
X1475Y899D01*
X788Y898D02*
X875Y898D01*
X1388Y898D02*
X1475Y898D01*
X788Y897D02*
X875Y897D01*
X1388Y897D02*
X1475Y897D01*
X788Y896D02*
X875Y896D01*
X1388Y896D02*
X1475Y896D01*
X788Y895D02*
X875Y895D01*
X1388Y895D02*
X1475Y895D01*
X788Y894D02*
X875Y894D01*
X1388Y894D02*
X1475Y894D01*
X788Y893D02*
X875Y893D01*
X1388Y893D02*
X1475Y893D01*
X788Y892D02*
X875Y892D01*
X1388Y892D02*
X1475Y892D01*
X788Y891D02*
X875Y891D01*
X1388Y891D02*
X1475Y891D01*
X788Y890D02*
X875Y890D01*
X1388Y890D02*
X1475Y890D01*
X788Y889D02*
X875Y889D01*
X1388Y889D02*
X1475Y889D01*
X788Y888D02*
X875Y888D01*
X1388Y888D02*
X1475Y888D01*
X788Y856D02*
X875Y856D01*
X1388Y856D02*
X1475Y856D01*
X788Y855D02*
X875Y855D01*
X1388Y855D02*
X1475Y855D01*
X788Y854D02*
X875Y854D01*
X1388Y854D02*
X1475Y854D01*
X788Y853D02*
X875Y853D01*
X1388Y853D02*
X1475Y853D01*
X788Y852D02*
X875Y852D01*
X1388Y852D02*
X1475Y852D01*
X788Y851D02*
X875Y851D01*
X1388Y851D02*
X1475Y851D01*
X788Y850D02*
X875Y850D01*
X1388Y850D02*
X1475Y850D01*
X788Y849D02*
X875Y849D01*
X1388Y849D02*
X1475Y849D01*
X788Y848D02*
X875Y848D01*
X1388Y848D02*
X1475Y848D01*
X788Y847D02*
X875Y847D01*
X1388Y847D02*
X1475Y847D01*
X788Y846D02*
X875Y846D01*
X1388Y846D02*
X1475Y846D01*
X788Y845D02*
X875Y845D01*
X1388Y845D02*
X1475Y845D01*
X788Y844D02*
X851Y844D01*
X860Y844D02*
X875Y844D01*
X1388Y844D02*
X1403Y844D01*
X1412Y844D02*
X1475Y844D01*
X788Y843D02*
X849Y843D01*
X862Y843D02*
X875Y843D01*
X1388Y843D02*
X1401Y843D01*
X1415Y843D02*
X1475Y843D01*
X788Y842D02*
X847Y842D01*
X864Y842D02*
X875Y842D01*
X1388Y842D02*
X1400Y842D01*
X1416Y842D02*
X1475Y842D01*
X788Y841D02*
X846Y841D01*
X865Y841D02*
X875Y841D01*
X1388Y841D02*
X1398Y841D01*
X1417Y841D02*
X1475Y841D01*
X788Y840D02*
X845Y840D01*
X866Y840D02*
X875Y840D01*
X1388Y840D02*
X1398Y840D01*
X1418Y840D02*
X1475Y840D01*
X788Y839D02*
X845Y839D01*
X866Y839D02*
X875Y839D01*
X1388Y839D02*
X1397Y839D01*
X1419Y839D02*
X1475Y839D01*
X788Y838D02*
X844Y838D01*
X867Y838D02*
X875Y838D01*
X1388Y838D02*
X1396Y838D01*
X1419Y838D02*
X1475Y838D01*
X788Y837D02*
X844Y837D01*
X867Y837D02*
X875Y837D01*
X1388Y837D02*
X1396Y837D01*
X1420Y837D02*
X1475Y837D01*
X788Y836D02*
X843Y836D01*
X868Y836D02*
X875Y836D01*
X1388Y836D02*
X1396Y836D01*
X1420Y836D02*
X1475Y836D01*
X788Y835D02*
X843Y835D01*
X868Y835D02*
X875Y835D01*
X1388Y835D02*
X1395Y835D01*
X1420Y835D02*
X1475Y835D01*
X788Y834D02*
X843Y834D01*
X868Y834D02*
X875Y834D01*
X1388Y834D02*
X1395Y834D01*
X1420Y834D02*
X1475Y834D01*
X788Y833D02*
X843Y833D01*
X868Y833D02*
X875Y833D01*
X1388Y833D02*
X1395Y833D01*
X1420Y833D02*
X1475Y833D01*
X788Y832D02*
X843Y832D01*
X868Y832D02*
X875Y832D01*
X1388Y832D02*
X1395Y832D01*
X1420Y832D02*
X1475Y832D01*
X788Y831D02*
X843Y831D01*
X868Y831D02*
X875Y831D01*
X1388Y831D02*
X1395Y831D01*
X1420Y831D02*
X1475Y831D01*
X788Y830D02*
X843Y830D01*
X868Y830D02*
X875Y830D01*
X1388Y830D02*
X1395Y830D01*
X1420Y830D02*
X1475Y830D01*
X788Y829D02*
X843Y829D01*
X867Y829D02*
X875Y829D01*
X1388Y829D02*
X1396Y829D01*
X1420Y829D02*
X1475Y829D01*
X788Y828D02*
X844Y828D01*
X867Y828D02*
X875Y828D01*
X1388Y828D02*
X1396Y828D01*
X1419Y828D02*
X1475Y828D01*
X788Y827D02*
X844Y827D01*
X867Y827D02*
X875Y827D01*
X1388Y827D02*
X1397Y827D01*
X1419Y827D02*
X1475Y827D01*
X788Y826D02*
X845Y826D01*
X866Y826D02*
X875Y826D01*
X1388Y826D02*
X1397Y826D01*
X1418Y826D02*
X1475Y826D01*
X788Y825D02*
X846Y825D01*
X865Y825D02*
X875Y825D01*
X1388Y825D02*
X1398Y825D01*
X1418Y825D02*
X1475Y825D01*
X788Y824D02*
X846Y824D01*
X864Y824D02*
X875Y824D01*
X1388Y824D02*
X1399Y824D01*
X1417Y824D02*
X1475Y824D01*
X788Y823D02*
X848Y823D01*
X863Y823D02*
X875Y823D01*
X1388Y823D02*
X1400Y823D01*
X1416Y823D02*
X1475Y823D01*
X788Y822D02*
X849Y822D01*
X862Y822D02*
X875Y822D01*
X1388Y822D02*
X1401Y822D01*
X1414Y822D02*
X1475Y822D01*
X788Y821D02*
X852Y821D01*
X859Y821D02*
X875Y821D01*
X1388Y821D02*
X1404Y821D01*
X1411Y821D02*
X1475Y821D01*
X788Y820D02*
X875Y820D01*
X1388Y820D02*
X1475Y820D01*
X788Y819D02*
X875Y819D01*
X1388Y819D02*
X1475Y819D01*
X788Y818D02*
X875Y818D01*
X1388Y818D02*
X1475Y818D01*
X788Y817D02*
X875Y817D01*
X1388Y817D02*
X1475Y817D01*
X788Y816D02*
X875Y816D01*
X1388Y816D02*
X1475Y816D01*
X788Y815D02*
X875Y815D01*
X1388Y815D02*
X1475Y815D01*
X788Y814D02*
X875Y814D01*
X1388Y814D02*
X1475Y814D01*
X788Y813D02*
X875Y813D01*
X1388Y813D02*
X1475Y813D01*
X788Y812D02*
X875Y812D01*
X1388Y812D02*
X1475Y812D01*
X788Y811D02*
X875Y811D01*
X1388Y811D02*
X1475Y811D01*
X788Y810D02*
X875Y810D01*
X1388Y810D02*
X1475Y810D01*
D02*
G04 End of Copper0*
M02*