; NON-PLATED HOLES START AT T1
; THROUGH (PLATED) HOLES START AT T100
M48
INCH,LZ
T1C0.125984
T100C0.035000
T101C0.035433
T102C0.051181
T103C0.030000
T104C0.031497
T105C0.040000
T106C0.038000
T107C0.042000
%
T1
X001320Y001084
X001320Y022334
X022320Y001084
X022320Y022334
T100
X007820Y017334
X007820Y020334
X021320Y009334
X006820Y017334
X006820Y020334
X020320Y009334
T101
X015805Y012213
X004320Y001334
X016820Y010334
X016070Y002084
X006320Y014834
X003570Y008584
X022820Y009334
X007334Y010663
X002820Y005334
X003570Y012084
X005320Y007334
X007320Y014834
X006320Y005084
X002820Y012834
X005119Y013819
X007334Y009092
X005121Y010805
X002820Y018834
T102
X011627Y016971
X010820Y019333
X016411Y016971
X011627Y021695
X016411Y021695
T103
X017320Y004332
X017320Y005334
T104
X005570Y003834
X005570Y002849
T105
X020320Y016334
X020320Y014334
X020320Y020334
X020320Y012334
X020320Y018334
T106
X017320Y008334
X019320Y004334
X001820Y019834
X018320Y003334
X017320Y006334
X019320Y005334
X001820Y010584
X018320Y006334
X016320Y003334
X001820Y009584
X016320Y006334
X018320Y005334
X001820Y012584
X017320Y007334
X001820Y008584
X001820Y016834
X001820Y015834
X018320Y004334
X001820Y011584
X019320Y003334
X001820Y018834
X017320Y003334
X001820Y006584
X015320Y003334
X001820Y013584
X001820Y007584
X001820Y004334
X001820Y003334
X017320Y009334
X019320Y006334
T107
X008745Y017259
X008745Y020239
T00
M30
