G04 MADE WITH FRITZING*
G04 WWW.FRITZING.ORG*
G04 DOUBLE SIDED*
G04 HOLES PLATED*
G04 CONTOUR ON CENTER OF CONTOUR VECTOR*
%ASAXBY*%
%FSLAX23Y23*%
%MOIN*%
%OFA0B0*%
%SFA1.0B1.0*%
%ADD10C,0.080000*%
%ADD11C,0.092000*%
%ADD12C,0.072992*%
%ADD13C,0.090000*%
%ADD14C,0.085433*%
%ADD15C,0.085000*%
%ADD16C,0.088000*%
%ADD17C,0.135984*%
%ADD18R,0.092000X0.092000*%
%ADD19R,0.072992X0.072992*%
%ADD20R,0.072992X0.084803*%
%ADD21R,0.041496X0.045433*%
%ADD22R,0.090000X0.090000*%
%ADD23R,0.089986X0.090000*%
%ADD24R,0.085000X0.085000*%
%ADD25R,0.084803X0.072992*%
%ADD26R,0.088000X0.088000*%
%ADD27R,0.058000X0.098000*%
%ADD28R,0.151732X0.096614*%
%ADD29R,0.001000X0.001000*%
%LNMASK0*%
G90*
G70*
G54D10*
X1732Y533D03*
X1732Y433D03*
G54D11*
X875Y2024D03*
X875Y1726D03*
G54D12*
X557Y285D03*
X557Y383D03*
G54D13*
X2032Y1833D03*
X2032Y1633D03*
X2032Y2033D03*
X2032Y1433D03*
X2032Y1233D03*
G54D14*
X357Y1208D03*
X357Y858D03*
X512Y1081D03*
X512Y1382D03*
X733Y909D03*
X632Y1483D03*
X282Y1283D03*
X282Y533D03*
X282Y1883D03*
X432Y133D03*
X1682Y1033D03*
X1581Y1221D03*
X632Y508D03*
X1607Y208D03*
X532Y733D03*
X733Y1066D03*
X732Y1483D03*
G54D15*
X2032Y933D03*
X2132Y933D03*
X2032Y933D03*
X2132Y933D03*
X682Y1733D03*
X682Y2033D03*
X782Y1733D03*
X782Y2033D03*
G54D16*
X182Y1358D03*
X182Y1258D03*
X182Y1158D03*
X182Y1058D03*
X182Y958D03*
X182Y858D03*
X182Y758D03*
X182Y658D03*
X182Y1583D03*
X182Y1583D03*
X182Y1683D03*
X182Y1883D03*
X182Y1983D03*
X182Y333D03*
X182Y433D03*
X1832Y533D03*
X1932Y533D03*
X1832Y533D03*
X1932Y533D03*
X1932Y433D03*
X1832Y433D03*
X1832Y533D03*
X1932Y533D03*
X1832Y533D03*
X1932Y533D03*
X1932Y433D03*
X1832Y433D03*
G54D17*
X132Y2233D03*
X132Y108D03*
X2232Y2233D03*
X2232Y108D03*
G54D16*
X1532Y333D03*
X1632Y333D03*
X1732Y333D03*
X1832Y333D03*
X1932Y333D03*
X1732Y933D03*
X1732Y833D03*
X1732Y733D03*
X1732Y933D03*
X1732Y833D03*
X1732Y733D03*
X1632Y633D03*
X1732Y633D03*
X1832Y633D03*
X1932Y633D03*
X1632Y633D03*
X1732Y633D03*
X1832Y633D03*
X1932Y633D03*
G54D14*
X2282Y933D03*
G54D18*
X875Y2025D03*
G54D19*
X557Y285D03*
G54D20*
X556Y1733D03*
X434Y1733D03*
X554Y2033D03*
X432Y2033D03*
G54D21*
X432Y1916D03*
X507Y1916D03*
X470Y1838D03*
G54D22*
X2032Y2033D03*
G54D23*
X2032Y1433D03*
G54D24*
X2032Y933D03*
X2032Y933D03*
X682Y1733D03*
G54D20*
X1799Y1133D03*
X1677Y1133D03*
X510Y883D03*
X632Y883D03*
X1677Y1233D03*
X1799Y1233D03*
X1799Y1333D03*
X1677Y1333D03*
G54D25*
X332Y333D03*
X332Y211D03*
G54D20*
X554Y1583D03*
X432Y1583D03*
X510Y988D03*
X632Y988D03*
G54D26*
X1732Y933D03*
X1732Y933D03*
G54D27*
X2041Y727D03*
X2132Y727D03*
X2223Y727D03*
G54D28*
X2132Y483D03*
G54D29*
X1153Y2239D02*
X1171Y2239D01*
X1631Y2239D02*
X1650Y2239D01*
X1147Y2238D02*
X1177Y2238D01*
X1626Y2238D02*
X1655Y2238D01*
X1143Y2237D02*
X1181Y2237D01*
X1622Y2237D02*
X1659Y2237D01*
X1140Y2236D02*
X1184Y2236D01*
X1618Y2236D02*
X1663Y2236D01*
X1137Y2235D02*
X1187Y2235D01*
X1616Y2235D02*
X1665Y2235D01*
X1135Y2234D02*
X1190Y2234D01*
X1613Y2234D02*
X1668Y2234D01*
X1133Y2233D02*
X1192Y2233D01*
X1611Y2233D02*
X1670Y2233D01*
X1131Y2232D02*
X1194Y2232D01*
X1609Y2232D02*
X1672Y2232D01*
X1129Y2231D02*
X1196Y2231D01*
X1607Y2231D02*
X1674Y2231D01*
X1127Y2230D02*
X1197Y2230D01*
X1605Y2230D02*
X1675Y2230D01*
X1126Y2229D02*
X1199Y2229D01*
X1604Y2229D02*
X1677Y2229D01*
X1124Y2228D02*
X1200Y2228D01*
X1602Y2228D02*
X1679Y2228D01*
X1123Y2227D02*
X1202Y2227D01*
X1601Y2227D02*
X1680Y2227D01*
X1121Y2226D02*
X1203Y2226D01*
X1599Y2226D02*
X1681Y2226D01*
X1120Y2225D02*
X1205Y2225D01*
X1598Y2225D02*
X1683Y2225D01*
X1118Y2224D02*
X1206Y2224D01*
X1597Y2224D02*
X1684Y2224D01*
X1117Y2223D02*
X1207Y2223D01*
X1596Y2223D02*
X1685Y2223D01*
X1116Y2222D02*
X1208Y2222D01*
X1594Y2222D02*
X1687Y2222D01*
X1115Y2221D02*
X1209Y2221D01*
X1593Y2221D02*
X1688Y2221D01*
X1114Y2220D02*
X1210Y2220D01*
X1592Y2220D02*
X1689Y2220D01*
X1113Y2219D02*
X1211Y2219D01*
X1591Y2219D02*
X1690Y2219D01*
X1112Y2218D02*
X1212Y2218D01*
X1590Y2218D02*
X1691Y2218D01*
X1111Y2217D02*
X1213Y2217D01*
X1589Y2217D02*
X1692Y2217D01*
X1110Y2216D02*
X1214Y2216D01*
X1588Y2216D02*
X1692Y2216D01*
X1109Y2215D02*
X1215Y2215D01*
X1588Y2215D02*
X1693Y2215D01*
X1108Y2214D02*
X1216Y2214D01*
X1587Y2214D02*
X1694Y2214D01*
X1108Y2213D02*
X1217Y2213D01*
X1586Y2213D02*
X1695Y2213D01*
X1107Y2212D02*
X1217Y2212D01*
X1585Y2212D02*
X1696Y2212D01*
X1106Y2211D02*
X1218Y2211D01*
X1585Y2211D02*
X1696Y2211D01*
X1106Y2210D02*
X1219Y2210D01*
X1584Y2210D02*
X1697Y2210D01*
X1105Y2209D02*
X1220Y2209D01*
X1583Y2209D02*
X1698Y2209D01*
X1104Y2208D02*
X1220Y2208D01*
X1582Y2208D02*
X1698Y2208D01*
X1104Y2207D02*
X1221Y2207D01*
X1582Y2207D02*
X1699Y2207D01*
X1103Y2206D02*
X1221Y2206D01*
X1581Y2206D02*
X1700Y2206D01*
X1102Y2205D02*
X1222Y2205D01*
X1581Y2205D02*
X1700Y2205D01*
X1102Y2204D02*
X1223Y2204D01*
X1580Y2204D02*
X1701Y2204D01*
X1101Y2203D02*
X1223Y2203D01*
X1579Y2203D02*
X1702Y2203D01*
X1101Y2202D02*
X1224Y2202D01*
X1579Y2202D02*
X1702Y2202D01*
X1100Y2201D02*
X1224Y2201D01*
X1578Y2201D02*
X1703Y2201D01*
X1100Y2200D02*
X1225Y2200D01*
X1578Y2200D02*
X1703Y2200D01*
X1099Y2199D02*
X1225Y2199D01*
X1577Y2199D02*
X1704Y2199D01*
X1099Y2198D02*
X1226Y2198D01*
X1577Y2198D02*
X1704Y2198D01*
X1098Y2197D02*
X1226Y2197D01*
X1576Y2197D02*
X1704Y2197D01*
X1098Y2196D02*
X1227Y2196D01*
X1576Y2196D02*
X1705Y2196D01*
X1097Y2195D02*
X1227Y2195D01*
X1576Y2195D02*
X1705Y2195D01*
X1097Y2194D02*
X1227Y2194D01*
X1575Y2194D02*
X1706Y2194D01*
X1097Y2193D02*
X1228Y2193D01*
X1575Y2193D02*
X1706Y2193D01*
X1096Y2192D02*
X1228Y2192D01*
X1575Y2192D02*
X1706Y2192D01*
X1096Y2191D02*
X1228Y2191D01*
X1574Y2191D02*
X1707Y2191D01*
X1096Y2190D02*
X1229Y2190D01*
X1574Y2190D02*
X1707Y2190D01*
X1096Y2189D02*
X1229Y2189D01*
X1574Y2189D02*
X1707Y2189D01*
X1095Y2188D02*
X1229Y2188D01*
X1574Y2188D02*
X1707Y2188D01*
X1095Y2187D02*
X1229Y2187D01*
X1573Y2187D02*
X1708Y2187D01*
X1095Y2186D02*
X1230Y2186D01*
X1573Y2186D02*
X1708Y2186D01*
X1095Y2185D02*
X1230Y2185D01*
X1573Y2185D02*
X1708Y2185D01*
X1094Y2184D02*
X1230Y2184D01*
X1573Y2184D02*
X1708Y2184D01*
X1094Y2183D02*
X1230Y2183D01*
X1572Y2183D02*
X1709Y2183D01*
X1094Y2182D02*
X1230Y2182D01*
X1572Y2182D02*
X1709Y2182D01*
X1094Y2181D02*
X1231Y2181D01*
X1572Y2181D02*
X1709Y2181D01*
X1094Y2180D02*
X1231Y2180D01*
X1572Y2180D02*
X1709Y2180D01*
X1093Y2179D02*
X1231Y2179D01*
X1572Y2179D02*
X1709Y2179D01*
X1093Y2178D02*
X1231Y2178D01*
X1572Y2178D02*
X1709Y2178D01*
X1093Y2177D02*
X1231Y2177D01*
X1571Y2177D02*
X1709Y2177D01*
X1093Y2176D02*
X1231Y2176D01*
X1571Y2176D02*
X1710Y2176D01*
X1093Y2175D02*
X1231Y2175D01*
X1571Y2175D02*
X1710Y2175D01*
X1093Y2174D02*
X1231Y2174D01*
X1571Y2174D02*
X1710Y2174D01*
X1093Y2173D02*
X1231Y2173D01*
X1571Y2173D02*
X1710Y2173D01*
X1093Y2172D02*
X1231Y2172D01*
X1571Y2172D02*
X1710Y2172D01*
X1093Y2171D02*
X1232Y2171D01*
X1571Y2171D02*
X1710Y2171D01*
X1093Y2170D02*
X1232Y2170D01*
X1571Y2170D02*
X1710Y2170D01*
X1093Y2169D02*
X1232Y2169D01*
X1571Y2169D02*
X1710Y2169D01*
X1093Y2168D02*
X1231Y2168D01*
X1571Y2168D02*
X1710Y2168D01*
X1093Y2167D02*
X1231Y2167D01*
X1571Y2167D02*
X1710Y2167D01*
X1093Y2166D02*
X1231Y2166D01*
X1571Y2166D02*
X1710Y2166D01*
X1093Y2165D02*
X1231Y2165D01*
X1571Y2165D02*
X1710Y2165D01*
X1093Y2164D02*
X1231Y2164D01*
X1571Y2164D02*
X1710Y2164D01*
X1093Y2163D02*
X1231Y2163D01*
X1571Y2163D02*
X1710Y2163D01*
X1093Y2162D02*
X1231Y2162D01*
X1572Y2162D02*
X1709Y2162D01*
X1093Y2161D02*
X1231Y2161D01*
X1572Y2161D02*
X1709Y2161D01*
X1094Y2160D02*
X1231Y2160D01*
X1572Y2160D02*
X1709Y2160D01*
X1094Y2159D02*
X1231Y2159D01*
X1572Y2159D02*
X1709Y2159D01*
X1094Y2158D02*
X1230Y2158D01*
X1572Y2158D02*
X1709Y2158D01*
X1094Y2157D02*
X1230Y2157D01*
X1572Y2157D02*
X1709Y2157D01*
X1094Y2156D02*
X1230Y2156D01*
X1573Y2156D02*
X1708Y2156D01*
X1094Y2155D02*
X1230Y2155D01*
X1573Y2155D02*
X1708Y2155D01*
X1095Y2154D02*
X1230Y2154D01*
X1573Y2154D02*
X1708Y2154D01*
X1095Y2153D02*
X1229Y2153D01*
X1573Y2153D02*
X1708Y2153D01*
X1095Y2152D02*
X1229Y2152D01*
X1574Y2152D02*
X1707Y2152D01*
X1095Y2151D02*
X1229Y2151D01*
X1574Y2151D02*
X1707Y2151D01*
X1096Y2150D02*
X1229Y2150D01*
X1574Y2150D02*
X1707Y2150D01*
X1096Y2149D02*
X1228Y2149D01*
X1574Y2149D02*
X1707Y2149D01*
X1096Y2148D02*
X1228Y2148D01*
X1575Y2148D02*
X1706Y2148D01*
X1097Y2147D02*
X1228Y2147D01*
X1575Y2147D02*
X1706Y2147D01*
X1097Y2146D02*
X1227Y2146D01*
X1575Y2146D02*
X1706Y2146D01*
X1097Y2145D02*
X1227Y2145D01*
X1576Y2145D02*
X1705Y2145D01*
X1098Y2144D02*
X1227Y2144D01*
X1576Y2144D02*
X1705Y2144D01*
X1098Y2143D02*
X1226Y2143D01*
X1576Y2143D02*
X1705Y2143D01*
X1099Y2142D02*
X1226Y2142D01*
X1577Y2142D02*
X1704Y2142D01*
X1099Y2141D02*
X1225Y2141D01*
X1577Y2141D02*
X1704Y2141D01*
X1100Y2140D02*
X1225Y2140D01*
X1578Y2140D02*
X1703Y2140D01*
X1100Y2139D02*
X1224Y2139D01*
X1578Y2139D02*
X1703Y2139D01*
X1101Y2138D02*
X1224Y2138D01*
X1579Y2138D02*
X1702Y2138D01*
X1101Y2137D02*
X1223Y2137D01*
X1579Y2137D02*
X1702Y2137D01*
X1102Y2136D02*
X1223Y2136D01*
X1580Y2136D02*
X1701Y2136D01*
X1102Y2135D02*
X1222Y2135D01*
X1581Y2135D02*
X1700Y2135D01*
X1103Y2134D02*
X1221Y2134D01*
X1581Y2134D02*
X1700Y2134D01*
X1103Y2133D02*
X1221Y2133D01*
X1582Y2133D02*
X1699Y2133D01*
X1104Y2132D02*
X1220Y2132D01*
X1582Y2132D02*
X1699Y2132D01*
X1105Y2131D02*
X1220Y2131D01*
X1583Y2131D02*
X1698Y2131D01*
X1105Y2130D02*
X1219Y2130D01*
X1584Y2130D02*
X1697Y2130D01*
X1106Y2129D02*
X1218Y2129D01*
X1584Y2129D02*
X1696Y2129D01*
X1107Y2128D02*
X1217Y2128D01*
X1585Y2128D02*
X1696Y2128D01*
X1108Y2127D02*
X1217Y2127D01*
X1586Y2127D02*
X1695Y2127D01*
X1108Y2126D02*
X1216Y2126D01*
X1587Y2126D02*
X1694Y2126D01*
X1109Y2125D02*
X1215Y2125D01*
X1587Y2125D02*
X1693Y2125D01*
X1110Y2124D02*
X1214Y2124D01*
X1588Y2124D02*
X1693Y2124D01*
X1111Y2123D02*
X1213Y2123D01*
X1589Y2123D02*
X1692Y2123D01*
X1112Y2122D02*
X1213Y2122D01*
X1590Y2122D02*
X1691Y2122D01*
X1113Y2121D02*
X1212Y2121D01*
X1591Y2121D02*
X1690Y2121D01*
X1114Y2120D02*
X1211Y2120D01*
X1592Y2120D02*
X1689Y2120D01*
X1115Y2119D02*
X1210Y2119D01*
X1593Y2119D02*
X1688Y2119D01*
X1116Y2118D02*
X1208Y2118D01*
X1594Y2118D02*
X1687Y2118D01*
X1117Y2117D02*
X1207Y2117D01*
X1595Y2117D02*
X1686Y2117D01*
X1118Y2116D02*
X1206Y2116D01*
X1597Y2116D02*
X1684Y2116D01*
X1120Y2115D02*
X1205Y2115D01*
X1598Y2115D02*
X1683Y2115D01*
X1121Y2114D02*
X1203Y2114D01*
X1599Y2114D02*
X1682Y2114D01*
X1122Y2113D02*
X1202Y2113D01*
X1601Y2113D02*
X1680Y2113D01*
X1124Y2112D02*
X1201Y2112D01*
X1602Y2112D02*
X1679Y2112D01*
X1125Y2111D02*
X1199Y2111D01*
X1604Y2111D02*
X1677Y2111D01*
X1127Y2110D02*
X1197Y2110D01*
X1605Y2110D02*
X1676Y2110D01*
X1129Y2109D02*
X1196Y2109D01*
X1607Y2109D02*
X1674Y2109D01*
X1130Y2108D02*
X1194Y2108D01*
X1609Y2108D02*
X1672Y2108D01*
X1132Y2107D02*
X1192Y2107D01*
X1611Y2107D02*
X1670Y2107D01*
X1134Y2106D02*
X1190Y2106D01*
X1613Y2106D02*
X1668Y2106D01*
X1137Y2105D02*
X1188Y2105D01*
X1615Y2105D02*
X1666Y2105D01*
X1140Y2104D02*
X1185Y2104D01*
X1618Y2104D02*
X1663Y2104D01*
X1143Y2103D02*
X1182Y2103D01*
X1621Y2103D02*
X1660Y2103D01*
X1147Y2102D02*
X1178Y2102D01*
X1625Y2102D02*
X1656Y2102D01*
X1152Y2101D02*
X1172Y2101D01*
X1630Y2101D02*
X1651Y2101D01*
X1162Y2100D02*
X1162Y2100D01*
X1073Y2003D02*
X1090Y2003D01*
X1067Y2002D02*
X1096Y2002D01*
X1063Y2001D02*
X1100Y2001D01*
X1060Y2000D02*
X1103Y2000D01*
X1057Y1999D02*
X1106Y1999D01*
X1054Y1998D02*
X1109Y1998D01*
X1052Y1997D02*
X1111Y1997D01*
X1050Y1996D02*
X1113Y1996D01*
X1048Y1995D02*
X1115Y1995D01*
X1047Y1994D02*
X1116Y1994D01*
X1045Y1993D02*
X1118Y1993D01*
X1044Y1992D02*
X1119Y1992D01*
X1042Y1991D02*
X1121Y1991D01*
X1041Y1990D02*
X1122Y1990D01*
X1039Y1989D02*
X1124Y1989D01*
X1038Y1988D02*
X1125Y1988D01*
X1037Y1987D02*
X1126Y1987D01*
X1036Y1986D02*
X1127Y1986D01*
X1035Y1985D02*
X1128Y1985D01*
X1033Y1984D02*
X1130Y1984D01*
X1032Y1983D02*
X1131Y1983D01*
X1031Y1982D02*
X1132Y1982D01*
X1031Y1981D02*
X1132Y1981D01*
X1030Y1980D02*
X1133Y1980D01*
X1029Y1979D02*
X1134Y1979D01*
X1028Y1978D02*
X1135Y1978D01*
X1027Y1977D02*
X1136Y1977D01*
X1026Y1976D02*
X1137Y1976D01*
X1026Y1975D02*
X1137Y1975D01*
X1025Y1974D02*
X1138Y1974D01*
X1024Y1973D02*
X1139Y1973D01*
X1024Y1972D02*
X1139Y1972D01*
X1023Y1971D02*
X1140Y1971D01*
X1022Y1970D02*
X1141Y1970D01*
X1022Y1969D02*
X1141Y1969D01*
X1021Y1968D02*
X1142Y1968D01*
X1021Y1967D02*
X1142Y1967D01*
X1020Y1966D02*
X1143Y1966D01*
X1020Y1965D02*
X1143Y1965D01*
X1019Y1964D02*
X1144Y1964D01*
X1019Y1963D02*
X1144Y1963D01*
X1018Y1962D02*
X1145Y1962D01*
X1018Y1961D02*
X1145Y1961D01*
X1017Y1960D02*
X1146Y1960D01*
X1017Y1959D02*
X1146Y1959D01*
X1016Y1958D02*
X1146Y1958D01*
X1016Y1957D02*
X1147Y1957D01*
X1016Y1956D02*
X1147Y1956D01*
X1015Y1955D02*
X1148Y1955D01*
X1015Y1954D02*
X1148Y1954D01*
X1015Y1953D02*
X1148Y1953D01*
X1015Y1952D02*
X1148Y1952D01*
X1014Y1951D02*
X1149Y1951D01*
X1014Y1950D02*
X1149Y1950D01*
X1014Y1949D02*
X1149Y1949D01*
X1014Y1948D02*
X1149Y1948D01*
X1013Y1947D02*
X1149Y1947D01*
X1013Y1946D02*
X1150Y1946D01*
X1013Y1945D02*
X1150Y1945D01*
X1013Y1944D02*
X1150Y1944D01*
X1013Y1943D02*
X1150Y1943D01*
X1013Y1942D02*
X1150Y1942D01*
X1012Y1941D02*
X1150Y1941D01*
X1012Y1940D02*
X1151Y1940D01*
X1012Y1939D02*
X1151Y1939D01*
X1012Y1938D02*
X1151Y1938D01*
X1012Y1937D02*
X1151Y1937D01*
X1012Y1936D02*
X1151Y1936D01*
X1012Y1935D02*
X1151Y1935D01*
X1012Y1934D02*
X1151Y1934D01*
X1012Y1933D02*
X1151Y1933D01*
X1012Y1932D02*
X1151Y1932D01*
X1012Y1931D02*
X1151Y1931D01*
X1012Y1930D02*
X1151Y1930D01*
X1012Y1929D02*
X1151Y1929D01*
X1012Y1928D02*
X1151Y1928D01*
X1012Y1927D02*
X1151Y1927D01*
X1013Y1926D02*
X1150Y1926D01*
X1013Y1925D02*
X1150Y1925D01*
X1013Y1924D02*
X1150Y1924D01*
X1013Y1923D02*
X1150Y1923D01*
X1013Y1922D02*
X1150Y1922D01*
X1013Y1921D02*
X1150Y1921D01*
X1014Y1920D02*
X1149Y1920D01*
X1014Y1919D02*
X1149Y1919D01*
X1014Y1918D02*
X1149Y1918D01*
X1014Y1917D02*
X1149Y1917D01*
X1014Y1916D02*
X1148Y1916D01*
X1015Y1915D02*
X1148Y1915D01*
X1015Y1914D02*
X1148Y1914D01*
X1015Y1913D02*
X1148Y1913D01*
X1016Y1912D02*
X1147Y1912D01*
X1016Y1911D02*
X1147Y1911D01*
X1016Y1910D02*
X1147Y1910D01*
X1017Y1909D02*
X1146Y1909D01*
X1017Y1908D02*
X1146Y1908D01*
X1017Y1907D02*
X1146Y1907D01*
X1018Y1906D02*
X1145Y1906D01*
X1018Y1905D02*
X1145Y1905D01*
X1019Y1904D02*
X1144Y1904D01*
X1019Y1903D02*
X1144Y1903D01*
X1020Y1902D02*
X1143Y1902D01*
X1020Y1901D02*
X1143Y1901D01*
X1021Y1900D02*
X1142Y1900D01*
X1021Y1899D02*
X1142Y1899D01*
X1022Y1898D02*
X1141Y1898D01*
X1023Y1897D02*
X1140Y1897D01*
X1023Y1896D02*
X1140Y1896D01*
X1024Y1895D02*
X1139Y1895D01*
X1025Y1894D02*
X1138Y1894D01*
X1025Y1893D02*
X1138Y1893D01*
X1026Y1892D02*
X1137Y1892D01*
X1027Y1891D02*
X1136Y1891D01*
X1028Y1890D02*
X1135Y1890D01*
X1028Y1889D02*
X1135Y1889D01*
X1029Y1888D02*
X1134Y1888D01*
X1030Y1887D02*
X1133Y1887D01*
X1031Y1886D02*
X1132Y1886D01*
X1032Y1885D02*
X1131Y1885D01*
X1033Y1884D02*
X1130Y1884D01*
X1034Y1883D02*
X1129Y1883D01*
X1035Y1882D02*
X1128Y1882D01*
X1036Y1881D02*
X1127Y1881D01*
X1037Y1880D02*
X1126Y1880D01*
X1039Y1879D02*
X1124Y1879D01*
X1040Y1878D02*
X1123Y1878D01*
X1041Y1877D02*
X1122Y1877D01*
X1043Y1876D02*
X1120Y1876D01*
X1044Y1875D02*
X1119Y1875D01*
X1046Y1874D02*
X1117Y1874D01*
X1048Y1873D02*
X1115Y1873D01*
X1049Y1872D02*
X1114Y1872D01*
X1051Y1871D02*
X1112Y1871D01*
X1053Y1870D02*
X1110Y1870D01*
X1056Y1869D02*
X1107Y1869D01*
X1058Y1868D02*
X1105Y1868D01*
X1061Y1867D02*
X1102Y1867D01*
X1065Y1866D02*
X1098Y1866D01*
X1070Y1865D02*
X1093Y1865D01*
X1078Y1864D02*
X1084Y1864D01*
X1155Y1767D02*
X1169Y1767D01*
X1634Y1767D02*
X1647Y1767D01*
X1149Y1766D02*
X1175Y1766D01*
X1627Y1766D02*
X1654Y1766D01*
X1145Y1765D02*
X1180Y1765D01*
X1623Y1765D02*
X1658Y1765D01*
X1141Y1764D02*
X1183Y1764D01*
X1619Y1764D02*
X1662Y1764D01*
X1138Y1763D02*
X1186Y1763D01*
X1617Y1763D02*
X1664Y1763D01*
X1135Y1762D02*
X1189Y1762D01*
X1614Y1762D02*
X1667Y1762D01*
X1133Y1761D02*
X1191Y1761D01*
X1612Y1761D02*
X1669Y1761D01*
X1131Y1760D02*
X1193Y1760D01*
X1610Y1760D02*
X1671Y1760D01*
X1129Y1759D02*
X1195Y1759D01*
X1608Y1759D02*
X1673Y1759D01*
X1128Y1758D02*
X1197Y1758D01*
X1606Y1758D02*
X1675Y1758D01*
X1126Y1757D02*
X1198Y1757D01*
X1604Y1757D02*
X1677Y1757D01*
X1125Y1756D02*
X1200Y1756D01*
X1603Y1756D02*
X1678Y1756D01*
X1123Y1755D02*
X1201Y1755D01*
X1601Y1755D02*
X1680Y1755D01*
X1122Y1754D02*
X1203Y1754D01*
X1600Y1754D02*
X1681Y1754D01*
X1120Y1753D02*
X1204Y1753D01*
X1599Y1753D02*
X1682Y1753D01*
X1119Y1752D02*
X1205Y1752D01*
X1597Y1752D02*
X1684Y1752D01*
X1118Y1751D02*
X1207Y1751D01*
X1596Y1751D02*
X1685Y1751D01*
X1117Y1750D02*
X1208Y1750D01*
X1595Y1750D02*
X1686Y1750D01*
X1115Y1749D02*
X1209Y1749D01*
X1594Y1749D02*
X1687Y1749D01*
X1114Y1748D02*
X1210Y1748D01*
X1593Y1748D02*
X1688Y1748D01*
X1113Y1747D02*
X1211Y1747D01*
X1592Y1747D02*
X1689Y1747D01*
X1112Y1746D02*
X1212Y1746D01*
X1591Y1746D02*
X1690Y1746D01*
X1111Y1745D02*
X1213Y1745D01*
X1590Y1745D02*
X1691Y1745D01*
X1111Y1744D02*
X1214Y1744D01*
X1589Y1744D02*
X1692Y1744D01*
X1110Y1743D02*
X1215Y1743D01*
X1588Y1743D02*
X1693Y1743D01*
X1109Y1742D02*
X1216Y1742D01*
X1587Y1742D02*
X1694Y1742D01*
X1108Y1741D02*
X1216Y1741D01*
X1586Y1741D02*
X1695Y1741D01*
X1107Y1740D02*
X1217Y1740D01*
X1586Y1740D02*
X1695Y1740D01*
X1107Y1739D02*
X1218Y1739D01*
X1585Y1739D02*
X1696Y1739D01*
X1106Y1738D02*
X1219Y1738D01*
X1584Y1738D02*
X1697Y1738D01*
X1105Y1737D02*
X1219Y1737D01*
X1583Y1737D02*
X1698Y1737D01*
X1104Y1736D02*
X1220Y1736D01*
X1583Y1736D02*
X1698Y1736D01*
X1104Y1735D02*
X1221Y1735D01*
X1582Y1735D02*
X1699Y1735D01*
X1103Y1734D02*
X1221Y1734D01*
X1581Y1734D02*
X1699Y1734D01*
X1103Y1733D02*
X1222Y1733D01*
X1581Y1733D02*
X1700Y1733D01*
X1102Y1732D02*
X1222Y1732D01*
X1580Y1732D02*
X1701Y1732D01*
X1101Y1731D02*
X1223Y1731D01*
X1580Y1731D02*
X1701Y1731D01*
X1101Y1730D02*
X1224Y1730D01*
X1579Y1730D02*
X1702Y1730D01*
X1100Y1729D02*
X1224Y1729D01*
X1579Y1729D02*
X1702Y1729D01*
X1100Y1728D02*
X1225Y1728D01*
X1578Y1728D02*
X1703Y1728D01*
X1099Y1727D02*
X1225Y1727D01*
X1578Y1727D02*
X1703Y1727D01*
X1099Y1726D02*
X1226Y1726D01*
X1577Y1726D02*
X1704Y1726D01*
X1098Y1725D02*
X1226Y1725D01*
X1577Y1725D02*
X1704Y1725D01*
X1098Y1724D02*
X1226Y1724D01*
X1576Y1724D02*
X1705Y1724D01*
X1098Y1723D02*
X1227Y1723D01*
X1576Y1723D02*
X1705Y1723D01*
X1097Y1722D02*
X1227Y1722D01*
X1576Y1722D02*
X1705Y1722D01*
X1097Y1721D02*
X1227Y1721D01*
X1575Y1721D02*
X1706Y1721D01*
X1097Y1720D02*
X1228Y1720D01*
X1575Y1720D02*
X1706Y1720D01*
X1096Y1719D02*
X1228Y1719D01*
X1574Y1719D02*
X1706Y1719D01*
X1096Y1718D02*
X1228Y1718D01*
X1574Y1718D02*
X1707Y1718D01*
X1096Y1717D02*
X1229Y1717D01*
X1574Y1717D02*
X1707Y1717D01*
X1095Y1716D02*
X1229Y1716D01*
X1574Y1716D02*
X1707Y1716D01*
X1095Y1715D02*
X1229Y1715D01*
X1573Y1715D02*
X1708Y1715D01*
X1095Y1714D02*
X1229Y1714D01*
X1573Y1714D02*
X1708Y1714D01*
X1095Y1713D02*
X1230Y1713D01*
X1573Y1713D02*
X1708Y1713D01*
X1094Y1712D02*
X1230Y1712D01*
X1573Y1712D02*
X1708Y1712D01*
X1094Y1711D02*
X1230Y1711D01*
X1572Y1711D02*
X1708Y1711D01*
X1094Y1710D02*
X1230Y1710D01*
X1572Y1710D02*
X1709Y1710D01*
X1094Y1709D02*
X1230Y1709D01*
X1572Y1709D02*
X1709Y1709D01*
X1094Y1708D02*
X1231Y1708D01*
X1572Y1708D02*
X1709Y1708D01*
X1094Y1707D02*
X1231Y1707D01*
X1572Y1707D02*
X1709Y1707D01*
X1093Y1706D02*
X1231Y1706D01*
X1572Y1706D02*
X1709Y1706D01*
X1093Y1705D02*
X1231Y1705D01*
X1572Y1705D02*
X1709Y1705D01*
X1093Y1704D02*
X1231Y1704D01*
X1571Y1704D02*
X1710Y1704D01*
X1093Y1703D02*
X1231Y1703D01*
X1571Y1703D02*
X1710Y1703D01*
X1093Y1702D02*
X1231Y1702D01*
X1571Y1702D02*
X1710Y1702D01*
X1093Y1701D02*
X1231Y1701D01*
X1571Y1701D02*
X1710Y1701D01*
X1093Y1700D02*
X1231Y1700D01*
X1571Y1700D02*
X1710Y1700D01*
X1093Y1699D02*
X1232Y1699D01*
X1571Y1699D02*
X1710Y1699D01*
X1093Y1698D02*
X1232Y1698D01*
X1571Y1698D02*
X1710Y1698D01*
X1093Y1697D02*
X1232Y1697D01*
X1571Y1697D02*
X1710Y1697D01*
X1093Y1696D02*
X1232Y1696D01*
X1571Y1696D02*
X1710Y1696D01*
X1093Y1695D02*
X1231Y1695D01*
X1571Y1695D02*
X1710Y1695D01*
X1093Y1694D02*
X1231Y1694D01*
X1571Y1694D02*
X1710Y1694D01*
X1093Y1693D02*
X1231Y1693D01*
X1571Y1693D02*
X1710Y1693D01*
X1093Y1692D02*
X1231Y1692D01*
X1571Y1692D02*
X1710Y1692D01*
X1093Y1691D02*
X1231Y1691D01*
X1571Y1691D02*
X1710Y1691D01*
X1093Y1690D02*
X1231Y1690D01*
X1572Y1690D02*
X1709Y1690D01*
X1093Y1689D02*
X1231Y1689D01*
X1572Y1689D02*
X1709Y1689D01*
X1094Y1688D02*
X1231Y1688D01*
X1572Y1688D02*
X1709Y1688D01*
X1094Y1687D02*
X1231Y1687D01*
X1572Y1687D02*
X1709Y1687D01*
X1094Y1686D02*
X1230Y1686D01*
X1572Y1686D02*
X1709Y1686D01*
X1094Y1685D02*
X1230Y1685D01*
X1572Y1685D02*
X1709Y1685D01*
X1094Y1684D02*
X1230Y1684D01*
X1572Y1684D02*
X1708Y1684D01*
X1094Y1683D02*
X1230Y1683D01*
X1573Y1683D02*
X1708Y1683D01*
X1095Y1682D02*
X1230Y1682D01*
X1573Y1682D02*
X1708Y1682D01*
X1095Y1681D02*
X1229Y1681D01*
X1573Y1681D02*
X1708Y1681D01*
X1095Y1680D02*
X1229Y1680D01*
X1573Y1680D02*
X1708Y1680D01*
X1095Y1679D02*
X1229Y1679D01*
X1574Y1679D02*
X1707Y1679D01*
X1096Y1678D02*
X1229Y1678D01*
X1574Y1678D02*
X1707Y1678D01*
X1096Y1677D02*
X1228Y1677D01*
X1574Y1677D02*
X1707Y1677D01*
X1096Y1676D02*
X1228Y1676D01*
X1575Y1676D02*
X1706Y1676D01*
X1097Y1675D02*
X1228Y1675D01*
X1575Y1675D02*
X1706Y1675D01*
X1097Y1674D02*
X1227Y1674D01*
X1575Y1674D02*
X1706Y1674D01*
X1097Y1673D02*
X1227Y1673D01*
X1576Y1673D02*
X1705Y1673D01*
X1098Y1672D02*
X1227Y1672D01*
X1576Y1672D02*
X1705Y1672D01*
X1098Y1671D02*
X1226Y1671D01*
X1576Y1671D02*
X1705Y1671D01*
X1098Y1670D02*
X1226Y1670D01*
X1577Y1670D02*
X1704Y1670D01*
X1099Y1669D02*
X1225Y1669D01*
X1577Y1669D02*
X1704Y1669D01*
X1099Y1668D02*
X1225Y1668D01*
X1578Y1668D02*
X1703Y1668D01*
X1100Y1667D02*
X1224Y1667D01*
X1578Y1667D02*
X1703Y1667D01*
X1100Y1666D02*
X1224Y1666D01*
X1579Y1666D02*
X1702Y1666D01*
X1101Y1665D02*
X1223Y1665D01*
X1579Y1665D02*
X1702Y1665D01*
X1101Y1664D02*
X1223Y1664D01*
X1580Y1664D02*
X1701Y1664D01*
X1102Y1663D02*
X1222Y1663D01*
X1580Y1663D02*
X1701Y1663D01*
X1103Y1662D02*
X1222Y1662D01*
X1581Y1662D02*
X1700Y1662D01*
X1103Y1661D02*
X1221Y1661D01*
X1582Y1661D02*
X1699Y1661D01*
X1104Y1660D02*
X1220Y1660D01*
X1582Y1660D02*
X1699Y1660D01*
X1104Y1659D02*
X1220Y1659D01*
X1583Y1659D02*
X1698Y1659D01*
X1105Y1658D02*
X1219Y1658D01*
X1583Y1658D02*
X1698Y1658D01*
X1106Y1657D02*
X1218Y1657D01*
X1584Y1657D02*
X1697Y1657D01*
X1107Y1656D02*
X1218Y1656D01*
X1585Y1656D02*
X1696Y1656D01*
X1107Y1655D02*
X1217Y1655D01*
X1586Y1655D02*
X1695Y1655D01*
X1108Y1654D02*
X1216Y1654D01*
X1586Y1654D02*
X1695Y1654D01*
X1109Y1653D02*
X1216Y1653D01*
X1587Y1653D02*
X1694Y1653D01*
X1110Y1652D02*
X1215Y1652D01*
X1588Y1652D02*
X1693Y1652D01*
X1111Y1651D02*
X1214Y1651D01*
X1589Y1651D02*
X1692Y1651D01*
X1112Y1650D02*
X1213Y1650D01*
X1590Y1650D02*
X1691Y1650D01*
X1112Y1649D02*
X1212Y1649D01*
X1591Y1649D02*
X1690Y1649D01*
X1113Y1648D02*
X1211Y1648D01*
X1592Y1648D02*
X1689Y1648D01*
X1114Y1647D02*
X1210Y1647D01*
X1593Y1647D02*
X1688Y1647D01*
X1116Y1646D02*
X1209Y1646D01*
X1594Y1646D02*
X1687Y1646D01*
X1117Y1645D02*
X1208Y1645D01*
X1595Y1645D02*
X1686Y1645D01*
X1118Y1644D02*
X1207Y1644D01*
X1596Y1644D02*
X1685Y1644D01*
X1119Y1643D02*
X1205Y1643D01*
X1597Y1643D02*
X1684Y1643D01*
X1120Y1642D02*
X1204Y1642D01*
X1599Y1642D02*
X1682Y1642D01*
X1122Y1641D02*
X1203Y1641D01*
X1600Y1641D02*
X1681Y1641D01*
X1123Y1640D02*
X1201Y1640D01*
X1601Y1640D02*
X1679Y1640D01*
X1125Y1639D02*
X1200Y1639D01*
X1603Y1639D02*
X1678Y1639D01*
X1126Y1638D02*
X1198Y1638D01*
X1605Y1638D02*
X1676Y1638D01*
X1128Y1637D02*
X1196Y1637D01*
X1606Y1637D02*
X1675Y1637D01*
X1130Y1636D02*
X1195Y1636D01*
X1608Y1636D02*
X1673Y1636D01*
X1132Y1635D02*
X1193Y1635D01*
X1610Y1635D02*
X1671Y1635D01*
X1134Y1634D02*
X1191Y1634D01*
X1612Y1634D02*
X1669Y1634D01*
X1136Y1633D02*
X1189Y1633D01*
X1614Y1633D02*
X1667Y1633D01*
X1139Y1632D02*
X1186Y1632D01*
X1617Y1632D02*
X1664Y1632D01*
X1141Y1631D02*
X1183Y1631D01*
X1620Y1631D02*
X1661Y1631D01*
X1145Y1630D02*
X1179Y1630D01*
X1624Y1630D02*
X1657Y1630D01*
X1150Y1629D02*
X1175Y1629D01*
X1628Y1629D02*
X1653Y1629D01*
X1156Y1628D02*
X1168Y1628D01*
X1634Y1628D02*
X1647Y1628D01*
X907Y1464D02*
X962Y1464D01*
X985Y1464D02*
X1041Y1464D01*
X1064Y1464D02*
X1120Y1464D01*
X1143Y1464D02*
X1198Y1464D01*
X1221Y1464D02*
X1277Y1464D01*
X1300Y1464D02*
X1356Y1464D01*
X906Y1463D02*
X962Y1463D01*
X985Y1463D02*
X1041Y1463D01*
X1064Y1463D02*
X1120Y1463D01*
X1142Y1463D02*
X1199Y1463D01*
X1221Y1463D02*
X1277Y1463D01*
X1300Y1463D02*
X1356Y1463D01*
X906Y1462D02*
X962Y1462D01*
X985Y1462D02*
X1041Y1462D01*
X1064Y1462D02*
X1120Y1462D01*
X1142Y1462D02*
X1199Y1462D01*
X1221Y1462D02*
X1277Y1462D01*
X1300Y1462D02*
X1356Y1462D01*
X906Y1461D02*
X962Y1461D01*
X985Y1461D02*
X1041Y1461D01*
X1064Y1461D02*
X1120Y1461D01*
X1142Y1461D02*
X1199Y1461D01*
X1221Y1461D02*
X1277Y1461D01*
X1300Y1461D02*
X1356Y1461D01*
X906Y1460D02*
X962Y1460D01*
X985Y1460D02*
X1041Y1460D01*
X1064Y1460D02*
X1120Y1460D01*
X1142Y1460D02*
X1199Y1460D01*
X1221Y1460D02*
X1277Y1460D01*
X1300Y1460D02*
X1356Y1460D01*
X906Y1459D02*
X962Y1459D01*
X985Y1459D02*
X1041Y1459D01*
X1064Y1459D02*
X1120Y1459D01*
X1142Y1459D02*
X1199Y1459D01*
X1221Y1459D02*
X1277Y1459D01*
X1300Y1459D02*
X1356Y1459D01*
X906Y1458D02*
X962Y1458D01*
X985Y1458D02*
X1041Y1458D01*
X1064Y1458D02*
X1120Y1458D01*
X1142Y1458D02*
X1199Y1458D01*
X1221Y1458D02*
X1277Y1458D01*
X1300Y1458D02*
X1356Y1458D01*
X906Y1457D02*
X962Y1457D01*
X985Y1457D02*
X1041Y1457D01*
X1064Y1457D02*
X1120Y1457D01*
X1142Y1457D02*
X1199Y1457D01*
X1221Y1457D02*
X1277Y1457D01*
X1300Y1457D02*
X1356Y1457D01*
X906Y1456D02*
X962Y1456D01*
X985Y1456D02*
X1041Y1456D01*
X1064Y1456D02*
X1120Y1456D01*
X1142Y1456D02*
X1199Y1456D01*
X1221Y1456D02*
X1277Y1456D01*
X1300Y1456D02*
X1356Y1456D01*
X906Y1455D02*
X962Y1455D01*
X985Y1455D02*
X1041Y1455D01*
X1064Y1455D02*
X1120Y1455D01*
X1142Y1455D02*
X1199Y1455D01*
X1221Y1455D02*
X1277Y1455D01*
X1300Y1455D02*
X1356Y1455D01*
X906Y1454D02*
X962Y1454D01*
X985Y1454D02*
X1041Y1454D01*
X1064Y1454D02*
X1120Y1454D01*
X1142Y1454D02*
X1199Y1454D01*
X1221Y1454D02*
X1277Y1454D01*
X1300Y1454D02*
X1356Y1454D01*
X906Y1453D02*
X962Y1453D01*
X985Y1453D02*
X1041Y1453D01*
X1064Y1453D02*
X1120Y1453D01*
X1142Y1453D02*
X1199Y1453D01*
X1221Y1453D02*
X1277Y1453D01*
X1300Y1453D02*
X1356Y1453D01*
X906Y1452D02*
X962Y1452D01*
X985Y1452D02*
X1041Y1452D01*
X1064Y1452D02*
X1120Y1452D01*
X1142Y1452D02*
X1199Y1452D01*
X1221Y1452D02*
X1277Y1452D01*
X1300Y1452D02*
X1356Y1452D01*
X906Y1451D02*
X962Y1451D01*
X985Y1451D02*
X1041Y1451D01*
X1064Y1451D02*
X1120Y1451D01*
X1142Y1451D02*
X1199Y1451D01*
X1221Y1451D02*
X1277Y1451D01*
X1300Y1451D02*
X1356Y1451D01*
X906Y1450D02*
X962Y1450D01*
X985Y1450D02*
X1041Y1450D01*
X1064Y1450D02*
X1120Y1450D01*
X1142Y1450D02*
X1199Y1450D01*
X1221Y1450D02*
X1277Y1450D01*
X1300Y1450D02*
X1356Y1450D01*
X906Y1449D02*
X962Y1449D01*
X985Y1449D02*
X1041Y1449D01*
X1064Y1449D02*
X1120Y1449D01*
X1142Y1449D02*
X1199Y1449D01*
X1221Y1449D02*
X1277Y1449D01*
X1300Y1449D02*
X1356Y1449D01*
X906Y1448D02*
X962Y1448D01*
X985Y1448D02*
X1041Y1448D01*
X1064Y1448D02*
X1120Y1448D01*
X1142Y1448D02*
X1199Y1448D01*
X1221Y1448D02*
X1277Y1448D01*
X1300Y1448D02*
X1356Y1448D01*
X906Y1447D02*
X962Y1447D01*
X985Y1447D02*
X1041Y1447D01*
X1064Y1447D02*
X1120Y1447D01*
X1142Y1447D02*
X1199Y1447D01*
X1221Y1447D02*
X1277Y1447D01*
X1300Y1447D02*
X1356Y1447D01*
X906Y1446D02*
X962Y1446D01*
X985Y1446D02*
X1041Y1446D01*
X1064Y1446D02*
X1120Y1446D01*
X1142Y1446D02*
X1199Y1446D01*
X1221Y1446D02*
X1277Y1446D01*
X1300Y1446D02*
X1356Y1446D01*
X906Y1445D02*
X962Y1445D01*
X985Y1445D02*
X1041Y1445D01*
X1064Y1445D02*
X1120Y1445D01*
X1142Y1445D02*
X1199Y1445D01*
X1221Y1445D02*
X1277Y1445D01*
X1300Y1445D02*
X1356Y1445D01*
X906Y1444D02*
X962Y1444D01*
X985Y1444D02*
X1041Y1444D01*
X1064Y1444D02*
X1120Y1444D01*
X1142Y1444D02*
X1199Y1444D01*
X1221Y1444D02*
X1277Y1444D01*
X1300Y1444D02*
X1356Y1444D01*
X906Y1443D02*
X962Y1443D01*
X985Y1443D02*
X1041Y1443D01*
X1064Y1443D02*
X1120Y1443D01*
X1142Y1443D02*
X1199Y1443D01*
X1221Y1443D02*
X1277Y1443D01*
X1300Y1443D02*
X1356Y1443D01*
X906Y1442D02*
X962Y1442D01*
X985Y1442D02*
X1041Y1442D01*
X1064Y1442D02*
X1120Y1442D01*
X1142Y1442D02*
X1199Y1442D01*
X1221Y1442D02*
X1277Y1442D01*
X1300Y1442D02*
X1356Y1442D01*
X906Y1441D02*
X962Y1441D01*
X985Y1441D02*
X1041Y1441D01*
X1064Y1441D02*
X1120Y1441D01*
X1142Y1441D02*
X1199Y1441D01*
X1221Y1441D02*
X1277Y1441D01*
X1300Y1441D02*
X1356Y1441D01*
X906Y1440D02*
X962Y1440D01*
X985Y1440D02*
X1041Y1440D01*
X1064Y1440D02*
X1120Y1440D01*
X1142Y1440D02*
X1199Y1440D01*
X1221Y1440D02*
X1277Y1440D01*
X1300Y1440D02*
X1356Y1440D01*
X906Y1439D02*
X962Y1439D01*
X985Y1439D02*
X1041Y1439D01*
X1064Y1439D02*
X1120Y1439D01*
X1142Y1439D02*
X1199Y1439D01*
X1221Y1439D02*
X1277Y1439D01*
X1300Y1439D02*
X1356Y1439D01*
X906Y1438D02*
X962Y1438D01*
X985Y1438D02*
X1041Y1438D01*
X1064Y1438D02*
X1120Y1438D01*
X1142Y1438D02*
X1199Y1438D01*
X1221Y1438D02*
X1277Y1438D01*
X1300Y1438D02*
X1356Y1438D01*
X906Y1437D02*
X962Y1437D01*
X985Y1437D02*
X1041Y1437D01*
X1064Y1437D02*
X1120Y1437D01*
X1142Y1437D02*
X1199Y1437D01*
X1221Y1437D02*
X1277Y1437D01*
X1300Y1437D02*
X1356Y1437D01*
X906Y1436D02*
X962Y1436D01*
X985Y1436D02*
X1041Y1436D01*
X1064Y1436D02*
X1120Y1436D01*
X1142Y1436D02*
X1199Y1436D01*
X1221Y1436D02*
X1277Y1436D01*
X1300Y1436D02*
X1356Y1436D01*
X906Y1435D02*
X962Y1435D01*
X985Y1435D02*
X1041Y1435D01*
X1064Y1435D02*
X1120Y1435D01*
X1142Y1435D02*
X1199Y1435D01*
X1221Y1435D02*
X1277Y1435D01*
X1300Y1435D02*
X1356Y1435D01*
X906Y1434D02*
X962Y1434D01*
X985Y1434D02*
X1041Y1434D01*
X1064Y1434D02*
X1120Y1434D01*
X1142Y1434D02*
X1199Y1434D01*
X1221Y1434D02*
X1277Y1434D01*
X1300Y1434D02*
X1356Y1434D01*
X906Y1433D02*
X962Y1433D01*
X985Y1433D02*
X1041Y1433D01*
X1064Y1433D02*
X1120Y1433D01*
X1142Y1433D02*
X1199Y1433D01*
X1221Y1433D02*
X1277Y1433D01*
X1300Y1433D02*
X1356Y1433D01*
X906Y1432D02*
X962Y1432D01*
X985Y1432D02*
X1041Y1432D01*
X1064Y1432D02*
X1120Y1432D01*
X1142Y1432D02*
X1199Y1432D01*
X1221Y1432D02*
X1277Y1432D01*
X1300Y1432D02*
X1356Y1432D01*
X906Y1431D02*
X962Y1431D01*
X985Y1431D02*
X1041Y1431D01*
X1064Y1431D02*
X1120Y1431D01*
X1142Y1431D02*
X1199Y1431D01*
X1221Y1431D02*
X1277Y1431D01*
X1300Y1431D02*
X1356Y1431D01*
X906Y1430D02*
X962Y1430D01*
X985Y1430D02*
X1041Y1430D01*
X1064Y1430D02*
X1120Y1430D01*
X1142Y1430D02*
X1199Y1430D01*
X1221Y1430D02*
X1277Y1430D01*
X1300Y1430D02*
X1356Y1430D01*
X906Y1429D02*
X962Y1429D01*
X985Y1429D02*
X1041Y1429D01*
X1064Y1429D02*
X1120Y1429D01*
X1142Y1429D02*
X1199Y1429D01*
X1221Y1429D02*
X1277Y1429D01*
X1300Y1429D02*
X1356Y1429D01*
X906Y1428D02*
X962Y1428D01*
X985Y1428D02*
X1041Y1428D01*
X1064Y1428D02*
X1120Y1428D01*
X1142Y1428D02*
X1199Y1428D01*
X1221Y1428D02*
X1277Y1428D01*
X1300Y1428D02*
X1356Y1428D01*
X906Y1427D02*
X962Y1427D01*
X985Y1427D02*
X1041Y1427D01*
X1064Y1427D02*
X1120Y1427D01*
X1142Y1427D02*
X1199Y1427D01*
X1221Y1427D02*
X1277Y1427D01*
X1300Y1427D02*
X1356Y1427D01*
X906Y1426D02*
X962Y1426D01*
X985Y1426D02*
X1041Y1426D01*
X1064Y1426D02*
X1120Y1426D01*
X1142Y1426D02*
X1199Y1426D01*
X1221Y1426D02*
X1277Y1426D01*
X1300Y1426D02*
X1356Y1426D01*
X906Y1425D02*
X962Y1425D01*
X985Y1425D02*
X1041Y1425D01*
X1064Y1425D02*
X1120Y1425D01*
X1142Y1425D02*
X1199Y1425D01*
X1221Y1425D02*
X1277Y1425D01*
X1300Y1425D02*
X1356Y1425D01*
X906Y1424D02*
X962Y1424D01*
X985Y1424D02*
X1041Y1424D01*
X1064Y1424D02*
X1120Y1424D01*
X1142Y1424D02*
X1199Y1424D01*
X1221Y1424D02*
X1277Y1424D01*
X1300Y1424D02*
X1356Y1424D01*
X906Y1423D02*
X962Y1423D01*
X985Y1423D02*
X1041Y1423D01*
X1064Y1423D02*
X1120Y1423D01*
X1142Y1423D02*
X1199Y1423D01*
X1221Y1423D02*
X1277Y1423D01*
X1300Y1423D02*
X1356Y1423D01*
X906Y1422D02*
X962Y1422D01*
X985Y1422D02*
X1041Y1422D01*
X1064Y1422D02*
X1120Y1422D01*
X1142Y1422D02*
X1199Y1422D01*
X1221Y1422D02*
X1277Y1422D01*
X1300Y1422D02*
X1356Y1422D01*
X906Y1421D02*
X962Y1421D01*
X985Y1421D02*
X1041Y1421D01*
X1064Y1421D02*
X1120Y1421D01*
X1142Y1421D02*
X1199Y1421D01*
X1221Y1421D02*
X1277Y1421D01*
X1300Y1421D02*
X1356Y1421D01*
X906Y1420D02*
X962Y1420D01*
X985Y1420D02*
X1041Y1420D01*
X1064Y1420D02*
X1120Y1420D01*
X1142Y1420D02*
X1199Y1420D01*
X1221Y1420D02*
X1277Y1420D01*
X1300Y1420D02*
X1356Y1420D01*
X906Y1419D02*
X962Y1419D01*
X985Y1419D02*
X1041Y1419D01*
X1064Y1419D02*
X1120Y1419D01*
X1142Y1419D02*
X1199Y1419D01*
X1221Y1419D02*
X1277Y1419D01*
X1300Y1419D02*
X1356Y1419D01*
X906Y1418D02*
X962Y1418D01*
X985Y1418D02*
X1041Y1418D01*
X1064Y1418D02*
X1120Y1418D01*
X1142Y1418D02*
X1199Y1418D01*
X1221Y1418D02*
X1277Y1418D01*
X1300Y1418D02*
X1356Y1418D01*
X906Y1417D02*
X962Y1417D01*
X985Y1417D02*
X1041Y1417D01*
X1064Y1417D02*
X1120Y1417D01*
X1142Y1417D02*
X1199Y1417D01*
X1221Y1417D02*
X1277Y1417D01*
X1300Y1417D02*
X1356Y1417D01*
X906Y1416D02*
X962Y1416D01*
X985Y1416D02*
X1041Y1416D01*
X1064Y1416D02*
X1120Y1416D01*
X1142Y1416D02*
X1199Y1416D01*
X1221Y1416D02*
X1277Y1416D01*
X1300Y1416D02*
X1356Y1416D01*
X906Y1415D02*
X962Y1415D01*
X985Y1415D02*
X1041Y1415D01*
X1064Y1415D02*
X1120Y1415D01*
X1142Y1415D02*
X1199Y1415D01*
X1221Y1415D02*
X1277Y1415D01*
X1300Y1415D02*
X1356Y1415D01*
X906Y1414D02*
X962Y1414D01*
X985Y1414D02*
X1041Y1414D01*
X1064Y1414D02*
X1120Y1414D01*
X1142Y1414D02*
X1199Y1414D01*
X1221Y1414D02*
X1277Y1414D01*
X1300Y1414D02*
X1356Y1414D01*
X906Y1413D02*
X962Y1413D01*
X985Y1413D02*
X1041Y1413D01*
X1064Y1413D02*
X1120Y1413D01*
X1142Y1413D02*
X1199Y1413D01*
X1221Y1413D02*
X1277Y1413D01*
X1300Y1413D02*
X1356Y1413D01*
X783Y1412D02*
X880Y1412D01*
X906Y1412D02*
X962Y1412D01*
X985Y1412D02*
X1041Y1412D01*
X1064Y1412D02*
X1120Y1412D01*
X1142Y1412D02*
X1199Y1412D01*
X1221Y1412D02*
X1277Y1412D01*
X1300Y1412D02*
X1356Y1412D01*
X1383Y1412D02*
X1480Y1412D01*
X783Y1411D02*
X880Y1411D01*
X906Y1411D02*
X962Y1411D01*
X985Y1411D02*
X1041Y1411D01*
X1064Y1411D02*
X1120Y1411D01*
X1142Y1411D02*
X1199Y1411D01*
X1221Y1411D02*
X1277Y1411D01*
X1300Y1411D02*
X1356Y1411D01*
X1383Y1411D02*
X1480Y1411D01*
X783Y1410D02*
X880Y1410D01*
X906Y1410D02*
X962Y1410D01*
X985Y1410D02*
X1041Y1410D01*
X1064Y1410D02*
X1120Y1410D01*
X1142Y1410D02*
X1199Y1410D01*
X1221Y1410D02*
X1277Y1410D01*
X1300Y1410D02*
X1356Y1410D01*
X1383Y1410D02*
X1480Y1410D01*
X783Y1409D02*
X880Y1409D01*
X906Y1409D02*
X962Y1409D01*
X985Y1409D02*
X1041Y1409D01*
X1064Y1409D02*
X1120Y1409D01*
X1142Y1409D02*
X1199Y1409D01*
X1221Y1409D02*
X1277Y1409D01*
X1300Y1409D02*
X1356Y1409D01*
X1383Y1409D02*
X1480Y1409D01*
X783Y1408D02*
X880Y1408D01*
X906Y1408D02*
X962Y1408D01*
X985Y1408D02*
X1041Y1408D01*
X1064Y1408D02*
X1120Y1408D01*
X1142Y1408D02*
X1199Y1408D01*
X1221Y1408D02*
X1277Y1408D01*
X1300Y1408D02*
X1356Y1408D01*
X1383Y1408D02*
X1480Y1408D01*
X783Y1407D02*
X880Y1407D01*
X906Y1407D02*
X962Y1407D01*
X985Y1407D02*
X1041Y1407D01*
X1064Y1407D02*
X1120Y1407D01*
X1142Y1407D02*
X1199Y1407D01*
X1221Y1407D02*
X1277Y1407D01*
X1300Y1407D02*
X1356Y1407D01*
X1383Y1407D02*
X1480Y1407D01*
X783Y1406D02*
X880Y1406D01*
X906Y1406D02*
X962Y1406D01*
X985Y1406D02*
X1041Y1406D01*
X1064Y1406D02*
X1120Y1406D01*
X1142Y1406D02*
X1199Y1406D01*
X1221Y1406D02*
X1277Y1406D01*
X1300Y1406D02*
X1356Y1406D01*
X1383Y1406D02*
X1480Y1406D01*
X783Y1405D02*
X880Y1405D01*
X906Y1405D02*
X962Y1405D01*
X985Y1405D02*
X1041Y1405D01*
X1064Y1405D02*
X1120Y1405D01*
X1142Y1405D02*
X1199Y1405D01*
X1221Y1405D02*
X1277Y1405D01*
X1300Y1405D02*
X1356Y1405D01*
X1383Y1405D02*
X1480Y1405D01*
X783Y1404D02*
X880Y1404D01*
X906Y1404D02*
X962Y1404D01*
X985Y1404D02*
X1041Y1404D01*
X1064Y1404D02*
X1120Y1404D01*
X1142Y1404D02*
X1199Y1404D01*
X1221Y1404D02*
X1277Y1404D01*
X1300Y1404D02*
X1356Y1404D01*
X1383Y1404D02*
X1480Y1404D01*
X783Y1403D02*
X880Y1403D01*
X906Y1403D02*
X962Y1403D01*
X985Y1403D02*
X1041Y1403D01*
X1064Y1403D02*
X1120Y1403D01*
X1142Y1403D02*
X1199Y1403D01*
X1221Y1403D02*
X1277Y1403D01*
X1300Y1403D02*
X1356Y1403D01*
X1383Y1403D02*
X1480Y1403D01*
X783Y1402D02*
X880Y1402D01*
X1383Y1402D02*
X1480Y1402D01*
X783Y1401D02*
X880Y1401D01*
X1383Y1401D02*
X1480Y1401D01*
X783Y1400D02*
X880Y1400D01*
X1383Y1400D02*
X1480Y1400D01*
X783Y1399D02*
X880Y1399D01*
X1383Y1399D02*
X1480Y1399D01*
X783Y1398D02*
X880Y1398D01*
X1383Y1398D02*
X1480Y1398D01*
X783Y1397D02*
X880Y1397D01*
X1383Y1397D02*
X1480Y1397D01*
X783Y1396D02*
X880Y1396D01*
X1383Y1396D02*
X1480Y1396D01*
X783Y1395D02*
X880Y1395D01*
X1383Y1395D02*
X1480Y1395D01*
X783Y1394D02*
X880Y1394D01*
X1383Y1394D02*
X1480Y1394D01*
X783Y1393D02*
X880Y1393D01*
X1383Y1393D02*
X1480Y1393D01*
X783Y1392D02*
X880Y1392D01*
X1383Y1392D02*
X1480Y1392D01*
X783Y1391D02*
X880Y1391D01*
X1383Y1391D02*
X1480Y1391D01*
X783Y1390D02*
X851Y1390D01*
X860Y1390D02*
X880Y1390D01*
X1383Y1390D02*
X1404Y1390D01*
X1412Y1390D02*
X1480Y1390D01*
X783Y1389D02*
X850Y1389D01*
X861Y1389D02*
X880Y1389D01*
X1383Y1389D02*
X1402Y1389D01*
X1413Y1389D02*
X1480Y1389D01*
X783Y1388D02*
X849Y1388D01*
X862Y1388D02*
X880Y1388D01*
X1383Y1388D02*
X1401Y1388D01*
X1414Y1388D02*
X1480Y1388D01*
X783Y1387D02*
X849Y1387D01*
X862Y1387D02*
X880Y1387D01*
X1383Y1387D02*
X1401Y1387D01*
X1415Y1387D02*
X1480Y1387D01*
X783Y1386D02*
X848Y1386D01*
X863Y1386D02*
X880Y1386D01*
X1383Y1386D02*
X1400Y1386D01*
X1415Y1386D02*
X1480Y1386D01*
X783Y1385D02*
X848Y1385D01*
X863Y1385D02*
X880Y1385D01*
X1383Y1385D02*
X1400Y1385D01*
X1415Y1385D02*
X1480Y1385D01*
X783Y1384D02*
X848Y1384D01*
X863Y1384D02*
X880Y1384D01*
X1383Y1384D02*
X1400Y1384D01*
X1415Y1384D02*
X1480Y1384D01*
X783Y1383D02*
X848Y1383D01*
X863Y1383D02*
X880Y1383D01*
X1383Y1383D02*
X1400Y1383D01*
X1415Y1383D02*
X1480Y1383D01*
X783Y1382D02*
X848Y1382D01*
X863Y1382D02*
X880Y1382D01*
X1383Y1382D02*
X1400Y1382D01*
X1415Y1382D02*
X1480Y1382D01*
X783Y1381D02*
X848Y1381D01*
X863Y1381D02*
X880Y1381D01*
X1383Y1381D02*
X1401Y1381D01*
X1415Y1381D02*
X1480Y1381D01*
X783Y1380D02*
X849Y1380D01*
X862Y1380D02*
X880Y1380D01*
X1383Y1380D02*
X1401Y1380D01*
X1414Y1380D02*
X1480Y1380D01*
X783Y1379D02*
X850Y1379D01*
X861Y1379D02*
X880Y1379D01*
X1383Y1379D02*
X1402Y1379D01*
X1414Y1379D02*
X1480Y1379D01*
X783Y1378D02*
X851Y1378D01*
X860Y1378D02*
X880Y1378D01*
X1383Y1378D02*
X1403Y1378D01*
X1412Y1378D02*
X1480Y1378D01*
X783Y1377D02*
X853Y1377D01*
X858Y1377D02*
X880Y1377D01*
X1383Y1377D02*
X1405Y1377D01*
X1411Y1377D02*
X1480Y1377D01*
X783Y1376D02*
X880Y1376D01*
X1383Y1376D02*
X1480Y1376D01*
X783Y1375D02*
X880Y1375D01*
X1383Y1375D02*
X1480Y1375D01*
X783Y1374D02*
X880Y1374D01*
X1383Y1374D02*
X1480Y1374D01*
X783Y1373D02*
X880Y1373D01*
X1383Y1373D02*
X1480Y1373D01*
X783Y1372D02*
X880Y1372D01*
X1383Y1372D02*
X1480Y1372D01*
X783Y1371D02*
X880Y1371D01*
X1383Y1371D02*
X1480Y1371D01*
X783Y1370D02*
X880Y1370D01*
X1383Y1370D02*
X1480Y1370D01*
X783Y1369D02*
X880Y1369D01*
X1383Y1369D02*
X1480Y1369D01*
X783Y1368D02*
X880Y1368D01*
X1383Y1368D02*
X1480Y1368D01*
X783Y1367D02*
X880Y1367D01*
X1383Y1367D02*
X1480Y1367D01*
X783Y1366D02*
X880Y1366D01*
X1383Y1366D02*
X1480Y1366D01*
X783Y1365D02*
X880Y1365D01*
X1383Y1365D02*
X1480Y1365D01*
X783Y1364D02*
X880Y1364D01*
X1383Y1364D02*
X1480Y1364D01*
X783Y1363D02*
X880Y1363D01*
X1383Y1363D02*
X1480Y1363D01*
X783Y1362D02*
X880Y1362D01*
X1383Y1362D02*
X1480Y1362D01*
X783Y1361D02*
X880Y1361D01*
X1383Y1361D02*
X1480Y1361D01*
X783Y1360D02*
X880Y1360D01*
X1383Y1360D02*
X1480Y1360D01*
X783Y1359D02*
X880Y1359D01*
X1383Y1359D02*
X1480Y1359D01*
X783Y1358D02*
X880Y1358D01*
X1383Y1358D02*
X1480Y1358D01*
X783Y1357D02*
X880Y1357D01*
X1383Y1357D02*
X1480Y1357D01*
X783Y1356D02*
X880Y1356D01*
X1383Y1356D02*
X1480Y1356D01*
X783Y1333D02*
X880Y1333D01*
X1383Y1333D02*
X1480Y1333D01*
X783Y1332D02*
X880Y1332D01*
X1383Y1332D02*
X1480Y1332D01*
X783Y1331D02*
X880Y1331D01*
X1383Y1331D02*
X1480Y1331D01*
X783Y1330D02*
X880Y1330D01*
X1383Y1330D02*
X1480Y1330D01*
X783Y1329D02*
X880Y1329D01*
X1383Y1329D02*
X1480Y1329D01*
X783Y1328D02*
X880Y1328D01*
X1383Y1328D02*
X1480Y1328D01*
X783Y1327D02*
X880Y1327D01*
X1383Y1327D02*
X1480Y1327D01*
X783Y1326D02*
X880Y1326D01*
X1383Y1326D02*
X1480Y1326D01*
X783Y1325D02*
X880Y1325D01*
X1383Y1325D02*
X1480Y1325D01*
X783Y1324D02*
X880Y1324D01*
X1383Y1324D02*
X1480Y1324D01*
X783Y1323D02*
X880Y1323D01*
X1383Y1323D02*
X1480Y1323D01*
X783Y1322D02*
X880Y1322D01*
X1383Y1322D02*
X1480Y1322D01*
X783Y1321D02*
X880Y1321D01*
X1383Y1321D02*
X1480Y1321D01*
X783Y1320D02*
X880Y1320D01*
X1383Y1320D02*
X1480Y1320D01*
X783Y1319D02*
X880Y1319D01*
X1383Y1319D02*
X1480Y1319D01*
X783Y1318D02*
X880Y1318D01*
X1383Y1318D02*
X1480Y1318D01*
X783Y1317D02*
X880Y1317D01*
X1383Y1317D02*
X1480Y1317D01*
X783Y1316D02*
X880Y1316D01*
X1383Y1316D02*
X1480Y1316D01*
X783Y1315D02*
X880Y1315D01*
X1383Y1315D02*
X1480Y1315D01*
X783Y1314D02*
X880Y1314D01*
X1383Y1314D02*
X1480Y1314D01*
X783Y1313D02*
X880Y1313D01*
X1383Y1313D02*
X1480Y1313D01*
X783Y1312D02*
X853Y1312D01*
X858Y1312D02*
X880Y1312D01*
X1383Y1312D02*
X1405Y1312D01*
X1410Y1312D02*
X1480Y1312D01*
X783Y1311D02*
X851Y1311D01*
X860Y1311D02*
X880Y1311D01*
X1383Y1311D02*
X1403Y1311D01*
X1412Y1311D02*
X1480Y1311D01*
X783Y1310D02*
X850Y1310D01*
X861Y1310D02*
X880Y1310D01*
X1383Y1310D02*
X1402Y1310D01*
X1413Y1310D02*
X1480Y1310D01*
X783Y1309D02*
X849Y1309D01*
X862Y1309D02*
X880Y1309D01*
X1383Y1309D02*
X1401Y1309D01*
X1414Y1309D02*
X1480Y1309D01*
X783Y1308D02*
X848Y1308D01*
X863Y1308D02*
X880Y1308D01*
X1383Y1308D02*
X1401Y1308D01*
X1415Y1308D02*
X1480Y1308D01*
X783Y1307D02*
X848Y1307D01*
X863Y1307D02*
X880Y1307D01*
X1383Y1307D02*
X1400Y1307D01*
X1415Y1307D02*
X1480Y1307D01*
X783Y1306D02*
X848Y1306D01*
X863Y1306D02*
X880Y1306D01*
X1383Y1306D02*
X1400Y1306D01*
X1415Y1306D02*
X1480Y1306D01*
X783Y1305D02*
X848Y1305D01*
X863Y1305D02*
X880Y1305D01*
X1383Y1305D02*
X1400Y1305D01*
X1415Y1305D02*
X1480Y1305D01*
X783Y1304D02*
X848Y1304D01*
X863Y1304D02*
X880Y1304D01*
X1383Y1304D02*
X1400Y1304D01*
X1415Y1304D02*
X1480Y1304D01*
X783Y1303D02*
X848Y1303D01*
X863Y1303D02*
X880Y1303D01*
X1383Y1303D02*
X1400Y1303D01*
X1415Y1303D02*
X1480Y1303D01*
X783Y1302D02*
X848Y1302D01*
X862Y1302D02*
X880Y1302D01*
X1383Y1302D02*
X1401Y1302D01*
X1415Y1302D02*
X1480Y1302D01*
X783Y1301D02*
X849Y1301D01*
X862Y1301D02*
X880Y1301D01*
X1383Y1301D02*
X1401Y1301D01*
X1414Y1301D02*
X1480Y1301D01*
X783Y1300D02*
X850Y1300D01*
X861Y1300D02*
X880Y1300D01*
X1383Y1300D02*
X1402Y1300D01*
X1413Y1300D02*
X1480Y1300D01*
X783Y1299D02*
X851Y1299D01*
X860Y1299D02*
X880Y1299D01*
X1383Y1299D02*
X1403Y1299D01*
X1412Y1299D02*
X1480Y1299D01*
X783Y1298D02*
X854Y1298D01*
X857Y1298D02*
X880Y1298D01*
X1383Y1298D02*
X1406Y1298D01*
X1410Y1298D02*
X1480Y1298D01*
X783Y1297D02*
X880Y1297D01*
X1383Y1297D02*
X1480Y1297D01*
X783Y1296D02*
X880Y1296D01*
X1383Y1296D02*
X1480Y1296D01*
X783Y1295D02*
X880Y1295D01*
X1383Y1295D02*
X1480Y1295D01*
X783Y1294D02*
X880Y1294D01*
X1383Y1294D02*
X1480Y1294D01*
X783Y1293D02*
X880Y1293D01*
X1383Y1293D02*
X1480Y1293D01*
X783Y1292D02*
X880Y1292D01*
X1383Y1292D02*
X1480Y1292D01*
X783Y1291D02*
X880Y1291D01*
X1383Y1291D02*
X1480Y1291D01*
X783Y1290D02*
X880Y1290D01*
X1383Y1290D02*
X1480Y1290D01*
X783Y1289D02*
X880Y1289D01*
X1383Y1289D02*
X1480Y1289D01*
X783Y1288D02*
X880Y1288D01*
X1383Y1288D02*
X1480Y1288D01*
X783Y1287D02*
X880Y1287D01*
X1383Y1287D02*
X1480Y1287D01*
X783Y1286D02*
X880Y1286D01*
X1383Y1286D02*
X1480Y1286D01*
X783Y1285D02*
X880Y1285D01*
X1383Y1285D02*
X1480Y1285D01*
X783Y1284D02*
X880Y1284D01*
X1383Y1284D02*
X1480Y1284D01*
X783Y1283D02*
X880Y1283D01*
X1383Y1283D02*
X1480Y1283D01*
X783Y1282D02*
X880Y1282D01*
X1383Y1282D02*
X1480Y1282D01*
X783Y1281D02*
X880Y1281D01*
X1383Y1281D02*
X1480Y1281D01*
X783Y1280D02*
X880Y1280D01*
X1383Y1280D02*
X1480Y1280D01*
X783Y1279D02*
X880Y1279D01*
X1383Y1279D02*
X1480Y1279D01*
X783Y1278D02*
X880Y1278D01*
X1383Y1278D02*
X1480Y1278D01*
X783Y1277D02*
X880Y1277D01*
X1383Y1277D02*
X1480Y1277D01*
X783Y1254D02*
X880Y1254D01*
X1383Y1254D02*
X1480Y1254D01*
X783Y1253D02*
X880Y1253D01*
X1383Y1253D02*
X1480Y1253D01*
X783Y1252D02*
X880Y1252D01*
X1383Y1252D02*
X1480Y1252D01*
X783Y1251D02*
X880Y1251D01*
X1383Y1251D02*
X1480Y1251D01*
X783Y1250D02*
X880Y1250D01*
X1383Y1250D02*
X1480Y1250D01*
X783Y1249D02*
X880Y1249D01*
X1383Y1249D02*
X1480Y1249D01*
X783Y1248D02*
X880Y1248D01*
X1383Y1248D02*
X1480Y1248D01*
X783Y1247D02*
X880Y1247D01*
X1383Y1247D02*
X1480Y1247D01*
X783Y1246D02*
X880Y1246D01*
X1383Y1246D02*
X1480Y1246D01*
X783Y1245D02*
X880Y1245D01*
X1383Y1245D02*
X1480Y1245D01*
X783Y1244D02*
X880Y1244D01*
X1383Y1244D02*
X1480Y1244D01*
X783Y1243D02*
X880Y1243D01*
X1383Y1243D02*
X1480Y1243D01*
X783Y1242D02*
X880Y1242D01*
X1383Y1242D02*
X1480Y1242D01*
X783Y1241D02*
X880Y1241D01*
X1383Y1241D02*
X1480Y1241D01*
X783Y1240D02*
X880Y1240D01*
X1383Y1240D02*
X1480Y1240D01*
X783Y1239D02*
X880Y1239D01*
X1383Y1239D02*
X1480Y1239D01*
X783Y1238D02*
X880Y1238D01*
X1383Y1238D02*
X1480Y1238D01*
X783Y1237D02*
X880Y1237D01*
X1383Y1237D02*
X1480Y1237D01*
X783Y1236D02*
X880Y1236D01*
X1383Y1236D02*
X1480Y1236D01*
X783Y1235D02*
X880Y1235D01*
X1383Y1235D02*
X1480Y1235D01*
X783Y1234D02*
X880Y1234D01*
X1383Y1234D02*
X1480Y1234D01*
X783Y1233D02*
X852Y1233D01*
X859Y1233D02*
X880Y1233D01*
X1383Y1233D02*
X1404Y1233D01*
X1411Y1233D02*
X1480Y1233D01*
X783Y1232D02*
X851Y1232D01*
X860Y1232D02*
X880Y1232D01*
X1383Y1232D02*
X1403Y1232D01*
X1413Y1232D02*
X1480Y1232D01*
X783Y1231D02*
X850Y1231D01*
X861Y1231D02*
X880Y1231D01*
X1383Y1231D02*
X1402Y1231D01*
X1414Y1231D02*
X1480Y1231D01*
X783Y1230D02*
X849Y1230D01*
X862Y1230D02*
X880Y1230D01*
X1383Y1230D02*
X1401Y1230D01*
X1414Y1230D02*
X1480Y1230D01*
X783Y1229D02*
X848Y1229D01*
X863Y1229D02*
X880Y1229D01*
X1383Y1229D02*
X1401Y1229D01*
X1415Y1229D02*
X1480Y1229D01*
X783Y1228D02*
X848Y1228D01*
X863Y1228D02*
X880Y1228D01*
X1383Y1228D02*
X1400Y1228D01*
X1415Y1228D02*
X1480Y1228D01*
X783Y1227D02*
X848Y1227D01*
X863Y1227D02*
X880Y1227D01*
X1383Y1227D02*
X1400Y1227D01*
X1415Y1227D02*
X1480Y1227D01*
X783Y1226D02*
X848Y1226D01*
X863Y1226D02*
X880Y1226D01*
X1383Y1226D02*
X1400Y1226D01*
X1415Y1226D02*
X1480Y1226D01*
X783Y1225D02*
X848Y1225D01*
X863Y1225D02*
X880Y1225D01*
X1383Y1225D02*
X1400Y1225D01*
X1415Y1225D02*
X1480Y1225D01*
X783Y1224D02*
X848Y1224D01*
X863Y1224D02*
X880Y1224D01*
X1383Y1224D02*
X1400Y1224D01*
X1415Y1224D02*
X1480Y1224D01*
X783Y1223D02*
X849Y1223D01*
X862Y1223D02*
X880Y1223D01*
X1383Y1223D02*
X1401Y1223D01*
X1415Y1223D02*
X1480Y1223D01*
X783Y1222D02*
X849Y1222D01*
X862Y1222D02*
X880Y1222D01*
X1383Y1222D02*
X1402Y1222D01*
X1414Y1222D02*
X1480Y1222D01*
X783Y1221D02*
X850Y1221D01*
X861Y1221D02*
X880Y1221D01*
X1383Y1221D02*
X1402Y1221D01*
X1413Y1221D02*
X1480Y1221D01*
X783Y1220D02*
X851Y1220D01*
X859Y1220D02*
X880Y1220D01*
X1383Y1220D02*
X1404Y1220D01*
X1412Y1220D02*
X1480Y1220D01*
X783Y1219D02*
X880Y1219D01*
X1383Y1219D02*
X1480Y1219D01*
X783Y1218D02*
X880Y1218D01*
X1383Y1218D02*
X1480Y1218D01*
X783Y1217D02*
X880Y1217D01*
X1383Y1217D02*
X1480Y1217D01*
X783Y1216D02*
X880Y1216D01*
X1383Y1216D02*
X1480Y1216D01*
X783Y1215D02*
X880Y1215D01*
X1383Y1215D02*
X1480Y1215D01*
X783Y1214D02*
X880Y1214D01*
X1383Y1214D02*
X1480Y1214D01*
X783Y1213D02*
X880Y1213D01*
X1383Y1213D02*
X1480Y1213D01*
X783Y1212D02*
X880Y1212D01*
X1383Y1212D02*
X1480Y1212D01*
X783Y1211D02*
X880Y1211D01*
X1383Y1211D02*
X1480Y1211D01*
X783Y1210D02*
X880Y1210D01*
X1383Y1210D02*
X1480Y1210D01*
X783Y1209D02*
X880Y1209D01*
X1383Y1209D02*
X1480Y1209D01*
X783Y1208D02*
X880Y1208D01*
X1383Y1208D02*
X1480Y1208D01*
X783Y1207D02*
X880Y1207D01*
X1383Y1207D02*
X1480Y1207D01*
X783Y1206D02*
X880Y1206D01*
X1383Y1206D02*
X1480Y1206D01*
X783Y1205D02*
X880Y1205D01*
X1383Y1205D02*
X1480Y1205D01*
X783Y1204D02*
X880Y1204D01*
X1383Y1204D02*
X1480Y1204D01*
X783Y1203D02*
X880Y1203D01*
X1383Y1203D02*
X1480Y1203D01*
X783Y1202D02*
X880Y1202D01*
X1383Y1202D02*
X1480Y1202D01*
X783Y1201D02*
X880Y1201D01*
X1383Y1201D02*
X1480Y1201D01*
X783Y1200D02*
X880Y1200D01*
X1383Y1200D02*
X1480Y1200D01*
X783Y1199D02*
X880Y1199D01*
X1383Y1199D02*
X1480Y1199D01*
X783Y1198D02*
X880Y1198D01*
X1383Y1198D02*
X1480Y1198D01*
X783Y1176D02*
X880Y1176D01*
X1383Y1176D02*
X1480Y1176D01*
X783Y1175D02*
X880Y1175D01*
X1383Y1175D02*
X1480Y1175D01*
X783Y1174D02*
X880Y1174D01*
X1383Y1174D02*
X1480Y1174D01*
X783Y1173D02*
X880Y1173D01*
X1383Y1173D02*
X1480Y1173D01*
X783Y1172D02*
X880Y1172D01*
X1383Y1172D02*
X1480Y1172D01*
X783Y1171D02*
X880Y1171D01*
X1383Y1171D02*
X1480Y1171D01*
X783Y1170D02*
X880Y1170D01*
X1383Y1170D02*
X1480Y1170D01*
X783Y1169D02*
X880Y1169D01*
X1383Y1169D02*
X1480Y1169D01*
X783Y1168D02*
X880Y1168D01*
X1383Y1168D02*
X1480Y1168D01*
X783Y1167D02*
X880Y1167D01*
X1383Y1167D02*
X1480Y1167D01*
X783Y1166D02*
X880Y1166D01*
X1383Y1166D02*
X1480Y1166D01*
X783Y1165D02*
X880Y1165D01*
X1383Y1165D02*
X1480Y1165D01*
X783Y1164D02*
X880Y1164D01*
X1383Y1164D02*
X1480Y1164D01*
X783Y1163D02*
X880Y1163D01*
X1383Y1163D02*
X1480Y1163D01*
X783Y1162D02*
X880Y1162D01*
X1383Y1162D02*
X1480Y1162D01*
X783Y1161D02*
X880Y1161D01*
X1383Y1161D02*
X1480Y1161D01*
X783Y1160D02*
X880Y1160D01*
X1383Y1160D02*
X1480Y1160D01*
X783Y1159D02*
X880Y1159D01*
X1383Y1159D02*
X1480Y1159D01*
X783Y1158D02*
X880Y1158D01*
X1383Y1158D02*
X1480Y1158D01*
X783Y1157D02*
X880Y1157D01*
X1383Y1157D02*
X1480Y1157D01*
X783Y1156D02*
X880Y1156D01*
X1383Y1156D02*
X1480Y1156D01*
X783Y1155D02*
X880Y1155D01*
X1383Y1155D02*
X1480Y1155D01*
X783Y1154D02*
X852Y1154D01*
X859Y1154D02*
X880Y1154D01*
X1383Y1154D02*
X1404Y1154D01*
X1411Y1154D02*
X1480Y1154D01*
X783Y1153D02*
X850Y1153D01*
X861Y1153D02*
X880Y1153D01*
X1383Y1153D02*
X1403Y1153D01*
X1413Y1153D02*
X1480Y1153D01*
X783Y1152D02*
X849Y1152D01*
X862Y1152D02*
X880Y1152D01*
X1383Y1152D02*
X1402Y1152D01*
X1414Y1152D02*
X1480Y1152D01*
X783Y1151D02*
X849Y1151D01*
X862Y1151D02*
X880Y1151D01*
X1383Y1151D02*
X1401Y1151D01*
X1415Y1151D02*
X1480Y1151D01*
X783Y1150D02*
X848Y1150D01*
X863Y1150D02*
X880Y1150D01*
X1383Y1150D02*
X1400Y1150D01*
X1415Y1150D02*
X1480Y1150D01*
X783Y1149D02*
X848Y1149D01*
X863Y1149D02*
X880Y1149D01*
X1383Y1149D02*
X1400Y1149D01*
X1415Y1149D02*
X1480Y1149D01*
X783Y1148D02*
X848Y1148D01*
X863Y1148D02*
X880Y1148D01*
X1383Y1148D02*
X1400Y1148D01*
X1415Y1148D02*
X1480Y1148D01*
X783Y1147D02*
X848Y1147D01*
X863Y1147D02*
X880Y1147D01*
X1383Y1147D02*
X1400Y1147D01*
X1415Y1147D02*
X1480Y1147D01*
X783Y1146D02*
X848Y1146D01*
X863Y1146D02*
X880Y1146D01*
X1383Y1146D02*
X1400Y1146D01*
X1415Y1146D02*
X1480Y1146D01*
X783Y1145D02*
X848Y1145D01*
X863Y1145D02*
X880Y1145D01*
X1383Y1145D02*
X1400Y1145D01*
X1415Y1145D02*
X1480Y1145D01*
X783Y1144D02*
X849Y1144D01*
X862Y1144D02*
X880Y1144D01*
X1383Y1144D02*
X1401Y1144D01*
X1414Y1144D02*
X1480Y1144D01*
X783Y1143D02*
X849Y1143D01*
X861Y1143D02*
X880Y1143D01*
X1383Y1143D02*
X1402Y1143D01*
X1414Y1143D02*
X1480Y1143D01*
X783Y1142D02*
X850Y1142D01*
X860Y1142D02*
X880Y1142D01*
X1383Y1142D02*
X1403Y1142D01*
X1413Y1142D02*
X1480Y1142D01*
X783Y1141D02*
X852Y1141D01*
X859Y1141D02*
X880Y1141D01*
X1383Y1141D02*
X1404Y1141D01*
X1411Y1141D02*
X1480Y1141D01*
X783Y1140D02*
X880Y1140D01*
X1383Y1140D02*
X1480Y1140D01*
X783Y1139D02*
X880Y1139D01*
X1383Y1139D02*
X1480Y1139D01*
X783Y1138D02*
X880Y1138D01*
X1383Y1138D02*
X1480Y1138D01*
X783Y1137D02*
X880Y1137D01*
X1383Y1137D02*
X1480Y1137D01*
X783Y1136D02*
X880Y1136D01*
X1383Y1136D02*
X1480Y1136D01*
X783Y1135D02*
X880Y1135D01*
X1383Y1135D02*
X1480Y1135D01*
X783Y1134D02*
X880Y1134D01*
X1383Y1134D02*
X1480Y1134D01*
X783Y1133D02*
X880Y1133D01*
X1383Y1133D02*
X1480Y1133D01*
X783Y1132D02*
X880Y1132D01*
X1383Y1132D02*
X1480Y1132D01*
X783Y1131D02*
X880Y1131D01*
X1383Y1131D02*
X1480Y1131D01*
X783Y1130D02*
X880Y1130D01*
X1383Y1130D02*
X1480Y1130D01*
X783Y1129D02*
X880Y1129D01*
X1383Y1129D02*
X1480Y1129D01*
X783Y1128D02*
X880Y1128D01*
X1383Y1128D02*
X1480Y1128D01*
X783Y1127D02*
X880Y1127D01*
X1383Y1127D02*
X1480Y1127D01*
X783Y1126D02*
X880Y1126D01*
X1383Y1126D02*
X1480Y1126D01*
X783Y1125D02*
X880Y1125D01*
X1383Y1125D02*
X1480Y1125D01*
X783Y1124D02*
X880Y1124D01*
X1383Y1124D02*
X1480Y1124D01*
X783Y1123D02*
X880Y1123D01*
X1383Y1123D02*
X1480Y1123D01*
X783Y1122D02*
X880Y1122D01*
X1383Y1122D02*
X1480Y1122D01*
X783Y1121D02*
X880Y1121D01*
X1383Y1121D02*
X1480Y1121D01*
X783Y1120D02*
X880Y1120D01*
X1383Y1120D02*
X1480Y1120D01*
X783Y1119D02*
X880Y1119D01*
X1383Y1119D02*
X1480Y1119D01*
X783Y1097D02*
X880Y1097D01*
X1383Y1097D02*
X1480Y1097D01*
X783Y1096D02*
X880Y1096D01*
X1383Y1096D02*
X1480Y1096D01*
X783Y1095D02*
X880Y1095D01*
X1383Y1095D02*
X1480Y1095D01*
X783Y1094D02*
X880Y1094D01*
X1383Y1094D02*
X1480Y1094D01*
X783Y1093D02*
X880Y1093D01*
X1383Y1093D02*
X1480Y1093D01*
X783Y1092D02*
X880Y1092D01*
X1383Y1092D02*
X1480Y1092D01*
X783Y1091D02*
X880Y1091D01*
X1383Y1091D02*
X1480Y1091D01*
X783Y1090D02*
X880Y1090D01*
X1383Y1090D02*
X1480Y1090D01*
X783Y1089D02*
X880Y1089D01*
X1383Y1089D02*
X1480Y1089D01*
X783Y1088D02*
X880Y1088D01*
X1383Y1088D02*
X1480Y1088D01*
X783Y1087D02*
X880Y1087D01*
X1383Y1087D02*
X1480Y1087D01*
X783Y1086D02*
X880Y1086D01*
X1383Y1086D02*
X1480Y1086D01*
X783Y1085D02*
X880Y1085D01*
X1383Y1085D02*
X1480Y1085D01*
X783Y1084D02*
X880Y1084D01*
X1383Y1084D02*
X1480Y1084D01*
X783Y1083D02*
X880Y1083D01*
X1383Y1083D02*
X1480Y1083D01*
X783Y1082D02*
X880Y1082D01*
X1383Y1082D02*
X1480Y1082D01*
X783Y1081D02*
X880Y1081D01*
X1383Y1081D02*
X1480Y1081D01*
X783Y1080D02*
X880Y1080D01*
X1383Y1080D02*
X1480Y1080D01*
X783Y1079D02*
X880Y1079D01*
X1383Y1079D02*
X1480Y1079D01*
X783Y1078D02*
X880Y1078D01*
X1383Y1078D02*
X1480Y1078D01*
X783Y1077D02*
X880Y1077D01*
X1383Y1077D02*
X1480Y1077D01*
X783Y1076D02*
X880Y1076D01*
X1383Y1076D02*
X1480Y1076D01*
X783Y1075D02*
X851Y1075D01*
X860Y1075D02*
X880Y1075D01*
X1383Y1075D02*
X1403Y1075D01*
X1412Y1075D02*
X1480Y1075D01*
X783Y1074D02*
X850Y1074D01*
X861Y1074D02*
X880Y1074D01*
X1383Y1074D02*
X1402Y1074D01*
X1413Y1074D02*
X1480Y1074D01*
X783Y1073D02*
X849Y1073D01*
X862Y1073D02*
X880Y1073D01*
X1383Y1073D02*
X1401Y1073D01*
X1414Y1073D02*
X1480Y1073D01*
X783Y1072D02*
X848Y1072D01*
X862Y1072D02*
X880Y1072D01*
X1383Y1072D02*
X1401Y1072D01*
X1415Y1072D02*
X1480Y1072D01*
X783Y1071D02*
X848Y1071D01*
X863Y1071D02*
X880Y1071D01*
X1383Y1071D02*
X1400Y1071D01*
X1415Y1071D02*
X1480Y1071D01*
X783Y1070D02*
X848Y1070D01*
X863Y1070D02*
X880Y1070D01*
X1383Y1070D02*
X1400Y1070D01*
X1415Y1070D02*
X1480Y1070D01*
X783Y1069D02*
X848Y1069D01*
X863Y1069D02*
X880Y1069D01*
X1383Y1069D02*
X1400Y1069D01*
X1415Y1069D02*
X1480Y1069D01*
X783Y1068D02*
X848Y1068D01*
X863Y1068D02*
X880Y1068D01*
X1383Y1068D02*
X1400Y1068D01*
X1415Y1068D02*
X1480Y1068D01*
X783Y1067D02*
X848Y1067D01*
X863Y1067D02*
X880Y1067D01*
X1383Y1067D02*
X1400Y1067D01*
X1415Y1067D02*
X1480Y1067D01*
X783Y1066D02*
X848Y1066D01*
X863Y1066D02*
X880Y1066D01*
X1383Y1066D02*
X1401Y1066D01*
X1415Y1066D02*
X1480Y1066D01*
X783Y1065D02*
X849Y1065D01*
X862Y1065D02*
X880Y1065D01*
X1383Y1065D02*
X1401Y1065D01*
X1414Y1065D02*
X1480Y1065D01*
X783Y1064D02*
X850Y1064D01*
X861Y1064D02*
X880Y1064D01*
X1383Y1064D02*
X1402Y1064D01*
X1413Y1064D02*
X1480Y1064D01*
X783Y1063D02*
X851Y1063D01*
X860Y1063D02*
X880Y1063D01*
X1383Y1063D02*
X1403Y1063D01*
X1412Y1063D02*
X1480Y1063D01*
X783Y1062D02*
X853Y1062D01*
X858Y1062D02*
X880Y1062D01*
X1383Y1062D02*
X1405Y1062D01*
X1410Y1062D02*
X1480Y1062D01*
X783Y1061D02*
X880Y1061D01*
X1383Y1061D02*
X1480Y1061D01*
X783Y1060D02*
X880Y1060D01*
X1383Y1060D02*
X1480Y1060D01*
X783Y1059D02*
X880Y1059D01*
X1383Y1059D02*
X1480Y1059D01*
X783Y1058D02*
X880Y1058D01*
X1383Y1058D02*
X1480Y1058D01*
X783Y1057D02*
X880Y1057D01*
X1383Y1057D02*
X1480Y1057D01*
X783Y1056D02*
X880Y1056D01*
X1383Y1056D02*
X1480Y1056D01*
X783Y1055D02*
X880Y1055D01*
X1383Y1055D02*
X1480Y1055D01*
X783Y1054D02*
X880Y1054D01*
X1383Y1054D02*
X1480Y1054D01*
X783Y1053D02*
X880Y1053D01*
X1383Y1053D02*
X1480Y1053D01*
X783Y1052D02*
X880Y1052D01*
X1383Y1052D02*
X1480Y1052D01*
X783Y1051D02*
X880Y1051D01*
X1383Y1051D02*
X1480Y1051D01*
X783Y1050D02*
X880Y1050D01*
X1383Y1050D02*
X1480Y1050D01*
X783Y1049D02*
X880Y1049D01*
X1383Y1049D02*
X1480Y1049D01*
X783Y1048D02*
X880Y1048D01*
X1383Y1048D02*
X1480Y1048D01*
X783Y1047D02*
X880Y1047D01*
X1383Y1047D02*
X1480Y1047D01*
X783Y1046D02*
X880Y1046D01*
X1383Y1046D02*
X1480Y1046D01*
X783Y1045D02*
X880Y1045D01*
X1383Y1045D02*
X1480Y1045D01*
X783Y1044D02*
X880Y1044D01*
X1383Y1044D02*
X1480Y1044D01*
X783Y1043D02*
X880Y1043D01*
X1383Y1043D02*
X1480Y1043D01*
X783Y1042D02*
X880Y1042D01*
X1383Y1042D02*
X1480Y1042D01*
X783Y1041D02*
X880Y1041D01*
X1383Y1041D02*
X1480Y1041D01*
X783Y1018D02*
X880Y1018D01*
X1383Y1018D02*
X1480Y1018D01*
X783Y1017D02*
X880Y1017D01*
X1383Y1017D02*
X1480Y1017D01*
X783Y1016D02*
X880Y1016D01*
X1383Y1016D02*
X1480Y1016D01*
X783Y1015D02*
X880Y1015D01*
X1383Y1015D02*
X1480Y1015D01*
X783Y1014D02*
X880Y1014D01*
X1383Y1014D02*
X1480Y1014D01*
X783Y1013D02*
X880Y1013D01*
X1383Y1013D02*
X1480Y1013D01*
X783Y1012D02*
X880Y1012D01*
X1383Y1012D02*
X1480Y1012D01*
X783Y1011D02*
X880Y1011D01*
X1383Y1011D02*
X1480Y1011D01*
X783Y1010D02*
X880Y1010D01*
X1383Y1010D02*
X1480Y1010D01*
X783Y1009D02*
X880Y1009D01*
X1383Y1009D02*
X1480Y1009D01*
X783Y1008D02*
X880Y1008D01*
X1383Y1008D02*
X1480Y1008D01*
X783Y1007D02*
X880Y1007D01*
X1383Y1007D02*
X1480Y1007D01*
X783Y1006D02*
X880Y1006D01*
X1383Y1006D02*
X1480Y1006D01*
X783Y1005D02*
X880Y1005D01*
X1383Y1005D02*
X1480Y1005D01*
X783Y1004D02*
X880Y1004D01*
X1383Y1004D02*
X1480Y1004D01*
X783Y1003D02*
X880Y1003D01*
X1383Y1003D02*
X1480Y1003D01*
X783Y1002D02*
X880Y1002D01*
X1383Y1002D02*
X1480Y1002D01*
X783Y1001D02*
X880Y1001D01*
X1383Y1001D02*
X1480Y1001D01*
X783Y1000D02*
X880Y1000D01*
X1383Y1000D02*
X1480Y1000D01*
X783Y999D02*
X880Y999D01*
X1383Y999D02*
X1480Y999D01*
X783Y998D02*
X880Y998D01*
X1383Y998D02*
X1480Y998D01*
X783Y997D02*
X853Y997D01*
X858Y997D02*
X880Y997D01*
X1383Y997D02*
X1405Y997D01*
X1410Y997D02*
X1480Y997D01*
X783Y996D02*
X851Y996D01*
X860Y996D02*
X880Y996D01*
X1383Y996D02*
X1403Y996D01*
X1412Y996D02*
X1480Y996D01*
X783Y995D02*
X850Y995D01*
X861Y995D02*
X880Y995D01*
X1383Y995D02*
X1402Y995D01*
X1413Y995D02*
X1480Y995D01*
X783Y994D02*
X849Y994D01*
X862Y994D02*
X880Y994D01*
X1383Y994D02*
X1401Y994D01*
X1414Y994D02*
X1480Y994D01*
X783Y993D02*
X848Y993D01*
X863Y993D02*
X880Y993D01*
X1383Y993D02*
X1401Y993D01*
X1415Y993D02*
X1480Y993D01*
X783Y992D02*
X848Y992D01*
X863Y992D02*
X880Y992D01*
X1383Y992D02*
X1400Y992D01*
X1415Y992D02*
X1480Y992D01*
X783Y991D02*
X848Y991D01*
X863Y991D02*
X880Y991D01*
X1383Y991D02*
X1400Y991D01*
X1415Y991D02*
X1480Y991D01*
X783Y990D02*
X848Y990D01*
X863Y990D02*
X880Y990D01*
X1383Y990D02*
X1400Y990D01*
X1415Y990D02*
X1480Y990D01*
X783Y989D02*
X848Y989D01*
X863Y989D02*
X880Y989D01*
X1383Y989D02*
X1400Y989D01*
X1415Y989D02*
X1480Y989D01*
X783Y988D02*
X848Y988D01*
X863Y988D02*
X880Y988D01*
X1383Y988D02*
X1400Y988D01*
X1415Y988D02*
X1480Y988D01*
X783Y987D02*
X848Y987D01*
X862Y987D02*
X880Y987D01*
X1383Y987D02*
X1401Y987D01*
X1415Y987D02*
X1480Y987D01*
X783Y986D02*
X849Y986D01*
X862Y986D02*
X880Y986D01*
X1383Y986D02*
X1401Y986D01*
X1414Y986D02*
X1480Y986D01*
X783Y985D02*
X850Y985D01*
X861Y985D02*
X880Y985D01*
X1383Y985D02*
X1402Y985D01*
X1413Y985D02*
X1480Y985D01*
X783Y984D02*
X851Y984D01*
X860Y984D02*
X880Y984D01*
X1383Y984D02*
X1403Y984D01*
X1412Y984D02*
X1480Y984D01*
X783Y983D02*
X854Y983D01*
X857Y983D02*
X880Y983D01*
X1383Y983D02*
X1407Y983D01*
X1409Y983D02*
X1480Y983D01*
X783Y982D02*
X880Y982D01*
X1383Y982D02*
X1480Y982D01*
X783Y981D02*
X880Y981D01*
X1383Y981D02*
X1480Y981D01*
X783Y980D02*
X880Y980D01*
X1383Y980D02*
X1480Y980D01*
X783Y979D02*
X880Y979D01*
X1383Y979D02*
X1480Y979D01*
X783Y978D02*
X880Y978D01*
X1383Y978D02*
X1480Y978D01*
X783Y977D02*
X880Y977D01*
X1383Y977D02*
X1480Y977D01*
X783Y976D02*
X880Y976D01*
X1383Y976D02*
X1480Y976D01*
X783Y975D02*
X880Y975D01*
X1383Y975D02*
X1480Y975D01*
X783Y974D02*
X880Y974D01*
X1383Y974D02*
X1480Y974D01*
X783Y973D02*
X880Y973D01*
X1383Y973D02*
X1480Y973D01*
X783Y972D02*
X880Y972D01*
X1383Y972D02*
X1480Y972D01*
X783Y971D02*
X880Y971D01*
X1383Y971D02*
X1480Y971D01*
X783Y970D02*
X880Y970D01*
X1383Y970D02*
X1480Y970D01*
X783Y969D02*
X880Y969D01*
X1383Y969D02*
X1480Y969D01*
X783Y968D02*
X880Y968D01*
X1383Y968D02*
X1480Y968D01*
X783Y967D02*
X880Y967D01*
X1383Y967D02*
X1480Y967D01*
X783Y966D02*
X880Y966D01*
X1383Y966D02*
X1480Y966D01*
X783Y965D02*
X880Y965D01*
X1383Y965D02*
X1480Y965D01*
X783Y964D02*
X880Y964D01*
X1383Y964D02*
X1480Y964D01*
X783Y963D02*
X880Y963D01*
X1383Y963D02*
X1480Y963D01*
X783Y962D02*
X880Y962D01*
X1383Y962D02*
X1480Y962D01*
X783Y940D02*
X880Y940D01*
X1383Y940D02*
X1480Y940D01*
X783Y939D02*
X880Y939D01*
X1383Y939D02*
X1480Y939D01*
X783Y938D02*
X880Y938D01*
X1383Y938D02*
X1480Y938D01*
X783Y937D02*
X880Y937D01*
X1383Y937D02*
X1480Y937D01*
X783Y936D02*
X880Y936D01*
X1383Y936D02*
X1480Y936D01*
X783Y935D02*
X880Y935D01*
X1383Y935D02*
X1480Y935D01*
X783Y934D02*
X880Y934D01*
X1383Y934D02*
X1480Y934D01*
X783Y933D02*
X880Y933D01*
X1383Y933D02*
X1480Y933D01*
X783Y932D02*
X880Y932D01*
X1383Y932D02*
X1480Y932D01*
X783Y931D02*
X880Y931D01*
X1383Y931D02*
X1480Y931D01*
X783Y930D02*
X880Y930D01*
X1383Y930D02*
X1480Y930D01*
X783Y929D02*
X880Y929D01*
X1383Y929D02*
X1480Y929D01*
X783Y928D02*
X880Y928D01*
X1383Y928D02*
X1480Y928D01*
X783Y927D02*
X880Y927D01*
X1383Y927D02*
X1480Y927D01*
X783Y926D02*
X880Y926D01*
X1383Y926D02*
X1480Y926D01*
X783Y925D02*
X880Y925D01*
X1383Y925D02*
X1480Y925D01*
X783Y924D02*
X880Y924D01*
X1383Y924D02*
X1480Y924D01*
X783Y923D02*
X880Y923D01*
X1383Y923D02*
X1480Y923D01*
X783Y922D02*
X880Y922D01*
X1383Y922D02*
X1480Y922D01*
X783Y921D02*
X880Y921D01*
X1383Y921D02*
X1480Y921D01*
X783Y920D02*
X880Y920D01*
X1383Y920D02*
X1480Y920D01*
X783Y919D02*
X880Y919D01*
X1383Y919D02*
X1480Y919D01*
X783Y918D02*
X852Y918D01*
X859Y918D02*
X880Y918D01*
X1383Y918D02*
X1404Y918D01*
X1411Y918D02*
X1480Y918D01*
X783Y917D02*
X851Y917D01*
X860Y917D02*
X880Y917D01*
X1383Y917D02*
X1403Y917D01*
X1413Y917D02*
X1480Y917D01*
X783Y916D02*
X850Y916D01*
X861Y916D02*
X880Y916D01*
X1383Y916D02*
X1402Y916D01*
X1414Y916D02*
X1480Y916D01*
X783Y915D02*
X849Y915D01*
X862Y915D02*
X880Y915D01*
X1383Y915D02*
X1401Y915D01*
X1414Y915D02*
X1480Y915D01*
X783Y914D02*
X848Y914D01*
X863Y914D02*
X880Y914D01*
X1383Y914D02*
X1400Y914D01*
X1415Y914D02*
X1480Y914D01*
X783Y913D02*
X848Y913D01*
X863Y913D02*
X880Y913D01*
X1383Y913D02*
X1400Y913D01*
X1415Y913D02*
X1480Y913D01*
X783Y912D02*
X848Y912D01*
X863Y912D02*
X880Y912D01*
X1383Y912D02*
X1400Y912D01*
X1415Y912D02*
X1480Y912D01*
X783Y911D02*
X848Y911D01*
X863Y911D02*
X880Y911D01*
X1383Y911D02*
X1400Y911D01*
X1415Y911D02*
X1480Y911D01*
X783Y910D02*
X848Y910D01*
X863Y910D02*
X880Y910D01*
X1383Y910D02*
X1400Y910D01*
X1415Y910D02*
X1480Y910D01*
X783Y909D02*
X848Y909D01*
X863Y909D02*
X880Y909D01*
X1383Y909D02*
X1400Y909D01*
X1415Y909D02*
X1480Y909D01*
X783Y908D02*
X849Y908D01*
X862Y908D02*
X880Y908D01*
X1383Y908D02*
X1401Y908D01*
X1415Y908D02*
X1480Y908D01*
X783Y907D02*
X849Y907D01*
X862Y907D02*
X880Y907D01*
X1383Y907D02*
X1402Y907D01*
X1414Y907D02*
X1480Y907D01*
X783Y906D02*
X850Y906D01*
X861Y906D02*
X880Y906D01*
X1383Y906D02*
X1403Y906D01*
X1413Y906D02*
X1480Y906D01*
X783Y905D02*
X852Y905D01*
X859Y905D02*
X880Y905D01*
X1383Y905D02*
X1404Y905D01*
X1412Y905D02*
X1480Y905D01*
X783Y904D02*
X880Y904D01*
X1383Y904D02*
X1480Y904D01*
X783Y903D02*
X880Y903D01*
X1383Y903D02*
X1480Y903D01*
X783Y902D02*
X880Y902D01*
X1383Y902D02*
X1480Y902D01*
X783Y901D02*
X880Y901D01*
X1383Y901D02*
X1480Y901D01*
X783Y900D02*
X880Y900D01*
X1383Y900D02*
X1480Y900D01*
X783Y899D02*
X880Y899D01*
X1383Y899D02*
X1480Y899D01*
X783Y898D02*
X880Y898D01*
X1383Y898D02*
X1480Y898D01*
X783Y897D02*
X880Y897D01*
X1383Y897D02*
X1480Y897D01*
X783Y896D02*
X880Y896D01*
X1383Y896D02*
X1480Y896D01*
X783Y895D02*
X880Y895D01*
X1383Y895D02*
X1480Y895D01*
X783Y894D02*
X880Y894D01*
X1383Y894D02*
X1480Y894D01*
X783Y893D02*
X880Y893D01*
X1383Y893D02*
X1480Y893D01*
X783Y892D02*
X880Y892D01*
X1383Y892D02*
X1480Y892D01*
X783Y891D02*
X880Y891D01*
X1383Y891D02*
X1480Y891D01*
X783Y890D02*
X880Y890D01*
X1383Y890D02*
X1480Y890D01*
X783Y889D02*
X880Y889D01*
X1383Y889D02*
X1480Y889D01*
X783Y888D02*
X880Y888D01*
X1383Y888D02*
X1480Y888D01*
X783Y887D02*
X880Y887D01*
X1383Y887D02*
X1480Y887D01*
X783Y886D02*
X880Y886D01*
X1383Y886D02*
X1480Y886D01*
X783Y885D02*
X880Y885D01*
X1383Y885D02*
X1480Y885D01*
X783Y884D02*
X880Y884D01*
X1383Y884D02*
X1480Y884D01*
X783Y883D02*
X880Y883D01*
X1383Y883D02*
X1480Y883D01*
X783Y861D02*
X880Y861D01*
X1383Y861D02*
X1480Y861D01*
X783Y860D02*
X880Y860D01*
X1383Y860D02*
X1480Y860D01*
X783Y859D02*
X880Y859D01*
X1383Y859D02*
X1480Y859D01*
X783Y858D02*
X880Y858D01*
X1383Y858D02*
X1480Y858D01*
X783Y857D02*
X880Y857D01*
X1383Y857D02*
X1480Y857D01*
X783Y856D02*
X880Y856D01*
X1383Y856D02*
X1480Y856D01*
X783Y855D02*
X880Y855D01*
X1383Y855D02*
X1480Y855D01*
X783Y854D02*
X880Y854D01*
X1383Y854D02*
X1480Y854D01*
X783Y853D02*
X880Y853D01*
X1383Y853D02*
X1480Y853D01*
X783Y852D02*
X880Y852D01*
X1383Y852D02*
X1480Y852D01*
X783Y851D02*
X880Y851D01*
X1383Y851D02*
X1480Y851D01*
X783Y850D02*
X880Y850D01*
X1383Y850D02*
X1480Y850D01*
X783Y849D02*
X880Y849D01*
X1383Y849D02*
X1480Y849D01*
X783Y848D02*
X880Y848D01*
X1383Y848D02*
X1480Y848D01*
X783Y847D02*
X880Y847D01*
X1383Y847D02*
X1480Y847D01*
X783Y846D02*
X880Y846D01*
X1383Y846D02*
X1480Y846D01*
X783Y845D02*
X880Y845D01*
X1383Y845D02*
X1480Y845D01*
X783Y844D02*
X880Y844D01*
X1383Y844D02*
X1480Y844D01*
X783Y843D02*
X880Y843D01*
X1383Y843D02*
X1480Y843D01*
X783Y842D02*
X880Y842D01*
X1383Y842D02*
X1480Y842D01*
X783Y841D02*
X880Y841D01*
X1383Y841D02*
X1480Y841D01*
X783Y840D02*
X880Y840D01*
X1383Y840D02*
X1480Y840D01*
X783Y839D02*
X852Y839D01*
X859Y839D02*
X880Y839D01*
X1383Y839D02*
X1404Y839D01*
X1412Y839D02*
X1480Y839D01*
X783Y838D02*
X850Y838D01*
X861Y838D02*
X880Y838D01*
X1383Y838D02*
X1402Y838D01*
X1413Y838D02*
X1480Y838D01*
X783Y837D02*
X849Y837D01*
X862Y837D02*
X880Y837D01*
X1383Y837D02*
X1402Y837D01*
X1414Y837D02*
X1480Y837D01*
X783Y836D02*
X849Y836D01*
X862Y836D02*
X880Y836D01*
X1383Y836D02*
X1401Y836D01*
X1415Y836D02*
X1480Y836D01*
X783Y835D02*
X848Y835D01*
X863Y835D02*
X880Y835D01*
X1383Y835D02*
X1400Y835D01*
X1415Y835D02*
X1480Y835D01*
X783Y834D02*
X848Y834D01*
X863Y834D02*
X880Y834D01*
X1383Y834D02*
X1400Y834D01*
X1415Y834D02*
X1480Y834D01*
X783Y833D02*
X848Y833D01*
X863Y833D02*
X880Y833D01*
X1383Y833D02*
X1400Y833D01*
X1415Y833D02*
X1480Y833D01*
X783Y832D02*
X848Y832D01*
X863Y832D02*
X880Y832D01*
X1383Y832D02*
X1400Y832D01*
X1415Y832D02*
X1480Y832D01*
X783Y831D02*
X848Y831D01*
X863Y831D02*
X880Y831D01*
X1383Y831D02*
X1400Y831D01*
X1415Y831D02*
X1480Y831D01*
X783Y830D02*
X848Y830D01*
X863Y830D02*
X880Y830D01*
X1383Y830D02*
X1400Y830D01*
X1415Y830D02*
X1480Y830D01*
X783Y829D02*
X849Y829D01*
X862Y829D02*
X880Y829D01*
X1383Y829D02*
X1401Y829D01*
X1414Y829D02*
X1480Y829D01*
X783Y828D02*
X850Y828D01*
X861Y828D02*
X880Y828D01*
X1383Y828D02*
X1402Y828D01*
X1414Y828D02*
X1480Y828D01*
X783Y827D02*
X851Y827D01*
X860Y827D02*
X880Y827D01*
X1383Y827D02*
X1403Y827D01*
X1413Y827D02*
X1480Y827D01*
X783Y826D02*
X852Y826D01*
X859Y826D02*
X880Y826D01*
X1383Y826D02*
X1404Y826D01*
X1411Y826D02*
X1480Y826D01*
X783Y825D02*
X880Y825D01*
X1383Y825D02*
X1480Y825D01*
X783Y824D02*
X880Y824D01*
X1383Y824D02*
X1480Y824D01*
X783Y823D02*
X880Y823D01*
X1383Y823D02*
X1480Y823D01*
X783Y822D02*
X880Y822D01*
X1383Y822D02*
X1480Y822D01*
X783Y821D02*
X880Y821D01*
X1383Y821D02*
X1480Y821D01*
X783Y820D02*
X880Y820D01*
X1383Y820D02*
X1480Y820D01*
X783Y819D02*
X880Y819D01*
X1383Y819D02*
X1480Y819D01*
X783Y818D02*
X880Y818D01*
X1383Y818D02*
X1480Y818D01*
X783Y817D02*
X880Y817D01*
X1383Y817D02*
X1480Y817D01*
X783Y816D02*
X880Y816D01*
X1383Y816D02*
X1480Y816D01*
X783Y815D02*
X880Y815D01*
X1383Y815D02*
X1480Y815D01*
X783Y814D02*
X880Y814D01*
X1383Y814D02*
X1480Y814D01*
X783Y813D02*
X880Y813D01*
X1383Y813D02*
X1480Y813D01*
X783Y812D02*
X880Y812D01*
X1383Y812D02*
X1480Y812D01*
X783Y811D02*
X880Y811D01*
X1383Y811D02*
X1480Y811D01*
X783Y810D02*
X880Y810D01*
X1383Y810D02*
X1480Y810D01*
X783Y809D02*
X880Y809D01*
X1383Y809D02*
X1480Y809D01*
X783Y808D02*
X880Y808D01*
X1383Y808D02*
X1480Y808D01*
X783Y807D02*
X880Y807D01*
X1383Y807D02*
X1480Y807D01*
X783Y806D02*
X880Y806D01*
X1383Y806D02*
X1480Y806D01*
X783Y805D02*
X880Y805D01*
X1383Y805D02*
X1480Y805D01*
D02*
G04 End of Mask0*
M02*