G04 MADE WITH FRITZING*
G04 WWW.FRITZING.ORG*
G04 DOUBLE SIDED*
G04 HOLES PLATED*
G04 CONTOUR ON CENTER OF CONTOUR VECTOR*
%ASAXBY*%
%FSLAX23Y23*%
%MOIN*%
%OFA0B0*%
%SFA1.0B1.0*%
%ADD10C,0.080000*%
%ADD11C,0.092000*%
%ADD12C,0.072992*%
%ADD13C,0.090000*%
%ADD14C,0.085433*%
%ADD15C,0.085000*%
%ADD16C,0.088000*%
%ADD17C,0.135984*%
%ADD18R,0.092000X0.092000*%
%ADD19R,0.072992X0.072992*%
%ADD20R,0.090000X0.090000*%
%ADD21R,0.089986X0.090000*%
%ADD22R,0.085000X0.085000*%
%ADD23R,0.088000X0.088000*%
%ADD24R,0.001000X0.001000*%
%LNMASK1*%
G90*
G70*
G54D10*
X1732Y533D03*
X1732Y433D03*
G54D11*
X875Y2024D03*
X875Y1726D03*
G54D12*
X557Y285D03*
X557Y383D03*
G54D13*
X2032Y1833D03*
X2032Y1633D03*
X2032Y2033D03*
X2032Y1433D03*
X2032Y1233D03*
G54D14*
X357Y1208D03*
X357Y858D03*
X512Y1081D03*
X512Y1382D03*
X733Y909D03*
X632Y1483D03*
X282Y1283D03*
X282Y533D03*
X282Y1883D03*
X432Y133D03*
X1682Y1033D03*
X1581Y1221D03*
X632Y508D03*
X1607Y208D03*
X532Y733D03*
X733Y1066D03*
X732Y1483D03*
G54D15*
X2032Y933D03*
X2132Y933D03*
X2032Y933D03*
X2132Y933D03*
X682Y1733D03*
X682Y2033D03*
X782Y1733D03*
X782Y2033D03*
G54D16*
X182Y1358D03*
X182Y1258D03*
X182Y1158D03*
X182Y1058D03*
X182Y958D03*
X182Y858D03*
X182Y758D03*
X182Y658D03*
X182Y1583D03*
X182Y1583D03*
X182Y1683D03*
X182Y1883D03*
X182Y1983D03*
X182Y333D03*
X182Y433D03*
X1832Y533D03*
X1932Y533D03*
X1832Y533D03*
X1932Y533D03*
X1932Y433D03*
X1832Y433D03*
X1832Y533D03*
X1932Y533D03*
X1832Y533D03*
X1932Y533D03*
X1932Y433D03*
X1832Y433D03*
G54D17*
X132Y2233D03*
X132Y108D03*
X2232Y2233D03*
X2232Y108D03*
G54D16*
X1532Y333D03*
X1632Y333D03*
X1732Y333D03*
X1832Y333D03*
X1932Y333D03*
X1732Y933D03*
X1732Y833D03*
X1732Y733D03*
X1732Y933D03*
X1732Y833D03*
X1732Y733D03*
X1632Y633D03*
X1732Y633D03*
X1832Y633D03*
X1932Y633D03*
X1632Y633D03*
X1732Y633D03*
X1832Y633D03*
X1932Y633D03*
G54D14*
X2282Y933D03*
G54D18*
X875Y2025D03*
G54D19*
X557Y285D03*
G54D20*
X2032Y2033D03*
G54D21*
X2032Y1433D03*
G54D22*
X2032Y933D03*
X2032Y933D03*
X682Y1733D03*
G54D23*
X1732Y933D03*
X1732Y933D03*
G54D24*
X1153Y2239D02*
X1171Y2239D01*
X1631Y2239D02*
X1650Y2239D01*
X1147Y2238D02*
X1177Y2238D01*
X1626Y2238D02*
X1655Y2238D01*
X1143Y2237D02*
X1181Y2237D01*
X1622Y2237D02*
X1659Y2237D01*
X1140Y2236D02*
X1184Y2236D01*
X1618Y2236D02*
X1663Y2236D01*
X1137Y2235D02*
X1187Y2235D01*
X1616Y2235D02*
X1665Y2235D01*
X1135Y2234D02*
X1190Y2234D01*
X1613Y2234D02*
X1668Y2234D01*
X1133Y2233D02*
X1192Y2233D01*
X1611Y2233D02*
X1670Y2233D01*
X1131Y2232D02*
X1194Y2232D01*
X1609Y2232D02*
X1672Y2232D01*
X1129Y2231D02*
X1196Y2231D01*
X1607Y2231D02*
X1674Y2231D01*
X1127Y2230D02*
X1197Y2230D01*
X1605Y2230D02*
X1675Y2230D01*
X1126Y2229D02*
X1199Y2229D01*
X1604Y2229D02*
X1677Y2229D01*
X1124Y2228D02*
X1200Y2228D01*
X1602Y2228D02*
X1679Y2228D01*
X1123Y2227D02*
X1202Y2227D01*
X1601Y2227D02*
X1680Y2227D01*
X1121Y2226D02*
X1203Y2226D01*
X1599Y2226D02*
X1681Y2226D01*
X1120Y2225D02*
X1205Y2225D01*
X1598Y2225D02*
X1683Y2225D01*
X1118Y2224D02*
X1206Y2224D01*
X1597Y2224D02*
X1684Y2224D01*
X1117Y2223D02*
X1207Y2223D01*
X1596Y2223D02*
X1685Y2223D01*
X1116Y2222D02*
X1208Y2222D01*
X1594Y2222D02*
X1687Y2222D01*
X1115Y2221D02*
X1209Y2221D01*
X1593Y2221D02*
X1688Y2221D01*
X1114Y2220D02*
X1210Y2220D01*
X1592Y2220D02*
X1689Y2220D01*
X1113Y2219D02*
X1211Y2219D01*
X1591Y2219D02*
X1690Y2219D01*
X1112Y2218D02*
X1212Y2218D01*
X1590Y2218D02*
X1691Y2218D01*
X1111Y2217D02*
X1213Y2217D01*
X1589Y2217D02*
X1692Y2217D01*
X1110Y2216D02*
X1214Y2216D01*
X1588Y2216D02*
X1692Y2216D01*
X1109Y2215D02*
X1215Y2215D01*
X1588Y2215D02*
X1693Y2215D01*
X1108Y2214D02*
X1216Y2214D01*
X1587Y2214D02*
X1694Y2214D01*
X1108Y2213D02*
X1217Y2213D01*
X1586Y2213D02*
X1695Y2213D01*
X1107Y2212D02*
X1217Y2212D01*
X1585Y2212D02*
X1696Y2212D01*
X1106Y2211D02*
X1218Y2211D01*
X1585Y2211D02*
X1696Y2211D01*
X1106Y2210D02*
X1219Y2210D01*
X1584Y2210D02*
X1697Y2210D01*
X1105Y2209D02*
X1220Y2209D01*
X1583Y2209D02*
X1698Y2209D01*
X1104Y2208D02*
X1220Y2208D01*
X1582Y2208D02*
X1698Y2208D01*
X1104Y2207D02*
X1221Y2207D01*
X1582Y2207D02*
X1699Y2207D01*
X1103Y2206D02*
X1221Y2206D01*
X1581Y2206D02*
X1700Y2206D01*
X1102Y2205D02*
X1222Y2205D01*
X1581Y2205D02*
X1700Y2205D01*
X1102Y2204D02*
X1223Y2204D01*
X1580Y2204D02*
X1701Y2204D01*
X1101Y2203D02*
X1223Y2203D01*
X1579Y2203D02*
X1702Y2203D01*
X1101Y2202D02*
X1224Y2202D01*
X1579Y2202D02*
X1702Y2202D01*
X1100Y2201D02*
X1224Y2201D01*
X1578Y2201D02*
X1703Y2201D01*
X1100Y2200D02*
X1225Y2200D01*
X1578Y2200D02*
X1703Y2200D01*
X1099Y2199D02*
X1225Y2199D01*
X1577Y2199D02*
X1704Y2199D01*
X1099Y2198D02*
X1226Y2198D01*
X1577Y2198D02*
X1704Y2198D01*
X1098Y2197D02*
X1226Y2197D01*
X1576Y2197D02*
X1704Y2197D01*
X1098Y2196D02*
X1227Y2196D01*
X1576Y2196D02*
X1705Y2196D01*
X1097Y2195D02*
X1227Y2195D01*
X1576Y2195D02*
X1705Y2195D01*
X1097Y2194D02*
X1227Y2194D01*
X1575Y2194D02*
X1706Y2194D01*
X1097Y2193D02*
X1228Y2193D01*
X1575Y2193D02*
X1706Y2193D01*
X1096Y2192D02*
X1228Y2192D01*
X1575Y2192D02*
X1706Y2192D01*
X1096Y2191D02*
X1228Y2191D01*
X1574Y2191D02*
X1707Y2191D01*
X1096Y2190D02*
X1229Y2190D01*
X1574Y2190D02*
X1707Y2190D01*
X1096Y2189D02*
X1229Y2189D01*
X1574Y2189D02*
X1707Y2189D01*
X1095Y2188D02*
X1229Y2188D01*
X1574Y2188D02*
X1707Y2188D01*
X1095Y2187D02*
X1229Y2187D01*
X1573Y2187D02*
X1708Y2187D01*
X1095Y2186D02*
X1230Y2186D01*
X1573Y2186D02*
X1708Y2186D01*
X1095Y2185D02*
X1230Y2185D01*
X1573Y2185D02*
X1708Y2185D01*
X1094Y2184D02*
X1230Y2184D01*
X1573Y2184D02*
X1708Y2184D01*
X1094Y2183D02*
X1230Y2183D01*
X1572Y2183D02*
X1709Y2183D01*
X1094Y2182D02*
X1230Y2182D01*
X1572Y2182D02*
X1709Y2182D01*
X1094Y2181D02*
X1231Y2181D01*
X1572Y2181D02*
X1709Y2181D01*
X1094Y2180D02*
X1231Y2180D01*
X1572Y2180D02*
X1709Y2180D01*
X1093Y2179D02*
X1231Y2179D01*
X1572Y2179D02*
X1709Y2179D01*
X1093Y2178D02*
X1231Y2178D01*
X1572Y2178D02*
X1709Y2178D01*
X1093Y2177D02*
X1231Y2177D01*
X1571Y2177D02*
X1709Y2177D01*
X1093Y2176D02*
X1231Y2176D01*
X1571Y2176D02*
X1710Y2176D01*
X1093Y2175D02*
X1231Y2175D01*
X1571Y2175D02*
X1710Y2175D01*
X1093Y2174D02*
X1231Y2174D01*
X1571Y2174D02*
X1710Y2174D01*
X1093Y2173D02*
X1231Y2173D01*
X1571Y2173D02*
X1710Y2173D01*
X1093Y2172D02*
X1231Y2172D01*
X1571Y2172D02*
X1710Y2172D01*
X1093Y2171D02*
X1232Y2171D01*
X1571Y2171D02*
X1710Y2171D01*
X1093Y2170D02*
X1232Y2170D01*
X1571Y2170D02*
X1710Y2170D01*
X1093Y2169D02*
X1232Y2169D01*
X1571Y2169D02*
X1710Y2169D01*
X1093Y2168D02*
X1231Y2168D01*
X1571Y2168D02*
X1710Y2168D01*
X1093Y2167D02*
X1231Y2167D01*
X1571Y2167D02*
X1710Y2167D01*
X1093Y2166D02*
X1231Y2166D01*
X1571Y2166D02*
X1710Y2166D01*
X1093Y2165D02*
X1231Y2165D01*
X1571Y2165D02*
X1710Y2165D01*
X1093Y2164D02*
X1231Y2164D01*
X1571Y2164D02*
X1710Y2164D01*
X1093Y2163D02*
X1231Y2163D01*
X1571Y2163D02*
X1710Y2163D01*
X1093Y2162D02*
X1231Y2162D01*
X1572Y2162D02*
X1709Y2162D01*
X1093Y2161D02*
X1231Y2161D01*
X1572Y2161D02*
X1709Y2161D01*
X1094Y2160D02*
X1231Y2160D01*
X1572Y2160D02*
X1709Y2160D01*
X1094Y2159D02*
X1231Y2159D01*
X1572Y2159D02*
X1709Y2159D01*
X1094Y2158D02*
X1230Y2158D01*
X1572Y2158D02*
X1709Y2158D01*
X1094Y2157D02*
X1230Y2157D01*
X1572Y2157D02*
X1709Y2157D01*
X1094Y2156D02*
X1230Y2156D01*
X1573Y2156D02*
X1708Y2156D01*
X1094Y2155D02*
X1230Y2155D01*
X1573Y2155D02*
X1708Y2155D01*
X1095Y2154D02*
X1230Y2154D01*
X1573Y2154D02*
X1708Y2154D01*
X1095Y2153D02*
X1229Y2153D01*
X1573Y2153D02*
X1708Y2153D01*
X1095Y2152D02*
X1229Y2152D01*
X1574Y2152D02*
X1707Y2152D01*
X1095Y2151D02*
X1229Y2151D01*
X1574Y2151D02*
X1707Y2151D01*
X1096Y2150D02*
X1229Y2150D01*
X1574Y2150D02*
X1707Y2150D01*
X1096Y2149D02*
X1228Y2149D01*
X1574Y2149D02*
X1707Y2149D01*
X1096Y2148D02*
X1228Y2148D01*
X1575Y2148D02*
X1706Y2148D01*
X1097Y2147D02*
X1228Y2147D01*
X1575Y2147D02*
X1706Y2147D01*
X1097Y2146D02*
X1227Y2146D01*
X1575Y2146D02*
X1706Y2146D01*
X1097Y2145D02*
X1227Y2145D01*
X1576Y2145D02*
X1705Y2145D01*
X1098Y2144D02*
X1227Y2144D01*
X1576Y2144D02*
X1705Y2144D01*
X1098Y2143D02*
X1226Y2143D01*
X1576Y2143D02*
X1705Y2143D01*
X1099Y2142D02*
X1226Y2142D01*
X1577Y2142D02*
X1704Y2142D01*
X1099Y2141D02*
X1225Y2141D01*
X1577Y2141D02*
X1704Y2141D01*
X1100Y2140D02*
X1225Y2140D01*
X1578Y2140D02*
X1703Y2140D01*
X1100Y2139D02*
X1224Y2139D01*
X1578Y2139D02*
X1703Y2139D01*
X1101Y2138D02*
X1224Y2138D01*
X1579Y2138D02*
X1702Y2138D01*
X1101Y2137D02*
X1223Y2137D01*
X1579Y2137D02*
X1702Y2137D01*
X1102Y2136D02*
X1223Y2136D01*
X1580Y2136D02*
X1701Y2136D01*
X1102Y2135D02*
X1222Y2135D01*
X1581Y2135D02*
X1700Y2135D01*
X1103Y2134D02*
X1221Y2134D01*
X1581Y2134D02*
X1700Y2134D01*
X1103Y2133D02*
X1221Y2133D01*
X1582Y2133D02*
X1699Y2133D01*
X1104Y2132D02*
X1220Y2132D01*
X1582Y2132D02*
X1699Y2132D01*
X1105Y2131D02*
X1220Y2131D01*
X1583Y2131D02*
X1698Y2131D01*
X1105Y2130D02*
X1219Y2130D01*
X1584Y2130D02*
X1697Y2130D01*
X1106Y2129D02*
X1218Y2129D01*
X1584Y2129D02*
X1696Y2129D01*
X1107Y2128D02*
X1217Y2128D01*
X1585Y2128D02*
X1696Y2128D01*
X1108Y2127D02*
X1217Y2127D01*
X1586Y2127D02*
X1695Y2127D01*
X1108Y2126D02*
X1216Y2126D01*
X1587Y2126D02*
X1694Y2126D01*
X1109Y2125D02*
X1215Y2125D01*
X1587Y2125D02*
X1693Y2125D01*
X1110Y2124D02*
X1214Y2124D01*
X1588Y2124D02*
X1693Y2124D01*
X1111Y2123D02*
X1213Y2123D01*
X1589Y2123D02*
X1692Y2123D01*
X1112Y2122D02*
X1213Y2122D01*
X1590Y2122D02*
X1691Y2122D01*
X1113Y2121D02*
X1212Y2121D01*
X1591Y2121D02*
X1690Y2121D01*
X1114Y2120D02*
X1211Y2120D01*
X1592Y2120D02*
X1689Y2120D01*
X1115Y2119D02*
X1210Y2119D01*
X1593Y2119D02*
X1688Y2119D01*
X1116Y2118D02*
X1208Y2118D01*
X1594Y2118D02*
X1687Y2118D01*
X1117Y2117D02*
X1207Y2117D01*
X1595Y2117D02*
X1686Y2117D01*
X1118Y2116D02*
X1206Y2116D01*
X1597Y2116D02*
X1684Y2116D01*
X1120Y2115D02*
X1205Y2115D01*
X1598Y2115D02*
X1683Y2115D01*
X1121Y2114D02*
X1203Y2114D01*
X1599Y2114D02*
X1682Y2114D01*
X1122Y2113D02*
X1202Y2113D01*
X1601Y2113D02*
X1680Y2113D01*
X1124Y2112D02*
X1201Y2112D01*
X1602Y2112D02*
X1679Y2112D01*
X1125Y2111D02*
X1199Y2111D01*
X1604Y2111D02*
X1677Y2111D01*
X1127Y2110D02*
X1197Y2110D01*
X1605Y2110D02*
X1676Y2110D01*
X1129Y2109D02*
X1196Y2109D01*
X1607Y2109D02*
X1674Y2109D01*
X1130Y2108D02*
X1194Y2108D01*
X1609Y2108D02*
X1672Y2108D01*
X1132Y2107D02*
X1192Y2107D01*
X1611Y2107D02*
X1670Y2107D01*
X1134Y2106D02*
X1190Y2106D01*
X1613Y2106D02*
X1668Y2106D01*
X1137Y2105D02*
X1188Y2105D01*
X1615Y2105D02*
X1666Y2105D01*
X1140Y2104D02*
X1185Y2104D01*
X1618Y2104D02*
X1663Y2104D01*
X1143Y2103D02*
X1182Y2103D01*
X1621Y2103D02*
X1660Y2103D01*
X1147Y2102D02*
X1178Y2102D01*
X1625Y2102D02*
X1656Y2102D01*
X1152Y2101D02*
X1172Y2101D01*
X1630Y2101D02*
X1651Y2101D01*
X1162Y2100D02*
X1162Y2100D01*
X1073Y2003D02*
X1090Y2003D01*
X1067Y2002D02*
X1096Y2002D01*
X1063Y2001D02*
X1100Y2001D01*
X1060Y2000D02*
X1103Y2000D01*
X1057Y1999D02*
X1106Y1999D01*
X1054Y1998D02*
X1109Y1998D01*
X1052Y1997D02*
X1111Y1997D01*
X1050Y1996D02*
X1113Y1996D01*
X1048Y1995D02*
X1115Y1995D01*
X1047Y1994D02*
X1116Y1994D01*
X1045Y1993D02*
X1118Y1993D01*
X1044Y1992D02*
X1119Y1992D01*
X1042Y1991D02*
X1121Y1991D01*
X1041Y1990D02*
X1122Y1990D01*
X1039Y1989D02*
X1124Y1989D01*
X1038Y1988D02*
X1125Y1988D01*
X1037Y1987D02*
X1126Y1987D01*
X1036Y1986D02*
X1127Y1986D01*
X1035Y1985D02*
X1128Y1985D01*
X1033Y1984D02*
X1130Y1984D01*
X1032Y1983D02*
X1131Y1983D01*
X1031Y1982D02*
X1132Y1982D01*
X1031Y1981D02*
X1132Y1981D01*
X1030Y1980D02*
X1133Y1980D01*
X1029Y1979D02*
X1134Y1979D01*
X1028Y1978D02*
X1135Y1978D01*
X1027Y1977D02*
X1136Y1977D01*
X1026Y1976D02*
X1137Y1976D01*
X1026Y1975D02*
X1137Y1975D01*
X1025Y1974D02*
X1138Y1974D01*
X1024Y1973D02*
X1139Y1973D01*
X1024Y1972D02*
X1139Y1972D01*
X1023Y1971D02*
X1140Y1971D01*
X1022Y1970D02*
X1141Y1970D01*
X1022Y1969D02*
X1141Y1969D01*
X1021Y1968D02*
X1142Y1968D01*
X1021Y1967D02*
X1142Y1967D01*
X1020Y1966D02*
X1143Y1966D01*
X1020Y1965D02*
X1143Y1965D01*
X1019Y1964D02*
X1144Y1964D01*
X1019Y1963D02*
X1144Y1963D01*
X1018Y1962D02*
X1145Y1962D01*
X1018Y1961D02*
X1145Y1961D01*
X1017Y1960D02*
X1146Y1960D01*
X1017Y1959D02*
X1146Y1959D01*
X1016Y1958D02*
X1146Y1958D01*
X1016Y1957D02*
X1147Y1957D01*
X1016Y1956D02*
X1147Y1956D01*
X1015Y1955D02*
X1148Y1955D01*
X1015Y1954D02*
X1148Y1954D01*
X1015Y1953D02*
X1148Y1953D01*
X1015Y1952D02*
X1148Y1952D01*
X1014Y1951D02*
X1149Y1951D01*
X1014Y1950D02*
X1149Y1950D01*
X1014Y1949D02*
X1149Y1949D01*
X1014Y1948D02*
X1149Y1948D01*
X1013Y1947D02*
X1149Y1947D01*
X1013Y1946D02*
X1150Y1946D01*
X1013Y1945D02*
X1150Y1945D01*
X1013Y1944D02*
X1150Y1944D01*
X1013Y1943D02*
X1150Y1943D01*
X1013Y1942D02*
X1150Y1942D01*
X1012Y1941D02*
X1150Y1941D01*
X1012Y1940D02*
X1151Y1940D01*
X1012Y1939D02*
X1151Y1939D01*
X1012Y1938D02*
X1151Y1938D01*
X1012Y1937D02*
X1151Y1937D01*
X1012Y1936D02*
X1151Y1936D01*
X1012Y1935D02*
X1151Y1935D01*
X1012Y1934D02*
X1151Y1934D01*
X1012Y1933D02*
X1151Y1933D01*
X1012Y1932D02*
X1151Y1932D01*
X1012Y1931D02*
X1151Y1931D01*
X1012Y1930D02*
X1151Y1930D01*
X1012Y1929D02*
X1151Y1929D01*
X1012Y1928D02*
X1151Y1928D01*
X1012Y1927D02*
X1151Y1927D01*
X1013Y1926D02*
X1150Y1926D01*
X1013Y1925D02*
X1150Y1925D01*
X1013Y1924D02*
X1150Y1924D01*
X1013Y1923D02*
X1150Y1923D01*
X1013Y1922D02*
X1150Y1922D01*
X1013Y1921D02*
X1150Y1921D01*
X1014Y1920D02*
X1149Y1920D01*
X1014Y1919D02*
X1149Y1919D01*
X1014Y1918D02*
X1149Y1918D01*
X1014Y1917D02*
X1149Y1917D01*
X1014Y1916D02*
X1148Y1916D01*
X1015Y1915D02*
X1148Y1915D01*
X1015Y1914D02*
X1148Y1914D01*
X1015Y1913D02*
X1148Y1913D01*
X1016Y1912D02*
X1147Y1912D01*
X1016Y1911D02*
X1147Y1911D01*
X1016Y1910D02*
X1147Y1910D01*
X1017Y1909D02*
X1146Y1909D01*
X1017Y1908D02*
X1146Y1908D01*
X1017Y1907D02*
X1146Y1907D01*
X1018Y1906D02*
X1145Y1906D01*
X1018Y1905D02*
X1145Y1905D01*
X1019Y1904D02*
X1144Y1904D01*
X1019Y1903D02*
X1144Y1903D01*
X1020Y1902D02*
X1143Y1902D01*
X1020Y1901D02*
X1143Y1901D01*
X1021Y1900D02*
X1142Y1900D01*
X1021Y1899D02*
X1142Y1899D01*
X1022Y1898D02*
X1141Y1898D01*
X1023Y1897D02*
X1140Y1897D01*
X1023Y1896D02*
X1140Y1896D01*
X1024Y1895D02*
X1139Y1895D01*
X1025Y1894D02*
X1138Y1894D01*
X1025Y1893D02*
X1138Y1893D01*
X1026Y1892D02*
X1137Y1892D01*
X1027Y1891D02*
X1136Y1891D01*
X1028Y1890D02*
X1135Y1890D01*
X1028Y1889D02*
X1135Y1889D01*
X1029Y1888D02*
X1134Y1888D01*
X1030Y1887D02*
X1133Y1887D01*
X1031Y1886D02*
X1132Y1886D01*
X1032Y1885D02*
X1131Y1885D01*
X1033Y1884D02*
X1130Y1884D01*
X1034Y1883D02*
X1129Y1883D01*
X1035Y1882D02*
X1128Y1882D01*
X1036Y1881D02*
X1127Y1881D01*
X1037Y1880D02*
X1126Y1880D01*
X1039Y1879D02*
X1124Y1879D01*
X1040Y1878D02*
X1123Y1878D01*
X1041Y1877D02*
X1122Y1877D01*
X1043Y1876D02*
X1120Y1876D01*
X1044Y1875D02*
X1119Y1875D01*
X1046Y1874D02*
X1117Y1874D01*
X1048Y1873D02*
X1115Y1873D01*
X1049Y1872D02*
X1114Y1872D01*
X1051Y1871D02*
X1112Y1871D01*
X1053Y1870D02*
X1110Y1870D01*
X1056Y1869D02*
X1107Y1869D01*
X1058Y1868D02*
X1105Y1868D01*
X1061Y1867D02*
X1102Y1867D01*
X1065Y1866D02*
X1098Y1866D01*
X1070Y1865D02*
X1093Y1865D01*
X1078Y1864D02*
X1084Y1864D01*
X1155Y1767D02*
X1169Y1767D01*
X1634Y1767D02*
X1647Y1767D01*
X1149Y1766D02*
X1175Y1766D01*
X1627Y1766D02*
X1654Y1766D01*
X1145Y1765D02*
X1180Y1765D01*
X1623Y1765D02*
X1658Y1765D01*
X1141Y1764D02*
X1183Y1764D01*
X1619Y1764D02*
X1662Y1764D01*
X1138Y1763D02*
X1186Y1763D01*
X1617Y1763D02*
X1664Y1763D01*
X1135Y1762D02*
X1189Y1762D01*
X1614Y1762D02*
X1667Y1762D01*
X1133Y1761D02*
X1191Y1761D01*
X1612Y1761D02*
X1669Y1761D01*
X1131Y1760D02*
X1193Y1760D01*
X1610Y1760D02*
X1671Y1760D01*
X1129Y1759D02*
X1195Y1759D01*
X1608Y1759D02*
X1673Y1759D01*
X1128Y1758D02*
X1197Y1758D01*
X1606Y1758D02*
X1675Y1758D01*
X1126Y1757D02*
X1198Y1757D01*
X1604Y1757D02*
X1677Y1757D01*
X1125Y1756D02*
X1200Y1756D01*
X1603Y1756D02*
X1678Y1756D01*
X1123Y1755D02*
X1201Y1755D01*
X1601Y1755D02*
X1680Y1755D01*
X1122Y1754D02*
X1203Y1754D01*
X1600Y1754D02*
X1681Y1754D01*
X1120Y1753D02*
X1204Y1753D01*
X1599Y1753D02*
X1682Y1753D01*
X1119Y1752D02*
X1205Y1752D01*
X1597Y1752D02*
X1684Y1752D01*
X1118Y1751D02*
X1207Y1751D01*
X1596Y1751D02*
X1685Y1751D01*
X1117Y1750D02*
X1208Y1750D01*
X1595Y1750D02*
X1686Y1750D01*
X1115Y1749D02*
X1209Y1749D01*
X1594Y1749D02*
X1687Y1749D01*
X1114Y1748D02*
X1210Y1748D01*
X1593Y1748D02*
X1688Y1748D01*
X1113Y1747D02*
X1211Y1747D01*
X1592Y1747D02*
X1689Y1747D01*
X1112Y1746D02*
X1212Y1746D01*
X1591Y1746D02*
X1690Y1746D01*
X1111Y1745D02*
X1213Y1745D01*
X1590Y1745D02*
X1691Y1745D01*
X1111Y1744D02*
X1214Y1744D01*
X1589Y1744D02*
X1692Y1744D01*
X1110Y1743D02*
X1215Y1743D01*
X1588Y1743D02*
X1693Y1743D01*
X1109Y1742D02*
X1216Y1742D01*
X1587Y1742D02*
X1694Y1742D01*
X1108Y1741D02*
X1216Y1741D01*
X1586Y1741D02*
X1695Y1741D01*
X1107Y1740D02*
X1217Y1740D01*
X1586Y1740D02*
X1695Y1740D01*
X1107Y1739D02*
X1218Y1739D01*
X1585Y1739D02*
X1696Y1739D01*
X1106Y1738D02*
X1219Y1738D01*
X1584Y1738D02*
X1697Y1738D01*
X1105Y1737D02*
X1219Y1737D01*
X1583Y1737D02*
X1698Y1737D01*
X1104Y1736D02*
X1220Y1736D01*
X1583Y1736D02*
X1698Y1736D01*
X1104Y1735D02*
X1221Y1735D01*
X1582Y1735D02*
X1699Y1735D01*
X1103Y1734D02*
X1221Y1734D01*
X1581Y1734D02*
X1699Y1734D01*
X1103Y1733D02*
X1222Y1733D01*
X1581Y1733D02*
X1700Y1733D01*
X1102Y1732D02*
X1222Y1732D01*
X1580Y1732D02*
X1701Y1732D01*
X1101Y1731D02*
X1223Y1731D01*
X1580Y1731D02*
X1701Y1731D01*
X1101Y1730D02*
X1224Y1730D01*
X1579Y1730D02*
X1702Y1730D01*
X1100Y1729D02*
X1224Y1729D01*
X1579Y1729D02*
X1702Y1729D01*
X1100Y1728D02*
X1225Y1728D01*
X1578Y1728D02*
X1703Y1728D01*
X1099Y1727D02*
X1225Y1727D01*
X1578Y1727D02*
X1703Y1727D01*
X1099Y1726D02*
X1226Y1726D01*
X1577Y1726D02*
X1704Y1726D01*
X1098Y1725D02*
X1226Y1725D01*
X1577Y1725D02*
X1704Y1725D01*
X1098Y1724D02*
X1226Y1724D01*
X1576Y1724D02*
X1705Y1724D01*
X1098Y1723D02*
X1227Y1723D01*
X1576Y1723D02*
X1705Y1723D01*
X1097Y1722D02*
X1227Y1722D01*
X1576Y1722D02*
X1705Y1722D01*
X1097Y1721D02*
X1227Y1721D01*
X1575Y1721D02*
X1706Y1721D01*
X1097Y1720D02*
X1228Y1720D01*
X1575Y1720D02*
X1706Y1720D01*
X1096Y1719D02*
X1228Y1719D01*
X1574Y1719D02*
X1706Y1719D01*
X1096Y1718D02*
X1228Y1718D01*
X1574Y1718D02*
X1707Y1718D01*
X1096Y1717D02*
X1229Y1717D01*
X1574Y1717D02*
X1707Y1717D01*
X1095Y1716D02*
X1229Y1716D01*
X1574Y1716D02*
X1707Y1716D01*
X1095Y1715D02*
X1229Y1715D01*
X1573Y1715D02*
X1708Y1715D01*
X1095Y1714D02*
X1229Y1714D01*
X1573Y1714D02*
X1708Y1714D01*
X1095Y1713D02*
X1230Y1713D01*
X1573Y1713D02*
X1708Y1713D01*
X1094Y1712D02*
X1230Y1712D01*
X1573Y1712D02*
X1708Y1712D01*
X1094Y1711D02*
X1230Y1711D01*
X1572Y1711D02*
X1708Y1711D01*
X1094Y1710D02*
X1230Y1710D01*
X1572Y1710D02*
X1709Y1710D01*
X1094Y1709D02*
X1230Y1709D01*
X1572Y1709D02*
X1709Y1709D01*
X1094Y1708D02*
X1231Y1708D01*
X1572Y1708D02*
X1709Y1708D01*
X1094Y1707D02*
X1231Y1707D01*
X1572Y1707D02*
X1709Y1707D01*
X1093Y1706D02*
X1231Y1706D01*
X1572Y1706D02*
X1709Y1706D01*
X1093Y1705D02*
X1231Y1705D01*
X1572Y1705D02*
X1709Y1705D01*
X1093Y1704D02*
X1231Y1704D01*
X1571Y1704D02*
X1710Y1704D01*
X1093Y1703D02*
X1231Y1703D01*
X1571Y1703D02*
X1710Y1703D01*
X1093Y1702D02*
X1231Y1702D01*
X1571Y1702D02*
X1710Y1702D01*
X1093Y1701D02*
X1231Y1701D01*
X1571Y1701D02*
X1710Y1701D01*
X1093Y1700D02*
X1231Y1700D01*
X1571Y1700D02*
X1710Y1700D01*
X1093Y1699D02*
X1232Y1699D01*
X1571Y1699D02*
X1710Y1699D01*
X1093Y1698D02*
X1232Y1698D01*
X1571Y1698D02*
X1710Y1698D01*
X1093Y1697D02*
X1232Y1697D01*
X1571Y1697D02*
X1710Y1697D01*
X1093Y1696D02*
X1232Y1696D01*
X1571Y1696D02*
X1710Y1696D01*
X1093Y1695D02*
X1231Y1695D01*
X1571Y1695D02*
X1710Y1695D01*
X1093Y1694D02*
X1231Y1694D01*
X1571Y1694D02*
X1710Y1694D01*
X1093Y1693D02*
X1231Y1693D01*
X1571Y1693D02*
X1710Y1693D01*
X1093Y1692D02*
X1231Y1692D01*
X1571Y1692D02*
X1710Y1692D01*
X1093Y1691D02*
X1231Y1691D01*
X1571Y1691D02*
X1710Y1691D01*
X1093Y1690D02*
X1231Y1690D01*
X1572Y1690D02*
X1709Y1690D01*
X1093Y1689D02*
X1231Y1689D01*
X1572Y1689D02*
X1709Y1689D01*
X1094Y1688D02*
X1231Y1688D01*
X1572Y1688D02*
X1709Y1688D01*
X1094Y1687D02*
X1231Y1687D01*
X1572Y1687D02*
X1709Y1687D01*
X1094Y1686D02*
X1230Y1686D01*
X1572Y1686D02*
X1709Y1686D01*
X1094Y1685D02*
X1230Y1685D01*
X1572Y1685D02*
X1709Y1685D01*
X1094Y1684D02*
X1230Y1684D01*
X1572Y1684D02*
X1708Y1684D01*
X1094Y1683D02*
X1230Y1683D01*
X1573Y1683D02*
X1708Y1683D01*
X1095Y1682D02*
X1230Y1682D01*
X1573Y1682D02*
X1708Y1682D01*
X1095Y1681D02*
X1229Y1681D01*
X1573Y1681D02*
X1708Y1681D01*
X1095Y1680D02*
X1229Y1680D01*
X1573Y1680D02*
X1708Y1680D01*
X1095Y1679D02*
X1229Y1679D01*
X1574Y1679D02*
X1707Y1679D01*
X1096Y1678D02*
X1229Y1678D01*
X1574Y1678D02*
X1707Y1678D01*
X1096Y1677D02*
X1228Y1677D01*
X1574Y1677D02*
X1707Y1677D01*
X1096Y1676D02*
X1228Y1676D01*
X1575Y1676D02*
X1706Y1676D01*
X1097Y1675D02*
X1228Y1675D01*
X1575Y1675D02*
X1706Y1675D01*
X1097Y1674D02*
X1227Y1674D01*
X1575Y1674D02*
X1706Y1674D01*
X1097Y1673D02*
X1227Y1673D01*
X1576Y1673D02*
X1705Y1673D01*
X1098Y1672D02*
X1227Y1672D01*
X1576Y1672D02*
X1705Y1672D01*
X1098Y1671D02*
X1226Y1671D01*
X1576Y1671D02*
X1705Y1671D01*
X1098Y1670D02*
X1226Y1670D01*
X1577Y1670D02*
X1704Y1670D01*
X1099Y1669D02*
X1225Y1669D01*
X1577Y1669D02*
X1704Y1669D01*
X1099Y1668D02*
X1225Y1668D01*
X1578Y1668D02*
X1703Y1668D01*
X1100Y1667D02*
X1224Y1667D01*
X1578Y1667D02*
X1703Y1667D01*
X1100Y1666D02*
X1224Y1666D01*
X1579Y1666D02*
X1702Y1666D01*
X1101Y1665D02*
X1223Y1665D01*
X1579Y1665D02*
X1702Y1665D01*
X1101Y1664D02*
X1223Y1664D01*
X1580Y1664D02*
X1701Y1664D01*
X1102Y1663D02*
X1222Y1663D01*
X1580Y1663D02*
X1701Y1663D01*
X1103Y1662D02*
X1222Y1662D01*
X1581Y1662D02*
X1700Y1662D01*
X1103Y1661D02*
X1221Y1661D01*
X1582Y1661D02*
X1699Y1661D01*
X1104Y1660D02*
X1220Y1660D01*
X1582Y1660D02*
X1699Y1660D01*
X1104Y1659D02*
X1220Y1659D01*
X1583Y1659D02*
X1698Y1659D01*
X1105Y1658D02*
X1219Y1658D01*
X1583Y1658D02*
X1698Y1658D01*
X1106Y1657D02*
X1218Y1657D01*
X1584Y1657D02*
X1697Y1657D01*
X1107Y1656D02*
X1218Y1656D01*
X1585Y1656D02*
X1696Y1656D01*
X1107Y1655D02*
X1217Y1655D01*
X1586Y1655D02*
X1695Y1655D01*
X1108Y1654D02*
X1216Y1654D01*
X1586Y1654D02*
X1695Y1654D01*
X1109Y1653D02*
X1216Y1653D01*
X1587Y1653D02*
X1694Y1653D01*
X1110Y1652D02*
X1215Y1652D01*
X1588Y1652D02*
X1693Y1652D01*
X1111Y1651D02*
X1214Y1651D01*
X1589Y1651D02*
X1692Y1651D01*
X1112Y1650D02*
X1213Y1650D01*
X1590Y1650D02*
X1691Y1650D01*
X1112Y1649D02*
X1212Y1649D01*
X1591Y1649D02*
X1690Y1649D01*
X1113Y1648D02*
X1211Y1648D01*
X1592Y1648D02*
X1689Y1648D01*
X1114Y1647D02*
X1210Y1647D01*
X1593Y1647D02*
X1688Y1647D01*
X1116Y1646D02*
X1209Y1646D01*
X1594Y1646D02*
X1687Y1646D01*
X1117Y1645D02*
X1208Y1645D01*
X1595Y1645D02*
X1686Y1645D01*
X1118Y1644D02*
X1207Y1644D01*
X1596Y1644D02*
X1685Y1644D01*
X1119Y1643D02*
X1205Y1643D01*
X1597Y1643D02*
X1684Y1643D01*
X1120Y1642D02*
X1204Y1642D01*
X1599Y1642D02*
X1682Y1642D01*
X1122Y1641D02*
X1203Y1641D01*
X1600Y1641D02*
X1681Y1641D01*
X1123Y1640D02*
X1201Y1640D01*
X1601Y1640D02*
X1679Y1640D01*
X1125Y1639D02*
X1200Y1639D01*
X1603Y1639D02*
X1678Y1639D01*
X1126Y1638D02*
X1198Y1638D01*
X1605Y1638D02*
X1676Y1638D01*
X1128Y1637D02*
X1196Y1637D01*
X1606Y1637D02*
X1675Y1637D01*
X1130Y1636D02*
X1195Y1636D01*
X1608Y1636D02*
X1673Y1636D01*
X1132Y1635D02*
X1193Y1635D01*
X1610Y1635D02*
X1671Y1635D01*
X1134Y1634D02*
X1191Y1634D01*
X1612Y1634D02*
X1669Y1634D01*
X1136Y1633D02*
X1189Y1633D01*
X1614Y1633D02*
X1667Y1633D01*
X1139Y1632D02*
X1186Y1632D01*
X1617Y1632D02*
X1664Y1632D01*
X1141Y1631D02*
X1183Y1631D01*
X1620Y1631D02*
X1661Y1631D01*
X1145Y1630D02*
X1179Y1630D01*
X1624Y1630D02*
X1657Y1630D01*
X1150Y1629D02*
X1175Y1629D01*
X1628Y1629D02*
X1653Y1629D01*
X1156Y1628D02*
X1168Y1628D01*
X1634Y1628D02*
X1647Y1628D01*
D02*
G04 End of Mask1*
M02*