G04 MADE WITH FRITZING*
G04 WWW.FRITZING.ORG*
G04 DOUBLE SIDED*
G04 HOLES PLATED*
G04 CONTOUR ON CENTER OF CONTOUR VECTOR*
%ASAXBY*%
%FSLAX23Y23*%
%MOIN*%
%OFA0B0*%
%SFA1.0B1.0*%
%ADD10R,0.062992X0.074803*%
%ADD11R,0.031496X0.035433*%
%ADD12R,0.074803X0.062992*%
%ADD13R,0.048000X0.088000*%
%ADD14R,0.141732X0.086614*%
%ADD15R,0.001000X0.001000*%
%LNPASTEMASK0*%
G90*
G70*
G54D10*
X556Y1733D03*
X434Y1733D03*
X554Y2033D03*
X432Y2033D03*
G54D11*
X432Y1916D03*
X507Y1916D03*
X470Y1838D03*
G54D10*
X1799Y1133D03*
X1677Y1133D03*
X510Y883D03*
X632Y883D03*
X1677Y1233D03*
X1799Y1233D03*
X1799Y1333D03*
X1677Y1333D03*
G54D12*
X332Y333D03*
X332Y211D03*
G54D10*
X554Y1583D03*
X432Y1583D03*
X510Y988D03*
X632Y988D03*
G54D13*
X2041Y727D03*
X2132Y727D03*
X2223Y727D03*
G54D14*
X2132Y483D03*
G54D15*
X912Y1459D02*
X957Y1459D01*
X990Y1459D02*
X1036Y1459D01*
X1069Y1459D02*
X1115Y1459D01*
X1148Y1459D02*
X1193Y1459D01*
X1226Y1459D02*
X1272Y1459D01*
X1305Y1459D02*
X1351Y1459D01*
X911Y1458D02*
X957Y1458D01*
X990Y1458D02*
X1036Y1458D01*
X1069Y1458D02*
X1115Y1458D01*
X1147Y1458D02*
X1194Y1458D01*
X1226Y1458D02*
X1272Y1458D01*
X1305Y1458D02*
X1351Y1458D01*
X911Y1457D02*
X957Y1457D01*
X990Y1457D02*
X1036Y1457D01*
X1069Y1457D02*
X1115Y1457D01*
X1147Y1457D02*
X1194Y1457D01*
X1226Y1457D02*
X1272Y1457D01*
X1305Y1457D02*
X1351Y1457D01*
X911Y1456D02*
X957Y1456D01*
X990Y1456D02*
X1036Y1456D01*
X1069Y1456D02*
X1115Y1456D01*
X1147Y1456D02*
X1194Y1456D01*
X1226Y1456D02*
X1272Y1456D01*
X1305Y1456D02*
X1351Y1456D01*
X911Y1455D02*
X957Y1455D01*
X990Y1455D02*
X1036Y1455D01*
X1069Y1455D02*
X1115Y1455D01*
X1147Y1455D02*
X1194Y1455D01*
X1226Y1455D02*
X1272Y1455D01*
X1305Y1455D02*
X1351Y1455D01*
X911Y1454D02*
X957Y1454D01*
X990Y1454D02*
X1036Y1454D01*
X1069Y1454D02*
X1115Y1454D01*
X1147Y1454D02*
X1194Y1454D01*
X1226Y1454D02*
X1272Y1454D01*
X1305Y1454D02*
X1351Y1454D01*
X911Y1453D02*
X957Y1453D01*
X990Y1453D02*
X1036Y1453D01*
X1069Y1453D02*
X1115Y1453D01*
X1147Y1453D02*
X1194Y1453D01*
X1226Y1453D02*
X1272Y1453D01*
X1305Y1453D02*
X1351Y1453D01*
X911Y1452D02*
X957Y1452D01*
X990Y1452D02*
X1036Y1452D01*
X1069Y1452D02*
X1115Y1452D01*
X1147Y1452D02*
X1194Y1452D01*
X1226Y1452D02*
X1272Y1452D01*
X1305Y1452D02*
X1351Y1452D01*
X911Y1451D02*
X957Y1451D01*
X990Y1451D02*
X1036Y1451D01*
X1069Y1451D02*
X1115Y1451D01*
X1147Y1451D02*
X1194Y1451D01*
X1226Y1451D02*
X1272Y1451D01*
X1305Y1451D02*
X1351Y1451D01*
X911Y1450D02*
X957Y1450D01*
X990Y1450D02*
X1036Y1450D01*
X1069Y1450D02*
X1115Y1450D01*
X1147Y1450D02*
X1194Y1450D01*
X1226Y1450D02*
X1272Y1450D01*
X1305Y1450D02*
X1351Y1450D01*
X911Y1449D02*
X957Y1449D01*
X990Y1449D02*
X1036Y1449D01*
X1069Y1449D02*
X1115Y1449D01*
X1147Y1449D02*
X1194Y1449D01*
X1226Y1449D02*
X1272Y1449D01*
X1305Y1449D02*
X1351Y1449D01*
X911Y1448D02*
X957Y1448D01*
X990Y1448D02*
X1036Y1448D01*
X1069Y1448D02*
X1115Y1448D01*
X1147Y1448D02*
X1194Y1448D01*
X1226Y1448D02*
X1272Y1448D01*
X1305Y1448D02*
X1351Y1448D01*
X911Y1447D02*
X957Y1447D01*
X990Y1447D02*
X1036Y1447D01*
X1069Y1447D02*
X1115Y1447D01*
X1147Y1447D02*
X1194Y1447D01*
X1226Y1447D02*
X1272Y1447D01*
X1305Y1447D02*
X1351Y1447D01*
X911Y1446D02*
X957Y1446D01*
X990Y1446D02*
X1036Y1446D01*
X1069Y1446D02*
X1115Y1446D01*
X1147Y1446D02*
X1194Y1446D01*
X1226Y1446D02*
X1272Y1446D01*
X1305Y1446D02*
X1351Y1446D01*
X911Y1445D02*
X957Y1445D01*
X990Y1445D02*
X1036Y1445D01*
X1069Y1445D02*
X1115Y1445D01*
X1147Y1445D02*
X1194Y1445D01*
X1226Y1445D02*
X1272Y1445D01*
X1305Y1445D02*
X1351Y1445D01*
X911Y1444D02*
X957Y1444D01*
X990Y1444D02*
X1036Y1444D01*
X1069Y1444D02*
X1115Y1444D01*
X1147Y1444D02*
X1194Y1444D01*
X1226Y1444D02*
X1272Y1444D01*
X1305Y1444D02*
X1351Y1444D01*
X911Y1443D02*
X957Y1443D01*
X990Y1443D02*
X1036Y1443D01*
X1069Y1443D02*
X1115Y1443D01*
X1147Y1443D02*
X1194Y1443D01*
X1226Y1443D02*
X1272Y1443D01*
X1305Y1443D02*
X1351Y1443D01*
X911Y1442D02*
X957Y1442D01*
X990Y1442D02*
X1036Y1442D01*
X1069Y1442D02*
X1115Y1442D01*
X1147Y1442D02*
X1194Y1442D01*
X1226Y1442D02*
X1272Y1442D01*
X1305Y1442D02*
X1351Y1442D01*
X911Y1441D02*
X957Y1441D01*
X990Y1441D02*
X1036Y1441D01*
X1069Y1441D02*
X1115Y1441D01*
X1147Y1441D02*
X1194Y1441D01*
X1226Y1441D02*
X1272Y1441D01*
X1305Y1441D02*
X1351Y1441D01*
X911Y1440D02*
X957Y1440D01*
X990Y1440D02*
X1036Y1440D01*
X1069Y1440D02*
X1115Y1440D01*
X1147Y1440D02*
X1194Y1440D01*
X1226Y1440D02*
X1272Y1440D01*
X1305Y1440D02*
X1351Y1440D01*
X911Y1439D02*
X957Y1439D01*
X990Y1439D02*
X1036Y1439D01*
X1069Y1439D02*
X1115Y1439D01*
X1147Y1439D02*
X1194Y1439D01*
X1226Y1439D02*
X1272Y1439D01*
X1305Y1439D02*
X1351Y1439D01*
X911Y1438D02*
X957Y1438D01*
X990Y1438D02*
X1036Y1438D01*
X1069Y1438D02*
X1115Y1438D01*
X1147Y1438D02*
X1194Y1438D01*
X1226Y1438D02*
X1272Y1438D01*
X1305Y1438D02*
X1351Y1438D01*
X911Y1437D02*
X957Y1437D01*
X990Y1437D02*
X1036Y1437D01*
X1069Y1437D02*
X1115Y1437D01*
X1147Y1437D02*
X1194Y1437D01*
X1226Y1437D02*
X1272Y1437D01*
X1305Y1437D02*
X1351Y1437D01*
X911Y1436D02*
X957Y1436D01*
X990Y1436D02*
X1036Y1436D01*
X1069Y1436D02*
X1115Y1436D01*
X1147Y1436D02*
X1194Y1436D01*
X1226Y1436D02*
X1272Y1436D01*
X1305Y1436D02*
X1351Y1436D01*
X911Y1435D02*
X957Y1435D01*
X990Y1435D02*
X1036Y1435D01*
X1069Y1435D02*
X1115Y1435D01*
X1147Y1435D02*
X1194Y1435D01*
X1226Y1435D02*
X1272Y1435D01*
X1305Y1435D02*
X1351Y1435D01*
X911Y1434D02*
X957Y1434D01*
X990Y1434D02*
X1036Y1434D01*
X1069Y1434D02*
X1115Y1434D01*
X1147Y1434D02*
X1194Y1434D01*
X1226Y1434D02*
X1272Y1434D01*
X1305Y1434D02*
X1351Y1434D01*
X911Y1433D02*
X957Y1433D01*
X990Y1433D02*
X1036Y1433D01*
X1069Y1433D02*
X1115Y1433D01*
X1147Y1433D02*
X1194Y1433D01*
X1226Y1433D02*
X1272Y1433D01*
X1305Y1433D02*
X1351Y1433D01*
X911Y1432D02*
X957Y1432D01*
X990Y1432D02*
X1036Y1432D01*
X1069Y1432D02*
X1115Y1432D01*
X1147Y1432D02*
X1194Y1432D01*
X1226Y1432D02*
X1272Y1432D01*
X1305Y1432D02*
X1351Y1432D01*
X911Y1431D02*
X957Y1431D01*
X990Y1431D02*
X1036Y1431D01*
X1069Y1431D02*
X1115Y1431D01*
X1147Y1431D02*
X1194Y1431D01*
X1226Y1431D02*
X1272Y1431D01*
X1305Y1431D02*
X1351Y1431D01*
X911Y1430D02*
X957Y1430D01*
X990Y1430D02*
X1036Y1430D01*
X1069Y1430D02*
X1115Y1430D01*
X1147Y1430D02*
X1194Y1430D01*
X1226Y1430D02*
X1272Y1430D01*
X1305Y1430D02*
X1351Y1430D01*
X911Y1429D02*
X957Y1429D01*
X990Y1429D02*
X1036Y1429D01*
X1069Y1429D02*
X1115Y1429D01*
X1147Y1429D02*
X1194Y1429D01*
X1226Y1429D02*
X1272Y1429D01*
X1305Y1429D02*
X1351Y1429D01*
X911Y1428D02*
X957Y1428D01*
X990Y1428D02*
X1036Y1428D01*
X1069Y1428D02*
X1115Y1428D01*
X1147Y1428D02*
X1194Y1428D01*
X1226Y1428D02*
X1272Y1428D01*
X1305Y1428D02*
X1351Y1428D01*
X911Y1427D02*
X957Y1427D01*
X990Y1427D02*
X1036Y1427D01*
X1069Y1427D02*
X1115Y1427D01*
X1147Y1427D02*
X1194Y1427D01*
X1226Y1427D02*
X1272Y1427D01*
X1305Y1427D02*
X1351Y1427D01*
X911Y1426D02*
X957Y1426D01*
X990Y1426D02*
X1036Y1426D01*
X1069Y1426D02*
X1115Y1426D01*
X1147Y1426D02*
X1194Y1426D01*
X1226Y1426D02*
X1272Y1426D01*
X1305Y1426D02*
X1351Y1426D01*
X911Y1425D02*
X957Y1425D01*
X990Y1425D02*
X1036Y1425D01*
X1069Y1425D02*
X1115Y1425D01*
X1147Y1425D02*
X1194Y1425D01*
X1226Y1425D02*
X1272Y1425D01*
X1305Y1425D02*
X1351Y1425D01*
X911Y1424D02*
X957Y1424D01*
X990Y1424D02*
X1036Y1424D01*
X1069Y1424D02*
X1115Y1424D01*
X1147Y1424D02*
X1194Y1424D01*
X1226Y1424D02*
X1272Y1424D01*
X1305Y1424D02*
X1351Y1424D01*
X911Y1423D02*
X957Y1423D01*
X990Y1423D02*
X1036Y1423D01*
X1069Y1423D02*
X1115Y1423D01*
X1147Y1423D02*
X1194Y1423D01*
X1226Y1423D02*
X1272Y1423D01*
X1305Y1423D02*
X1351Y1423D01*
X911Y1422D02*
X957Y1422D01*
X990Y1422D02*
X1036Y1422D01*
X1069Y1422D02*
X1115Y1422D01*
X1147Y1422D02*
X1194Y1422D01*
X1226Y1422D02*
X1272Y1422D01*
X1305Y1422D02*
X1351Y1422D01*
X911Y1421D02*
X957Y1421D01*
X990Y1421D02*
X1036Y1421D01*
X1069Y1421D02*
X1115Y1421D01*
X1147Y1421D02*
X1194Y1421D01*
X1226Y1421D02*
X1272Y1421D01*
X1305Y1421D02*
X1351Y1421D01*
X911Y1420D02*
X957Y1420D01*
X990Y1420D02*
X1036Y1420D01*
X1069Y1420D02*
X1115Y1420D01*
X1147Y1420D02*
X1194Y1420D01*
X1226Y1420D02*
X1272Y1420D01*
X1305Y1420D02*
X1351Y1420D01*
X911Y1419D02*
X957Y1419D01*
X990Y1419D02*
X1036Y1419D01*
X1069Y1419D02*
X1115Y1419D01*
X1147Y1419D02*
X1194Y1419D01*
X1226Y1419D02*
X1272Y1419D01*
X1305Y1419D02*
X1351Y1419D01*
X911Y1418D02*
X957Y1418D01*
X990Y1418D02*
X1036Y1418D01*
X1069Y1418D02*
X1115Y1418D01*
X1147Y1418D02*
X1194Y1418D01*
X1226Y1418D02*
X1272Y1418D01*
X1305Y1418D02*
X1351Y1418D01*
X911Y1417D02*
X957Y1417D01*
X990Y1417D02*
X1036Y1417D01*
X1069Y1417D02*
X1115Y1417D01*
X1147Y1417D02*
X1194Y1417D01*
X1226Y1417D02*
X1272Y1417D01*
X1305Y1417D02*
X1351Y1417D01*
X911Y1416D02*
X957Y1416D01*
X990Y1416D02*
X1036Y1416D01*
X1069Y1416D02*
X1115Y1416D01*
X1147Y1416D02*
X1194Y1416D01*
X1226Y1416D02*
X1272Y1416D01*
X1305Y1416D02*
X1351Y1416D01*
X911Y1415D02*
X957Y1415D01*
X990Y1415D02*
X1036Y1415D01*
X1069Y1415D02*
X1115Y1415D01*
X1147Y1415D02*
X1194Y1415D01*
X1226Y1415D02*
X1272Y1415D01*
X1305Y1415D02*
X1351Y1415D01*
X911Y1414D02*
X957Y1414D01*
X990Y1414D02*
X1036Y1414D01*
X1069Y1414D02*
X1115Y1414D01*
X1147Y1414D02*
X1194Y1414D01*
X1226Y1414D02*
X1272Y1414D01*
X1305Y1414D02*
X1351Y1414D01*
X911Y1413D02*
X957Y1413D01*
X990Y1413D02*
X1036Y1413D01*
X1069Y1413D02*
X1115Y1413D01*
X1147Y1413D02*
X1194Y1413D01*
X1226Y1413D02*
X1272Y1413D01*
X1305Y1413D02*
X1351Y1413D01*
X911Y1412D02*
X957Y1412D01*
X990Y1412D02*
X1036Y1412D01*
X1069Y1412D02*
X1115Y1412D01*
X1147Y1412D02*
X1194Y1412D01*
X1226Y1412D02*
X1272Y1412D01*
X1305Y1412D02*
X1351Y1412D01*
X911Y1411D02*
X957Y1411D01*
X990Y1411D02*
X1036Y1411D01*
X1069Y1411D02*
X1115Y1411D01*
X1147Y1411D02*
X1194Y1411D01*
X1226Y1411D02*
X1272Y1411D01*
X1305Y1411D02*
X1351Y1411D01*
X911Y1410D02*
X957Y1410D01*
X990Y1410D02*
X1036Y1410D01*
X1069Y1410D02*
X1115Y1410D01*
X1147Y1410D02*
X1194Y1410D01*
X1226Y1410D02*
X1272Y1410D01*
X1305Y1410D02*
X1351Y1410D01*
X911Y1409D02*
X957Y1409D01*
X990Y1409D02*
X1036Y1409D01*
X1069Y1409D02*
X1115Y1409D01*
X1147Y1409D02*
X1194Y1409D01*
X1226Y1409D02*
X1272Y1409D01*
X1305Y1409D02*
X1351Y1409D01*
X911Y1408D02*
X957Y1408D01*
X990Y1408D02*
X1036Y1408D01*
X1069Y1408D02*
X1115Y1408D01*
X1147Y1408D02*
X1194Y1408D01*
X1226Y1408D02*
X1272Y1408D01*
X1305Y1408D02*
X1351Y1408D01*
X788Y1407D02*
X875Y1407D01*
X1388Y1407D02*
X1475Y1407D01*
X788Y1406D02*
X875Y1406D01*
X1388Y1406D02*
X1475Y1406D01*
X788Y1405D02*
X875Y1405D01*
X1388Y1405D02*
X1475Y1405D01*
X788Y1404D02*
X875Y1404D01*
X1388Y1404D02*
X1475Y1404D01*
X788Y1403D02*
X875Y1403D01*
X1388Y1403D02*
X1475Y1403D01*
X788Y1402D02*
X875Y1402D01*
X1388Y1402D02*
X1475Y1402D01*
X788Y1401D02*
X875Y1401D01*
X1388Y1401D02*
X1475Y1401D01*
X788Y1400D02*
X875Y1400D01*
X1388Y1400D02*
X1475Y1400D01*
X788Y1399D02*
X875Y1399D01*
X1388Y1399D02*
X1475Y1399D01*
X788Y1398D02*
X875Y1398D01*
X1388Y1398D02*
X1475Y1398D01*
X788Y1397D02*
X875Y1397D01*
X1388Y1397D02*
X1475Y1397D01*
X788Y1396D02*
X875Y1396D01*
X1388Y1396D02*
X1475Y1396D01*
X788Y1395D02*
X850Y1395D01*
X861Y1395D02*
X875Y1395D01*
X1388Y1395D02*
X1403Y1395D01*
X1413Y1395D02*
X1475Y1395D01*
X788Y1394D02*
X848Y1394D01*
X862Y1394D02*
X875Y1394D01*
X1388Y1394D02*
X1401Y1394D01*
X1415Y1394D02*
X1475Y1394D01*
X788Y1393D02*
X847Y1393D01*
X864Y1393D02*
X875Y1393D01*
X1388Y1393D02*
X1399Y1393D01*
X1416Y1393D02*
X1475Y1393D01*
X788Y1392D02*
X846Y1392D01*
X865Y1392D02*
X875Y1392D01*
X1388Y1392D02*
X1398Y1392D01*
X1417Y1392D02*
X1475Y1392D01*
X788Y1391D02*
X845Y1391D01*
X866Y1391D02*
X875Y1391D01*
X1388Y1391D02*
X1397Y1391D01*
X1418Y1391D02*
X1475Y1391D01*
X788Y1390D02*
X845Y1390D01*
X866Y1390D02*
X875Y1390D01*
X1388Y1390D02*
X1397Y1390D01*
X1419Y1390D02*
X1475Y1390D01*
X788Y1389D02*
X844Y1389D01*
X867Y1389D02*
X875Y1389D01*
X1388Y1389D02*
X1396Y1389D01*
X1419Y1389D02*
X1475Y1389D01*
X788Y1388D02*
X844Y1388D01*
X867Y1388D02*
X875Y1388D01*
X1388Y1388D02*
X1396Y1388D01*
X1420Y1388D02*
X1475Y1388D01*
X788Y1387D02*
X843Y1387D01*
X868Y1387D02*
X875Y1387D01*
X1388Y1387D02*
X1396Y1387D01*
X1420Y1387D02*
X1475Y1387D01*
X788Y1386D02*
X843Y1386D01*
X868Y1386D02*
X875Y1386D01*
X1388Y1386D02*
X1395Y1386D01*
X1420Y1386D02*
X1475Y1386D01*
X788Y1385D02*
X843Y1385D01*
X868Y1385D02*
X875Y1385D01*
X1388Y1385D02*
X1395Y1385D01*
X1420Y1385D02*
X1475Y1385D01*
X788Y1384D02*
X843Y1384D01*
X868Y1384D02*
X875Y1384D01*
X1388Y1384D02*
X1395Y1384D01*
X1420Y1384D02*
X1475Y1384D01*
X788Y1383D02*
X843Y1383D01*
X868Y1383D02*
X875Y1383D01*
X1388Y1383D02*
X1395Y1383D01*
X1420Y1383D02*
X1475Y1383D01*
X788Y1382D02*
X843Y1382D01*
X868Y1382D02*
X875Y1382D01*
X1388Y1382D02*
X1395Y1382D01*
X1420Y1382D02*
X1475Y1382D01*
X788Y1381D02*
X843Y1381D01*
X868Y1381D02*
X875Y1381D01*
X1388Y1381D02*
X1395Y1381D01*
X1420Y1381D02*
X1475Y1381D01*
X788Y1380D02*
X843Y1380D01*
X867Y1380D02*
X875Y1380D01*
X1388Y1380D02*
X1396Y1380D01*
X1420Y1380D02*
X1475Y1380D01*
X788Y1379D02*
X844Y1379D01*
X867Y1379D02*
X875Y1379D01*
X1388Y1379D02*
X1396Y1379D01*
X1419Y1379D02*
X1475Y1379D01*
X788Y1378D02*
X844Y1378D01*
X867Y1378D02*
X875Y1378D01*
X1388Y1378D02*
X1397Y1378D01*
X1419Y1378D02*
X1475Y1378D01*
X788Y1377D02*
X845Y1377D01*
X866Y1377D02*
X875Y1377D01*
X1388Y1377D02*
X1397Y1377D01*
X1418Y1377D02*
X1475Y1377D01*
X788Y1376D02*
X846Y1376D01*
X865Y1376D02*
X875Y1376D01*
X1388Y1376D02*
X1398Y1376D01*
X1417Y1376D02*
X1475Y1376D01*
X788Y1375D02*
X847Y1375D01*
X864Y1375D02*
X875Y1375D01*
X1388Y1375D02*
X1399Y1375D01*
X1417Y1375D02*
X1475Y1375D01*
X788Y1374D02*
X848Y1374D01*
X863Y1374D02*
X875Y1374D01*
X1388Y1374D02*
X1400Y1374D01*
X1415Y1374D02*
X1475Y1374D01*
X788Y1373D02*
X849Y1373D01*
X861Y1373D02*
X875Y1373D01*
X1388Y1373D02*
X1402Y1373D01*
X1414Y1373D02*
X1475Y1373D01*
X788Y1372D02*
X852Y1372D01*
X859Y1372D02*
X875Y1372D01*
X1388Y1372D02*
X1404Y1372D01*
X1411Y1372D02*
X1475Y1372D01*
X788Y1371D02*
X875Y1371D01*
X1388Y1371D02*
X1475Y1371D01*
X788Y1370D02*
X875Y1370D01*
X1388Y1370D02*
X1475Y1370D01*
X788Y1369D02*
X875Y1369D01*
X1388Y1369D02*
X1475Y1369D01*
X788Y1368D02*
X875Y1368D01*
X1388Y1368D02*
X1475Y1368D01*
X788Y1367D02*
X875Y1367D01*
X1388Y1367D02*
X1475Y1367D01*
X788Y1366D02*
X875Y1366D01*
X1388Y1366D02*
X1475Y1366D01*
X788Y1365D02*
X875Y1365D01*
X1388Y1365D02*
X1475Y1365D01*
X788Y1364D02*
X875Y1364D01*
X1388Y1364D02*
X1475Y1364D01*
X788Y1363D02*
X875Y1363D01*
X1388Y1363D02*
X1475Y1363D01*
X788Y1362D02*
X875Y1362D01*
X1388Y1362D02*
X1475Y1362D01*
X788Y1361D02*
X875Y1361D01*
X1388Y1361D02*
X1475Y1361D01*
X788Y1328D02*
X875Y1328D01*
X1388Y1328D02*
X1475Y1328D01*
X788Y1327D02*
X875Y1327D01*
X1388Y1327D02*
X1475Y1327D01*
X788Y1326D02*
X875Y1326D01*
X1388Y1326D02*
X1475Y1326D01*
X788Y1325D02*
X875Y1325D01*
X1388Y1325D02*
X1475Y1325D01*
X788Y1324D02*
X875Y1324D01*
X1388Y1324D02*
X1475Y1324D01*
X788Y1323D02*
X875Y1323D01*
X1388Y1323D02*
X1475Y1323D01*
X788Y1322D02*
X875Y1322D01*
X1388Y1322D02*
X1475Y1322D01*
X788Y1321D02*
X875Y1321D01*
X1388Y1321D02*
X1475Y1321D01*
X788Y1320D02*
X875Y1320D01*
X1388Y1320D02*
X1475Y1320D01*
X788Y1319D02*
X875Y1319D01*
X1388Y1319D02*
X1475Y1319D01*
X788Y1318D02*
X875Y1318D01*
X1388Y1318D02*
X1475Y1318D01*
X788Y1317D02*
X853Y1317D01*
X858Y1317D02*
X875Y1317D01*
X1388Y1317D02*
X1405Y1317D01*
X1410Y1317D02*
X1475Y1317D01*
X788Y1316D02*
X850Y1316D01*
X861Y1316D02*
X875Y1316D01*
X1388Y1316D02*
X1402Y1316D01*
X1413Y1316D02*
X1475Y1316D01*
X788Y1315D02*
X848Y1315D01*
X863Y1315D02*
X875Y1315D01*
X1388Y1315D02*
X1400Y1315D01*
X1415Y1315D02*
X1475Y1315D01*
X788Y1314D02*
X847Y1314D01*
X864Y1314D02*
X875Y1314D01*
X1388Y1314D02*
X1399Y1314D01*
X1416Y1314D02*
X1475Y1314D01*
X788Y1313D02*
X846Y1313D01*
X865Y1313D02*
X875Y1313D01*
X1388Y1313D02*
X1398Y1313D01*
X1417Y1313D02*
X1475Y1313D01*
X788Y1312D02*
X845Y1312D01*
X866Y1312D02*
X875Y1312D01*
X1388Y1312D02*
X1397Y1312D01*
X1418Y1312D02*
X1475Y1312D01*
X788Y1311D02*
X844Y1311D01*
X866Y1311D02*
X875Y1311D01*
X1388Y1311D02*
X1397Y1311D01*
X1419Y1311D02*
X1475Y1311D01*
X788Y1310D02*
X844Y1310D01*
X867Y1310D02*
X875Y1310D01*
X1388Y1310D02*
X1396Y1310D01*
X1419Y1310D02*
X1475Y1310D01*
X788Y1309D02*
X844Y1309D01*
X867Y1309D02*
X875Y1309D01*
X1388Y1309D02*
X1396Y1309D01*
X1420Y1309D02*
X1475Y1309D01*
X788Y1308D02*
X843Y1308D01*
X868Y1308D02*
X875Y1308D01*
X1388Y1308D02*
X1395Y1308D01*
X1420Y1308D02*
X1475Y1308D01*
X788Y1307D02*
X843Y1307D01*
X868Y1307D02*
X875Y1307D01*
X1388Y1307D02*
X1395Y1307D01*
X1420Y1307D02*
X1475Y1307D01*
X788Y1306D02*
X843Y1306D01*
X868Y1306D02*
X875Y1306D01*
X1388Y1306D02*
X1395Y1306D01*
X1420Y1306D02*
X1475Y1306D01*
X788Y1305D02*
X843Y1305D01*
X868Y1305D02*
X875Y1305D01*
X1388Y1305D02*
X1395Y1305D01*
X1420Y1305D02*
X1475Y1305D01*
X788Y1304D02*
X843Y1304D01*
X868Y1304D02*
X875Y1304D01*
X1388Y1304D02*
X1395Y1304D01*
X1420Y1304D02*
X1475Y1304D01*
X788Y1303D02*
X843Y1303D01*
X868Y1303D02*
X875Y1303D01*
X1388Y1303D02*
X1395Y1303D01*
X1420Y1303D02*
X1475Y1303D01*
X788Y1302D02*
X843Y1302D01*
X868Y1302D02*
X875Y1302D01*
X1388Y1302D02*
X1395Y1302D01*
X1420Y1302D02*
X1475Y1302D01*
X788Y1301D02*
X844Y1301D01*
X867Y1301D02*
X875Y1301D01*
X1388Y1301D02*
X1396Y1301D01*
X1420Y1301D02*
X1475Y1301D01*
X788Y1300D02*
X844Y1300D01*
X867Y1300D02*
X875Y1300D01*
X1388Y1300D02*
X1396Y1300D01*
X1419Y1300D02*
X1475Y1300D01*
X788Y1299D02*
X844Y1299D01*
X866Y1299D02*
X875Y1299D01*
X1388Y1299D02*
X1397Y1299D01*
X1419Y1299D02*
X1475Y1299D01*
X788Y1298D02*
X845Y1298D01*
X866Y1298D02*
X875Y1298D01*
X1388Y1298D02*
X1397Y1298D01*
X1418Y1298D02*
X1475Y1298D01*
X788Y1297D02*
X846Y1297D01*
X865Y1297D02*
X875Y1297D01*
X1388Y1297D02*
X1398Y1297D01*
X1417Y1297D02*
X1475Y1297D01*
X788Y1296D02*
X847Y1296D01*
X864Y1296D02*
X875Y1296D01*
X1388Y1296D02*
X1399Y1296D01*
X1416Y1296D02*
X1475Y1296D01*
X788Y1295D02*
X848Y1295D01*
X863Y1295D02*
X875Y1295D01*
X1388Y1295D02*
X1400Y1295D01*
X1415Y1295D02*
X1475Y1295D01*
X788Y1294D02*
X850Y1294D01*
X861Y1294D02*
X875Y1294D01*
X1388Y1294D02*
X1402Y1294D01*
X1413Y1294D02*
X1475Y1294D01*
X788Y1293D02*
X854Y1293D01*
X857Y1293D02*
X875Y1293D01*
X1388Y1293D02*
X1406Y1293D01*
X1409Y1293D02*
X1475Y1293D01*
X788Y1292D02*
X875Y1292D01*
X1388Y1292D02*
X1475Y1292D01*
X788Y1291D02*
X875Y1291D01*
X1388Y1291D02*
X1475Y1291D01*
X788Y1290D02*
X875Y1290D01*
X1388Y1290D02*
X1475Y1290D01*
X788Y1289D02*
X875Y1289D01*
X1388Y1289D02*
X1475Y1289D01*
X788Y1288D02*
X875Y1288D01*
X1388Y1288D02*
X1475Y1288D01*
X788Y1287D02*
X875Y1287D01*
X1388Y1287D02*
X1475Y1287D01*
X788Y1286D02*
X875Y1286D01*
X1388Y1286D02*
X1475Y1286D01*
X788Y1285D02*
X875Y1285D01*
X1388Y1285D02*
X1475Y1285D01*
X788Y1284D02*
X875Y1284D01*
X1388Y1284D02*
X1475Y1284D01*
X788Y1283D02*
X875Y1283D01*
X1388Y1283D02*
X1475Y1283D01*
X788Y1282D02*
X875Y1282D01*
X1388Y1282D02*
X1475Y1282D01*
X788Y1249D02*
X875Y1249D01*
X1388Y1249D02*
X1475Y1249D01*
X788Y1248D02*
X875Y1248D01*
X1388Y1248D02*
X1475Y1248D01*
X788Y1247D02*
X875Y1247D01*
X1388Y1247D02*
X1475Y1247D01*
X788Y1246D02*
X875Y1246D01*
X1388Y1246D02*
X1475Y1246D01*
X788Y1245D02*
X875Y1245D01*
X1388Y1245D02*
X1475Y1245D01*
X788Y1244D02*
X875Y1244D01*
X1388Y1244D02*
X1475Y1244D01*
X788Y1243D02*
X875Y1243D01*
X1388Y1243D02*
X1475Y1243D01*
X788Y1242D02*
X875Y1242D01*
X1388Y1242D02*
X1475Y1242D01*
X788Y1241D02*
X875Y1241D01*
X1388Y1241D02*
X1475Y1241D01*
X788Y1240D02*
X875Y1240D01*
X1388Y1240D02*
X1475Y1240D01*
X788Y1239D02*
X875Y1239D01*
X1388Y1239D02*
X1475Y1239D01*
X788Y1238D02*
X852Y1238D01*
X859Y1238D02*
X875Y1238D01*
X1388Y1238D02*
X1404Y1238D01*
X1411Y1238D02*
X1475Y1238D01*
X788Y1237D02*
X849Y1237D01*
X862Y1237D02*
X875Y1237D01*
X1388Y1237D02*
X1402Y1237D01*
X1414Y1237D02*
X1475Y1237D01*
X788Y1236D02*
X848Y1236D01*
X863Y1236D02*
X875Y1236D01*
X1388Y1236D02*
X1400Y1236D01*
X1415Y1236D02*
X1475Y1236D01*
X788Y1235D02*
X847Y1235D01*
X864Y1235D02*
X875Y1235D01*
X1388Y1235D02*
X1399Y1235D01*
X1417Y1235D02*
X1475Y1235D01*
X788Y1234D02*
X846Y1234D01*
X865Y1234D02*
X875Y1234D01*
X1388Y1234D02*
X1398Y1234D01*
X1418Y1234D02*
X1475Y1234D01*
X788Y1233D02*
X845Y1233D01*
X866Y1233D02*
X875Y1233D01*
X1388Y1233D02*
X1397Y1233D01*
X1418Y1233D02*
X1475Y1233D01*
X788Y1232D02*
X844Y1232D01*
X867Y1232D02*
X875Y1232D01*
X1388Y1232D02*
X1397Y1232D01*
X1419Y1232D02*
X1475Y1232D01*
X788Y1231D02*
X844Y1231D01*
X867Y1231D02*
X875Y1231D01*
X1388Y1231D02*
X1396Y1231D01*
X1419Y1231D02*
X1475Y1231D01*
X788Y1230D02*
X843Y1230D01*
X867Y1230D02*
X875Y1230D01*
X1388Y1230D02*
X1396Y1230D01*
X1420Y1230D02*
X1475Y1230D01*
X788Y1229D02*
X843Y1229D01*
X868Y1229D02*
X875Y1229D01*
X1388Y1229D02*
X1395Y1229D01*
X1420Y1229D02*
X1475Y1229D01*
X788Y1228D02*
X843Y1228D01*
X868Y1228D02*
X875Y1228D01*
X1388Y1228D02*
X1395Y1228D01*
X1420Y1228D02*
X1475Y1228D01*
X788Y1227D02*
X843Y1227D01*
X868Y1227D02*
X875Y1227D01*
X1388Y1227D02*
X1395Y1227D01*
X1420Y1227D02*
X1475Y1227D01*
X788Y1226D02*
X843Y1226D01*
X868Y1226D02*
X875Y1226D01*
X1388Y1226D02*
X1395Y1226D01*
X1420Y1226D02*
X1475Y1226D01*
X788Y1225D02*
X843Y1225D01*
X868Y1225D02*
X875Y1225D01*
X1388Y1225D02*
X1395Y1225D01*
X1420Y1225D02*
X1475Y1225D01*
X788Y1224D02*
X843Y1224D01*
X868Y1224D02*
X875Y1224D01*
X1388Y1224D02*
X1395Y1224D01*
X1420Y1224D02*
X1475Y1224D01*
X788Y1223D02*
X843Y1223D01*
X868Y1223D02*
X875Y1223D01*
X1388Y1223D02*
X1396Y1223D01*
X1420Y1223D02*
X1475Y1223D01*
X788Y1222D02*
X844Y1222D01*
X867Y1222D02*
X875Y1222D01*
X1388Y1222D02*
X1396Y1222D01*
X1420Y1222D02*
X1475Y1222D01*
X788Y1221D02*
X844Y1221D01*
X867Y1221D02*
X875Y1221D01*
X1388Y1221D02*
X1396Y1221D01*
X1419Y1221D02*
X1475Y1221D01*
X788Y1220D02*
X845Y1220D01*
X866Y1220D02*
X875Y1220D01*
X1388Y1220D02*
X1397Y1220D01*
X1419Y1220D02*
X1475Y1220D01*
X788Y1219D02*
X845Y1219D01*
X866Y1219D02*
X875Y1219D01*
X1388Y1219D02*
X1398Y1219D01*
X1418Y1219D02*
X1475Y1219D01*
X788Y1218D02*
X846Y1218D01*
X865Y1218D02*
X875Y1218D01*
X1388Y1218D02*
X1398Y1218D01*
X1417Y1218D02*
X1475Y1218D01*
X788Y1217D02*
X847Y1217D01*
X864Y1217D02*
X875Y1217D01*
X1388Y1217D02*
X1399Y1217D01*
X1416Y1217D02*
X1475Y1217D01*
X788Y1216D02*
X849Y1216D01*
X862Y1216D02*
X875Y1216D01*
X1388Y1216D02*
X1401Y1216D01*
X1415Y1216D02*
X1475Y1216D01*
X788Y1215D02*
X851Y1215D01*
X860Y1215D02*
X875Y1215D01*
X1388Y1215D02*
X1403Y1215D01*
X1413Y1215D02*
X1475Y1215D01*
X788Y1214D02*
X875Y1214D01*
X1388Y1214D02*
X1475Y1214D01*
X788Y1213D02*
X875Y1213D01*
X1388Y1213D02*
X1475Y1213D01*
X788Y1212D02*
X875Y1212D01*
X1388Y1212D02*
X1475Y1212D01*
X788Y1211D02*
X875Y1211D01*
X1388Y1211D02*
X1475Y1211D01*
X788Y1210D02*
X875Y1210D01*
X1388Y1210D02*
X1475Y1210D01*
X788Y1209D02*
X875Y1209D01*
X1388Y1209D02*
X1475Y1209D01*
X788Y1208D02*
X875Y1208D01*
X1388Y1208D02*
X1475Y1208D01*
X788Y1207D02*
X875Y1207D01*
X1388Y1207D02*
X1475Y1207D01*
X788Y1206D02*
X875Y1206D01*
X1388Y1206D02*
X1475Y1206D01*
X788Y1205D02*
X875Y1205D01*
X1388Y1205D02*
X1475Y1205D01*
X788Y1204D02*
X875Y1204D01*
X1388Y1204D02*
X1475Y1204D01*
X788Y1203D02*
X875Y1203D01*
X1388Y1203D02*
X1475Y1203D01*
X788Y1171D02*
X875Y1171D01*
X1388Y1171D02*
X1475Y1171D01*
X788Y1170D02*
X875Y1170D01*
X1388Y1170D02*
X1475Y1170D01*
X788Y1169D02*
X875Y1169D01*
X1388Y1169D02*
X1475Y1169D01*
X788Y1168D02*
X875Y1168D01*
X1388Y1168D02*
X1475Y1168D01*
X788Y1167D02*
X875Y1167D01*
X1388Y1167D02*
X1475Y1167D01*
X788Y1166D02*
X875Y1166D01*
X1388Y1166D02*
X1475Y1166D01*
X788Y1165D02*
X875Y1165D01*
X1388Y1165D02*
X1475Y1165D01*
X788Y1164D02*
X875Y1164D01*
X1388Y1164D02*
X1475Y1164D01*
X788Y1163D02*
X875Y1163D01*
X1388Y1163D02*
X1475Y1163D01*
X788Y1162D02*
X875Y1162D01*
X1388Y1162D02*
X1475Y1162D01*
X788Y1161D02*
X875Y1161D01*
X1388Y1161D02*
X1475Y1161D01*
X788Y1160D02*
X875Y1160D01*
X1388Y1160D02*
X1475Y1160D01*
X788Y1159D02*
X851Y1159D01*
X860Y1159D02*
X875Y1159D01*
X1388Y1159D02*
X1403Y1159D01*
X1412Y1159D02*
X1475Y1159D01*
X788Y1158D02*
X849Y1158D01*
X862Y1158D02*
X875Y1158D01*
X1388Y1158D02*
X1401Y1158D01*
X1414Y1158D02*
X1475Y1158D01*
X788Y1157D02*
X847Y1157D01*
X864Y1157D02*
X875Y1157D01*
X1388Y1157D02*
X1400Y1157D01*
X1416Y1157D02*
X1475Y1157D01*
X788Y1156D02*
X846Y1156D01*
X865Y1156D02*
X875Y1156D01*
X1388Y1156D02*
X1398Y1156D01*
X1417Y1156D02*
X1475Y1156D01*
X788Y1155D02*
X845Y1155D01*
X866Y1155D02*
X875Y1155D01*
X1388Y1155D02*
X1398Y1155D01*
X1418Y1155D02*
X1475Y1155D01*
X788Y1154D02*
X845Y1154D01*
X866Y1154D02*
X875Y1154D01*
X1388Y1154D02*
X1397Y1154D01*
X1418Y1154D02*
X1475Y1154D01*
X788Y1153D02*
X844Y1153D01*
X867Y1153D02*
X875Y1153D01*
X1388Y1153D02*
X1396Y1153D01*
X1419Y1153D02*
X1475Y1153D01*
X788Y1152D02*
X844Y1152D01*
X867Y1152D02*
X875Y1152D01*
X1388Y1152D02*
X1396Y1152D01*
X1419Y1152D02*
X1475Y1152D01*
X788Y1151D02*
X843Y1151D01*
X868Y1151D02*
X875Y1151D01*
X1388Y1151D02*
X1396Y1151D01*
X1420Y1151D02*
X1475Y1151D01*
X788Y1150D02*
X843Y1150D01*
X868Y1150D02*
X875Y1150D01*
X1388Y1150D02*
X1395Y1150D01*
X1420Y1150D02*
X1475Y1150D01*
X788Y1149D02*
X843Y1149D01*
X868Y1149D02*
X875Y1149D01*
X1388Y1149D02*
X1395Y1149D01*
X1420Y1149D02*
X1475Y1149D01*
X788Y1148D02*
X843Y1148D01*
X868Y1148D02*
X875Y1148D01*
X1388Y1148D02*
X1395Y1148D01*
X1420Y1148D02*
X1475Y1148D01*
X788Y1147D02*
X843Y1147D01*
X868Y1147D02*
X875Y1147D01*
X1388Y1147D02*
X1395Y1147D01*
X1420Y1147D02*
X1475Y1147D01*
X788Y1146D02*
X843Y1146D01*
X868Y1146D02*
X875Y1146D01*
X1388Y1146D02*
X1395Y1146D01*
X1420Y1146D02*
X1475Y1146D01*
X788Y1145D02*
X843Y1145D01*
X868Y1145D02*
X875Y1145D01*
X1388Y1145D02*
X1395Y1145D01*
X1420Y1145D02*
X1475Y1145D01*
X788Y1144D02*
X843Y1144D01*
X868Y1144D02*
X875Y1144D01*
X1388Y1144D02*
X1396Y1144D01*
X1420Y1144D02*
X1475Y1144D01*
X788Y1143D02*
X844Y1143D01*
X867Y1143D02*
X875Y1143D01*
X1388Y1143D02*
X1396Y1143D01*
X1419Y1143D02*
X1475Y1143D01*
X788Y1142D02*
X844Y1142D01*
X867Y1142D02*
X875Y1142D01*
X1388Y1142D02*
X1396Y1142D01*
X1419Y1142D02*
X1475Y1142D01*
X788Y1141D02*
X845Y1141D01*
X866Y1141D02*
X875Y1141D01*
X1388Y1141D02*
X1397Y1141D01*
X1418Y1141D02*
X1475Y1141D01*
X788Y1140D02*
X846Y1140D01*
X865Y1140D02*
X875Y1140D01*
X1388Y1140D02*
X1398Y1140D01*
X1418Y1140D02*
X1475Y1140D01*
X788Y1139D02*
X846Y1139D01*
X865Y1139D02*
X875Y1139D01*
X1388Y1139D02*
X1399Y1139D01*
X1417Y1139D02*
X1475Y1139D01*
X788Y1138D02*
X848Y1138D01*
X863Y1138D02*
X875Y1138D01*
X1388Y1138D02*
X1400Y1138D01*
X1416Y1138D02*
X1475Y1138D01*
X788Y1137D02*
X849Y1137D01*
X862Y1137D02*
X875Y1137D01*
X1388Y1137D02*
X1401Y1137D01*
X1414Y1137D02*
X1475Y1137D01*
X788Y1136D02*
X851Y1136D01*
X859Y1136D02*
X875Y1136D01*
X1388Y1136D02*
X1404Y1136D01*
X1412Y1136D02*
X1475Y1136D01*
X788Y1135D02*
X875Y1135D01*
X1388Y1135D02*
X1475Y1135D01*
X788Y1134D02*
X875Y1134D01*
X1388Y1134D02*
X1475Y1134D01*
X788Y1133D02*
X875Y1133D01*
X1388Y1133D02*
X1475Y1133D01*
X788Y1132D02*
X875Y1132D01*
X1388Y1132D02*
X1475Y1132D01*
X788Y1131D02*
X875Y1131D01*
X1388Y1131D02*
X1475Y1131D01*
X788Y1130D02*
X875Y1130D01*
X1388Y1130D02*
X1475Y1130D01*
X788Y1129D02*
X875Y1129D01*
X1388Y1129D02*
X1475Y1129D01*
X788Y1128D02*
X875Y1128D01*
X1388Y1128D02*
X1475Y1128D01*
X788Y1127D02*
X875Y1127D01*
X1388Y1127D02*
X1475Y1127D01*
X788Y1126D02*
X875Y1126D01*
X1388Y1126D02*
X1475Y1126D01*
X788Y1125D02*
X875Y1125D01*
X1388Y1125D02*
X1475Y1125D01*
X788Y1124D02*
X875Y1124D01*
X1388Y1124D02*
X1475Y1124D01*
X788Y1092D02*
X875Y1092D01*
X1388Y1092D02*
X1475Y1092D01*
X788Y1091D02*
X875Y1091D01*
X1388Y1091D02*
X1475Y1091D01*
X788Y1090D02*
X875Y1090D01*
X1388Y1090D02*
X1475Y1090D01*
X788Y1089D02*
X875Y1089D01*
X1388Y1089D02*
X1475Y1089D01*
X788Y1088D02*
X875Y1088D01*
X1388Y1088D02*
X1475Y1088D01*
X788Y1087D02*
X875Y1087D01*
X1388Y1087D02*
X1475Y1087D01*
X788Y1086D02*
X875Y1086D01*
X1388Y1086D02*
X1475Y1086D01*
X788Y1085D02*
X875Y1085D01*
X1388Y1085D02*
X1475Y1085D01*
X788Y1084D02*
X875Y1084D01*
X1388Y1084D02*
X1475Y1084D01*
X788Y1083D02*
X875Y1083D01*
X1388Y1083D02*
X1475Y1083D01*
X788Y1082D02*
X875Y1082D01*
X1388Y1082D02*
X1475Y1082D01*
X788Y1081D02*
X875Y1081D01*
X1388Y1081D02*
X1475Y1081D01*
X788Y1080D02*
X850Y1080D01*
X861Y1080D02*
X875Y1080D01*
X1388Y1080D02*
X1402Y1080D01*
X1413Y1080D02*
X1475Y1080D01*
X788Y1079D02*
X848Y1079D01*
X863Y1079D02*
X875Y1079D01*
X1388Y1079D02*
X1401Y1079D01*
X1415Y1079D02*
X1475Y1079D01*
X788Y1078D02*
X847Y1078D01*
X864Y1078D02*
X875Y1078D01*
X1388Y1078D02*
X1399Y1078D01*
X1416Y1078D02*
X1475Y1078D01*
X788Y1077D02*
X846Y1077D01*
X865Y1077D02*
X875Y1077D01*
X1388Y1077D02*
X1398Y1077D01*
X1417Y1077D02*
X1475Y1077D01*
X788Y1076D02*
X845Y1076D01*
X866Y1076D02*
X875Y1076D01*
X1388Y1076D02*
X1397Y1076D01*
X1418Y1076D02*
X1475Y1076D01*
X788Y1075D02*
X845Y1075D01*
X866Y1075D02*
X875Y1075D01*
X1388Y1075D02*
X1397Y1075D01*
X1419Y1075D02*
X1475Y1075D01*
X788Y1074D02*
X844Y1074D01*
X867Y1074D02*
X875Y1074D01*
X1388Y1074D02*
X1396Y1074D01*
X1419Y1074D02*
X1475Y1074D01*
X788Y1073D02*
X844Y1073D01*
X867Y1073D02*
X875Y1073D01*
X1388Y1073D02*
X1396Y1073D01*
X1420Y1073D02*
X1475Y1073D01*
X788Y1072D02*
X843Y1072D01*
X868Y1072D02*
X875Y1072D01*
X1388Y1072D02*
X1396Y1072D01*
X1420Y1072D02*
X1475Y1072D01*
X788Y1071D02*
X843Y1071D01*
X868Y1071D02*
X875Y1071D01*
X1388Y1071D02*
X1395Y1071D01*
X1420Y1071D02*
X1475Y1071D01*
X788Y1070D02*
X843Y1070D01*
X868Y1070D02*
X875Y1070D01*
X1388Y1070D02*
X1395Y1070D01*
X1420Y1070D02*
X1475Y1070D01*
X788Y1069D02*
X843Y1069D01*
X868Y1069D02*
X875Y1069D01*
X1388Y1069D02*
X1395Y1069D01*
X1420Y1069D02*
X1475Y1069D01*
X788Y1068D02*
X843Y1068D01*
X868Y1068D02*
X875Y1068D01*
X1388Y1068D02*
X1395Y1068D01*
X1420Y1068D02*
X1475Y1068D01*
X788Y1067D02*
X843Y1067D01*
X868Y1067D02*
X875Y1067D01*
X1388Y1067D02*
X1395Y1067D01*
X1420Y1067D02*
X1475Y1067D01*
X788Y1066D02*
X843Y1066D01*
X868Y1066D02*
X875Y1066D01*
X1388Y1066D02*
X1395Y1066D01*
X1420Y1066D02*
X1475Y1066D01*
X788Y1065D02*
X843Y1065D01*
X867Y1065D02*
X875Y1065D01*
X1388Y1065D02*
X1396Y1065D01*
X1420Y1065D02*
X1475Y1065D01*
X788Y1064D02*
X844Y1064D01*
X867Y1064D02*
X875Y1064D01*
X1388Y1064D02*
X1396Y1064D01*
X1419Y1064D02*
X1475Y1064D01*
X788Y1063D02*
X844Y1063D01*
X867Y1063D02*
X875Y1063D01*
X1388Y1063D02*
X1397Y1063D01*
X1419Y1063D02*
X1475Y1063D01*
X788Y1062D02*
X845Y1062D01*
X866Y1062D02*
X875Y1062D01*
X1388Y1062D02*
X1397Y1062D01*
X1418Y1062D02*
X1475Y1062D01*
X788Y1061D02*
X846Y1061D01*
X865Y1061D02*
X875Y1061D01*
X1388Y1061D02*
X1398Y1061D01*
X1417Y1061D02*
X1475Y1061D01*
X788Y1060D02*
X847Y1060D01*
X864Y1060D02*
X875Y1060D01*
X1388Y1060D02*
X1399Y1060D01*
X1416Y1060D02*
X1475Y1060D01*
X788Y1059D02*
X848Y1059D01*
X863Y1059D02*
X875Y1059D01*
X1388Y1059D02*
X1400Y1059D01*
X1415Y1059D02*
X1475Y1059D01*
X788Y1058D02*
X850Y1058D01*
X861Y1058D02*
X875Y1058D01*
X1388Y1058D02*
X1402Y1058D01*
X1414Y1058D02*
X1475Y1058D01*
X788Y1057D02*
X852Y1057D01*
X859Y1057D02*
X875Y1057D01*
X1388Y1057D02*
X1405Y1057D01*
X1411Y1057D02*
X1475Y1057D01*
X788Y1056D02*
X875Y1056D01*
X1388Y1056D02*
X1475Y1056D01*
X788Y1055D02*
X875Y1055D01*
X1388Y1055D02*
X1475Y1055D01*
X788Y1054D02*
X875Y1054D01*
X1388Y1054D02*
X1475Y1054D01*
X788Y1053D02*
X875Y1053D01*
X1388Y1053D02*
X1475Y1053D01*
X788Y1052D02*
X875Y1052D01*
X1388Y1052D02*
X1475Y1052D01*
X788Y1051D02*
X875Y1051D01*
X1388Y1051D02*
X1475Y1051D01*
X788Y1050D02*
X875Y1050D01*
X1388Y1050D02*
X1475Y1050D01*
X788Y1049D02*
X875Y1049D01*
X1388Y1049D02*
X1475Y1049D01*
X788Y1048D02*
X875Y1048D01*
X1388Y1048D02*
X1475Y1048D01*
X788Y1047D02*
X875Y1047D01*
X1388Y1047D02*
X1475Y1047D01*
X788Y1046D02*
X875Y1046D01*
X1388Y1046D02*
X1475Y1046D01*
X788Y1013D02*
X875Y1013D01*
X1388Y1013D02*
X1475Y1013D01*
X788Y1012D02*
X875Y1012D01*
X1388Y1012D02*
X1475Y1012D01*
X788Y1011D02*
X875Y1011D01*
X1388Y1011D02*
X1475Y1011D01*
X788Y1010D02*
X875Y1010D01*
X1388Y1010D02*
X1475Y1010D01*
X788Y1009D02*
X875Y1009D01*
X1388Y1009D02*
X1475Y1009D01*
X788Y1008D02*
X875Y1008D01*
X1388Y1008D02*
X1475Y1008D01*
X788Y1007D02*
X875Y1007D01*
X1388Y1007D02*
X1475Y1007D01*
X788Y1006D02*
X875Y1006D01*
X1388Y1006D02*
X1475Y1006D01*
X788Y1005D02*
X875Y1005D01*
X1388Y1005D02*
X1475Y1005D01*
X788Y1004D02*
X875Y1004D01*
X1388Y1004D02*
X1475Y1004D01*
X788Y1003D02*
X875Y1003D01*
X1388Y1003D02*
X1475Y1003D01*
X788Y1002D02*
X852Y1002D01*
X858Y1002D02*
X875Y1002D01*
X1388Y1002D02*
X1405Y1002D01*
X1411Y1002D02*
X1475Y1002D01*
X788Y1001D02*
X850Y1001D01*
X861Y1001D02*
X875Y1001D01*
X1388Y1001D02*
X1402Y1001D01*
X1414Y1001D02*
X1475Y1001D01*
X788Y1000D02*
X848Y1000D01*
X863Y1000D02*
X875Y1000D01*
X1388Y1000D02*
X1400Y1000D01*
X1415Y1000D02*
X1475Y1000D01*
X788Y999D02*
X847Y999D01*
X864Y999D02*
X875Y999D01*
X1388Y999D02*
X1399Y999D01*
X1416Y999D02*
X1475Y999D01*
X788Y998D02*
X846Y998D01*
X865Y998D02*
X875Y998D01*
X1388Y998D02*
X1398Y998D01*
X1417Y998D02*
X1475Y998D01*
X788Y997D02*
X845Y997D01*
X866Y997D02*
X875Y997D01*
X1388Y997D02*
X1397Y997D01*
X1418Y997D02*
X1475Y997D01*
X788Y996D02*
X844Y996D01*
X867Y996D02*
X875Y996D01*
X1388Y996D02*
X1397Y996D01*
X1419Y996D02*
X1475Y996D01*
X788Y995D02*
X844Y995D01*
X867Y995D02*
X875Y995D01*
X1388Y995D02*
X1396Y995D01*
X1419Y995D02*
X1475Y995D01*
X788Y994D02*
X844Y994D01*
X867Y994D02*
X875Y994D01*
X1388Y994D02*
X1396Y994D01*
X1420Y994D02*
X1475Y994D01*
X788Y993D02*
X843Y993D01*
X868Y993D02*
X875Y993D01*
X1388Y993D02*
X1395Y993D01*
X1420Y993D02*
X1475Y993D01*
X788Y992D02*
X843Y992D01*
X868Y992D02*
X875Y992D01*
X1388Y992D02*
X1395Y992D01*
X1420Y992D02*
X1475Y992D01*
X788Y991D02*
X843Y991D01*
X868Y991D02*
X875Y991D01*
X1388Y991D02*
X1395Y991D01*
X1420Y991D02*
X1475Y991D01*
X788Y990D02*
X843Y990D01*
X868Y990D02*
X875Y990D01*
X1388Y990D02*
X1395Y990D01*
X1420Y990D02*
X1475Y990D01*
X788Y989D02*
X843Y989D01*
X868Y989D02*
X875Y989D01*
X1388Y989D02*
X1395Y989D01*
X1420Y989D02*
X1475Y989D01*
X788Y988D02*
X843Y988D01*
X868Y988D02*
X875Y988D01*
X1388Y988D02*
X1395Y988D01*
X1420Y988D02*
X1475Y988D01*
X788Y987D02*
X843Y987D01*
X868Y987D02*
X875Y987D01*
X1388Y987D02*
X1396Y987D01*
X1420Y987D02*
X1475Y987D01*
X788Y986D02*
X844Y986D01*
X867Y986D02*
X875Y986D01*
X1388Y986D02*
X1396Y986D01*
X1420Y986D02*
X1475Y986D01*
X788Y985D02*
X844Y985D01*
X867Y985D02*
X875Y985D01*
X1388Y985D02*
X1396Y985D01*
X1419Y985D02*
X1475Y985D01*
X788Y984D02*
X845Y984D01*
X866Y984D02*
X875Y984D01*
X1388Y984D02*
X1397Y984D01*
X1419Y984D02*
X1475Y984D01*
X788Y983D02*
X845Y983D01*
X866Y983D02*
X875Y983D01*
X1388Y983D02*
X1397Y983D01*
X1418Y983D02*
X1475Y983D01*
X788Y982D02*
X846Y982D01*
X865Y982D02*
X875Y982D01*
X1388Y982D02*
X1398Y982D01*
X1417Y982D02*
X1475Y982D01*
X788Y981D02*
X847Y981D01*
X864Y981D02*
X875Y981D01*
X1388Y981D02*
X1399Y981D01*
X1416Y981D02*
X1475Y981D01*
X788Y980D02*
X848Y980D01*
X863Y980D02*
X875Y980D01*
X1388Y980D02*
X1401Y980D01*
X1415Y980D02*
X1475Y980D01*
X788Y979D02*
X850Y979D01*
X861Y979D02*
X875Y979D01*
X1388Y979D02*
X1402Y979D01*
X1413Y979D02*
X1475Y979D01*
X788Y978D02*
X875Y978D01*
X1388Y978D02*
X1407Y978D01*
X1409Y978D02*
X1475Y978D01*
X788Y977D02*
X875Y977D01*
X1388Y977D02*
X1475Y977D01*
X788Y976D02*
X875Y976D01*
X1388Y976D02*
X1475Y976D01*
X788Y975D02*
X875Y975D01*
X1388Y975D02*
X1475Y975D01*
X788Y974D02*
X875Y974D01*
X1388Y974D02*
X1475Y974D01*
X788Y973D02*
X875Y973D01*
X1388Y973D02*
X1475Y973D01*
X788Y972D02*
X875Y972D01*
X1388Y972D02*
X1475Y972D01*
X788Y971D02*
X875Y971D01*
X1388Y971D02*
X1475Y971D01*
X788Y970D02*
X875Y970D01*
X1388Y970D02*
X1475Y970D01*
X788Y969D02*
X875Y969D01*
X1388Y969D02*
X1475Y969D01*
X788Y968D02*
X875Y968D01*
X1388Y968D02*
X1475Y968D01*
X788Y967D02*
X875Y967D01*
X1388Y967D02*
X1475Y967D01*
X788Y935D02*
X875Y935D01*
X1388Y935D02*
X1475Y935D01*
X788Y934D02*
X875Y934D01*
X1388Y934D02*
X1475Y934D01*
X788Y933D02*
X875Y933D01*
X1388Y933D02*
X1475Y933D01*
X788Y932D02*
X875Y932D01*
X1388Y932D02*
X1475Y932D01*
X788Y931D02*
X875Y931D01*
X1388Y931D02*
X1475Y931D01*
X788Y930D02*
X875Y930D01*
X1388Y930D02*
X1475Y930D01*
X788Y929D02*
X875Y929D01*
X1388Y929D02*
X1475Y929D01*
X788Y928D02*
X875Y928D01*
X1388Y928D02*
X1475Y928D01*
X788Y927D02*
X875Y927D01*
X1388Y927D02*
X1475Y927D01*
X788Y926D02*
X875Y926D01*
X1388Y926D02*
X1475Y926D01*
X788Y925D02*
X875Y925D01*
X1388Y925D02*
X1475Y925D01*
X788Y924D02*
X875Y924D01*
X1388Y924D02*
X1475Y924D01*
X788Y923D02*
X852Y923D01*
X859Y923D02*
X875Y923D01*
X1388Y923D02*
X1404Y923D01*
X1412Y923D02*
X1475Y923D01*
X788Y922D02*
X849Y922D01*
X862Y922D02*
X875Y922D01*
X1388Y922D02*
X1401Y922D01*
X1414Y922D02*
X1475Y922D01*
X788Y921D02*
X848Y921D01*
X863Y921D02*
X875Y921D01*
X1388Y921D02*
X1400Y921D01*
X1416Y921D02*
X1475Y921D01*
X788Y920D02*
X846Y920D01*
X864Y920D02*
X875Y920D01*
X1388Y920D02*
X1399Y920D01*
X1417Y920D02*
X1475Y920D01*
X788Y919D02*
X846Y919D01*
X865Y919D02*
X875Y919D01*
X1388Y919D02*
X1398Y919D01*
X1418Y919D02*
X1475Y919D01*
X788Y918D02*
X845Y918D01*
X866Y918D02*
X875Y918D01*
X1388Y918D02*
X1397Y918D01*
X1418Y918D02*
X1475Y918D01*
X788Y917D02*
X844Y917D01*
X867Y917D02*
X875Y917D01*
X1388Y917D02*
X1396Y917D01*
X1419Y917D02*
X1475Y917D01*
X788Y916D02*
X844Y916D01*
X867Y916D02*
X875Y916D01*
X1388Y916D02*
X1396Y916D01*
X1419Y916D02*
X1475Y916D01*
X788Y915D02*
X843Y915D01*
X867Y915D02*
X875Y915D01*
X1388Y915D02*
X1396Y915D01*
X1420Y915D02*
X1475Y915D01*
X788Y914D02*
X843Y914D01*
X868Y914D02*
X875Y914D01*
X1388Y914D02*
X1395Y914D01*
X1420Y914D02*
X1475Y914D01*
X788Y913D02*
X843Y913D01*
X868Y913D02*
X875Y913D01*
X1388Y913D02*
X1395Y913D01*
X1420Y913D02*
X1475Y913D01*
X788Y912D02*
X843Y912D01*
X868Y912D02*
X875Y912D01*
X1388Y912D02*
X1395Y912D01*
X1420Y912D02*
X1475Y912D01*
X788Y911D02*
X843Y911D01*
X868Y911D02*
X875Y911D01*
X1388Y911D02*
X1395Y911D01*
X1420Y911D02*
X1475Y911D01*
X788Y910D02*
X843Y910D01*
X868Y910D02*
X875Y910D01*
X1388Y910D02*
X1395Y910D01*
X1420Y910D02*
X1475Y910D01*
X788Y909D02*
X843Y909D01*
X868Y909D02*
X875Y909D01*
X1388Y909D02*
X1395Y909D01*
X1420Y909D02*
X1475Y909D01*
X788Y908D02*
X843Y908D01*
X868Y908D02*
X875Y908D01*
X1388Y908D02*
X1396Y908D01*
X1420Y908D02*
X1475Y908D01*
X788Y907D02*
X844Y907D01*
X867Y907D02*
X875Y907D01*
X1388Y907D02*
X1396Y907D01*
X1420Y907D02*
X1475Y907D01*
X788Y906D02*
X844Y906D01*
X867Y906D02*
X875Y906D01*
X1388Y906D02*
X1396Y906D01*
X1419Y906D02*
X1475Y906D01*
X788Y905D02*
X845Y905D01*
X866Y905D02*
X875Y905D01*
X1388Y905D02*
X1397Y905D01*
X1419Y905D02*
X1475Y905D01*
X788Y904D02*
X845Y904D01*
X866Y904D02*
X875Y904D01*
X1388Y904D02*
X1398Y904D01*
X1418Y904D02*
X1475Y904D01*
X788Y903D02*
X846Y903D01*
X865Y903D02*
X875Y903D01*
X1388Y903D02*
X1398Y903D01*
X1417Y903D02*
X1475Y903D01*
X788Y902D02*
X847Y902D01*
X864Y902D02*
X875Y902D01*
X1388Y902D02*
X1400Y902D01*
X1416Y902D02*
X1475Y902D01*
X788Y901D02*
X849Y901D01*
X862Y901D02*
X875Y901D01*
X1388Y901D02*
X1401Y901D01*
X1414Y901D02*
X1475Y901D01*
X788Y900D02*
X851Y900D01*
X860Y900D02*
X875Y900D01*
X1388Y900D02*
X1403Y900D01*
X1412Y900D02*
X1475Y900D01*
X788Y899D02*
X875Y899D01*
X1388Y899D02*
X1475Y899D01*
X788Y898D02*
X875Y898D01*
X1388Y898D02*
X1475Y898D01*
X788Y897D02*
X875Y897D01*
X1388Y897D02*
X1475Y897D01*
X788Y896D02*
X875Y896D01*
X1388Y896D02*
X1475Y896D01*
X788Y895D02*
X875Y895D01*
X1388Y895D02*
X1475Y895D01*
X788Y894D02*
X875Y894D01*
X1388Y894D02*
X1475Y894D01*
X788Y893D02*
X875Y893D01*
X1388Y893D02*
X1475Y893D01*
X788Y892D02*
X875Y892D01*
X1388Y892D02*
X1475Y892D01*
X788Y891D02*
X875Y891D01*
X1388Y891D02*
X1475Y891D01*
X788Y890D02*
X875Y890D01*
X1388Y890D02*
X1475Y890D01*
X788Y889D02*
X875Y889D01*
X1388Y889D02*
X1475Y889D01*
X788Y888D02*
X875Y888D01*
X1388Y888D02*
X1475Y888D01*
X788Y856D02*
X875Y856D01*
X1388Y856D02*
X1475Y856D01*
X788Y855D02*
X875Y855D01*
X1388Y855D02*
X1475Y855D01*
X788Y854D02*
X875Y854D01*
X1388Y854D02*
X1475Y854D01*
X788Y853D02*
X875Y853D01*
X1388Y853D02*
X1475Y853D01*
X788Y852D02*
X875Y852D01*
X1388Y852D02*
X1475Y852D01*
X788Y851D02*
X875Y851D01*
X1388Y851D02*
X1475Y851D01*
X788Y850D02*
X875Y850D01*
X1388Y850D02*
X1475Y850D01*
X788Y849D02*
X875Y849D01*
X1388Y849D02*
X1475Y849D01*
X788Y848D02*
X875Y848D01*
X1388Y848D02*
X1475Y848D01*
X788Y847D02*
X875Y847D01*
X1388Y847D02*
X1475Y847D01*
X788Y846D02*
X875Y846D01*
X1388Y846D02*
X1475Y846D01*
X788Y845D02*
X875Y845D01*
X1388Y845D02*
X1475Y845D01*
X788Y844D02*
X851Y844D01*
X860Y844D02*
X875Y844D01*
X1388Y844D02*
X1403Y844D01*
X1412Y844D02*
X1475Y844D01*
X788Y843D02*
X849Y843D01*
X862Y843D02*
X875Y843D01*
X1388Y843D02*
X1401Y843D01*
X1415Y843D02*
X1475Y843D01*
X788Y842D02*
X847Y842D01*
X864Y842D02*
X875Y842D01*
X1388Y842D02*
X1400Y842D01*
X1416Y842D02*
X1475Y842D01*
X788Y841D02*
X846Y841D01*
X865Y841D02*
X875Y841D01*
X1388Y841D02*
X1398Y841D01*
X1417Y841D02*
X1475Y841D01*
X788Y840D02*
X845Y840D01*
X866Y840D02*
X875Y840D01*
X1388Y840D02*
X1398Y840D01*
X1418Y840D02*
X1475Y840D01*
X788Y839D02*
X845Y839D01*
X866Y839D02*
X875Y839D01*
X1388Y839D02*
X1397Y839D01*
X1419Y839D02*
X1475Y839D01*
X788Y838D02*
X844Y838D01*
X867Y838D02*
X875Y838D01*
X1388Y838D02*
X1396Y838D01*
X1419Y838D02*
X1475Y838D01*
X788Y837D02*
X844Y837D01*
X867Y837D02*
X875Y837D01*
X1388Y837D02*
X1396Y837D01*
X1420Y837D02*
X1475Y837D01*
X788Y836D02*
X843Y836D01*
X868Y836D02*
X875Y836D01*
X1388Y836D02*
X1396Y836D01*
X1420Y836D02*
X1475Y836D01*
X788Y835D02*
X843Y835D01*
X868Y835D02*
X875Y835D01*
X1388Y835D02*
X1395Y835D01*
X1420Y835D02*
X1475Y835D01*
X788Y834D02*
X843Y834D01*
X868Y834D02*
X875Y834D01*
X1388Y834D02*
X1395Y834D01*
X1420Y834D02*
X1475Y834D01*
X788Y833D02*
X843Y833D01*
X868Y833D02*
X875Y833D01*
X1388Y833D02*
X1395Y833D01*
X1420Y833D02*
X1475Y833D01*
X788Y832D02*
X843Y832D01*
X868Y832D02*
X875Y832D01*
X1388Y832D02*
X1395Y832D01*
X1420Y832D02*
X1475Y832D01*
X788Y831D02*
X843Y831D01*
X868Y831D02*
X875Y831D01*
X1388Y831D02*
X1395Y831D01*
X1420Y831D02*
X1475Y831D01*
X788Y830D02*
X843Y830D01*
X868Y830D02*
X875Y830D01*
X1388Y830D02*
X1395Y830D01*
X1420Y830D02*
X1475Y830D01*
X788Y829D02*
X843Y829D01*
X867Y829D02*
X875Y829D01*
X1388Y829D02*
X1396Y829D01*
X1420Y829D02*
X1475Y829D01*
X788Y828D02*
X844Y828D01*
X867Y828D02*
X875Y828D01*
X1388Y828D02*
X1396Y828D01*
X1419Y828D02*
X1475Y828D01*
X788Y827D02*
X844Y827D01*
X867Y827D02*
X875Y827D01*
X1388Y827D02*
X1397Y827D01*
X1419Y827D02*
X1475Y827D01*
X788Y826D02*
X845Y826D01*
X866Y826D02*
X875Y826D01*
X1388Y826D02*
X1397Y826D01*
X1418Y826D02*
X1475Y826D01*
X788Y825D02*
X846Y825D01*
X865Y825D02*
X875Y825D01*
X1388Y825D02*
X1398Y825D01*
X1418Y825D02*
X1475Y825D01*
X788Y824D02*
X846Y824D01*
X864Y824D02*
X875Y824D01*
X1388Y824D02*
X1399Y824D01*
X1417Y824D02*
X1475Y824D01*
X788Y823D02*
X848Y823D01*
X863Y823D02*
X875Y823D01*
X1388Y823D02*
X1400Y823D01*
X1416Y823D02*
X1475Y823D01*
X788Y822D02*
X849Y822D01*
X862Y822D02*
X875Y822D01*
X1388Y822D02*
X1401Y822D01*
X1414Y822D02*
X1475Y822D01*
X788Y821D02*
X852Y821D01*
X859Y821D02*
X875Y821D01*
X1388Y821D02*
X1404Y821D01*
X1411Y821D02*
X1475Y821D01*
X788Y820D02*
X875Y820D01*
X1388Y820D02*
X1475Y820D01*
X788Y819D02*
X875Y819D01*
X1388Y819D02*
X1475Y819D01*
X788Y818D02*
X875Y818D01*
X1388Y818D02*
X1475Y818D01*
X788Y817D02*
X875Y817D01*
X1388Y817D02*
X1475Y817D01*
X788Y816D02*
X875Y816D01*
X1388Y816D02*
X1475Y816D01*
X788Y815D02*
X875Y815D01*
X1388Y815D02*
X1475Y815D01*
X788Y814D02*
X875Y814D01*
X1388Y814D02*
X1475Y814D01*
X788Y813D02*
X875Y813D01*
X1388Y813D02*
X1475Y813D01*
X788Y812D02*
X875Y812D01*
X1388Y812D02*
X1475Y812D01*
X788Y811D02*
X875Y811D01*
X1388Y811D02*
X1475Y811D01*
X788Y810D02*
X875Y810D01*
X1388Y810D02*
X1475Y810D01*
D02*
G04 End of PasteMask0*
M02*