; NON-PLATED HOLES START AT T1
; THROUGH (PLATED) HOLES START AT T100
M48
INCH,LZ
T1C0.125984
T100C0.040000
T101C0.038194
T102C0.039370
T103C0.038000
T104C0.035000
T105C0.031497
T106C0.035433
%
T1
X049256Y002026
X004722Y022128
X004722Y041628
X004722Y028628
X049222Y072889
X001944Y002047
X004722Y024128
X004722Y035128
X004722Y017628
X004722Y030628
X004722Y011128
X002000Y073013
X004722Y009128
X004722Y015628
X004722Y004628
X004722Y037128
T100
X041722Y073128
X043722Y073128
T101
X027722Y054228
X027722Y035628
X027722Y036628
X046722Y051628
X046722Y054628
X046722Y047628
X041722Y028628
X027722Y047628
X041722Y027628
X028722Y027628
X033722Y028628
X042722Y027628
X034722Y028628
X027722Y028628
X027722Y033628
X046722Y034628
X029722Y028628
X027722Y044628
X046722Y044628
X046722Y031628
X046722Y040628
X027722Y058228
X027722Y043628
X046722Y032628
X046722Y029628
X027722Y055228
X033722Y027628
X027722Y057228
X046722Y050628
X043722Y027628
X028722Y028628
X038722Y028628
X032722Y027628
X027722Y027628
X027722Y031628
X027722Y041628
X046722Y038628
X027722Y056228
X046722Y052628
X027722Y052228
X046722Y030628
X031722Y028628
X035722Y028628
X027722Y034628
X046722Y053628
X046722Y049628
X030722Y027628
X044722Y027628
X027722Y040628
X046722Y048628
X046722Y041628
X046722Y042628
X032722Y028628
X046722Y039628
X027722Y042628
X042722Y028628
X027722Y046628
X039722Y027628
X027722Y045628
X046722Y036628
X034722Y027628
X046722Y043628
X027722Y037628
X040722Y027628
X044722Y028628
X046722Y035628
X027722Y053228
X040722Y028628
X027722Y038628
X027722Y051228
X037722Y028628
X038722Y027628
X046722Y045628
X036722Y027628
X027722Y050228
X031722Y027628
X027722Y032628
X029722Y027628
X030722Y028628
X036722Y028628
X037722Y027628
X046722Y033628
X043722Y028628
X035722Y027628
X027722Y049228
X039722Y028628
T102
X007222Y021128
X007222Y038628
X008222Y014128
X008222Y027128
X007222Y025628
X008222Y040128
X007222Y012628
X007222Y040628
X007222Y024628
X007222Y027628
X007222Y032128
X007222Y033128
X008222Y038128
X008222Y021628
X008222Y028128
X007222Y007128
X008222Y007628
X007222Y013628
X008222Y025128
X007222Y019128
X007222Y039628
X008222Y005628
X008222Y041128
X008222Y039128
X007222Y011628
X008222Y008628
X008222Y031628
X008222Y019628
X007222Y031128
X008222Y006628
X008222Y012128
X008222Y034628
X007222Y014628
X008222Y020628
X008222Y026128
X008222Y033628
X007222Y037628
X007222Y034128
X008222Y032628
X007222Y005128
X007222Y006128
X007222Y020128
X008222Y015128
X008222Y013128
X008222Y018628
X007222Y026628
X007222Y018128
X007222Y008128
T103
X040722Y029628
X024722Y055128
X025722Y004128
X024722Y050128
X028722Y004128
X048222Y033628
X042722Y026628
X041722Y029628
X026222Y031628
X048222Y036628
X044222Y040628
X036722Y029628
X048222Y034628
X024722Y052128
X042722Y029628
X026222Y033628
X044222Y043628
X043722Y026628
X024722Y053128
X044222Y045628
X026222Y032628
X024722Y054128
X044222Y041628
X035722Y029628
X044222Y042628
X044222Y044628
X048222Y035628
X043722Y029628
X026222Y034628
X024722Y051128
X041722Y026628
X024722Y049128
X039722Y029628
T104
X030722Y035628
X042722Y067628
X034222Y017628
X034222Y014628
X035222Y014628
X046222Y005628
X039722Y033628
X035222Y017628
X032722Y033628
X039722Y032628
X034222Y032628
X030722Y041628
X043722Y067628
X045222Y005628
T105
X037722Y003613
X033722Y003613
X033722Y002628
X037722Y002628
T106
X032722Y024128
X016722Y026128
X016722Y018628
X003222Y013628
X037722Y029628
X016722Y025128
X034722Y031628
X003222Y007128
X016222Y039128
X016722Y033628
X002222Y021128
X001222Y006128
X002222Y008128
X003222Y033128
X003222Y039628
X001222Y032128
X002222Y014628
X001222Y038628
X016722Y013128
X016722Y014128
X037722Y026628
X020722Y040128
X020222Y020628
X001222Y012628
X009222Y037128
X001222Y025628
X016722Y020628
X016722Y031628
X020195Y033668
X016722Y012128
X003222Y026628
X020722Y014128
X016222Y040128
X009222Y011128
X040722Y026128
X039722Y026128
X002222Y034128
X018722Y045628
X016222Y038128
X016722Y027128
X034722Y024128
X001222Y019128
X009222Y004628
X033722Y024128
X003222Y020128
X020222Y027128
X002222Y027628
X038722Y026128
X032722Y029628
X009222Y017628
X009222Y030628
X016722Y019628
X002222Y040628
X033722Y030628
X009222Y024128
X016722Y006628
X038722Y029628
X016722Y005628
X016722Y032628
T00
M30
