G04 MADE WITH FRITZING*
G04 WWW.FRITZING.ORG*
G04 DOUBLE SIDED*
G04 HOLES PLATED*
G04 CONTOUR ON CENTER OF CONTOUR VECTOR*
%ASAXBY*%
%FSLAX23Y23*%
%MOIN*%
%OFA0B0*%
%SFA1.0B1.0*%
%ADD10C,0.072917*%
%ADD11C,0.078000*%
%ADD12C,0.074000*%
%ADD13C,0.075433*%
%ADD14C,0.075000*%
%ADD15C,0.062992*%
%ADD16C,0.080000*%
%ADD17R,0.062992X0.062992*%
%ADD18R,0.080000X0.079986*%
%ADD19R,0.075000X0.075000*%
%ADD20C,0.024000*%
%ADD21C,0.048000*%
%ADD22C,0.032000*%
%ADD23R,0.001000X0.001000*%
%LNCOPPER0*%
G90*
G70*
G54D10*
X4672Y3563D03*
X4672Y5163D03*
X4672Y3463D03*
X4672Y3363D03*
X4672Y3263D03*
X4672Y3163D03*
X3272Y2863D03*
X4672Y3063D03*
X4672Y2963D03*
X2772Y5123D03*
X4672Y4563D03*
X4672Y4463D03*
X4672Y4363D03*
X4672Y4263D03*
X4072Y2863D03*
X4672Y4163D03*
X4672Y4063D03*
X4672Y3963D03*
X4672Y3863D03*
X2772Y4363D03*
X2872Y2863D03*
X3672Y2863D03*
X4472Y2863D03*
X2772Y5523D03*
X4672Y4763D03*
X2772Y4763D03*
X3072Y2863D03*
X3472Y2863D03*
X3872Y2863D03*
X2772Y3163D03*
X4272Y2863D03*
X2772Y3263D03*
X2772Y3363D03*
X2772Y3463D03*
X2772Y3563D03*
X2772Y3663D03*
X2772Y3763D03*
X2772Y3863D03*
X2772Y5723D03*
X2772Y5323D03*
X2772Y4923D03*
X4672Y5363D03*
X4672Y4963D03*
X2772Y4163D03*
X2772Y4563D03*
X2772Y2863D03*
X2972Y2863D03*
X3172Y2863D03*
X3372Y2863D03*
X3572Y2863D03*
X3772Y2863D03*
X3972Y2863D03*
X4172Y2863D03*
X4372Y2863D03*
X2772Y5823D03*
X2772Y5623D03*
X2772Y5423D03*
X2772Y5223D03*
X2772Y5023D03*
X4672Y5463D03*
X4672Y5263D03*
X4672Y5063D03*
X4672Y4863D03*
X2772Y4063D03*
X2772Y4263D03*
X2772Y4463D03*
X2772Y4663D03*
X2772Y2763D03*
X2872Y2763D03*
X2972Y2763D03*
X3072Y2763D03*
X3172Y2763D03*
X3272Y2763D03*
X3372Y2763D03*
X3472Y2763D03*
X3572Y2763D03*
X3672Y2763D03*
X3772Y2763D03*
X3872Y2763D03*
X3972Y2763D03*
X4072Y2763D03*
X4172Y2763D03*
X4272Y2763D03*
X4372Y2763D03*
X4472Y2763D03*
X4672Y3663D03*
X4672Y3563D03*
X4672Y5163D03*
X4672Y3463D03*
X4672Y3363D03*
X4672Y3263D03*
X4672Y3163D03*
X3272Y2863D03*
X4672Y3063D03*
X4672Y2963D03*
X2772Y5123D03*
X4672Y4563D03*
X4672Y4463D03*
X4672Y4363D03*
X4672Y4263D03*
X4072Y2863D03*
X4672Y4163D03*
X4672Y4063D03*
X4672Y3963D03*
X4672Y3863D03*
X2772Y4363D03*
X2872Y2863D03*
X3672Y2863D03*
X4472Y2863D03*
X2772Y5523D03*
X4672Y4763D03*
X2772Y4763D03*
X3072Y2863D03*
X3472Y2863D03*
X3872Y2863D03*
X2772Y3163D03*
X4272Y2863D03*
X2772Y3263D03*
X2772Y3363D03*
X2772Y3463D03*
X2772Y3563D03*
X2772Y3663D03*
X2772Y3763D03*
X2772Y3863D03*
X2772Y5723D03*
X2772Y5323D03*
X2772Y4923D03*
X4672Y5363D03*
X4672Y4963D03*
X2772Y4163D03*
X2772Y4563D03*
X2772Y2863D03*
X2972Y2863D03*
X3172Y2863D03*
X3372Y2863D03*
X3572Y2863D03*
X3772Y2863D03*
X3972Y2863D03*
X4172Y2863D03*
X4372Y2863D03*
X2772Y5823D03*
X2772Y5623D03*
X2772Y5423D03*
X2772Y5223D03*
X2772Y5023D03*
X4672Y5463D03*
X4672Y5263D03*
X4672Y5063D03*
X4672Y4863D03*
X2772Y4063D03*
X2772Y4263D03*
X2772Y4463D03*
X2772Y4663D03*
X2772Y2763D03*
X2872Y2763D03*
X2972Y2763D03*
X3072Y2763D03*
X3172Y2763D03*
X3272Y2763D03*
X3372Y2763D03*
X3472Y2763D03*
X3572Y2763D03*
X3672Y2763D03*
X3772Y2763D03*
X3872Y2763D03*
X3972Y2763D03*
X4072Y2763D03*
X4172Y2763D03*
X4272Y2763D03*
X4372Y2763D03*
X4472Y2763D03*
X4672Y3663D03*
G54D11*
X2622Y3463D03*
X2622Y3363D03*
X2622Y3463D03*
X2622Y3363D03*
X2872Y413D03*
X2872Y413D03*
X4422Y4563D03*
X4422Y4463D03*
X4422Y4363D03*
X4422Y4263D03*
X4422Y4163D03*
X4422Y4063D03*
X4422Y4563D03*
X4422Y4463D03*
X4422Y4363D03*
X4422Y4263D03*
X4422Y4163D03*
X4422Y4063D03*
X2472Y5513D03*
X2472Y5413D03*
X2472Y5313D03*
X2472Y5213D03*
X2472Y5113D03*
X2472Y5013D03*
X2472Y4913D03*
X2472Y5513D03*
X2472Y5413D03*
X2472Y5313D03*
X2472Y5213D03*
X2472Y5113D03*
X2472Y5013D03*
X2472Y4913D03*
X2622Y3263D03*
X2622Y3163D03*
X2622Y3263D03*
X2622Y3163D03*
G54D12*
X822Y863D03*
X722Y813D03*
X822Y763D03*
X822Y663D03*
X822Y563D03*
X722Y713D03*
X722Y613D03*
X722Y513D03*
X822Y863D03*
X722Y813D03*
X822Y763D03*
X822Y663D03*
X822Y563D03*
X722Y713D03*
X722Y613D03*
X722Y513D03*
X822Y1513D03*
X722Y1463D03*
X822Y1413D03*
X822Y1313D03*
X822Y1213D03*
X722Y1363D03*
X722Y1263D03*
X722Y1163D03*
X822Y1513D03*
X722Y1463D03*
X822Y1413D03*
X822Y1313D03*
X822Y1213D03*
X722Y1363D03*
X722Y1263D03*
X722Y1163D03*
X822Y2163D03*
X722Y2113D03*
X822Y2063D03*
X822Y1963D03*
X822Y1863D03*
X722Y2013D03*
X722Y1913D03*
X722Y1813D03*
X822Y2163D03*
X722Y2113D03*
X822Y2063D03*
X822Y1963D03*
X822Y1863D03*
X722Y2013D03*
X722Y1913D03*
X722Y1813D03*
X822Y3463D03*
X722Y3413D03*
X822Y3363D03*
X822Y3263D03*
X822Y3163D03*
X722Y3313D03*
X722Y3213D03*
X722Y3113D03*
X822Y3463D03*
X722Y3413D03*
X822Y3363D03*
X822Y3263D03*
X822Y3163D03*
X722Y3313D03*
X722Y3213D03*
X722Y3113D03*
X822Y2813D03*
X722Y2763D03*
X822Y2713D03*
X822Y2613D03*
X822Y2513D03*
X722Y2663D03*
X722Y2563D03*
X722Y2463D03*
X822Y2813D03*
X722Y2763D03*
X822Y2713D03*
X822Y2613D03*
X822Y2513D03*
X722Y2663D03*
X722Y2563D03*
X722Y2463D03*
X822Y4113D03*
X722Y4063D03*
X822Y4013D03*
X822Y3913D03*
X822Y3813D03*
X722Y3963D03*
X722Y3863D03*
X722Y3763D03*
X822Y4113D03*
X722Y4063D03*
X822Y4013D03*
X822Y3913D03*
X822Y3813D03*
X722Y3963D03*
X722Y3863D03*
X722Y3763D03*
G54D11*
X2572Y413D03*
X2572Y413D03*
G54D13*
X122Y613D03*
X122Y1263D03*
X122Y1913D03*
X122Y2563D03*
X122Y3213D03*
X122Y3863D03*
X322Y713D03*
X322Y1363D03*
X322Y2013D03*
X322Y2663D03*
X322Y3313D03*
X322Y3963D03*
X222Y813D03*
X222Y1463D03*
X222Y2113D03*
X222Y2763D03*
X222Y3413D03*
X222Y4063D03*
G54D11*
X4172Y2663D03*
X4172Y2663D03*
X3972Y2963D03*
X4072Y2963D03*
X4172Y2963D03*
X3972Y2963D03*
X4072Y2963D03*
X4172Y2963D03*
X3572Y2963D03*
X3672Y2963D03*
X3572Y2963D03*
X3672Y2963D03*
X4272Y2663D03*
X4372Y2663D03*
X4272Y2663D03*
X4372Y2663D03*
X4272Y2963D03*
X4372Y2963D03*
X4272Y2963D03*
X4372Y2963D03*
G54D13*
X1622Y3813D03*
X922Y463D03*
X922Y1113D03*
X922Y1763D03*
X922Y2413D03*
X922Y3063D03*
X922Y3713D03*
X3972Y2613D03*
X3872Y2613D03*
X1672Y563D03*
X1672Y1213D03*
X1672Y3163D03*
X1672Y1863D03*
X1672Y2513D03*
X3772Y2663D03*
X4072Y2613D03*
X1872Y4563D03*
X1622Y3913D03*
X3872Y2963D03*
X3772Y2963D03*
X3472Y3163D03*
X3372Y3063D03*
X3472Y2413D03*
X3372Y2413D03*
X3272Y2413D03*
X3272Y2963D03*
X1672Y1963D03*
X1672Y663D03*
X1672Y1313D03*
X1672Y2613D03*
X1672Y3263D03*
X1672Y1413D03*
X2072Y1413D03*
X2022Y2063D03*
X1672Y2063D03*
X2022Y2713D03*
X1672Y2713D03*
X1672Y3363D03*
X2020Y3367D03*
X2072Y4013D03*
X1622Y4013D03*
G54D14*
X3422Y3263D03*
X3972Y3263D03*
X3272Y3363D03*
X3972Y3363D03*
G54D11*
X4822Y3663D03*
X4822Y3563D03*
X4822Y3463D03*
X4822Y3363D03*
X4822Y3663D03*
X4822Y3563D03*
X4822Y3463D03*
X4822Y3363D03*
G54D15*
X3772Y361D03*
X3772Y263D03*
X3772Y361D03*
X3772Y263D03*
X3372Y361D03*
X3372Y263D03*
X3372Y361D03*
X3372Y263D03*
G54D14*
X3422Y1763D03*
X3422Y1463D03*
X3422Y1763D03*
X3422Y1463D03*
X3522Y1763D03*
X3522Y1463D03*
X3522Y1763D03*
X3522Y1463D03*
X3072Y3563D03*
X3072Y4163D03*
G54D16*
X4172Y7313D03*
X4372Y7313D03*
X4172Y7313D03*
X4372Y7313D03*
G54D14*
X4522Y563D03*
X4622Y563D03*
X4522Y563D03*
X4622Y563D03*
X4372Y6763D03*
X4272Y6763D03*
X4372Y6763D03*
X4272Y6763D03*
G54D17*
X3772Y361D03*
X3772Y361D03*
X3372Y361D03*
X3372Y361D03*
G54D18*
X4172Y7313D03*
X4172Y7313D03*
G54D19*
X4522Y563D03*
X4522Y563D03*
X4372Y6763D03*
X4372Y6763D03*
G54D20*
X3772Y2893D02*
X3772Y2934D01*
D02*
X3872Y2893D02*
X3872Y2934D01*
D02*
X2742Y3263D02*
X2652Y3263D01*
D02*
X2742Y3163D02*
X2652Y3163D01*
D02*
X251Y4063D02*
X691Y4063D01*
D02*
X691Y3413D02*
X251Y3413D01*
D02*
X251Y2763D02*
X691Y2763D01*
D02*
X691Y2113D02*
X251Y2113D01*
D02*
X251Y1463D02*
X691Y1463D01*
D02*
X691Y813D02*
X251Y813D01*
D02*
X691Y713D02*
X351Y713D01*
D02*
X691Y1363D02*
X351Y1363D01*
D02*
X691Y2013D02*
X351Y2013D01*
D02*
X691Y2663D02*
X351Y2663D01*
D02*
X691Y3313D02*
X351Y3313D01*
D02*
X691Y3963D02*
X351Y3963D01*
D02*
X691Y3863D02*
X151Y3863D01*
D02*
X691Y3213D02*
X151Y3213D01*
D02*
X691Y2563D02*
X151Y2563D01*
D02*
X691Y1913D02*
X151Y1913D01*
D02*
X691Y1263D02*
X151Y1263D01*
D02*
X691Y613D02*
X151Y613D01*
D02*
X1522Y4115D02*
X874Y4113D01*
D02*
X2224Y4763D02*
X1522Y4115D01*
D02*
X874Y4113D02*
X853Y4113D01*
D02*
X2742Y4763D02*
X2224Y4763D01*
D02*
X1723Y3661D02*
X1522Y3465D01*
D02*
X1724Y4212D02*
X1723Y3662D01*
D02*
X1522Y3465D02*
X853Y3463D01*
D02*
X2224Y4663D02*
X1724Y4212D01*
D02*
X2742Y4663D02*
X2224Y4663D01*
D02*
X1773Y4163D02*
X1770Y3012D01*
D02*
X1522Y2811D02*
X853Y2813D01*
D02*
X1770Y3012D02*
X1522Y2811D01*
D02*
X2224Y4563D02*
X1773Y4163D01*
D02*
X2742Y4563D02*
X2224Y4563D01*
D02*
X2224Y4463D02*
X1822Y4113D01*
D02*
X1522Y2161D02*
X853Y2163D01*
D02*
X1822Y2163D02*
X1522Y2161D01*
D02*
X1822Y4113D02*
X1822Y2163D01*
D02*
X2742Y4463D02*
X2224Y4463D01*
D02*
X1872Y4062D02*
X1873Y1811D01*
D02*
X1522Y1512D02*
X853Y1513D01*
D02*
X1873Y1811D02*
X1522Y1512D01*
D02*
X2220Y4363D02*
X1872Y4062D01*
D02*
X2742Y4363D02*
X2220Y4363D01*
D02*
X1924Y1212D02*
X1522Y862D01*
D02*
X1522Y862D02*
X853Y863D01*
D02*
X1921Y4011D02*
X1924Y1212D01*
D02*
X2224Y4263D02*
X1921Y4011D01*
D02*
X2742Y4263D02*
X2224Y4263D01*
D02*
X4272Y2893D02*
X4272Y2933D01*
D02*
X4372Y2893D02*
X4372Y2933D01*
D02*
X4272Y2733D02*
X4272Y2693D01*
D02*
X4372Y2733D02*
X4372Y2693D01*
D02*
X2823Y2965D02*
X2873Y2912D01*
D02*
X2121Y2714D02*
X2323Y2962D01*
D02*
X2873Y2912D02*
X2872Y2893D01*
D02*
X2323Y2962D02*
X2823Y2965D01*
D02*
X2051Y2713D02*
X2121Y2714D01*
D02*
X853Y2713D02*
X1643Y2713D01*
D02*
X2873Y3014D02*
X2323Y3014D01*
D02*
X1643Y3363D02*
X853Y3363D01*
D02*
X2971Y2912D02*
X2873Y3014D01*
D02*
X2323Y3014D02*
X2038Y3345D01*
D02*
X2971Y2893D02*
X2971Y2912D01*
D02*
X2922Y3063D02*
X2374Y3061D01*
D02*
X2074Y3412D02*
X2072Y3984D01*
D02*
X1593Y4013D02*
X853Y4013D01*
D02*
X2374Y3061D02*
X2074Y3412D01*
D02*
X3073Y2912D02*
X2922Y3063D01*
D02*
X3073Y2893D02*
X3073Y2912D01*
D02*
X1643Y2063D02*
X853Y2063D01*
D02*
X2072Y2114D02*
X2042Y2084D01*
D02*
X2072Y2364D02*
X2072Y2114D01*
D02*
X2722Y2511D02*
X2223Y2511D01*
D02*
X2223Y2511D02*
X2072Y2364D01*
D02*
X2873Y2715D02*
X2722Y2511D01*
D02*
X2873Y2733D02*
X2873Y2715D01*
D02*
X853Y1413D02*
X1643Y1413D01*
D02*
X2121Y2315D02*
X2121Y1464D01*
D02*
X2121Y1464D02*
X2092Y1434D01*
D02*
X2272Y2462D02*
X2121Y2315D01*
D02*
X2771Y2462D02*
X2272Y2462D01*
D02*
X2974Y2715D02*
X2771Y2462D01*
D02*
X2973Y2733D02*
X2974Y2715D01*
D02*
X1774Y764D02*
X853Y763D01*
D02*
X2173Y2262D02*
X2174Y1164D01*
D02*
X2174Y1164D02*
X1774Y764D01*
D02*
X2321Y2413D02*
X2173Y2262D01*
D02*
X2823Y2413D02*
X2321Y2413D01*
D02*
X3070Y2715D02*
X2823Y2413D01*
D02*
X3071Y2733D02*
X3070Y2715D01*
D02*
X1643Y3263D02*
X853Y3263D01*
D02*
X853Y2613D02*
X1643Y2613D01*
D02*
X853Y1963D02*
X1643Y1963D01*
D02*
X853Y1313D02*
X1643Y1313D01*
D02*
X853Y663D02*
X1643Y663D01*
D02*
X3472Y2893D02*
X3472Y3134D01*
D02*
X3372Y2893D02*
X3372Y3034D01*
D02*
X3272Y2893D02*
X3272Y2934D01*
D02*
X3372Y2442D02*
X3372Y2733D01*
D02*
X3272Y2442D02*
X3272Y2733D01*
D02*
X3472Y2442D02*
X3472Y2733D01*
D02*
X853Y3913D02*
X1593Y3913D01*
D02*
X1643Y3163D02*
X853Y3163D01*
D02*
X1643Y2513D02*
X853Y2513D01*
D02*
X1643Y1863D02*
X853Y1863D01*
D02*
X853Y1213D02*
X1643Y1213D01*
D02*
X853Y563D02*
X1643Y563D01*
D02*
X4223Y3063D02*
X4274Y3012D01*
D02*
X4274Y3012D02*
X4273Y2993D01*
D02*
X4023Y3063D02*
X4223Y3063D01*
D02*
X2972Y4063D02*
X4023Y3063D01*
D02*
X2972Y4714D02*
X2972Y4063D01*
D02*
X2197Y4837D02*
X2623Y4837D01*
D02*
X2846Y4837D02*
X2972Y4714D01*
D02*
X2623Y4837D02*
X2846Y4837D01*
D02*
X1894Y4581D02*
X2197Y4837D01*
D02*
X3772Y2733D02*
X3772Y2692D01*
D02*
X3872Y2733D02*
X3872Y2642D01*
D02*
X3972Y2733D02*
X3972Y2642D01*
D02*
X4072Y2733D02*
X4072Y2642D01*
D02*
X772Y464D02*
X744Y491D01*
D02*
X893Y463D02*
X772Y464D01*
D02*
X772Y1114D02*
X744Y1141D01*
D02*
X893Y1113D02*
X772Y1114D01*
D02*
X772Y1765D02*
X744Y1791D01*
D02*
X893Y1763D02*
X772Y1765D01*
D02*
X772Y2415D02*
X893Y2413D01*
D02*
X744Y2442D02*
X772Y2415D01*
D02*
X772Y3061D02*
X744Y3091D01*
D02*
X893Y3062D02*
X772Y3061D01*
D02*
X772Y3711D02*
X744Y3741D01*
D02*
X893Y3712D02*
X772Y3711D01*
D02*
X853Y3813D02*
X1593Y3813D01*
D02*
X2742Y5522D02*
X2502Y5514D01*
D02*
X2742Y4922D02*
X2502Y4914D01*
D02*
X4642Y4563D02*
X4452Y4563D01*
D02*
X4642Y4463D02*
X4452Y4463D01*
D02*
X4642Y4363D02*
X4452Y4363D01*
D02*
X4642Y4263D02*
X4452Y4263D01*
D02*
X4642Y4163D02*
X4452Y4163D01*
D02*
X4642Y4063D02*
X4452Y4063D01*
G54D21*
D02*
X5023Y1162D02*
X5024Y4663D01*
D02*
X4720Y864D02*
X5023Y1162D01*
D02*
X4920Y4761D02*
X4714Y4763D01*
D02*
X5024Y4663D02*
X4920Y4761D01*
D02*
X4622Y4862D02*
X4631Y4862D01*
D02*
X4571Y4711D02*
X4562Y4812D01*
D02*
X4522Y2016D02*
X4521Y2114D01*
D02*
X4521Y2114D02*
X4924Y2564D01*
G54D22*
D02*
X4522Y896D02*
X4522Y1915D01*
G54D21*
D02*
X4872Y4663D02*
X4622Y4661D01*
D02*
X4924Y4613D02*
X4872Y4663D01*
D02*
X4622Y4661D02*
X4571Y4711D01*
D02*
X4562Y4812D02*
X4622Y4862D01*
D02*
X4924Y2564D02*
X4924Y4613D01*
D02*
X4720Y864D02*
X4676Y864D01*
G54D20*
D02*
X4324Y3264D02*
X4523Y3014D01*
D02*
X4122Y2013D02*
X4122Y2005D01*
D02*
X4523Y3014D02*
X4523Y2913D01*
D02*
X4573Y2862D02*
X4573Y2561D01*
D02*
X4523Y2913D02*
X4573Y2862D01*
D02*
X4573Y2561D02*
X4122Y2013D01*
D02*
X4374Y3361D02*
X4573Y3112D01*
D02*
X4223Y2013D02*
X4223Y2005D01*
D02*
X4573Y3112D02*
X4573Y2963D01*
D02*
X4573Y2963D02*
X4624Y2913D01*
D02*
X4624Y2515D02*
X4223Y2013D01*
D02*
X4624Y2913D02*
X4624Y2515D01*
D02*
X4374Y3361D02*
X4001Y3363D01*
D02*
X4324Y3264D02*
X4001Y3263D01*
D02*
X4792Y3663D02*
X4702Y3663D01*
D02*
X4792Y3563D02*
X4702Y3563D01*
D02*
X4792Y3463D02*
X4702Y3463D01*
D02*
X4792Y3363D02*
X4702Y3363D01*
D02*
X4522Y591D02*
X4522Y821D01*
D02*
X2896Y395D02*
X3073Y263D01*
D02*
X2572Y2013D02*
X3172Y2713D01*
D02*
X3172Y2713D02*
X3172Y2733D01*
D02*
X2572Y443D02*
X2572Y2013D01*
D02*
X4322Y263D02*
X3799Y263D01*
D02*
X3745Y263D02*
X3399Y263D01*
D02*
X3073Y263D02*
X3345Y263D01*
D02*
X3522Y1791D02*
X3522Y1920D01*
D02*
X3422Y1920D02*
X3422Y1791D01*
D02*
X3423Y1413D02*
X3423Y1434D01*
D02*
X3021Y713D02*
X3021Y1011D01*
D02*
X3021Y1011D02*
X3423Y1413D01*
D02*
X3353Y380D02*
X3021Y713D01*
D02*
X3272Y561D02*
X3073Y765D01*
D02*
X3575Y561D02*
X3272Y561D01*
D02*
X3073Y765D02*
X3073Y964D01*
D02*
X3073Y964D02*
X3523Y1413D01*
D02*
X3523Y1413D02*
X3522Y1434D01*
D02*
X3753Y380D02*
X3575Y561D01*
D02*
X2742Y5022D02*
X2502Y5014D01*
D02*
X2742Y5122D02*
X2502Y5114D01*
D02*
X2742Y5222D02*
X2502Y5214D01*
D02*
X2742Y5322D02*
X2502Y5314D01*
D02*
X2372Y5461D02*
X2422Y5412D01*
D02*
X2622Y5912D02*
X2372Y5662D01*
D02*
X2873Y5912D02*
X2622Y5912D01*
D02*
X2372Y5662D02*
X2372Y5461D01*
D02*
X2422Y5412D02*
X2442Y5412D01*
D02*
X3073Y5662D02*
X2873Y5912D01*
D02*
X3072Y4191D02*
X3073Y5662D01*
D02*
X3572Y2893D02*
X3572Y2933D01*
D02*
X3672Y2893D02*
X3672Y2933D01*
D02*
X4172Y2893D02*
X4172Y2933D01*
D02*
X4072Y2893D02*
X4072Y2933D01*
D02*
X3972Y2893D02*
X3972Y2933D01*
D02*
X4172Y2733D02*
X4172Y2693D01*
D02*
X2742Y3463D02*
X2652Y3463D01*
D02*
X2742Y3363D02*
X2652Y3363D01*
D02*
X3044Y3563D02*
X2802Y3563D01*
D02*
X3244Y3363D02*
X2802Y3363D01*
D02*
X3423Y3364D02*
X3323Y3465D01*
D02*
X3423Y3291D02*
X3423Y3364D01*
D02*
X3323Y3465D02*
X2802Y3463D01*
G54D21*
D02*
X4372Y6803D02*
X4372Y7271D01*
D02*
X4372Y6013D02*
X4372Y6723D01*
D02*
X4922Y5413D02*
X4372Y6013D01*
D02*
X4920Y4761D02*
X4922Y5413D01*
D02*
X4172Y7213D02*
X4172Y7271D01*
D02*
X4272Y7063D02*
X4172Y7213D01*
D02*
X4272Y6803D02*
X4272Y7063D01*
D02*
X4272Y5013D02*
X4272Y6723D01*
D02*
X4562Y4812D02*
X4272Y5013D01*
G54D20*
D02*
X4622Y821D02*
X4622Y591D01*
D02*
X4522Y463D02*
X4522Y534D01*
D02*
X4322Y263D02*
X4522Y463D01*
G54D23*
X685Y3800D02*
X758Y3800D01*
X685Y3799D02*
X758Y3799D01*
X685Y3798D02*
X758Y3798D01*
X685Y3797D02*
X758Y3797D01*
X685Y3796D02*
X758Y3796D01*
X685Y3795D02*
X758Y3795D01*
X685Y3794D02*
X758Y3794D01*
X685Y3793D02*
X758Y3793D01*
X685Y3792D02*
X758Y3792D01*
X685Y3791D02*
X758Y3791D01*
X685Y3790D02*
X758Y3790D01*
X685Y3789D02*
X758Y3789D01*
X685Y3788D02*
X758Y3788D01*
X685Y3787D02*
X758Y3787D01*
X685Y3786D02*
X758Y3786D01*
X685Y3785D02*
X758Y3785D01*
X685Y3784D02*
X758Y3784D01*
X685Y3783D02*
X758Y3783D01*
X685Y3782D02*
X715Y3782D01*
X728Y3782D02*
X758Y3782D01*
X685Y3781D02*
X713Y3781D01*
X731Y3781D02*
X758Y3781D01*
X685Y3780D02*
X711Y3780D01*
X732Y3780D02*
X758Y3780D01*
X685Y3779D02*
X709Y3779D01*
X734Y3779D02*
X758Y3779D01*
X685Y3778D02*
X708Y3778D01*
X735Y3778D02*
X758Y3778D01*
X685Y3777D02*
X707Y3777D01*
X736Y3777D02*
X758Y3777D01*
X685Y3776D02*
X706Y3776D01*
X737Y3776D02*
X758Y3776D01*
X685Y3775D02*
X705Y3775D01*
X738Y3775D02*
X758Y3775D01*
X685Y3774D02*
X705Y3774D01*
X739Y3774D02*
X758Y3774D01*
X685Y3773D02*
X704Y3773D01*
X739Y3773D02*
X758Y3773D01*
X685Y3772D02*
X704Y3772D01*
X740Y3772D02*
X758Y3772D01*
X685Y3771D02*
X703Y3771D01*
X740Y3771D02*
X758Y3771D01*
X685Y3770D02*
X703Y3770D01*
X741Y3770D02*
X758Y3770D01*
X685Y3769D02*
X702Y3769D01*
X741Y3769D02*
X758Y3769D01*
X685Y3768D02*
X702Y3768D01*
X741Y3768D02*
X758Y3768D01*
X685Y3767D02*
X702Y3767D01*
X741Y3767D02*
X758Y3767D01*
X685Y3766D02*
X702Y3766D01*
X742Y3766D02*
X758Y3766D01*
X685Y3765D02*
X702Y3765D01*
X742Y3765D02*
X758Y3765D01*
X685Y3764D02*
X702Y3764D01*
X742Y3764D02*
X758Y3764D01*
X685Y3763D02*
X702Y3763D01*
X742Y3763D02*
X758Y3763D01*
X685Y3762D02*
X702Y3762D01*
X742Y3762D02*
X758Y3762D01*
X685Y3761D02*
X702Y3761D01*
X742Y3761D02*
X758Y3761D01*
X685Y3760D02*
X702Y3760D01*
X742Y3760D02*
X758Y3760D01*
X685Y3759D02*
X702Y3759D01*
X741Y3759D02*
X758Y3759D01*
X685Y3758D02*
X702Y3758D01*
X741Y3758D02*
X758Y3758D01*
X685Y3757D02*
X703Y3757D01*
X741Y3757D02*
X758Y3757D01*
X685Y3756D02*
X703Y3756D01*
X740Y3756D02*
X758Y3756D01*
X685Y3755D02*
X703Y3755D01*
X740Y3755D02*
X758Y3755D01*
X685Y3754D02*
X704Y3754D01*
X739Y3754D02*
X758Y3754D01*
X685Y3753D02*
X704Y3753D01*
X739Y3753D02*
X758Y3753D01*
X685Y3752D02*
X705Y3752D01*
X738Y3752D02*
X758Y3752D01*
X685Y3751D02*
X706Y3751D01*
X737Y3751D02*
X758Y3751D01*
X685Y3750D02*
X707Y3750D01*
X737Y3750D02*
X758Y3750D01*
X685Y3749D02*
X708Y3749D01*
X736Y3749D02*
X758Y3749D01*
X685Y3748D02*
X709Y3748D01*
X734Y3748D02*
X758Y3748D01*
X685Y3747D02*
X710Y3747D01*
X733Y3747D02*
X758Y3747D01*
X685Y3746D02*
X712Y3746D01*
X731Y3746D02*
X758Y3746D01*
X685Y3745D02*
X714Y3745D01*
X729Y3745D02*
X758Y3745D01*
X685Y3744D02*
X717Y3744D01*
X726Y3744D02*
X758Y3744D01*
X685Y3743D02*
X758Y3743D01*
X685Y3742D02*
X758Y3742D01*
X685Y3741D02*
X758Y3741D01*
X685Y3740D02*
X758Y3740D01*
X685Y3739D02*
X758Y3739D01*
X685Y3738D02*
X758Y3738D01*
X685Y3737D02*
X758Y3737D01*
X685Y3736D02*
X758Y3736D01*
X685Y3735D02*
X758Y3735D01*
X685Y3734D02*
X758Y3734D01*
X685Y3733D02*
X758Y3733D01*
X685Y3732D02*
X758Y3732D01*
X685Y3731D02*
X758Y3731D01*
X685Y3730D02*
X758Y3730D01*
X685Y3729D02*
X758Y3729D01*
X685Y3728D02*
X758Y3728D01*
X685Y3727D02*
X758Y3727D01*
X685Y3150D02*
X758Y3150D01*
X685Y3149D02*
X758Y3149D01*
X685Y3148D02*
X758Y3148D01*
X685Y3147D02*
X758Y3147D01*
X685Y3146D02*
X758Y3146D01*
X685Y3145D02*
X758Y3145D01*
X685Y3144D02*
X758Y3144D01*
X685Y3143D02*
X758Y3143D01*
X685Y3142D02*
X758Y3142D01*
X685Y3141D02*
X758Y3141D01*
X685Y3140D02*
X758Y3140D01*
X685Y3139D02*
X758Y3139D01*
X685Y3138D02*
X758Y3138D01*
X685Y3137D02*
X758Y3137D01*
X685Y3136D02*
X758Y3136D01*
X685Y3135D02*
X758Y3135D01*
X685Y3134D02*
X758Y3134D01*
X685Y3133D02*
X758Y3133D01*
X685Y3132D02*
X715Y3132D01*
X728Y3132D02*
X758Y3132D01*
X685Y3131D02*
X713Y3131D01*
X731Y3131D02*
X758Y3131D01*
X685Y3130D02*
X711Y3130D01*
X733Y3130D02*
X758Y3130D01*
X685Y3129D02*
X709Y3129D01*
X734Y3129D02*
X758Y3129D01*
X685Y3128D02*
X708Y3128D01*
X735Y3128D02*
X758Y3128D01*
X685Y3127D02*
X707Y3127D01*
X736Y3127D02*
X758Y3127D01*
X685Y3126D02*
X706Y3126D01*
X737Y3126D02*
X758Y3126D01*
X685Y3125D02*
X705Y3125D01*
X738Y3125D02*
X758Y3125D01*
X685Y3124D02*
X705Y3124D01*
X739Y3124D02*
X758Y3124D01*
X685Y3123D02*
X704Y3123D01*
X739Y3123D02*
X758Y3123D01*
X685Y3122D02*
X704Y3122D01*
X740Y3122D02*
X758Y3122D01*
X685Y3121D02*
X703Y3121D01*
X740Y3121D02*
X758Y3121D01*
X685Y3120D02*
X703Y3120D01*
X741Y3120D02*
X758Y3120D01*
X685Y3119D02*
X702Y3119D01*
X741Y3119D02*
X758Y3119D01*
X685Y3118D02*
X702Y3118D01*
X741Y3118D02*
X758Y3118D01*
X685Y3117D02*
X702Y3117D01*
X741Y3117D02*
X758Y3117D01*
X685Y3116D02*
X702Y3116D01*
X742Y3116D02*
X758Y3116D01*
X685Y3115D02*
X702Y3115D01*
X742Y3115D02*
X758Y3115D01*
X685Y3114D02*
X702Y3114D01*
X742Y3114D02*
X758Y3114D01*
X685Y3113D02*
X702Y3113D01*
X742Y3113D02*
X758Y3113D01*
X685Y3112D02*
X702Y3112D01*
X742Y3112D02*
X758Y3112D01*
X685Y3111D02*
X702Y3111D01*
X742Y3111D02*
X758Y3111D01*
X685Y3110D02*
X702Y3110D01*
X742Y3110D02*
X758Y3110D01*
X685Y3109D02*
X702Y3109D01*
X741Y3109D02*
X758Y3109D01*
X685Y3108D02*
X702Y3108D01*
X741Y3108D02*
X758Y3108D01*
X685Y3107D02*
X703Y3107D01*
X741Y3107D02*
X758Y3107D01*
X685Y3106D02*
X703Y3106D01*
X740Y3106D02*
X758Y3106D01*
X685Y3105D02*
X703Y3105D01*
X740Y3105D02*
X758Y3105D01*
X685Y3104D02*
X704Y3104D01*
X739Y3104D02*
X758Y3104D01*
X685Y3103D02*
X704Y3103D01*
X739Y3103D02*
X758Y3103D01*
X685Y3102D02*
X705Y3102D01*
X738Y3102D02*
X758Y3102D01*
X685Y3101D02*
X706Y3101D01*
X737Y3101D02*
X758Y3101D01*
X685Y3100D02*
X707Y3100D01*
X737Y3100D02*
X758Y3100D01*
X685Y3099D02*
X708Y3099D01*
X736Y3099D02*
X758Y3099D01*
X685Y3098D02*
X709Y3098D01*
X734Y3098D02*
X758Y3098D01*
X685Y3097D02*
X710Y3097D01*
X733Y3097D02*
X758Y3097D01*
X685Y3096D02*
X712Y3096D01*
X731Y3096D02*
X758Y3096D01*
X685Y3095D02*
X714Y3095D01*
X729Y3095D02*
X758Y3095D01*
X685Y3094D02*
X718Y3094D01*
X726Y3094D02*
X758Y3094D01*
X685Y3093D02*
X758Y3093D01*
X685Y3092D02*
X758Y3092D01*
X685Y3091D02*
X758Y3091D01*
X685Y3090D02*
X758Y3090D01*
X685Y3089D02*
X758Y3089D01*
X685Y3088D02*
X758Y3088D01*
X685Y3087D02*
X758Y3087D01*
X685Y3086D02*
X758Y3086D01*
X685Y3085D02*
X758Y3085D01*
X685Y3084D02*
X758Y3084D01*
X685Y3083D02*
X758Y3083D01*
X685Y3082D02*
X758Y3082D01*
X685Y3081D02*
X758Y3081D01*
X685Y3080D02*
X758Y3080D01*
X685Y3079D02*
X758Y3079D01*
X685Y3078D02*
X758Y3078D01*
X685Y3077D02*
X758Y3077D01*
X685Y2500D02*
X758Y2500D01*
X685Y2499D02*
X758Y2499D01*
X685Y2498D02*
X758Y2498D01*
X685Y2497D02*
X758Y2497D01*
X685Y2496D02*
X758Y2496D01*
X685Y2495D02*
X758Y2495D01*
X685Y2494D02*
X758Y2494D01*
X685Y2493D02*
X758Y2493D01*
X685Y2492D02*
X758Y2492D01*
X685Y2491D02*
X758Y2491D01*
X685Y2490D02*
X758Y2490D01*
X685Y2489D02*
X758Y2489D01*
X685Y2488D02*
X758Y2488D01*
X685Y2487D02*
X758Y2487D01*
X685Y2486D02*
X758Y2486D01*
X685Y2485D02*
X758Y2485D01*
X685Y2484D02*
X758Y2484D01*
X685Y2483D02*
X758Y2483D01*
X685Y2482D02*
X715Y2482D01*
X728Y2482D02*
X758Y2482D01*
X685Y2481D02*
X713Y2481D01*
X731Y2481D02*
X758Y2481D01*
X685Y2480D02*
X711Y2480D01*
X733Y2480D02*
X758Y2480D01*
X685Y2479D02*
X709Y2479D01*
X734Y2479D02*
X758Y2479D01*
X685Y2478D02*
X708Y2478D01*
X735Y2478D02*
X758Y2478D01*
X685Y2477D02*
X707Y2477D01*
X736Y2477D02*
X758Y2477D01*
X685Y2476D02*
X706Y2476D01*
X737Y2476D02*
X758Y2476D01*
X685Y2475D02*
X705Y2475D01*
X738Y2475D02*
X758Y2475D01*
X685Y2474D02*
X705Y2474D01*
X739Y2474D02*
X758Y2474D01*
X685Y2473D02*
X704Y2473D01*
X739Y2473D02*
X758Y2473D01*
X685Y2472D02*
X704Y2472D01*
X740Y2472D02*
X758Y2472D01*
X685Y2471D02*
X703Y2471D01*
X740Y2471D02*
X758Y2471D01*
X685Y2470D02*
X703Y2470D01*
X741Y2470D02*
X758Y2470D01*
X685Y2469D02*
X702Y2469D01*
X741Y2469D02*
X758Y2469D01*
X685Y2468D02*
X702Y2468D01*
X741Y2468D02*
X758Y2468D01*
X685Y2467D02*
X702Y2467D01*
X741Y2467D02*
X758Y2467D01*
X685Y2466D02*
X702Y2466D01*
X742Y2466D02*
X758Y2466D01*
X685Y2465D02*
X702Y2465D01*
X742Y2465D02*
X758Y2465D01*
X685Y2464D02*
X702Y2464D01*
X742Y2464D02*
X758Y2464D01*
X685Y2463D02*
X702Y2463D01*
X742Y2463D02*
X758Y2463D01*
X685Y2462D02*
X702Y2462D01*
X742Y2462D02*
X758Y2462D01*
X685Y2461D02*
X702Y2461D01*
X742Y2461D02*
X758Y2461D01*
X685Y2460D02*
X702Y2460D01*
X742Y2460D02*
X758Y2460D01*
X685Y2459D02*
X702Y2459D01*
X741Y2459D02*
X758Y2459D01*
X685Y2458D02*
X702Y2458D01*
X741Y2458D02*
X758Y2458D01*
X685Y2457D02*
X703Y2457D01*
X741Y2457D02*
X758Y2457D01*
X685Y2456D02*
X703Y2456D01*
X740Y2456D02*
X758Y2456D01*
X685Y2455D02*
X703Y2455D01*
X740Y2455D02*
X758Y2455D01*
X685Y2454D02*
X704Y2454D01*
X739Y2454D02*
X758Y2454D01*
X685Y2453D02*
X704Y2453D01*
X739Y2453D02*
X758Y2453D01*
X685Y2452D02*
X705Y2452D01*
X738Y2452D02*
X758Y2452D01*
X685Y2451D02*
X706Y2451D01*
X737Y2451D02*
X758Y2451D01*
X685Y2450D02*
X707Y2450D01*
X737Y2450D02*
X758Y2450D01*
X685Y2449D02*
X708Y2449D01*
X736Y2449D02*
X758Y2449D01*
X685Y2448D02*
X709Y2448D01*
X734Y2448D02*
X758Y2448D01*
X685Y2447D02*
X710Y2447D01*
X733Y2447D02*
X758Y2447D01*
X685Y2446D02*
X712Y2446D01*
X731Y2446D02*
X758Y2446D01*
X685Y2445D02*
X714Y2445D01*
X729Y2445D02*
X758Y2445D01*
X685Y2444D02*
X718Y2444D01*
X726Y2444D02*
X758Y2444D01*
X685Y2443D02*
X758Y2443D01*
X685Y2442D02*
X758Y2442D01*
X685Y2441D02*
X758Y2441D01*
X685Y2440D02*
X758Y2440D01*
X685Y2439D02*
X758Y2439D01*
X685Y2438D02*
X758Y2438D01*
X685Y2437D02*
X758Y2437D01*
X685Y2436D02*
X758Y2436D01*
X685Y2435D02*
X758Y2435D01*
X685Y2434D02*
X758Y2434D01*
X685Y2433D02*
X758Y2433D01*
X685Y2432D02*
X758Y2432D01*
X685Y2431D02*
X758Y2431D01*
X685Y2430D02*
X758Y2430D01*
X685Y2429D02*
X758Y2429D01*
X685Y2428D02*
X758Y2428D01*
X685Y2427D02*
X758Y2427D01*
X3215Y2001D02*
X3228Y2001D01*
X3315Y2001D02*
X3328Y2001D01*
X3415Y2001D02*
X3428Y2001D01*
X3515Y2001D02*
X3528Y2001D01*
X3615Y2001D02*
X3628Y2001D01*
X3715Y2001D02*
X3728Y2001D01*
X3815Y2001D02*
X3828Y2001D01*
X3915Y2001D02*
X3928Y2001D01*
X4015Y2001D02*
X4028Y2001D01*
X4115Y2001D02*
X4128Y2001D01*
X4215Y2001D02*
X4228Y2001D01*
X4315Y2001D02*
X4328Y2001D01*
X4415Y2001D02*
X4428Y2001D01*
X4515Y2001D02*
X4528Y2001D01*
X4614Y2001D02*
X4628Y2001D01*
X3211Y2000D02*
X3232Y2000D01*
X3311Y2000D02*
X3332Y2000D01*
X3411Y2000D02*
X3432Y2000D01*
X3511Y2000D02*
X3532Y2000D01*
X3611Y2000D02*
X3632Y2000D01*
X3711Y2000D02*
X3732Y2000D01*
X3811Y2000D02*
X3832Y2000D01*
X3911Y2000D02*
X3932Y2000D01*
X4011Y2000D02*
X4032Y2000D01*
X4111Y2000D02*
X4132Y2000D01*
X4211Y2000D02*
X4232Y2000D01*
X4311Y2000D02*
X4332Y2000D01*
X4411Y2000D02*
X4432Y2000D01*
X4511Y2000D02*
X4532Y2000D01*
X4611Y2000D02*
X4632Y2000D01*
X3208Y1999D02*
X3235Y1999D01*
X3308Y1999D02*
X3335Y1999D01*
X3408Y1999D02*
X3435Y1999D01*
X3508Y1999D02*
X3535Y1999D01*
X3608Y1999D02*
X3635Y1999D01*
X3708Y1999D02*
X3735Y1999D01*
X3808Y1999D02*
X3835Y1999D01*
X3908Y1999D02*
X3935Y1999D01*
X4008Y1999D02*
X4035Y1999D01*
X4108Y1999D02*
X4135Y1999D01*
X4208Y1999D02*
X4235Y1999D01*
X4308Y1999D02*
X4335Y1999D01*
X4408Y1999D02*
X4435Y1999D01*
X4508Y1999D02*
X4535Y1999D01*
X4608Y1999D02*
X4635Y1999D01*
X3206Y1998D02*
X3237Y1998D01*
X3306Y1998D02*
X3337Y1998D01*
X3406Y1998D02*
X3437Y1998D01*
X3506Y1998D02*
X3537Y1998D01*
X3606Y1998D02*
X3637Y1998D01*
X3706Y1998D02*
X3737Y1998D01*
X3806Y1998D02*
X3837Y1998D01*
X3906Y1998D02*
X3937Y1998D01*
X4006Y1998D02*
X4037Y1998D01*
X4106Y1998D02*
X4137Y1998D01*
X4206Y1998D02*
X4237Y1998D01*
X4306Y1998D02*
X4337Y1998D01*
X4406Y1998D02*
X4437Y1998D01*
X4506Y1998D02*
X4537Y1998D01*
X4605Y1998D02*
X4637Y1998D01*
X3204Y1997D02*
X3239Y1997D01*
X3304Y1997D02*
X3339Y1997D01*
X3404Y1997D02*
X3439Y1997D01*
X3504Y1997D02*
X3539Y1997D01*
X3604Y1997D02*
X3639Y1997D01*
X3704Y1997D02*
X3739Y1997D01*
X3803Y1997D02*
X3839Y1997D01*
X3903Y1997D02*
X3939Y1997D01*
X4003Y1997D02*
X4039Y1997D01*
X4103Y1997D02*
X4139Y1997D01*
X4203Y1997D02*
X4239Y1997D01*
X4304Y1997D02*
X4340Y1997D01*
X4404Y1997D02*
X4439Y1997D01*
X4504Y1997D02*
X4539Y1997D01*
X4603Y1997D02*
X4639Y1997D01*
X3202Y1996D02*
X3241Y1996D01*
X3302Y1996D02*
X3341Y1996D01*
X3402Y1996D02*
X3441Y1996D01*
X3502Y1996D02*
X3541Y1996D01*
X3602Y1996D02*
X3641Y1996D01*
X3702Y1996D02*
X3741Y1996D01*
X3802Y1996D02*
X3841Y1996D01*
X3902Y1996D02*
X3941Y1996D01*
X4002Y1996D02*
X4041Y1996D01*
X4102Y1996D02*
X4141Y1996D01*
X4202Y1996D02*
X4241Y1996D01*
X4302Y1996D02*
X4341Y1996D01*
X4402Y1996D02*
X4441Y1996D01*
X4502Y1996D02*
X4541Y1996D01*
X4602Y1996D02*
X4641Y1996D01*
X3200Y1995D02*
X3243Y1995D01*
X3300Y1995D02*
X3343Y1995D01*
X3400Y1995D02*
X3443Y1995D01*
X3500Y1995D02*
X3543Y1995D01*
X3600Y1995D02*
X3643Y1995D01*
X3700Y1995D02*
X3743Y1995D01*
X3800Y1995D02*
X3843Y1995D01*
X3900Y1995D02*
X3943Y1995D01*
X4000Y1995D02*
X4043Y1995D01*
X4100Y1995D02*
X4143Y1995D01*
X4200Y1995D02*
X4243Y1995D01*
X4300Y1995D02*
X4343Y1995D01*
X4400Y1995D02*
X4443Y1995D01*
X4500Y1995D02*
X4543Y1995D01*
X4600Y1995D02*
X4642Y1995D01*
X3199Y1994D02*
X3244Y1994D01*
X3299Y1994D02*
X3344Y1994D01*
X3399Y1994D02*
X3444Y1994D01*
X3499Y1994D02*
X3544Y1994D01*
X3599Y1994D02*
X3644Y1994D01*
X3699Y1994D02*
X3744Y1994D01*
X3799Y1994D02*
X3844Y1994D01*
X3899Y1994D02*
X3944Y1994D01*
X3999Y1994D02*
X4044Y1994D01*
X4099Y1994D02*
X4144Y1994D01*
X4199Y1994D02*
X4244Y1994D01*
X4299Y1994D02*
X4344Y1994D01*
X4399Y1994D02*
X4444Y1994D01*
X4499Y1994D02*
X4544Y1994D01*
X4599Y1994D02*
X4644Y1994D01*
X3197Y1993D02*
X3245Y1993D01*
X3297Y1993D02*
X3345Y1993D01*
X3397Y1993D02*
X3445Y1993D01*
X3497Y1993D02*
X3545Y1993D01*
X3597Y1993D02*
X3645Y1993D01*
X3697Y1993D02*
X3745Y1993D01*
X3797Y1993D02*
X3845Y1993D01*
X3897Y1993D02*
X3945Y1993D01*
X3997Y1993D02*
X4045Y1993D01*
X4097Y1993D02*
X4145Y1993D01*
X4197Y1993D02*
X4245Y1993D01*
X4298Y1993D02*
X4346Y1993D01*
X4397Y1993D02*
X4446Y1993D01*
X4497Y1993D02*
X4545Y1993D01*
X4597Y1993D02*
X4645Y1993D01*
X3196Y1992D02*
X3247Y1992D01*
X3296Y1992D02*
X3347Y1992D01*
X3396Y1992D02*
X3447Y1992D01*
X3496Y1992D02*
X3547Y1992D01*
X3596Y1992D02*
X3647Y1992D01*
X3696Y1992D02*
X3747Y1992D01*
X3796Y1992D02*
X3847Y1992D01*
X3896Y1992D02*
X3947Y1992D01*
X3996Y1992D02*
X4047Y1992D01*
X4096Y1992D02*
X4147Y1992D01*
X4196Y1992D02*
X4246Y1992D01*
X4296Y1992D02*
X4347Y1992D01*
X4396Y1992D02*
X4447Y1992D01*
X4496Y1992D02*
X4547Y1992D01*
X4596Y1992D02*
X4646Y1992D01*
X3195Y1991D02*
X3248Y1991D01*
X3295Y1991D02*
X3348Y1991D01*
X3395Y1991D02*
X3448Y1991D01*
X3495Y1991D02*
X3548Y1991D01*
X3595Y1991D02*
X3648Y1991D01*
X3695Y1991D02*
X3748Y1991D01*
X3795Y1991D02*
X3848Y1991D01*
X3895Y1991D02*
X3948Y1991D01*
X3995Y1991D02*
X4048Y1991D01*
X4095Y1991D02*
X4148Y1991D01*
X4195Y1991D02*
X4248Y1991D01*
X4295Y1991D02*
X4348Y1991D01*
X4395Y1991D02*
X4448Y1991D01*
X4495Y1991D02*
X4548Y1991D01*
X4595Y1991D02*
X4648Y1991D01*
X3194Y1990D02*
X3249Y1990D01*
X3294Y1990D02*
X3349Y1990D01*
X3394Y1990D02*
X3449Y1990D01*
X3494Y1990D02*
X3549Y1990D01*
X3594Y1990D02*
X3649Y1990D01*
X3694Y1990D02*
X3749Y1990D01*
X3794Y1990D02*
X3849Y1990D01*
X3894Y1990D02*
X3949Y1990D01*
X3994Y1990D02*
X4049Y1990D01*
X4094Y1990D02*
X4149Y1990D01*
X4194Y1990D02*
X4249Y1990D01*
X4294Y1990D02*
X4349Y1990D01*
X4394Y1990D02*
X4449Y1990D01*
X4494Y1990D02*
X4549Y1990D01*
X4594Y1990D02*
X4649Y1990D01*
X3193Y1989D02*
X3250Y1989D01*
X3293Y1989D02*
X3350Y1989D01*
X3393Y1989D02*
X3450Y1989D01*
X3493Y1989D02*
X3550Y1989D01*
X3593Y1989D02*
X3650Y1989D01*
X3693Y1989D02*
X3750Y1989D01*
X3793Y1989D02*
X3850Y1989D01*
X3893Y1989D02*
X3950Y1989D01*
X3993Y1989D02*
X4050Y1989D01*
X4093Y1989D02*
X4150Y1989D01*
X4193Y1989D02*
X4250Y1989D01*
X4293Y1989D02*
X4350Y1989D01*
X4393Y1989D02*
X4450Y1989D01*
X4493Y1989D02*
X4550Y1989D01*
X4593Y1989D02*
X4649Y1989D01*
X3192Y1988D02*
X3251Y1988D01*
X3292Y1988D02*
X3351Y1988D01*
X3392Y1988D02*
X3451Y1988D01*
X3492Y1988D02*
X3551Y1988D01*
X3592Y1988D02*
X3650Y1988D01*
X3692Y1988D02*
X3750Y1988D01*
X3792Y1988D02*
X3850Y1988D01*
X3892Y1988D02*
X3950Y1988D01*
X3992Y1988D02*
X4050Y1988D01*
X4092Y1988D02*
X4150Y1988D01*
X4192Y1988D02*
X4250Y1988D01*
X4293Y1988D02*
X4351Y1988D01*
X4392Y1988D02*
X4451Y1988D01*
X4492Y1988D02*
X4551Y1988D01*
X4592Y1988D02*
X4650Y1988D01*
X3191Y1987D02*
X3251Y1987D01*
X3291Y1987D02*
X3351Y1987D01*
X3391Y1987D02*
X3451Y1987D01*
X3491Y1987D02*
X3551Y1987D01*
X3591Y1987D02*
X3651Y1987D01*
X3691Y1987D02*
X3751Y1987D01*
X3791Y1987D02*
X3851Y1987D01*
X3891Y1987D02*
X3951Y1987D01*
X3991Y1987D02*
X4051Y1987D01*
X4091Y1987D02*
X4151Y1987D01*
X4191Y1987D02*
X4251Y1987D01*
X4292Y1987D02*
X4352Y1987D01*
X4392Y1987D02*
X4451Y1987D01*
X4491Y1987D02*
X4551Y1987D01*
X4591Y1987D02*
X4651Y1987D01*
X3191Y1986D02*
X3252Y1986D01*
X3291Y1986D02*
X3352Y1986D01*
X3391Y1986D02*
X3452Y1986D01*
X3491Y1986D02*
X3552Y1986D01*
X3591Y1986D02*
X3652Y1986D01*
X3691Y1986D02*
X3752Y1986D01*
X3791Y1986D02*
X3852Y1986D01*
X3891Y1986D02*
X3952Y1986D01*
X3991Y1986D02*
X4052Y1986D01*
X4091Y1986D02*
X4152Y1986D01*
X4191Y1986D02*
X4252Y1986D01*
X4291Y1986D02*
X4352Y1986D01*
X4391Y1986D02*
X4452Y1986D01*
X4491Y1986D02*
X4552Y1986D01*
X4591Y1986D02*
X4652Y1986D01*
X3190Y1985D02*
X3253Y1985D01*
X3290Y1985D02*
X3353Y1985D01*
X3390Y1985D02*
X3453Y1985D01*
X3490Y1985D02*
X3553Y1985D01*
X3590Y1985D02*
X3653Y1985D01*
X3690Y1985D02*
X3753Y1985D01*
X3790Y1985D02*
X3853Y1985D01*
X3890Y1985D02*
X3953Y1985D01*
X3990Y1985D02*
X4053Y1985D01*
X4090Y1985D02*
X4153Y1985D01*
X4190Y1985D02*
X4253Y1985D01*
X4290Y1985D02*
X4353Y1985D01*
X4390Y1985D02*
X4453Y1985D01*
X4490Y1985D02*
X4553Y1985D01*
X4590Y1985D02*
X4653Y1985D01*
X3189Y1984D02*
X3253Y1984D01*
X3289Y1984D02*
X3353Y1984D01*
X3389Y1984D02*
X3453Y1984D01*
X3489Y1984D02*
X3553Y1984D01*
X3589Y1984D02*
X3653Y1984D01*
X3689Y1984D02*
X3753Y1984D01*
X3789Y1984D02*
X3853Y1984D01*
X3889Y1984D02*
X3953Y1984D01*
X3989Y1984D02*
X4053Y1984D01*
X4089Y1984D02*
X4153Y1984D01*
X4189Y1984D02*
X4253Y1984D01*
X4290Y1984D02*
X4354Y1984D01*
X4390Y1984D02*
X4454Y1984D01*
X4489Y1984D02*
X4553Y1984D01*
X4589Y1984D02*
X4653Y1984D01*
X3189Y1983D02*
X3254Y1983D01*
X3289Y1983D02*
X3354Y1983D01*
X3389Y1983D02*
X3454Y1983D01*
X3489Y1983D02*
X3554Y1983D01*
X3589Y1983D02*
X3654Y1983D01*
X3689Y1983D02*
X3754Y1983D01*
X3789Y1983D02*
X3854Y1983D01*
X3889Y1983D02*
X3954Y1983D01*
X3989Y1983D02*
X4054Y1983D01*
X4089Y1983D02*
X4154Y1983D01*
X4189Y1983D02*
X4254Y1983D01*
X4289Y1983D02*
X4354Y1983D01*
X4389Y1983D02*
X4454Y1983D01*
X4489Y1983D02*
X4554Y1983D01*
X4589Y1983D02*
X4654Y1983D01*
X3188Y1982D02*
X3255Y1982D01*
X3288Y1982D02*
X3355Y1982D01*
X3388Y1982D02*
X3455Y1982D01*
X3488Y1982D02*
X3555Y1982D01*
X3588Y1982D02*
X3655Y1982D01*
X3688Y1982D02*
X3755Y1982D01*
X3788Y1982D02*
X3855Y1982D01*
X3888Y1982D02*
X3954Y1982D01*
X3988Y1982D02*
X4054Y1982D01*
X4088Y1982D02*
X4154Y1982D01*
X4188Y1982D02*
X4254Y1982D01*
X4289Y1982D02*
X4355Y1982D01*
X4388Y1982D02*
X4455Y1982D01*
X4488Y1982D02*
X4555Y1982D01*
X4588Y1982D02*
X4654Y1982D01*
X3188Y1981D02*
X3215Y1981D01*
X3228Y1981D02*
X3255Y1981D01*
X3288Y1981D02*
X3315Y1981D01*
X3328Y1981D02*
X3355Y1981D01*
X3388Y1981D02*
X3415Y1981D01*
X3428Y1981D02*
X3455Y1981D01*
X3488Y1981D02*
X3515Y1981D01*
X3528Y1981D02*
X3555Y1981D01*
X3588Y1981D02*
X3615Y1981D01*
X3628Y1981D02*
X3655Y1981D01*
X3688Y1981D02*
X3715Y1981D01*
X3728Y1981D02*
X3755Y1981D01*
X3788Y1981D02*
X3815Y1981D01*
X3828Y1981D02*
X3855Y1981D01*
X3888Y1981D02*
X3915Y1981D01*
X3928Y1981D02*
X3955Y1981D01*
X3988Y1981D02*
X4015Y1981D01*
X4028Y1981D02*
X4055Y1981D01*
X4088Y1981D02*
X4115Y1981D01*
X4128Y1981D02*
X4155Y1981D01*
X4188Y1981D02*
X4215Y1981D01*
X4228Y1981D02*
X4255Y1981D01*
X4288Y1981D02*
X4315Y1981D01*
X4328Y1981D02*
X4355Y1981D01*
X4388Y1981D02*
X4415Y1981D01*
X4428Y1981D02*
X4455Y1981D01*
X4488Y1981D02*
X4515Y1981D01*
X4528Y1981D02*
X4555Y1981D01*
X4587Y1981D02*
X4615Y1981D01*
X4628Y1981D02*
X4655Y1981D01*
X3187Y1980D02*
X3213Y1980D01*
X3230Y1980D02*
X3256Y1980D01*
X3287Y1980D02*
X3312Y1980D01*
X3330Y1980D02*
X3356Y1980D01*
X3387Y1980D02*
X3412Y1980D01*
X3430Y1980D02*
X3456Y1980D01*
X3487Y1980D02*
X3512Y1980D01*
X3530Y1980D02*
X3556Y1980D01*
X3587Y1980D02*
X3612Y1980D01*
X3630Y1980D02*
X3656Y1980D01*
X3687Y1980D02*
X3712Y1980D01*
X3730Y1980D02*
X3756Y1980D01*
X3787Y1980D02*
X3812Y1980D01*
X3830Y1980D02*
X3856Y1980D01*
X3887Y1980D02*
X3912Y1980D01*
X3930Y1980D02*
X3956Y1980D01*
X3987Y1980D02*
X4012Y1980D01*
X4030Y1980D02*
X4055Y1980D01*
X4087Y1980D02*
X4112Y1980D01*
X4130Y1980D02*
X4155Y1980D01*
X4187Y1980D02*
X4212Y1980D01*
X4230Y1980D02*
X4255Y1980D01*
X4287Y1980D02*
X4313Y1980D01*
X4331Y1980D02*
X4356Y1980D01*
X4387Y1980D02*
X4413Y1980D01*
X4430Y1980D02*
X4456Y1980D01*
X4487Y1980D02*
X4513Y1980D01*
X4530Y1980D02*
X4556Y1980D01*
X4587Y1980D02*
X4612Y1980D01*
X4630Y1980D02*
X4655Y1980D01*
X3187Y1979D02*
X3211Y1979D01*
X3232Y1979D02*
X3256Y1979D01*
X3287Y1979D02*
X3311Y1979D01*
X3332Y1979D02*
X3356Y1979D01*
X3387Y1979D02*
X3411Y1979D01*
X3432Y1979D02*
X3456Y1979D01*
X3487Y1979D02*
X3511Y1979D01*
X3532Y1979D02*
X3556Y1979D01*
X3587Y1979D02*
X3611Y1979D01*
X3632Y1979D02*
X3656Y1979D01*
X3687Y1979D02*
X3711Y1979D01*
X3732Y1979D02*
X3756Y1979D01*
X3787Y1979D02*
X3811Y1979D01*
X3832Y1979D02*
X3856Y1979D01*
X3887Y1979D02*
X3911Y1979D01*
X3932Y1979D02*
X3956Y1979D01*
X3987Y1979D02*
X4011Y1979D01*
X4032Y1979D02*
X4056Y1979D01*
X4087Y1979D02*
X4111Y1979D01*
X4132Y1979D02*
X4156Y1979D01*
X4187Y1979D02*
X4211Y1979D01*
X4232Y1979D02*
X4256Y1979D01*
X4287Y1979D02*
X4311Y1979D01*
X4332Y1979D02*
X4356Y1979D01*
X4387Y1979D02*
X4411Y1979D01*
X4432Y1979D02*
X4456Y1979D01*
X4487Y1979D02*
X4511Y1979D01*
X4532Y1979D02*
X4556Y1979D01*
X4587Y1979D02*
X4611Y1979D01*
X4632Y1979D02*
X4656Y1979D01*
X3186Y1978D02*
X3209Y1978D01*
X3233Y1978D02*
X3257Y1978D01*
X3286Y1978D02*
X3309Y1978D01*
X3333Y1978D02*
X3357Y1978D01*
X3386Y1978D02*
X3409Y1978D01*
X3433Y1978D02*
X3457Y1978D01*
X3486Y1978D02*
X3509Y1978D01*
X3533Y1978D02*
X3557Y1978D01*
X3586Y1978D02*
X3609Y1978D01*
X3633Y1978D02*
X3656Y1978D01*
X3686Y1978D02*
X3709Y1978D01*
X3733Y1978D02*
X3756Y1978D01*
X3786Y1978D02*
X3809Y1978D01*
X3833Y1978D02*
X3856Y1978D01*
X3886Y1978D02*
X3909Y1978D01*
X3933Y1978D02*
X3956Y1978D01*
X3986Y1978D02*
X4009Y1978D01*
X4033Y1978D02*
X4056Y1978D01*
X4086Y1978D02*
X4109Y1978D01*
X4133Y1978D02*
X4156Y1978D01*
X4186Y1978D02*
X4209Y1978D01*
X4233Y1978D02*
X4256Y1978D01*
X4287Y1978D02*
X4310Y1978D01*
X4334Y1978D02*
X4357Y1978D01*
X4386Y1978D02*
X4410Y1978D01*
X4433Y1978D02*
X4457Y1978D01*
X4486Y1978D02*
X4509Y1978D01*
X4533Y1978D02*
X4557Y1978D01*
X4586Y1978D02*
X4609Y1978D01*
X4633Y1978D02*
X4656Y1978D01*
X3186Y1977D02*
X3208Y1977D01*
X3234Y1977D02*
X3257Y1977D01*
X3286Y1977D02*
X3308Y1977D01*
X3334Y1977D02*
X3357Y1977D01*
X3386Y1977D02*
X3408Y1977D01*
X3434Y1977D02*
X3457Y1977D01*
X3486Y1977D02*
X3508Y1977D01*
X3534Y1977D02*
X3557Y1977D01*
X3586Y1977D02*
X3608Y1977D01*
X3634Y1977D02*
X3657Y1977D01*
X3686Y1977D02*
X3708Y1977D01*
X3734Y1977D02*
X3757Y1977D01*
X3786Y1977D02*
X3808Y1977D01*
X3834Y1977D02*
X3857Y1977D01*
X3886Y1977D02*
X3908Y1977D01*
X3934Y1977D02*
X3957Y1977D01*
X3986Y1977D02*
X4008Y1977D01*
X4034Y1977D02*
X4057Y1977D01*
X4086Y1977D02*
X4108Y1977D01*
X4134Y1977D02*
X4157Y1977D01*
X4186Y1977D02*
X4208Y1977D01*
X4234Y1977D02*
X4257Y1977D01*
X4286Y1977D02*
X4309Y1977D01*
X4335Y1977D02*
X4357Y1977D01*
X4386Y1977D02*
X4408Y1977D01*
X4435Y1977D02*
X4457Y1977D01*
X4486Y1977D02*
X4508Y1977D01*
X4534Y1977D02*
X4557Y1977D01*
X4586Y1977D02*
X4608Y1977D01*
X4634Y1977D02*
X4657Y1977D01*
X3185Y1976D02*
X3207Y1976D01*
X3236Y1976D02*
X3257Y1976D01*
X3285Y1976D02*
X3307Y1976D01*
X3336Y1976D02*
X3357Y1976D01*
X3385Y1976D02*
X3407Y1976D01*
X3436Y1976D02*
X3457Y1976D01*
X3485Y1976D02*
X3507Y1976D01*
X3535Y1976D02*
X3557Y1976D01*
X3585Y1976D02*
X3607Y1976D01*
X3635Y1976D02*
X3657Y1976D01*
X3685Y1976D02*
X3707Y1976D01*
X3735Y1976D02*
X3757Y1976D01*
X3785Y1976D02*
X3807Y1976D01*
X3835Y1976D02*
X3857Y1976D01*
X3885Y1976D02*
X3907Y1976D01*
X3935Y1976D02*
X3957Y1976D01*
X3985Y1976D02*
X4007Y1976D01*
X4035Y1976D02*
X4057Y1976D01*
X4085Y1976D02*
X4107Y1976D01*
X4135Y1976D02*
X4157Y1976D01*
X4185Y1976D02*
X4207Y1976D01*
X4235Y1976D02*
X4257Y1976D01*
X4286Y1976D02*
X4308Y1976D01*
X4336Y1976D02*
X4358Y1976D01*
X4386Y1976D02*
X4407Y1976D01*
X4436Y1976D02*
X4457Y1976D01*
X4485Y1976D02*
X4507Y1976D01*
X4536Y1976D02*
X4557Y1976D01*
X4585Y1976D02*
X4607Y1976D01*
X4635Y1976D02*
X4657Y1976D01*
X3185Y1975D02*
X3206Y1975D01*
X3236Y1975D02*
X3258Y1975D01*
X3285Y1975D02*
X3306Y1975D01*
X3336Y1975D02*
X3358Y1975D01*
X3385Y1975D02*
X3406Y1975D01*
X3436Y1975D02*
X3458Y1975D01*
X3485Y1975D02*
X3506Y1975D01*
X3536Y1975D02*
X3558Y1975D01*
X3585Y1975D02*
X3606Y1975D01*
X3636Y1975D02*
X3658Y1975D01*
X3685Y1975D02*
X3706Y1975D01*
X3736Y1975D02*
X3758Y1975D01*
X3785Y1975D02*
X3806Y1975D01*
X3836Y1975D02*
X3858Y1975D01*
X3885Y1975D02*
X3906Y1975D01*
X3936Y1975D02*
X3958Y1975D01*
X3985Y1975D02*
X4006Y1975D01*
X4036Y1975D02*
X4058Y1975D01*
X4085Y1975D02*
X4106Y1975D01*
X4136Y1975D02*
X4158Y1975D01*
X4185Y1975D02*
X4206Y1975D01*
X4236Y1975D02*
X4258Y1975D01*
X4285Y1975D02*
X4307Y1975D01*
X4337Y1975D02*
X4358Y1975D01*
X4385Y1975D02*
X4407Y1975D01*
X4437Y1975D02*
X4458Y1975D01*
X4485Y1975D02*
X4506Y1975D01*
X4536Y1975D02*
X4558Y1975D01*
X4585Y1975D02*
X4606Y1975D01*
X4636Y1975D02*
X4657Y1975D01*
X3185Y1974D02*
X3206Y1974D01*
X3237Y1974D02*
X3258Y1974D01*
X3285Y1974D02*
X3305Y1974D01*
X3337Y1974D02*
X3358Y1974D01*
X3385Y1974D02*
X3405Y1974D01*
X3437Y1974D02*
X3458Y1974D01*
X3485Y1974D02*
X3505Y1974D01*
X3537Y1974D02*
X3558Y1974D01*
X3585Y1974D02*
X3605Y1974D01*
X3637Y1974D02*
X3658Y1974D01*
X3685Y1974D02*
X3705Y1974D01*
X3737Y1974D02*
X3758Y1974D01*
X3785Y1974D02*
X3805Y1974D01*
X3837Y1974D02*
X3858Y1974D01*
X3885Y1974D02*
X3905Y1974D01*
X3937Y1974D02*
X3958Y1974D01*
X3985Y1974D02*
X4005Y1974D01*
X4037Y1974D02*
X4058Y1974D01*
X4085Y1974D02*
X4105Y1974D01*
X4137Y1974D02*
X4158Y1974D01*
X4185Y1974D02*
X4205Y1974D01*
X4237Y1974D02*
X4258Y1974D01*
X4285Y1974D02*
X4306Y1974D01*
X4338Y1974D02*
X4358Y1974D01*
X4385Y1974D02*
X4406Y1974D01*
X4437Y1974D02*
X4458Y1974D01*
X4485Y1974D02*
X4506Y1974D01*
X4537Y1974D02*
X4558Y1974D01*
X4585Y1974D02*
X4605Y1974D01*
X4637Y1974D02*
X4658Y1974D01*
X3184Y1973D02*
X3205Y1973D01*
X3238Y1973D02*
X3258Y1973D01*
X3284Y1973D02*
X3305Y1973D01*
X3338Y1973D02*
X3358Y1973D01*
X3384Y1973D02*
X3405Y1973D01*
X3438Y1973D02*
X3458Y1973D01*
X3484Y1973D02*
X3505Y1973D01*
X3538Y1973D02*
X3558Y1973D01*
X3584Y1973D02*
X3605Y1973D01*
X3638Y1973D02*
X3658Y1973D01*
X3684Y1973D02*
X3705Y1973D01*
X3738Y1973D02*
X3758Y1973D01*
X3784Y1973D02*
X3805Y1973D01*
X3838Y1973D02*
X3858Y1973D01*
X3884Y1973D02*
X3905Y1973D01*
X3938Y1973D02*
X3958Y1973D01*
X3984Y1973D02*
X4005Y1973D01*
X4038Y1973D02*
X4058Y1973D01*
X4084Y1973D02*
X4105Y1973D01*
X4138Y1973D02*
X4158Y1973D01*
X4184Y1973D02*
X4205Y1973D01*
X4238Y1973D02*
X4258Y1973D01*
X4285Y1973D02*
X4305Y1973D01*
X4338Y1973D02*
X4359Y1973D01*
X4385Y1973D02*
X4405Y1973D01*
X4438Y1973D02*
X4458Y1973D01*
X4484Y1973D02*
X4505Y1973D01*
X4538Y1973D02*
X4558Y1973D01*
X4584Y1973D02*
X4605Y1973D01*
X4638Y1973D02*
X4658Y1973D01*
X3184Y1972D02*
X3204Y1972D01*
X3239Y1972D02*
X3259Y1972D01*
X3284Y1972D02*
X3304Y1972D01*
X3339Y1972D02*
X3359Y1972D01*
X3384Y1972D02*
X3404Y1972D01*
X3439Y1972D02*
X3459Y1972D01*
X3484Y1972D02*
X3504Y1972D01*
X3539Y1972D02*
X3559Y1972D01*
X3584Y1972D02*
X3604Y1972D01*
X3639Y1972D02*
X3659Y1972D01*
X3684Y1972D02*
X3704Y1972D01*
X3739Y1972D02*
X3758Y1972D01*
X3784Y1972D02*
X3804Y1972D01*
X3839Y1972D02*
X3858Y1972D01*
X3884Y1972D02*
X3904Y1972D01*
X3939Y1972D02*
X3958Y1972D01*
X3984Y1972D02*
X4004Y1972D01*
X4038Y1972D02*
X4058Y1972D01*
X4084Y1972D02*
X4104Y1972D01*
X4138Y1972D02*
X4158Y1972D01*
X4184Y1972D02*
X4204Y1972D01*
X4238Y1972D02*
X4258Y1972D01*
X4285Y1972D02*
X4304Y1972D01*
X4339Y1972D02*
X4359Y1972D01*
X4384Y1972D02*
X4404Y1972D01*
X4439Y1972D02*
X4459Y1972D01*
X4484Y1972D02*
X4504Y1972D01*
X4539Y1972D02*
X4559Y1972D01*
X4584Y1972D02*
X4604Y1972D01*
X4638Y1972D02*
X4658Y1972D01*
X3184Y1971D02*
X3204Y1971D01*
X3239Y1971D02*
X3259Y1971D01*
X3284Y1971D02*
X3304Y1971D01*
X3339Y1971D02*
X3359Y1971D01*
X3384Y1971D02*
X3404Y1971D01*
X3439Y1971D02*
X3459Y1971D01*
X3484Y1971D02*
X3504Y1971D01*
X3539Y1971D02*
X3559Y1971D01*
X3584Y1971D02*
X3604Y1971D01*
X3639Y1971D02*
X3659Y1971D01*
X3684Y1971D02*
X3704Y1971D01*
X3739Y1971D02*
X3759Y1971D01*
X3784Y1971D02*
X3804Y1971D01*
X3839Y1971D02*
X3859Y1971D01*
X3884Y1971D02*
X3904Y1971D01*
X3939Y1971D02*
X3959Y1971D01*
X3984Y1971D02*
X4004Y1971D01*
X4039Y1971D02*
X4059Y1971D01*
X4084Y1971D02*
X4103Y1971D01*
X4139Y1971D02*
X4159Y1971D01*
X4184Y1971D02*
X4203Y1971D01*
X4239Y1971D02*
X4259Y1971D01*
X4284Y1971D02*
X4304Y1971D01*
X4339Y1971D02*
X4359Y1971D01*
X4384Y1971D02*
X4404Y1971D01*
X4439Y1971D02*
X4459Y1971D01*
X4484Y1971D02*
X4504Y1971D01*
X4539Y1971D02*
X4559Y1971D01*
X4584Y1971D02*
X4603Y1971D01*
X4639Y1971D02*
X4659Y1971D01*
X3184Y1970D02*
X3203Y1970D01*
X3240Y1970D02*
X3259Y1970D01*
X3284Y1970D02*
X3303Y1970D01*
X3340Y1970D02*
X3359Y1970D01*
X3384Y1970D02*
X3403Y1970D01*
X3440Y1970D02*
X3459Y1970D01*
X3484Y1970D02*
X3503Y1970D01*
X3540Y1970D02*
X3559Y1970D01*
X3584Y1970D02*
X3603Y1970D01*
X3640Y1970D02*
X3659Y1970D01*
X3684Y1970D02*
X3703Y1970D01*
X3740Y1970D02*
X3759Y1970D01*
X3784Y1970D02*
X3803Y1970D01*
X3840Y1970D02*
X3859Y1970D01*
X3884Y1970D02*
X3903Y1970D01*
X3940Y1970D02*
X3959Y1970D01*
X3984Y1970D02*
X4003Y1970D01*
X4040Y1970D02*
X4059Y1970D01*
X4084Y1970D02*
X4103Y1970D01*
X4140Y1970D02*
X4159Y1970D01*
X4184Y1970D02*
X4203Y1970D01*
X4240Y1970D02*
X4259Y1970D01*
X4284Y1970D02*
X4303Y1970D01*
X4340Y1970D02*
X4359Y1970D01*
X4384Y1970D02*
X4403Y1970D01*
X4440Y1970D02*
X4459Y1970D01*
X4484Y1970D02*
X4503Y1970D01*
X4540Y1970D02*
X4559Y1970D01*
X4584Y1970D02*
X4603Y1970D01*
X4639Y1970D02*
X4659Y1970D01*
X3184Y1969D02*
X3203Y1969D01*
X3240Y1969D02*
X3259Y1969D01*
X3284Y1969D02*
X3303Y1969D01*
X3340Y1969D02*
X3359Y1969D01*
X3384Y1969D02*
X3403Y1969D01*
X3440Y1969D02*
X3459Y1969D01*
X3484Y1969D02*
X3503Y1969D01*
X3540Y1969D02*
X3559Y1969D01*
X3584Y1969D02*
X3603Y1969D01*
X3640Y1969D02*
X3659Y1969D01*
X3683Y1969D02*
X3703Y1969D01*
X3740Y1969D02*
X3759Y1969D01*
X3783Y1969D02*
X3803Y1969D01*
X3840Y1969D02*
X3859Y1969D01*
X3883Y1969D02*
X3903Y1969D01*
X3940Y1969D02*
X3959Y1969D01*
X3983Y1969D02*
X4003Y1969D01*
X4040Y1969D02*
X4059Y1969D01*
X4083Y1969D02*
X4103Y1969D01*
X4140Y1969D02*
X4159Y1969D01*
X4183Y1969D02*
X4203Y1969D01*
X4240Y1969D02*
X4259Y1969D01*
X4284Y1969D02*
X4303Y1969D01*
X4340Y1969D02*
X4360Y1969D01*
X4384Y1969D02*
X4403Y1969D01*
X4440Y1969D02*
X4459Y1969D01*
X4484Y1969D02*
X4503Y1969D01*
X4540Y1969D02*
X4559Y1969D01*
X4583Y1969D02*
X4603Y1969D01*
X4640Y1969D02*
X4659Y1969D01*
X3183Y1968D02*
X3203Y1968D01*
X3240Y1968D02*
X3259Y1968D01*
X3283Y1968D02*
X3303Y1968D01*
X3340Y1968D02*
X3359Y1968D01*
X3383Y1968D02*
X3403Y1968D01*
X3440Y1968D02*
X3459Y1968D01*
X3483Y1968D02*
X3503Y1968D01*
X3540Y1968D02*
X3559Y1968D01*
X3583Y1968D02*
X3602Y1968D01*
X3640Y1968D02*
X3659Y1968D01*
X3683Y1968D02*
X3702Y1968D01*
X3740Y1968D02*
X3759Y1968D01*
X3783Y1968D02*
X3802Y1968D01*
X3840Y1968D02*
X3859Y1968D01*
X3883Y1968D02*
X3902Y1968D01*
X3940Y1968D02*
X3959Y1968D01*
X3983Y1968D02*
X4002Y1968D01*
X4040Y1968D02*
X4059Y1968D01*
X4083Y1968D02*
X4102Y1968D01*
X4140Y1968D02*
X4159Y1968D01*
X4183Y1968D02*
X4202Y1968D01*
X4240Y1968D02*
X4259Y1968D01*
X4284Y1968D02*
X4303Y1968D01*
X4341Y1968D02*
X4360Y1968D01*
X4384Y1968D02*
X4403Y1968D01*
X4440Y1968D02*
X4460Y1968D01*
X4483Y1968D02*
X4503Y1968D01*
X4540Y1968D02*
X4559Y1968D01*
X4583Y1968D02*
X4602Y1968D01*
X4640Y1968D02*
X4659Y1968D01*
X3183Y1967D02*
X3202Y1967D01*
X3240Y1967D02*
X3260Y1967D01*
X3283Y1967D02*
X3302Y1967D01*
X3340Y1967D02*
X3360Y1967D01*
X3383Y1967D02*
X3402Y1967D01*
X3440Y1967D02*
X3460Y1967D01*
X3483Y1967D02*
X3502Y1967D01*
X3540Y1967D02*
X3559Y1967D01*
X3583Y1967D02*
X3602Y1967D01*
X3640Y1967D02*
X3659Y1967D01*
X3683Y1967D02*
X3702Y1967D01*
X3740Y1967D02*
X3759Y1967D01*
X3783Y1967D02*
X3802Y1967D01*
X3840Y1967D02*
X3859Y1967D01*
X3883Y1967D02*
X3902Y1967D01*
X3940Y1967D02*
X3959Y1967D01*
X3983Y1967D02*
X4002Y1967D01*
X4040Y1967D02*
X4059Y1967D01*
X4083Y1967D02*
X4102Y1967D01*
X4140Y1967D02*
X4159Y1967D01*
X4183Y1967D02*
X4202Y1967D01*
X4240Y1967D02*
X4259Y1967D01*
X4284Y1967D02*
X4303Y1967D01*
X4341Y1967D02*
X4360Y1967D01*
X4383Y1967D02*
X4402Y1967D01*
X4441Y1967D02*
X4460Y1967D01*
X4483Y1967D02*
X4502Y1967D01*
X4540Y1967D02*
X4560Y1967D01*
X4583Y1967D02*
X4602Y1967D01*
X4640Y1967D02*
X4659Y1967D01*
X3183Y1966D02*
X3202Y1966D01*
X3241Y1966D02*
X3260Y1966D01*
X3283Y1966D02*
X3302Y1966D01*
X3341Y1966D02*
X3360Y1966D01*
X3383Y1966D02*
X3402Y1966D01*
X3441Y1966D02*
X3460Y1966D01*
X3483Y1966D02*
X3502Y1966D01*
X3541Y1966D02*
X3560Y1966D01*
X3583Y1966D02*
X3602Y1966D01*
X3641Y1966D02*
X3660Y1966D01*
X3683Y1966D02*
X3702Y1966D01*
X3741Y1966D02*
X3760Y1966D01*
X3783Y1966D02*
X3802Y1966D01*
X3841Y1966D02*
X3860Y1966D01*
X3883Y1966D02*
X3902Y1966D01*
X3941Y1966D02*
X3960Y1966D01*
X3983Y1966D02*
X4002Y1966D01*
X4041Y1966D02*
X4060Y1966D01*
X4083Y1966D02*
X4102Y1966D01*
X4141Y1966D02*
X4160Y1966D01*
X4183Y1966D02*
X4202Y1966D01*
X4240Y1966D02*
X4260Y1966D01*
X4283Y1966D02*
X4302Y1966D01*
X4341Y1966D02*
X4360Y1966D01*
X4383Y1966D02*
X4402Y1966D01*
X4441Y1966D02*
X4460Y1966D01*
X4483Y1966D02*
X4502Y1966D01*
X4541Y1966D02*
X4560Y1966D01*
X4583Y1966D02*
X4602Y1966D01*
X4640Y1966D02*
X4659Y1966D01*
X3183Y1965D02*
X3202Y1965D01*
X3241Y1965D02*
X3260Y1965D01*
X3283Y1965D02*
X3302Y1965D01*
X3341Y1965D02*
X3360Y1965D01*
X3383Y1965D02*
X3402Y1965D01*
X3441Y1965D02*
X3460Y1965D01*
X3483Y1965D02*
X3502Y1965D01*
X3541Y1965D02*
X3560Y1965D01*
X3583Y1965D02*
X3602Y1965D01*
X3641Y1965D02*
X3660Y1965D01*
X3683Y1965D02*
X3702Y1965D01*
X3741Y1965D02*
X3760Y1965D01*
X3783Y1965D02*
X3802Y1965D01*
X3841Y1965D02*
X3860Y1965D01*
X3883Y1965D02*
X3902Y1965D01*
X3941Y1965D02*
X3960Y1965D01*
X3983Y1965D02*
X4002Y1965D01*
X4041Y1965D02*
X4060Y1965D01*
X4083Y1965D02*
X4102Y1965D01*
X4141Y1965D02*
X4160Y1965D01*
X4183Y1965D02*
X4202Y1965D01*
X4241Y1965D02*
X4260Y1965D01*
X4283Y1965D02*
X4302Y1965D01*
X4341Y1965D02*
X4360Y1965D01*
X4383Y1965D02*
X4402Y1965D01*
X4441Y1965D02*
X4460Y1965D01*
X4483Y1965D02*
X4502Y1965D01*
X4541Y1965D02*
X4560Y1965D01*
X4583Y1965D02*
X4602Y1965D01*
X4641Y1965D02*
X4660Y1965D01*
X3183Y1964D02*
X3202Y1964D01*
X3241Y1964D02*
X3260Y1964D01*
X3283Y1964D02*
X3302Y1964D01*
X3341Y1964D02*
X3360Y1964D01*
X3383Y1964D02*
X3402Y1964D01*
X3441Y1964D02*
X3460Y1964D01*
X3483Y1964D02*
X3502Y1964D01*
X3541Y1964D02*
X3560Y1964D01*
X3583Y1964D02*
X3602Y1964D01*
X3641Y1964D02*
X3660Y1964D01*
X3683Y1964D02*
X3702Y1964D01*
X3741Y1964D02*
X3760Y1964D01*
X3783Y1964D02*
X3802Y1964D01*
X3841Y1964D02*
X3860Y1964D01*
X3883Y1964D02*
X3902Y1964D01*
X3941Y1964D02*
X3960Y1964D01*
X3983Y1964D02*
X4002Y1964D01*
X4041Y1964D02*
X4060Y1964D01*
X4083Y1964D02*
X4102Y1964D01*
X4141Y1964D02*
X4160Y1964D01*
X4183Y1964D02*
X4202Y1964D01*
X4241Y1964D02*
X4260Y1964D01*
X4283Y1964D02*
X4302Y1964D01*
X4341Y1964D02*
X4360Y1964D01*
X4383Y1964D02*
X4402Y1964D01*
X4441Y1964D02*
X4460Y1964D01*
X4483Y1964D02*
X4502Y1964D01*
X4541Y1964D02*
X4560Y1964D01*
X4583Y1964D02*
X4602Y1964D01*
X4641Y1964D02*
X4660Y1964D01*
X3183Y1963D02*
X3202Y1963D01*
X3241Y1963D02*
X3260Y1963D01*
X3283Y1963D02*
X3302Y1963D01*
X3341Y1963D02*
X3360Y1963D01*
X3383Y1963D02*
X3402Y1963D01*
X3441Y1963D02*
X3460Y1963D01*
X3483Y1963D02*
X3502Y1963D01*
X3541Y1963D02*
X3560Y1963D01*
X3583Y1963D02*
X3602Y1963D01*
X3641Y1963D02*
X3660Y1963D01*
X3683Y1963D02*
X3702Y1963D01*
X3741Y1963D02*
X3760Y1963D01*
X3783Y1963D02*
X3802Y1963D01*
X3841Y1963D02*
X3860Y1963D01*
X3883Y1963D02*
X3902Y1963D01*
X3941Y1963D02*
X3960Y1963D01*
X3983Y1963D02*
X4002Y1963D01*
X4041Y1963D02*
X4060Y1963D01*
X4083Y1963D02*
X4102Y1963D01*
X4141Y1963D02*
X4160Y1963D01*
X4183Y1963D02*
X4202Y1963D01*
X4241Y1963D02*
X4260Y1963D01*
X4283Y1963D02*
X4302Y1963D01*
X4341Y1963D02*
X4360Y1963D01*
X4383Y1963D02*
X4402Y1963D01*
X4441Y1963D02*
X4460Y1963D01*
X4483Y1963D02*
X4502Y1963D01*
X4541Y1963D02*
X4560Y1963D01*
X4583Y1963D02*
X4602Y1963D01*
X4641Y1963D02*
X4660Y1963D01*
X3183Y1962D02*
X3202Y1962D01*
X3241Y1962D02*
X3260Y1962D01*
X3283Y1962D02*
X3302Y1962D01*
X3341Y1962D02*
X3360Y1962D01*
X3383Y1962D02*
X3402Y1962D01*
X3441Y1962D02*
X3460Y1962D01*
X3483Y1962D02*
X3502Y1962D01*
X3541Y1962D02*
X3560Y1962D01*
X3583Y1962D02*
X3602Y1962D01*
X3641Y1962D02*
X3660Y1962D01*
X3683Y1962D02*
X3702Y1962D01*
X3741Y1962D02*
X3760Y1962D01*
X3783Y1962D02*
X3802Y1962D01*
X3841Y1962D02*
X3860Y1962D01*
X3883Y1962D02*
X3902Y1962D01*
X3941Y1962D02*
X3960Y1962D01*
X3983Y1962D02*
X4002Y1962D01*
X4041Y1962D02*
X4060Y1962D01*
X4083Y1962D02*
X4102Y1962D01*
X4141Y1962D02*
X4160Y1962D01*
X4183Y1962D02*
X4202Y1962D01*
X4241Y1962D02*
X4260Y1962D01*
X4283Y1962D02*
X4302Y1962D01*
X4341Y1962D02*
X4360Y1962D01*
X4383Y1962D02*
X4402Y1962D01*
X4441Y1962D02*
X4460Y1962D01*
X4483Y1962D02*
X4502Y1962D01*
X4541Y1962D02*
X4560Y1962D01*
X4583Y1962D02*
X4602Y1962D01*
X4641Y1962D02*
X4660Y1962D01*
X3183Y1961D02*
X3202Y1961D01*
X3241Y1961D02*
X3260Y1961D01*
X3283Y1961D02*
X3302Y1961D01*
X3341Y1961D02*
X3360Y1961D01*
X3383Y1961D02*
X3402Y1961D01*
X3441Y1961D02*
X3460Y1961D01*
X3483Y1961D02*
X3502Y1961D01*
X3541Y1961D02*
X3560Y1961D01*
X3583Y1961D02*
X3602Y1961D01*
X3641Y1961D02*
X3660Y1961D01*
X3683Y1961D02*
X3702Y1961D01*
X3741Y1961D02*
X3760Y1961D01*
X3783Y1961D02*
X3802Y1961D01*
X3841Y1961D02*
X3860Y1961D01*
X3883Y1961D02*
X3902Y1961D01*
X3941Y1961D02*
X3960Y1961D01*
X3983Y1961D02*
X4002Y1961D01*
X4041Y1961D02*
X4060Y1961D01*
X4083Y1961D02*
X4102Y1961D01*
X4141Y1961D02*
X4160Y1961D01*
X4183Y1961D02*
X4202Y1961D01*
X4241Y1961D02*
X4260Y1961D01*
X4283Y1961D02*
X4302Y1961D01*
X4341Y1961D02*
X4360Y1961D01*
X4383Y1961D02*
X4402Y1961D01*
X4441Y1961D02*
X4460Y1961D01*
X4483Y1961D02*
X4502Y1961D01*
X4541Y1961D02*
X4560Y1961D01*
X4583Y1961D02*
X4602Y1961D01*
X4641Y1961D02*
X4660Y1961D01*
X3183Y1960D02*
X3202Y1960D01*
X3241Y1960D02*
X3260Y1960D01*
X3283Y1960D02*
X3302Y1960D01*
X3341Y1960D02*
X3360Y1960D01*
X3383Y1960D02*
X3402Y1960D01*
X3441Y1960D02*
X3460Y1960D01*
X3483Y1960D02*
X3502Y1960D01*
X3541Y1960D02*
X3560Y1960D01*
X3583Y1960D02*
X3602Y1960D01*
X3641Y1960D02*
X3660Y1960D01*
X3683Y1960D02*
X3702Y1960D01*
X3741Y1960D02*
X3760Y1960D01*
X3783Y1960D02*
X3802Y1960D01*
X3841Y1960D02*
X3860Y1960D01*
X3883Y1960D02*
X3902Y1960D01*
X3941Y1960D02*
X3960Y1960D01*
X3983Y1960D02*
X4002Y1960D01*
X4041Y1960D02*
X4060Y1960D01*
X4083Y1960D02*
X4102Y1960D01*
X4141Y1960D02*
X4160Y1960D01*
X4183Y1960D02*
X4202Y1960D01*
X4241Y1960D02*
X4260Y1960D01*
X4283Y1960D02*
X4302Y1960D01*
X4341Y1960D02*
X4360Y1960D01*
X4383Y1960D02*
X4402Y1960D01*
X4441Y1960D02*
X4460Y1960D01*
X4483Y1960D02*
X4502Y1960D01*
X4541Y1960D02*
X4560Y1960D01*
X4583Y1960D02*
X4602Y1960D01*
X4640Y1960D02*
X4659Y1960D01*
X3183Y1959D02*
X3202Y1959D01*
X3241Y1959D02*
X3260Y1959D01*
X3283Y1959D02*
X3302Y1959D01*
X3341Y1959D02*
X3360Y1959D01*
X3383Y1959D02*
X3402Y1959D01*
X3441Y1959D02*
X3460Y1959D01*
X3483Y1959D02*
X3502Y1959D01*
X3540Y1959D02*
X3560Y1959D01*
X3583Y1959D02*
X3602Y1959D01*
X3640Y1959D02*
X3660Y1959D01*
X3683Y1959D02*
X3702Y1959D01*
X3740Y1959D02*
X3760Y1959D01*
X3783Y1959D02*
X3802Y1959D01*
X3840Y1959D02*
X3859Y1959D01*
X3883Y1959D02*
X3902Y1959D01*
X3940Y1959D02*
X3959Y1959D01*
X3983Y1959D02*
X4002Y1959D01*
X4040Y1959D02*
X4059Y1959D01*
X4083Y1959D02*
X4102Y1959D01*
X4140Y1959D02*
X4159Y1959D01*
X4183Y1959D02*
X4202Y1959D01*
X4240Y1959D02*
X4259Y1959D01*
X4284Y1959D02*
X4303Y1959D01*
X4341Y1959D02*
X4360Y1959D01*
X4383Y1959D02*
X4402Y1959D01*
X4441Y1959D02*
X4460Y1959D01*
X4483Y1959D02*
X4502Y1959D01*
X4541Y1959D02*
X4560Y1959D01*
X4583Y1959D02*
X4602Y1959D01*
X4640Y1959D02*
X4659Y1959D01*
X3183Y1958D02*
X3202Y1958D01*
X3240Y1958D02*
X3259Y1958D01*
X3283Y1958D02*
X3302Y1958D01*
X3340Y1958D02*
X3359Y1958D01*
X3383Y1958D02*
X3402Y1958D01*
X3440Y1958D02*
X3459Y1958D01*
X3483Y1958D02*
X3502Y1958D01*
X3540Y1958D02*
X3559Y1958D01*
X3583Y1958D02*
X3602Y1958D01*
X3640Y1958D02*
X3659Y1958D01*
X3683Y1958D02*
X3702Y1958D01*
X3740Y1958D02*
X3759Y1958D01*
X3783Y1958D02*
X3802Y1958D01*
X3840Y1958D02*
X3859Y1958D01*
X3883Y1958D02*
X3902Y1958D01*
X3940Y1958D02*
X3959Y1958D01*
X3983Y1958D02*
X4002Y1958D01*
X4040Y1958D02*
X4059Y1958D01*
X4083Y1958D02*
X4102Y1958D01*
X4140Y1958D02*
X4159Y1958D01*
X4183Y1958D02*
X4202Y1958D01*
X4240Y1958D02*
X4259Y1958D01*
X4284Y1958D02*
X4303Y1958D01*
X4341Y1958D02*
X4360Y1958D01*
X4384Y1958D02*
X4403Y1958D01*
X4440Y1958D02*
X4460Y1958D01*
X4483Y1958D02*
X4502Y1958D01*
X4540Y1958D02*
X4559Y1958D01*
X4583Y1958D02*
X4602Y1958D01*
X4640Y1958D02*
X4659Y1958D01*
X3184Y1957D02*
X3203Y1957D01*
X3240Y1957D02*
X3259Y1957D01*
X3283Y1957D02*
X3303Y1957D01*
X3340Y1957D02*
X3359Y1957D01*
X3383Y1957D02*
X3403Y1957D01*
X3440Y1957D02*
X3459Y1957D01*
X3483Y1957D02*
X3503Y1957D01*
X3540Y1957D02*
X3559Y1957D01*
X3583Y1957D02*
X3603Y1957D01*
X3640Y1957D02*
X3659Y1957D01*
X3683Y1957D02*
X3703Y1957D01*
X3740Y1957D02*
X3759Y1957D01*
X3783Y1957D02*
X3803Y1957D01*
X3840Y1957D02*
X3859Y1957D01*
X3883Y1957D02*
X3903Y1957D01*
X3940Y1957D02*
X3959Y1957D01*
X3983Y1957D02*
X4003Y1957D01*
X4040Y1957D02*
X4059Y1957D01*
X4083Y1957D02*
X4103Y1957D01*
X4140Y1957D02*
X4159Y1957D01*
X4183Y1957D02*
X4203Y1957D01*
X4240Y1957D02*
X4259Y1957D01*
X4284Y1957D02*
X4303Y1957D01*
X4340Y1957D02*
X4360Y1957D01*
X4384Y1957D02*
X4403Y1957D01*
X4440Y1957D02*
X4459Y1957D01*
X4484Y1957D02*
X4503Y1957D01*
X4540Y1957D02*
X4559Y1957D01*
X4583Y1957D02*
X4603Y1957D01*
X4640Y1957D02*
X4659Y1957D01*
X3184Y1956D02*
X3203Y1956D01*
X3240Y1956D02*
X3259Y1956D01*
X3284Y1956D02*
X3303Y1956D01*
X3340Y1956D02*
X3359Y1956D01*
X3384Y1956D02*
X3403Y1956D01*
X3440Y1956D02*
X3459Y1956D01*
X3484Y1956D02*
X3503Y1956D01*
X3540Y1956D02*
X3559Y1956D01*
X3584Y1956D02*
X3603Y1956D01*
X3640Y1956D02*
X3659Y1956D01*
X3684Y1956D02*
X3703Y1956D01*
X3740Y1956D02*
X3759Y1956D01*
X3784Y1956D02*
X3803Y1956D01*
X3840Y1956D02*
X3859Y1956D01*
X3884Y1956D02*
X3903Y1956D01*
X3940Y1956D02*
X3959Y1956D01*
X3984Y1956D02*
X4003Y1956D01*
X4040Y1956D02*
X4059Y1956D01*
X4084Y1956D02*
X4103Y1956D01*
X4140Y1956D02*
X4159Y1956D01*
X4184Y1956D02*
X4203Y1956D01*
X4240Y1956D02*
X4259Y1956D01*
X4284Y1956D02*
X4303Y1956D01*
X4340Y1956D02*
X4359Y1956D01*
X4384Y1956D02*
X4403Y1956D01*
X4440Y1956D02*
X4459Y1956D01*
X4484Y1956D02*
X4503Y1956D01*
X4540Y1956D02*
X4559Y1956D01*
X4584Y1956D02*
X4603Y1956D01*
X4640Y1956D02*
X4659Y1956D01*
X3184Y1955D02*
X3203Y1955D01*
X3239Y1955D02*
X3259Y1955D01*
X3284Y1955D02*
X3303Y1955D01*
X3339Y1955D02*
X3359Y1955D01*
X3384Y1955D02*
X3403Y1955D01*
X3439Y1955D02*
X3459Y1955D01*
X3484Y1955D02*
X3503Y1955D01*
X3539Y1955D02*
X3559Y1955D01*
X3584Y1955D02*
X3603Y1955D01*
X3639Y1955D02*
X3659Y1955D01*
X3684Y1955D02*
X3703Y1955D01*
X3739Y1955D02*
X3759Y1955D01*
X3784Y1955D02*
X3803Y1955D01*
X3839Y1955D02*
X3859Y1955D01*
X3884Y1955D02*
X3903Y1955D01*
X3939Y1955D02*
X3959Y1955D01*
X3984Y1955D02*
X4003Y1955D01*
X4039Y1955D02*
X4059Y1955D01*
X4084Y1955D02*
X4103Y1955D01*
X4139Y1955D02*
X4159Y1955D01*
X4184Y1955D02*
X4203Y1955D01*
X4239Y1955D02*
X4259Y1955D01*
X4284Y1955D02*
X4304Y1955D01*
X4340Y1955D02*
X4359Y1955D01*
X4384Y1955D02*
X4404Y1955D01*
X4439Y1955D02*
X4459Y1955D01*
X4484Y1955D02*
X4503Y1955D01*
X4539Y1955D02*
X4559Y1955D01*
X4584Y1955D02*
X4603Y1955D01*
X4639Y1955D02*
X4659Y1955D01*
X3184Y1954D02*
X3204Y1954D01*
X3239Y1954D02*
X3259Y1954D01*
X3284Y1954D02*
X3304Y1954D01*
X3339Y1954D02*
X3359Y1954D01*
X3384Y1954D02*
X3404Y1954D01*
X3439Y1954D02*
X3459Y1954D01*
X3484Y1954D02*
X3504Y1954D01*
X3539Y1954D02*
X3559Y1954D01*
X3584Y1954D02*
X3604Y1954D01*
X3639Y1954D02*
X3659Y1954D01*
X3684Y1954D02*
X3704Y1954D01*
X3739Y1954D02*
X3759Y1954D01*
X3784Y1954D02*
X3804Y1954D01*
X3839Y1954D02*
X3859Y1954D01*
X3884Y1954D02*
X3904Y1954D01*
X3939Y1954D02*
X3959Y1954D01*
X3984Y1954D02*
X4004Y1954D01*
X4039Y1954D02*
X4059Y1954D01*
X4084Y1954D02*
X4104Y1954D01*
X4139Y1954D02*
X4158Y1954D01*
X4184Y1954D02*
X4204Y1954D01*
X4239Y1954D02*
X4258Y1954D01*
X4284Y1954D02*
X4304Y1954D01*
X4339Y1954D02*
X4359Y1954D01*
X4384Y1954D02*
X4404Y1954D01*
X4439Y1954D02*
X4459Y1954D01*
X4484Y1954D02*
X4504Y1954D01*
X4539Y1954D02*
X4559Y1954D01*
X4584Y1954D02*
X4604Y1954D01*
X4639Y1954D02*
X4658Y1954D01*
X3184Y1953D02*
X3205Y1953D01*
X3238Y1953D02*
X3258Y1953D01*
X3284Y1953D02*
X3305Y1953D01*
X3338Y1953D02*
X3358Y1953D01*
X3384Y1953D02*
X3405Y1953D01*
X3438Y1953D02*
X3458Y1953D01*
X3484Y1953D02*
X3505Y1953D01*
X3538Y1953D02*
X3558Y1953D01*
X3584Y1953D02*
X3605Y1953D01*
X3638Y1953D02*
X3658Y1953D01*
X3684Y1953D02*
X3705Y1953D01*
X3738Y1953D02*
X3758Y1953D01*
X3784Y1953D02*
X3805Y1953D01*
X3838Y1953D02*
X3858Y1953D01*
X3884Y1953D02*
X3905Y1953D01*
X3938Y1953D02*
X3958Y1953D01*
X3984Y1953D02*
X4005Y1953D01*
X4038Y1953D02*
X4058Y1953D01*
X4084Y1953D02*
X4104Y1953D01*
X4138Y1953D02*
X4158Y1953D01*
X4184Y1953D02*
X4204Y1953D01*
X4238Y1953D02*
X4258Y1953D01*
X4285Y1953D02*
X4305Y1953D01*
X4338Y1953D02*
X4359Y1953D01*
X4385Y1953D02*
X4405Y1953D01*
X4438Y1953D02*
X4459Y1953D01*
X4484Y1953D02*
X4505Y1953D01*
X4538Y1953D02*
X4558Y1953D01*
X4584Y1953D02*
X4604Y1953D01*
X4638Y1953D02*
X4658Y1953D01*
X3185Y1952D02*
X3205Y1952D01*
X3237Y1952D02*
X3258Y1952D01*
X3285Y1952D02*
X3305Y1952D01*
X3337Y1952D02*
X3358Y1952D01*
X3385Y1952D02*
X3405Y1952D01*
X3437Y1952D02*
X3458Y1952D01*
X3485Y1952D02*
X3505Y1952D01*
X3537Y1952D02*
X3558Y1952D01*
X3585Y1952D02*
X3605Y1952D01*
X3637Y1952D02*
X3658Y1952D01*
X3685Y1952D02*
X3705Y1952D01*
X3737Y1952D02*
X3758Y1952D01*
X3785Y1952D02*
X3805Y1952D01*
X3837Y1952D02*
X3858Y1952D01*
X3885Y1952D02*
X3905Y1952D01*
X3937Y1952D02*
X3958Y1952D01*
X3985Y1952D02*
X4005Y1952D01*
X4037Y1952D02*
X4058Y1952D01*
X4085Y1952D02*
X4105Y1952D01*
X4137Y1952D02*
X4158Y1952D01*
X4185Y1952D02*
X4205Y1952D01*
X4237Y1952D02*
X4258Y1952D01*
X4285Y1952D02*
X4306Y1952D01*
X4338Y1952D02*
X4358Y1952D01*
X4385Y1952D02*
X4405Y1952D01*
X4438Y1952D02*
X4458Y1952D01*
X4485Y1952D02*
X4505Y1952D01*
X4537Y1952D02*
X4558Y1952D01*
X4585Y1952D02*
X4605Y1952D01*
X4637Y1952D02*
X4658Y1952D01*
X3185Y1951D02*
X3206Y1951D01*
X3237Y1951D02*
X3258Y1951D01*
X3285Y1951D02*
X3306Y1951D01*
X3337Y1951D02*
X3358Y1951D01*
X3385Y1951D02*
X3406Y1951D01*
X3437Y1951D02*
X3458Y1951D01*
X3485Y1951D02*
X3506Y1951D01*
X3537Y1951D02*
X3558Y1951D01*
X3585Y1951D02*
X3606Y1951D01*
X3637Y1951D02*
X3658Y1951D01*
X3685Y1951D02*
X3706Y1951D01*
X3737Y1951D02*
X3758Y1951D01*
X3785Y1951D02*
X3806Y1951D01*
X3837Y1951D02*
X3858Y1951D01*
X3885Y1951D02*
X3906Y1951D01*
X3937Y1951D02*
X3958Y1951D01*
X3985Y1951D02*
X4006Y1951D01*
X4036Y1951D02*
X4058Y1951D01*
X4085Y1951D02*
X4106Y1951D01*
X4136Y1951D02*
X4158Y1951D01*
X4185Y1951D02*
X4206Y1951D01*
X4236Y1951D02*
X4258Y1951D01*
X4285Y1951D02*
X4306Y1951D01*
X4337Y1951D02*
X4358Y1951D01*
X4385Y1951D02*
X4406Y1951D01*
X4437Y1951D02*
X4458Y1951D01*
X4485Y1951D02*
X4506Y1951D01*
X4537Y1951D02*
X4558Y1951D01*
X4585Y1951D02*
X4606Y1951D01*
X4636Y1951D02*
X4658Y1951D01*
X3185Y1950D02*
X3207Y1950D01*
X3236Y1950D02*
X3257Y1950D01*
X3285Y1950D02*
X3307Y1950D01*
X3336Y1950D02*
X3357Y1950D01*
X3385Y1950D02*
X3407Y1950D01*
X3436Y1950D02*
X3457Y1950D01*
X3485Y1950D02*
X3507Y1950D01*
X3536Y1950D02*
X3557Y1950D01*
X3585Y1950D02*
X3607Y1950D01*
X3636Y1950D02*
X3657Y1950D01*
X3685Y1950D02*
X3707Y1950D01*
X3736Y1950D02*
X3757Y1950D01*
X3785Y1950D02*
X3807Y1950D01*
X3836Y1950D02*
X3857Y1950D01*
X3885Y1950D02*
X3907Y1950D01*
X3936Y1950D02*
X3957Y1950D01*
X3985Y1950D02*
X4007Y1950D01*
X4036Y1950D02*
X4057Y1950D01*
X4085Y1950D02*
X4107Y1950D01*
X4136Y1950D02*
X4157Y1950D01*
X4185Y1950D02*
X4207Y1950D01*
X4236Y1950D02*
X4257Y1950D01*
X4286Y1950D02*
X4307Y1950D01*
X4336Y1950D02*
X4358Y1950D01*
X4386Y1950D02*
X4407Y1950D01*
X4436Y1950D02*
X4458Y1950D01*
X4485Y1950D02*
X4507Y1950D01*
X4536Y1950D02*
X4557Y1950D01*
X4585Y1950D02*
X4607Y1950D01*
X4636Y1950D02*
X4657Y1950D01*
X3186Y1949D02*
X3208Y1949D01*
X3235Y1949D02*
X3257Y1949D01*
X3286Y1949D02*
X3308Y1949D01*
X3335Y1949D02*
X3357Y1949D01*
X3386Y1949D02*
X3408Y1949D01*
X3435Y1949D02*
X3457Y1949D01*
X3486Y1949D02*
X3508Y1949D01*
X3535Y1949D02*
X3557Y1949D01*
X3586Y1949D02*
X3608Y1949D01*
X3635Y1949D02*
X3657Y1949D01*
X3686Y1949D02*
X3708Y1949D01*
X3735Y1949D02*
X3757Y1949D01*
X3786Y1949D02*
X3808Y1949D01*
X3835Y1949D02*
X3857Y1949D01*
X3886Y1949D02*
X3908Y1949D01*
X3935Y1949D02*
X3957Y1949D01*
X3986Y1949D02*
X4008Y1949D01*
X4035Y1949D02*
X4057Y1949D01*
X4086Y1949D02*
X4108Y1949D01*
X4135Y1949D02*
X4157Y1949D01*
X4186Y1949D02*
X4208Y1949D01*
X4235Y1949D02*
X4257Y1949D01*
X4286Y1949D02*
X4308Y1949D01*
X4335Y1949D02*
X4357Y1949D01*
X4386Y1949D02*
X4408Y1949D01*
X4435Y1949D02*
X4457Y1949D01*
X4486Y1949D02*
X4508Y1949D01*
X4535Y1949D02*
X4557Y1949D01*
X4586Y1949D02*
X4608Y1949D01*
X4635Y1949D02*
X4657Y1949D01*
X3186Y1948D02*
X3209Y1948D01*
X3234Y1948D02*
X3257Y1948D01*
X3286Y1948D02*
X3309Y1948D01*
X3334Y1948D02*
X3357Y1948D01*
X3386Y1948D02*
X3409Y1948D01*
X3434Y1948D02*
X3457Y1948D01*
X3486Y1948D02*
X3509Y1948D01*
X3534Y1948D02*
X3557Y1948D01*
X3586Y1948D02*
X3609Y1948D01*
X3634Y1948D02*
X3657Y1948D01*
X3686Y1948D02*
X3709Y1948D01*
X3733Y1948D02*
X3757Y1948D01*
X3786Y1948D02*
X3809Y1948D01*
X3833Y1948D02*
X3857Y1948D01*
X3886Y1948D02*
X3909Y1948D01*
X3933Y1948D02*
X3957Y1948D01*
X3986Y1948D02*
X4009Y1948D01*
X4033Y1948D02*
X4057Y1948D01*
X4086Y1948D02*
X4109Y1948D01*
X4133Y1948D02*
X4157Y1948D01*
X4186Y1948D02*
X4209Y1948D01*
X4233Y1948D02*
X4257Y1948D01*
X4286Y1948D02*
X4310Y1948D01*
X4334Y1948D02*
X4357Y1948D01*
X4386Y1948D02*
X4409Y1948D01*
X4434Y1948D02*
X4457Y1948D01*
X4486Y1948D02*
X4509Y1948D01*
X4534Y1948D02*
X4557Y1948D01*
X4586Y1948D02*
X4609Y1948D01*
X4633Y1948D02*
X4656Y1948D01*
X3187Y1947D02*
X3210Y1947D01*
X3232Y1947D02*
X3256Y1947D01*
X3287Y1947D02*
X3310Y1947D01*
X3332Y1947D02*
X3356Y1947D01*
X3387Y1947D02*
X3410Y1947D01*
X3432Y1947D02*
X3456Y1947D01*
X3487Y1947D02*
X3510Y1947D01*
X3532Y1947D02*
X3556Y1947D01*
X3587Y1947D02*
X3610Y1947D01*
X3632Y1947D02*
X3656Y1947D01*
X3687Y1947D02*
X3710Y1947D01*
X3732Y1947D02*
X3756Y1947D01*
X3786Y1947D02*
X3810Y1947D01*
X3832Y1947D02*
X3856Y1947D01*
X3886Y1947D02*
X3910Y1947D01*
X3932Y1947D02*
X3956Y1947D01*
X3986Y1947D02*
X4010Y1947D01*
X4032Y1947D02*
X4056Y1947D01*
X4086Y1947D02*
X4110Y1947D01*
X4132Y1947D02*
X4156Y1947D01*
X4186Y1947D02*
X4210Y1947D01*
X4232Y1947D02*
X4256Y1947D01*
X4287Y1947D02*
X4311Y1947D01*
X4333Y1947D02*
X4357Y1947D01*
X4387Y1947D02*
X4411Y1947D01*
X4433Y1947D02*
X4456Y1947D01*
X4487Y1947D02*
X4510Y1947D01*
X4532Y1947D02*
X4556Y1947D01*
X4586Y1947D02*
X4610Y1947D01*
X4632Y1947D02*
X4656Y1947D01*
X3187Y1946D02*
X3212Y1946D01*
X3231Y1946D02*
X3256Y1946D01*
X3287Y1946D02*
X3312Y1946D01*
X3331Y1946D02*
X3356Y1946D01*
X3387Y1946D02*
X3412Y1946D01*
X3431Y1946D02*
X3456Y1946D01*
X3487Y1946D02*
X3512Y1946D01*
X3531Y1946D02*
X3556Y1946D01*
X3587Y1946D02*
X3612Y1946D01*
X3631Y1946D02*
X3656Y1946D01*
X3687Y1946D02*
X3712Y1946D01*
X3731Y1946D02*
X3756Y1946D01*
X3787Y1946D02*
X3812Y1946D01*
X3831Y1946D02*
X3856Y1946D01*
X3887Y1946D02*
X3912Y1946D01*
X3931Y1946D02*
X3956Y1946D01*
X3987Y1946D02*
X4012Y1946D01*
X4031Y1946D02*
X4056Y1946D01*
X4087Y1946D02*
X4112Y1946D01*
X4131Y1946D02*
X4156Y1946D01*
X4187Y1946D02*
X4212Y1946D01*
X4231Y1946D02*
X4256Y1946D01*
X4287Y1946D02*
X4312Y1946D01*
X4331Y1946D02*
X4356Y1946D01*
X4387Y1946D02*
X4412Y1946D01*
X4431Y1946D02*
X4456Y1946D01*
X4487Y1946D02*
X4512Y1946D01*
X4531Y1946D02*
X4556Y1946D01*
X4587Y1946D02*
X4612Y1946D01*
X4630Y1946D02*
X4656Y1946D01*
X3188Y1945D02*
X3214Y1945D01*
X3228Y1945D02*
X3255Y1945D01*
X3288Y1945D02*
X3314Y1945D01*
X3328Y1945D02*
X3355Y1945D01*
X3388Y1945D02*
X3414Y1945D01*
X3428Y1945D02*
X3455Y1945D01*
X3487Y1945D02*
X3514Y1945D01*
X3528Y1945D02*
X3555Y1945D01*
X3587Y1945D02*
X3614Y1945D01*
X3628Y1945D02*
X3655Y1945D01*
X3687Y1945D02*
X3714Y1945D01*
X3728Y1945D02*
X3755Y1945D01*
X3787Y1945D02*
X3814Y1945D01*
X3828Y1945D02*
X3855Y1945D01*
X3887Y1945D02*
X3914Y1945D01*
X3928Y1945D02*
X3955Y1945D01*
X3987Y1945D02*
X4014Y1945D01*
X4028Y1945D02*
X4055Y1945D01*
X4087Y1945D02*
X4114Y1945D01*
X4128Y1945D02*
X4155Y1945D01*
X4187Y1945D02*
X4214Y1945D01*
X4228Y1945D02*
X4255Y1945D01*
X4288Y1945D02*
X4315Y1945D01*
X4329Y1945D02*
X4356Y1945D01*
X4388Y1945D02*
X4414Y1945D01*
X4429Y1945D02*
X4455Y1945D01*
X4488Y1945D02*
X4514Y1945D01*
X4528Y1945D02*
X4555Y1945D01*
X4587Y1945D02*
X4614Y1945D01*
X4628Y1945D02*
X4655Y1945D01*
X3188Y1944D02*
X3220Y1944D01*
X3222Y1944D02*
X3255Y1944D01*
X3288Y1944D02*
X3320Y1944D01*
X3322Y1944D02*
X3355Y1944D01*
X3388Y1944D02*
X3420Y1944D01*
X3422Y1944D02*
X3455Y1944D01*
X3488Y1944D02*
X3520Y1944D01*
X3522Y1944D02*
X3555Y1944D01*
X3588Y1944D02*
X3620Y1944D01*
X3622Y1944D02*
X3655Y1944D01*
X3688Y1944D02*
X3720Y1944D01*
X3722Y1944D02*
X3755Y1944D01*
X3788Y1944D02*
X3820Y1944D01*
X3822Y1944D02*
X3855Y1944D01*
X3888Y1944D02*
X3920Y1944D01*
X3922Y1944D02*
X3955Y1944D01*
X3988Y1944D02*
X4020Y1944D01*
X4022Y1944D02*
X4055Y1944D01*
X4088Y1944D02*
X4120Y1944D01*
X4122Y1944D02*
X4155Y1944D01*
X4188Y1944D02*
X4220Y1944D01*
X4222Y1944D02*
X4255Y1944D01*
X4288Y1944D02*
X4321Y1944D01*
X4323Y1944D02*
X4355Y1944D01*
X4388Y1944D02*
X4420Y1944D01*
X4423Y1944D02*
X4455Y1944D01*
X4488Y1944D02*
X4520Y1944D01*
X4522Y1944D02*
X4555Y1944D01*
X4588Y1944D02*
X4620Y1944D01*
X4622Y1944D02*
X4655Y1944D01*
X3189Y1943D02*
X3254Y1943D01*
X3289Y1943D02*
X3354Y1943D01*
X3389Y1943D02*
X3454Y1943D01*
X3489Y1943D02*
X3554Y1943D01*
X3589Y1943D02*
X3654Y1943D01*
X3689Y1943D02*
X3754Y1943D01*
X3789Y1943D02*
X3854Y1943D01*
X3889Y1943D02*
X3954Y1943D01*
X3989Y1943D02*
X4054Y1943D01*
X4089Y1943D02*
X4154Y1943D01*
X4189Y1943D02*
X4254Y1943D01*
X4289Y1943D02*
X4354Y1943D01*
X4389Y1943D02*
X4454Y1943D01*
X4489Y1943D02*
X4554Y1943D01*
X4588Y1943D02*
X4654Y1943D01*
X3189Y1942D02*
X3254Y1942D01*
X3289Y1942D02*
X3354Y1942D01*
X3389Y1942D02*
X3454Y1942D01*
X3489Y1942D02*
X3553Y1942D01*
X3589Y1942D02*
X3653Y1942D01*
X3689Y1942D02*
X3753Y1942D01*
X3789Y1942D02*
X3853Y1942D01*
X3889Y1942D02*
X3953Y1942D01*
X3989Y1942D02*
X4053Y1942D01*
X4089Y1942D02*
X4153Y1942D01*
X4189Y1942D02*
X4253Y1942D01*
X4290Y1942D02*
X4354Y1942D01*
X4389Y1942D02*
X4454Y1942D01*
X4489Y1942D02*
X4554Y1942D01*
X4589Y1942D02*
X4653Y1942D01*
X3190Y1941D02*
X3253Y1941D01*
X3290Y1941D02*
X3353Y1941D01*
X3390Y1941D02*
X3453Y1941D01*
X3490Y1941D02*
X3553Y1941D01*
X3590Y1941D02*
X3653Y1941D01*
X3690Y1941D02*
X3753Y1941D01*
X3790Y1941D02*
X3853Y1941D01*
X3890Y1941D02*
X3953Y1941D01*
X3990Y1941D02*
X4053Y1941D01*
X4090Y1941D02*
X4153Y1941D01*
X4190Y1941D02*
X4253Y1941D01*
X4290Y1941D02*
X4353Y1941D01*
X4390Y1941D02*
X4453Y1941D01*
X4490Y1941D02*
X4553Y1941D01*
X4590Y1941D02*
X4653Y1941D01*
X3191Y1940D02*
X3252Y1940D01*
X3291Y1940D02*
X3352Y1940D01*
X3391Y1940D02*
X3452Y1940D01*
X3491Y1940D02*
X3552Y1940D01*
X3591Y1940D02*
X3652Y1940D01*
X3691Y1940D02*
X3752Y1940D01*
X3790Y1940D02*
X3852Y1940D01*
X3890Y1940D02*
X3952Y1940D01*
X3990Y1940D02*
X4052Y1940D01*
X4090Y1940D02*
X4152Y1940D01*
X4190Y1940D02*
X4252Y1940D01*
X4291Y1940D02*
X4353Y1940D01*
X4391Y1940D02*
X4452Y1940D01*
X4491Y1940D02*
X4552Y1940D01*
X4590Y1940D02*
X4652Y1940D01*
X3191Y1939D02*
X3251Y1939D01*
X3291Y1939D02*
X3351Y1939D01*
X3391Y1939D02*
X3451Y1939D01*
X3491Y1939D02*
X3551Y1939D01*
X3591Y1939D02*
X3651Y1939D01*
X3691Y1939D02*
X3751Y1939D01*
X3791Y1939D02*
X3851Y1939D01*
X3891Y1939D02*
X3951Y1939D01*
X3991Y1939D02*
X4051Y1939D01*
X4091Y1939D02*
X4151Y1939D01*
X4191Y1939D02*
X4251Y1939D01*
X4292Y1939D02*
X4352Y1939D01*
X4391Y1939D02*
X4452Y1939D01*
X4491Y1939D02*
X4551Y1939D01*
X4591Y1939D02*
X4651Y1939D01*
X3192Y1938D02*
X3251Y1938D01*
X3292Y1938D02*
X3351Y1938D01*
X3392Y1938D02*
X3451Y1938D01*
X3492Y1938D02*
X3551Y1938D01*
X3592Y1938D02*
X3651Y1938D01*
X3692Y1938D02*
X3751Y1938D01*
X3792Y1938D02*
X3851Y1938D01*
X3892Y1938D02*
X3951Y1938D01*
X3992Y1938D02*
X4051Y1938D01*
X4092Y1938D02*
X4151Y1938D01*
X4192Y1938D02*
X4251Y1938D01*
X4292Y1938D02*
X4351Y1938D01*
X4392Y1938D02*
X4451Y1938D01*
X4492Y1938D02*
X4551Y1938D01*
X4592Y1938D02*
X4651Y1938D01*
X3193Y1937D02*
X3250Y1937D01*
X3293Y1937D02*
X3350Y1937D01*
X3393Y1937D02*
X3450Y1937D01*
X3493Y1937D02*
X3550Y1937D01*
X3593Y1937D02*
X3650Y1937D01*
X3693Y1937D02*
X3750Y1937D01*
X3793Y1937D02*
X3850Y1937D01*
X3893Y1937D02*
X3950Y1937D01*
X3993Y1937D02*
X4050Y1937D01*
X4093Y1937D02*
X4150Y1937D01*
X4193Y1937D02*
X4250Y1937D01*
X4293Y1937D02*
X4350Y1937D01*
X4393Y1937D02*
X4450Y1937D01*
X4493Y1937D02*
X4550Y1937D01*
X4593Y1937D02*
X4650Y1937D01*
X3194Y1936D02*
X3249Y1936D01*
X3294Y1936D02*
X3349Y1936D01*
X3394Y1936D02*
X3449Y1936D01*
X3494Y1936D02*
X3549Y1936D01*
X3594Y1936D02*
X3649Y1936D01*
X3694Y1936D02*
X3749Y1936D01*
X3794Y1936D02*
X3849Y1936D01*
X3894Y1936D02*
X3949Y1936D01*
X3994Y1936D02*
X4049Y1936D01*
X4094Y1936D02*
X4149Y1936D01*
X4194Y1936D02*
X4249Y1936D01*
X4294Y1936D02*
X4349Y1936D01*
X4394Y1936D02*
X4449Y1936D01*
X4494Y1936D02*
X4549Y1936D01*
X4594Y1936D02*
X4649Y1936D01*
X3195Y1935D02*
X3248Y1935D01*
X3295Y1935D02*
X3348Y1935D01*
X3395Y1935D02*
X3448Y1935D01*
X3495Y1935D02*
X3548Y1935D01*
X3595Y1935D02*
X3648Y1935D01*
X3695Y1935D02*
X3748Y1935D01*
X3795Y1935D02*
X3848Y1935D01*
X3895Y1935D02*
X3948Y1935D01*
X3995Y1935D02*
X4048Y1935D01*
X4095Y1935D02*
X4148Y1935D01*
X4195Y1935D02*
X4248Y1935D01*
X4295Y1935D02*
X4348Y1935D01*
X4395Y1935D02*
X4448Y1935D01*
X4495Y1935D02*
X4548Y1935D01*
X4595Y1935D02*
X4648Y1935D01*
X3196Y1934D02*
X3247Y1934D01*
X3296Y1934D02*
X3347Y1934D01*
X3396Y1934D02*
X3447Y1934D01*
X3496Y1934D02*
X3547Y1934D01*
X3596Y1934D02*
X3647Y1934D01*
X3696Y1934D02*
X3747Y1934D01*
X3796Y1934D02*
X3847Y1934D01*
X3896Y1934D02*
X3947Y1934D01*
X3996Y1934D02*
X4047Y1934D01*
X4096Y1934D02*
X4147Y1934D01*
X4196Y1934D02*
X4247Y1934D01*
X4296Y1934D02*
X4347Y1934D01*
X4396Y1934D02*
X4447Y1934D01*
X4496Y1934D02*
X4547Y1934D01*
X4596Y1934D02*
X4647Y1934D01*
X3197Y1933D02*
X3246Y1933D01*
X3297Y1933D02*
X3346Y1933D01*
X3397Y1933D02*
X3446Y1933D01*
X3497Y1933D02*
X3546Y1933D01*
X3597Y1933D02*
X3646Y1933D01*
X3697Y1933D02*
X3746Y1933D01*
X3797Y1933D02*
X3846Y1933D01*
X3897Y1933D02*
X3946Y1933D01*
X3997Y1933D02*
X4046Y1933D01*
X4097Y1933D02*
X4146Y1933D01*
X4197Y1933D02*
X4246Y1933D01*
X4297Y1933D02*
X4346Y1933D01*
X4397Y1933D02*
X4446Y1933D01*
X4497Y1933D02*
X4546Y1933D01*
X4597Y1933D02*
X4646Y1933D01*
X3198Y1932D02*
X3244Y1932D01*
X3298Y1932D02*
X3344Y1932D01*
X3398Y1932D02*
X3444Y1932D01*
X3498Y1932D02*
X3544Y1932D01*
X3598Y1932D02*
X3644Y1932D01*
X3698Y1932D02*
X3744Y1932D01*
X3798Y1932D02*
X3844Y1932D01*
X3898Y1932D02*
X3944Y1932D01*
X3998Y1932D02*
X4044Y1932D01*
X4098Y1932D02*
X4144Y1932D01*
X4198Y1932D02*
X4244Y1932D01*
X4299Y1932D02*
X4345Y1932D01*
X4399Y1932D02*
X4445Y1932D01*
X4498Y1932D02*
X4544Y1932D01*
X4598Y1932D02*
X4644Y1932D01*
X3200Y1931D02*
X3243Y1931D01*
X3300Y1931D02*
X3343Y1931D01*
X3400Y1931D02*
X3443Y1931D01*
X3500Y1931D02*
X3543Y1931D01*
X3600Y1931D02*
X3643Y1931D01*
X3700Y1931D02*
X3743Y1931D01*
X3800Y1931D02*
X3843Y1931D01*
X3900Y1931D02*
X3943Y1931D01*
X4000Y1931D02*
X4043Y1931D01*
X4100Y1931D02*
X4143Y1931D01*
X4200Y1931D02*
X4243Y1931D01*
X4300Y1931D02*
X4343Y1931D01*
X4400Y1931D02*
X4443Y1931D01*
X4500Y1931D02*
X4543Y1931D01*
X4600Y1931D02*
X4643Y1931D01*
X3201Y1930D02*
X3241Y1930D01*
X3301Y1930D02*
X3341Y1930D01*
X3401Y1930D02*
X3441Y1930D01*
X3501Y1930D02*
X3541Y1930D01*
X3601Y1930D02*
X3641Y1930D01*
X3701Y1930D02*
X3741Y1930D01*
X3801Y1930D02*
X3841Y1930D01*
X3901Y1930D02*
X3941Y1930D01*
X4001Y1930D02*
X4041Y1930D01*
X4101Y1930D02*
X4141Y1930D01*
X4201Y1930D02*
X4241Y1930D01*
X4302Y1930D02*
X4342Y1930D01*
X4402Y1930D02*
X4442Y1930D01*
X4501Y1930D02*
X4541Y1930D01*
X4601Y1930D02*
X4641Y1930D01*
X3203Y1929D02*
X3240Y1929D01*
X3303Y1929D02*
X3340Y1929D01*
X3403Y1929D02*
X3440Y1929D01*
X3503Y1929D02*
X3540Y1929D01*
X3603Y1929D02*
X3640Y1929D01*
X3703Y1929D02*
X3740Y1929D01*
X3803Y1929D02*
X3840Y1929D01*
X3903Y1929D02*
X3940Y1929D01*
X4003Y1929D02*
X4040Y1929D01*
X4103Y1929D02*
X4140Y1929D01*
X4203Y1929D02*
X4240Y1929D01*
X4303Y1929D02*
X4340Y1929D01*
X4403Y1929D02*
X4440Y1929D01*
X4503Y1929D02*
X4540Y1929D01*
X4603Y1929D02*
X4639Y1929D01*
X3205Y1928D02*
X3238Y1928D01*
X3305Y1928D02*
X3338Y1928D01*
X3405Y1928D02*
X3438Y1928D01*
X3505Y1928D02*
X3538Y1928D01*
X3605Y1928D02*
X3638Y1928D01*
X3705Y1928D02*
X3738Y1928D01*
X3805Y1928D02*
X3838Y1928D01*
X3905Y1928D02*
X3937Y1928D01*
X4005Y1928D02*
X4037Y1928D01*
X4105Y1928D02*
X4137Y1928D01*
X4205Y1928D02*
X4237Y1928D01*
X4305Y1928D02*
X4338Y1928D01*
X4405Y1928D02*
X4438Y1928D01*
X4505Y1928D02*
X4538Y1928D01*
X4605Y1928D02*
X4637Y1928D01*
X3207Y1927D02*
X3235Y1927D01*
X3307Y1927D02*
X3335Y1927D01*
X3407Y1927D02*
X3435Y1927D01*
X3507Y1927D02*
X3535Y1927D01*
X3607Y1927D02*
X3635Y1927D01*
X3707Y1927D02*
X3735Y1927D01*
X3807Y1927D02*
X3835Y1927D01*
X3907Y1927D02*
X3935Y1927D01*
X4007Y1927D02*
X4035Y1927D01*
X4107Y1927D02*
X4135Y1927D01*
X4207Y1927D02*
X4235Y1927D01*
X4308Y1927D02*
X4336Y1927D01*
X4408Y1927D02*
X4436Y1927D01*
X4507Y1927D02*
X4535Y1927D01*
X4607Y1927D02*
X4635Y1927D01*
X3210Y1926D02*
X3233Y1926D01*
X3310Y1926D02*
X3333Y1926D01*
X3410Y1926D02*
X3433Y1926D01*
X3510Y1926D02*
X3533Y1926D01*
X3610Y1926D02*
X3633Y1926D01*
X3710Y1926D02*
X3733Y1926D01*
X3810Y1926D02*
X3833Y1926D01*
X3910Y1926D02*
X3933Y1926D01*
X4010Y1926D02*
X4033Y1926D01*
X4110Y1926D02*
X4133Y1926D01*
X4210Y1926D02*
X4233Y1926D01*
X4310Y1926D02*
X4333Y1926D01*
X4410Y1926D02*
X4433Y1926D01*
X4510Y1926D02*
X4533Y1926D01*
X4610Y1926D02*
X4632Y1926D01*
X3214Y1925D02*
X3229Y1925D01*
X3314Y1925D02*
X3329Y1925D01*
X3414Y1925D02*
X3429Y1925D01*
X3514Y1925D02*
X3529Y1925D01*
X3614Y1925D02*
X3629Y1925D01*
X3714Y1925D02*
X3729Y1925D01*
X3814Y1925D02*
X3829Y1925D01*
X3914Y1925D02*
X3929Y1925D01*
X4014Y1925D02*
X4029Y1925D01*
X4114Y1925D02*
X4129Y1925D01*
X4214Y1925D02*
X4229Y1925D01*
X4314Y1925D02*
X4329Y1925D01*
X4414Y1925D02*
X4429Y1925D01*
X4514Y1925D02*
X4529Y1925D01*
X4614Y1925D02*
X4629Y1925D01*
X685Y1850D02*
X758Y1850D01*
X685Y1849D02*
X758Y1849D01*
X685Y1848D02*
X758Y1848D01*
X685Y1847D02*
X758Y1847D01*
X685Y1846D02*
X758Y1846D01*
X685Y1845D02*
X758Y1845D01*
X685Y1844D02*
X758Y1844D01*
X685Y1843D02*
X758Y1843D01*
X685Y1842D02*
X758Y1842D01*
X685Y1841D02*
X758Y1841D01*
X685Y1840D02*
X758Y1840D01*
X685Y1839D02*
X758Y1839D01*
X685Y1838D02*
X758Y1838D01*
X685Y1837D02*
X758Y1837D01*
X685Y1836D02*
X758Y1836D01*
X685Y1835D02*
X758Y1835D01*
X685Y1834D02*
X758Y1834D01*
X685Y1833D02*
X758Y1833D01*
X685Y1832D02*
X715Y1832D01*
X728Y1832D02*
X758Y1832D01*
X685Y1831D02*
X713Y1831D01*
X731Y1831D02*
X758Y1831D01*
X685Y1830D02*
X711Y1830D01*
X733Y1830D02*
X758Y1830D01*
X685Y1829D02*
X709Y1829D01*
X734Y1829D02*
X758Y1829D01*
X685Y1828D02*
X708Y1828D01*
X735Y1828D02*
X758Y1828D01*
X685Y1827D02*
X707Y1827D01*
X736Y1827D02*
X758Y1827D01*
X685Y1826D02*
X706Y1826D01*
X737Y1826D02*
X758Y1826D01*
X685Y1825D02*
X705Y1825D01*
X738Y1825D02*
X758Y1825D01*
X685Y1824D02*
X705Y1824D01*
X739Y1824D02*
X758Y1824D01*
X685Y1823D02*
X704Y1823D01*
X739Y1823D02*
X758Y1823D01*
X685Y1822D02*
X704Y1822D01*
X740Y1822D02*
X758Y1822D01*
X685Y1821D02*
X703Y1821D01*
X740Y1821D02*
X758Y1821D01*
X685Y1820D02*
X703Y1820D01*
X741Y1820D02*
X758Y1820D01*
X685Y1819D02*
X702Y1819D01*
X741Y1819D02*
X758Y1819D01*
X685Y1818D02*
X702Y1818D01*
X741Y1818D02*
X758Y1818D01*
X685Y1817D02*
X702Y1817D01*
X741Y1817D02*
X758Y1817D01*
X685Y1816D02*
X702Y1816D01*
X742Y1816D02*
X758Y1816D01*
X685Y1815D02*
X702Y1815D01*
X742Y1815D02*
X758Y1815D01*
X685Y1814D02*
X702Y1814D01*
X742Y1814D02*
X758Y1814D01*
X685Y1813D02*
X702Y1813D01*
X742Y1813D02*
X758Y1813D01*
X685Y1812D02*
X702Y1812D01*
X742Y1812D02*
X758Y1812D01*
X685Y1811D02*
X702Y1811D01*
X742Y1811D02*
X758Y1811D01*
X685Y1810D02*
X702Y1810D01*
X742Y1810D02*
X758Y1810D01*
X685Y1809D02*
X702Y1809D01*
X741Y1809D02*
X758Y1809D01*
X685Y1808D02*
X702Y1808D01*
X741Y1808D02*
X758Y1808D01*
X685Y1807D02*
X703Y1807D01*
X741Y1807D02*
X758Y1807D01*
X685Y1806D02*
X703Y1806D01*
X740Y1806D02*
X758Y1806D01*
X685Y1805D02*
X703Y1805D01*
X740Y1805D02*
X758Y1805D01*
X685Y1804D02*
X704Y1804D01*
X739Y1804D02*
X758Y1804D01*
X685Y1803D02*
X704Y1803D01*
X739Y1803D02*
X758Y1803D01*
X685Y1802D02*
X705Y1802D01*
X738Y1802D02*
X758Y1802D01*
X685Y1801D02*
X706Y1801D01*
X737Y1801D02*
X758Y1801D01*
X685Y1800D02*
X707Y1800D01*
X737Y1800D02*
X758Y1800D01*
X685Y1799D02*
X708Y1799D01*
X736Y1799D02*
X758Y1799D01*
X685Y1798D02*
X709Y1798D01*
X734Y1798D02*
X758Y1798D01*
X685Y1797D02*
X710Y1797D01*
X733Y1797D02*
X758Y1797D01*
X685Y1796D02*
X712Y1796D01*
X731Y1796D02*
X758Y1796D01*
X685Y1795D02*
X714Y1795D01*
X729Y1795D02*
X758Y1795D01*
X685Y1794D02*
X718Y1794D01*
X725Y1794D02*
X758Y1794D01*
X685Y1793D02*
X758Y1793D01*
X685Y1792D02*
X758Y1792D01*
X685Y1791D02*
X758Y1791D01*
X685Y1790D02*
X758Y1790D01*
X685Y1789D02*
X758Y1789D01*
X685Y1788D02*
X758Y1788D01*
X685Y1787D02*
X758Y1787D01*
X685Y1786D02*
X758Y1786D01*
X685Y1785D02*
X758Y1785D01*
X685Y1784D02*
X758Y1784D01*
X685Y1783D02*
X758Y1783D01*
X685Y1782D02*
X758Y1782D01*
X685Y1781D02*
X758Y1781D01*
X685Y1780D02*
X758Y1780D01*
X685Y1779D02*
X758Y1779D01*
X685Y1778D02*
X758Y1778D01*
X685Y1777D02*
X758Y1777D01*
X685Y1200D02*
X758Y1200D01*
X685Y1199D02*
X758Y1199D01*
X685Y1198D02*
X758Y1198D01*
X685Y1197D02*
X758Y1197D01*
X685Y1196D02*
X758Y1196D01*
X685Y1195D02*
X758Y1195D01*
X685Y1194D02*
X758Y1194D01*
X685Y1193D02*
X758Y1193D01*
X685Y1192D02*
X758Y1192D01*
X685Y1191D02*
X758Y1191D01*
X685Y1190D02*
X758Y1190D01*
X685Y1189D02*
X758Y1189D01*
X685Y1188D02*
X758Y1188D01*
X685Y1187D02*
X758Y1187D01*
X685Y1186D02*
X758Y1186D01*
X685Y1185D02*
X758Y1185D01*
X685Y1184D02*
X758Y1184D01*
X685Y1183D02*
X758Y1183D01*
X685Y1182D02*
X715Y1182D01*
X728Y1182D02*
X758Y1182D01*
X685Y1181D02*
X713Y1181D01*
X731Y1181D02*
X758Y1181D01*
X685Y1180D02*
X711Y1180D01*
X733Y1180D02*
X758Y1180D01*
X685Y1179D02*
X709Y1179D01*
X734Y1179D02*
X758Y1179D01*
X685Y1178D02*
X708Y1178D01*
X735Y1178D02*
X758Y1178D01*
X685Y1177D02*
X707Y1177D01*
X736Y1177D02*
X758Y1177D01*
X685Y1176D02*
X706Y1176D01*
X737Y1176D02*
X758Y1176D01*
X685Y1175D02*
X705Y1175D01*
X738Y1175D02*
X758Y1175D01*
X685Y1174D02*
X705Y1174D01*
X739Y1174D02*
X758Y1174D01*
X685Y1173D02*
X704Y1173D01*
X739Y1173D02*
X758Y1173D01*
X685Y1172D02*
X704Y1172D01*
X740Y1172D02*
X758Y1172D01*
X685Y1171D02*
X703Y1171D01*
X740Y1171D02*
X758Y1171D01*
X685Y1170D02*
X703Y1170D01*
X741Y1170D02*
X758Y1170D01*
X685Y1169D02*
X702Y1169D01*
X741Y1169D02*
X758Y1169D01*
X685Y1168D02*
X702Y1168D01*
X741Y1168D02*
X758Y1168D01*
X685Y1167D02*
X702Y1167D01*
X741Y1167D02*
X758Y1167D01*
X685Y1166D02*
X702Y1166D01*
X742Y1166D02*
X758Y1166D01*
X685Y1165D02*
X702Y1165D01*
X742Y1165D02*
X758Y1165D01*
X685Y1164D02*
X702Y1164D01*
X742Y1164D02*
X758Y1164D01*
X685Y1163D02*
X702Y1163D01*
X742Y1163D02*
X758Y1163D01*
X685Y1162D02*
X702Y1162D01*
X742Y1162D02*
X758Y1162D01*
X685Y1161D02*
X702Y1161D01*
X742Y1161D02*
X758Y1161D01*
X685Y1160D02*
X702Y1160D01*
X742Y1160D02*
X758Y1160D01*
X685Y1159D02*
X702Y1159D01*
X741Y1159D02*
X758Y1159D01*
X685Y1158D02*
X702Y1158D01*
X741Y1158D02*
X758Y1158D01*
X685Y1157D02*
X703Y1157D01*
X741Y1157D02*
X758Y1157D01*
X685Y1156D02*
X703Y1156D01*
X740Y1156D02*
X758Y1156D01*
X685Y1155D02*
X703Y1155D01*
X740Y1155D02*
X758Y1155D01*
X685Y1154D02*
X704Y1154D01*
X739Y1154D02*
X758Y1154D01*
X685Y1153D02*
X705Y1153D01*
X739Y1153D02*
X758Y1153D01*
X685Y1152D02*
X705Y1152D01*
X738Y1152D02*
X758Y1152D01*
X685Y1151D02*
X706Y1151D01*
X737Y1151D02*
X758Y1151D01*
X685Y1150D02*
X707Y1150D01*
X737Y1150D02*
X758Y1150D01*
X685Y1149D02*
X708Y1149D01*
X736Y1149D02*
X758Y1149D01*
X685Y1148D02*
X709Y1148D01*
X734Y1148D02*
X758Y1148D01*
X685Y1147D02*
X710Y1147D01*
X733Y1147D02*
X758Y1147D01*
X685Y1146D02*
X712Y1146D01*
X731Y1146D02*
X758Y1146D01*
X685Y1145D02*
X714Y1145D01*
X729Y1145D02*
X758Y1145D01*
X685Y1144D02*
X718Y1144D01*
X725Y1144D02*
X758Y1144D01*
X685Y1143D02*
X758Y1143D01*
X685Y1142D02*
X758Y1142D01*
X685Y1141D02*
X758Y1141D01*
X685Y1140D02*
X758Y1140D01*
X685Y1139D02*
X758Y1139D01*
X685Y1138D02*
X758Y1138D01*
X685Y1137D02*
X758Y1137D01*
X685Y1136D02*
X758Y1136D01*
X685Y1135D02*
X758Y1135D01*
X685Y1134D02*
X758Y1134D01*
X685Y1133D02*
X758Y1133D01*
X685Y1132D02*
X758Y1132D01*
X685Y1131D02*
X758Y1131D01*
X685Y1130D02*
X758Y1130D01*
X685Y1129D02*
X758Y1129D01*
X685Y1128D02*
X758Y1128D01*
X685Y1127D02*
X758Y1127D01*
X3218Y902D02*
X3225Y902D01*
X3318Y902D02*
X3325Y902D01*
X3418Y902D02*
X3425Y902D01*
X3518Y902D02*
X3525Y902D01*
X3618Y902D02*
X3625Y902D01*
X3718Y902D02*
X3725Y902D01*
X3818Y902D02*
X3825Y902D01*
X3918Y902D02*
X3925Y902D01*
X4018Y902D02*
X4025Y902D01*
X4118Y902D02*
X4125Y902D01*
X4218Y902D02*
X4225Y902D01*
X4318Y902D02*
X4325Y902D01*
X4418Y902D02*
X4425Y902D01*
X4518Y902D02*
X4525Y902D01*
X4618Y902D02*
X4625Y902D01*
X3213Y901D02*
X3230Y901D01*
X3313Y901D02*
X3330Y901D01*
X3413Y901D02*
X3430Y901D01*
X3513Y901D02*
X3530Y901D01*
X3613Y901D02*
X3630Y901D01*
X3713Y901D02*
X3730Y901D01*
X3813Y901D02*
X3830Y901D01*
X3913Y901D02*
X3930Y901D01*
X4013Y901D02*
X4030Y901D01*
X4113Y901D02*
X4130Y901D01*
X4213Y901D02*
X4230Y901D01*
X4313Y901D02*
X4330Y901D01*
X4413Y901D02*
X4430Y901D01*
X4513Y901D02*
X4530Y901D01*
X4613Y901D02*
X4630Y901D01*
X3209Y900D02*
X3233Y900D01*
X3309Y900D02*
X3333Y900D01*
X3409Y900D02*
X3433Y900D01*
X3509Y900D02*
X3533Y900D01*
X3609Y900D02*
X3633Y900D01*
X3709Y900D02*
X3733Y900D01*
X3809Y900D02*
X3833Y900D01*
X3909Y900D02*
X3933Y900D01*
X4009Y900D02*
X4033Y900D01*
X4109Y900D02*
X4133Y900D01*
X4209Y900D02*
X4233Y900D01*
X4310Y900D02*
X4334Y900D01*
X4410Y900D02*
X4433Y900D01*
X4509Y900D02*
X4533Y900D01*
X4609Y900D02*
X4633Y900D01*
X3207Y899D02*
X3236Y899D01*
X3307Y899D02*
X3336Y899D01*
X3407Y899D02*
X3436Y899D01*
X3507Y899D02*
X3536Y899D01*
X3607Y899D02*
X3636Y899D01*
X3707Y899D02*
X3736Y899D01*
X3807Y899D02*
X3836Y899D01*
X3907Y899D02*
X3936Y899D01*
X4007Y899D02*
X4036Y899D01*
X4107Y899D02*
X4136Y899D01*
X4207Y899D02*
X4236Y899D01*
X4307Y899D02*
X4336Y899D01*
X4407Y899D02*
X4436Y899D01*
X4507Y899D02*
X4536Y899D01*
X4607Y899D02*
X4636Y899D01*
X3205Y898D02*
X3238Y898D01*
X3305Y898D02*
X3338Y898D01*
X3405Y898D02*
X3438Y898D01*
X3505Y898D02*
X3538Y898D01*
X3605Y898D02*
X3638Y898D01*
X3705Y898D02*
X3738Y898D01*
X3805Y898D02*
X3838Y898D01*
X3905Y898D02*
X3938Y898D01*
X4005Y898D02*
X4038Y898D01*
X4105Y898D02*
X4138Y898D01*
X4205Y898D02*
X4238Y898D01*
X4305Y898D02*
X4338Y898D01*
X4405Y898D02*
X4438Y898D01*
X4505Y898D02*
X4538Y898D01*
X4604Y898D02*
X4638Y898D01*
X3203Y897D02*
X3240Y897D01*
X3303Y897D02*
X3340Y897D01*
X3403Y897D02*
X3440Y897D01*
X3503Y897D02*
X3540Y897D01*
X3603Y897D02*
X3640Y897D01*
X3703Y897D02*
X3740Y897D01*
X3803Y897D02*
X3840Y897D01*
X3903Y897D02*
X3940Y897D01*
X4003Y897D02*
X4040Y897D01*
X4103Y897D02*
X4140Y897D01*
X4203Y897D02*
X4240Y897D01*
X4303Y897D02*
X4340Y897D01*
X4403Y897D02*
X4440Y897D01*
X4503Y897D02*
X4540Y897D01*
X4603Y897D02*
X4640Y897D01*
X3201Y896D02*
X3242Y896D01*
X3301Y896D02*
X3342Y896D01*
X3401Y896D02*
X3442Y896D01*
X3501Y896D02*
X3542Y896D01*
X3601Y896D02*
X3642Y896D01*
X3701Y896D02*
X3742Y896D01*
X3801Y896D02*
X3842Y896D01*
X3901Y896D02*
X3942Y896D01*
X4001Y896D02*
X4042Y896D01*
X4101Y896D02*
X4142Y896D01*
X4201Y896D02*
X4242Y896D01*
X4301Y896D02*
X4342Y896D01*
X4401Y896D02*
X4442Y896D01*
X4501Y896D02*
X4542Y896D01*
X4601Y896D02*
X4642Y896D01*
X3199Y895D02*
X3243Y895D01*
X3299Y895D02*
X3343Y895D01*
X3399Y895D02*
X3443Y895D01*
X3499Y895D02*
X3543Y895D01*
X3599Y895D02*
X3643Y895D01*
X3699Y895D02*
X3743Y895D01*
X3799Y895D02*
X3843Y895D01*
X3899Y895D02*
X3943Y895D01*
X3999Y895D02*
X4043Y895D01*
X4099Y895D02*
X4143Y895D01*
X4199Y895D02*
X4243Y895D01*
X4300Y895D02*
X4344Y895D01*
X4400Y895D02*
X4443Y895D01*
X4499Y895D02*
X4543Y895D01*
X4599Y895D02*
X4643Y895D01*
X3198Y894D02*
X3245Y894D01*
X3298Y894D02*
X3345Y894D01*
X3398Y894D02*
X3445Y894D01*
X3498Y894D02*
X3545Y894D01*
X3598Y894D02*
X3645Y894D01*
X3698Y894D02*
X3745Y894D01*
X3798Y894D02*
X3845Y894D01*
X3898Y894D02*
X3945Y894D01*
X3998Y894D02*
X4045Y894D01*
X4098Y894D02*
X4145Y894D01*
X4198Y894D02*
X4245Y894D01*
X4298Y894D02*
X4345Y894D01*
X4398Y894D02*
X4445Y894D01*
X4498Y894D02*
X4545Y894D01*
X4598Y894D02*
X4645Y894D01*
X3197Y893D02*
X3246Y893D01*
X3297Y893D02*
X3346Y893D01*
X3397Y893D02*
X3446Y893D01*
X3497Y893D02*
X3546Y893D01*
X3597Y893D02*
X3646Y893D01*
X3697Y893D02*
X3746Y893D01*
X3797Y893D02*
X3846Y893D01*
X3897Y893D02*
X3946Y893D01*
X3997Y893D02*
X4046Y893D01*
X4097Y893D02*
X4146Y893D01*
X4197Y893D02*
X4246Y893D01*
X4297Y893D02*
X4346Y893D01*
X4397Y893D02*
X4446Y893D01*
X4497Y893D02*
X4546Y893D01*
X4597Y893D02*
X4646Y893D01*
X3196Y892D02*
X3247Y892D01*
X3296Y892D02*
X3347Y892D01*
X3396Y892D02*
X3447Y892D01*
X3496Y892D02*
X3547Y892D01*
X3596Y892D02*
X3647Y892D01*
X3696Y892D02*
X3747Y892D01*
X3796Y892D02*
X3847Y892D01*
X3896Y892D02*
X3947Y892D01*
X3996Y892D02*
X4047Y892D01*
X4096Y892D02*
X4147Y892D01*
X4196Y892D02*
X4247Y892D01*
X4296Y892D02*
X4347Y892D01*
X4396Y892D02*
X4447Y892D01*
X4496Y892D02*
X4547Y892D01*
X4595Y892D02*
X4647Y892D01*
X3195Y891D02*
X3248Y891D01*
X3295Y891D02*
X3348Y891D01*
X3395Y891D02*
X3448Y891D01*
X3494Y891D02*
X3548Y891D01*
X3594Y891D02*
X3648Y891D01*
X3694Y891D02*
X3748Y891D01*
X3794Y891D02*
X3848Y891D01*
X3894Y891D02*
X3948Y891D01*
X3994Y891D02*
X4048Y891D01*
X4094Y891D02*
X4148Y891D01*
X4194Y891D02*
X4248Y891D01*
X4295Y891D02*
X4349Y891D01*
X4395Y891D02*
X4448Y891D01*
X4495Y891D02*
X4548Y891D01*
X4594Y891D02*
X4648Y891D01*
X3194Y890D02*
X3249Y890D01*
X3294Y890D02*
X3349Y890D01*
X3394Y890D02*
X3449Y890D01*
X3494Y890D02*
X3549Y890D01*
X3594Y890D02*
X3649Y890D01*
X3694Y890D02*
X3749Y890D01*
X3794Y890D02*
X3849Y890D01*
X3893Y890D02*
X3949Y890D01*
X3993Y890D02*
X4049Y890D01*
X4093Y890D02*
X4149Y890D01*
X4193Y890D02*
X4249Y890D01*
X4294Y890D02*
X4350Y890D01*
X4394Y890D02*
X4449Y890D01*
X4494Y890D02*
X4549Y890D01*
X4593Y890D02*
X4649Y890D01*
X3193Y889D02*
X3250Y889D01*
X3293Y889D02*
X3350Y889D01*
X3393Y889D02*
X3450Y889D01*
X3493Y889D02*
X3550Y889D01*
X3593Y889D02*
X3650Y889D01*
X3693Y889D02*
X3750Y889D01*
X3793Y889D02*
X3850Y889D01*
X3893Y889D02*
X3950Y889D01*
X3993Y889D02*
X4050Y889D01*
X4093Y889D02*
X4150Y889D01*
X4193Y889D02*
X4250Y889D01*
X4293Y889D02*
X4350Y889D01*
X4393Y889D02*
X4450Y889D01*
X4493Y889D02*
X4550Y889D01*
X4593Y889D02*
X4650Y889D01*
X3192Y888D02*
X3251Y888D01*
X3292Y888D02*
X3351Y888D01*
X3392Y888D02*
X3451Y888D01*
X3492Y888D02*
X3551Y888D01*
X3592Y888D02*
X3651Y888D01*
X3692Y888D02*
X3751Y888D01*
X3792Y888D02*
X3851Y888D01*
X3892Y888D02*
X3951Y888D01*
X3992Y888D02*
X4051Y888D01*
X4092Y888D02*
X4151Y888D01*
X4192Y888D02*
X4251Y888D01*
X4292Y888D02*
X4351Y888D01*
X4392Y888D02*
X4451Y888D01*
X4492Y888D02*
X4551Y888D01*
X4592Y888D02*
X4651Y888D01*
X3191Y887D02*
X3252Y887D01*
X3291Y887D02*
X3352Y887D01*
X3391Y887D02*
X3452Y887D01*
X3491Y887D02*
X3552Y887D01*
X3591Y887D02*
X3652Y887D01*
X3691Y887D02*
X3752Y887D01*
X3791Y887D02*
X3852Y887D01*
X3891Y887D02*
X3952Y887D01*
X3991Y887D02*
X4052Y887D01*
X4091Y887D02*
X4152Y887D01*
X4191Y887D02*
X4252Y887D01*
X4291Y887D02*
X4352Y887D01*
X4391Y887D02*
X4452Y887D01*
X4491Y887D02*
X4552Y887D01*
X4591Y887D02*
X4651Y887D01*
X3190Y886D02*
X3252Y886D01*
X3290Y886D02*
X3352Y886D01*
X3390Y886D02*
X3452Y886D01*
X3490Y886D02*
X3552Y886D01*
X3590Y886D02*
X3652Y886D01*
X3690Y886D02*
X3752Y886D01*
X3790Y886D02*
X3852Y886D01*
X3890Y886D02*
X3952Y886D01*
X3990Y886D02*
X4052Y886D01*
X4090Y886D02*
X4152Y886D01*
X4190Y886D02*
X4252Y886D01*
X4291Y886D02*
X4353Y886D01*
X4391Y886D02*
X4453Y886D01*
X4490Y886D02*
X4552Y886D01*
X4590Y886D02*
X4652Y886D01*
X3190Y885D02*
X3253Y885D01*
X3290Y885D02*
X3353Y885D01*
X3390Y885D02*
X3453Y885D01*
X3490Y885D02*
X3553Y885D01*
X3590Y885D02*
X3653Y885D01*
X3690Y885D02*
X3753Y885D01*
X3790Y885D02*
X3853Y885D01*
X3890Y885D02*
X3953Y885D01*
X3990Y885D02*
X4053Y885D01*
X4090Y885D02*
X4153Y885D01*
X4190Y885D02*
X4253Y885D01*
X4290Y885D02*
X4353Y885D01*
X4390Y885D02*
X4453Y885D01*
X4490Y885D02*
X4553Y885D01*
X4590Y885D02*
X4653Y885D01*
X3189Y884D02*
X3254Y884D01*
X3289Y884D02*
X3354Y884D01*
X3389Y884D02*
X3454Y884D01*
X3489Y884D02*
X3554Y884D01*
X3589Y884D02*
X3654Y884D01*
X3689Y884D02*
X3754Y884D01*
X3789Y884D02*
X3854Y884D01*
X3889Y884D02*
X3954Y884D01*
X3989Y884D02*
X4054Y884D01*
X4089Y884D02*
X4154Y884D01*
X4189Y884D02*
X4254Y884D01*
X4289Y884D02*
X4354Y884D01*
X4389Y884D02*
X4454Y884D01*
X4489Y884D02*
X4554Y884D01*
X4589Y884D02*
X4654Y884D01*
X3188Y883D02*
X3254Y883D01*
X3288Y883D02*
X3354Y883D01*
X3388Y883D02*
X3454Y883D01*
X3488Y883D02*
X3554Y883D01*
X3588Y883D02*
X3654Y883D01*
X3688Y883D02*
X3754Y883D01*
X3788Y883D02*
X3854Y883D01*
X3888Y883D02*
X3954Y883D01*
X3988Y883D02*
X4054Y883D01*
X4088Y883D02*
X4154Y883D01*
X4188Y883D02*
X4254Y883D01*
X4289Y883D02*
X4355Y883D01*
X4389Y883D02*
X4454Y883D01*
X4488Y883D02*
X4554Y883D01*
X4588Y883D02*
X4654Y883D01*
X3188Y882D02*
X3217Y882D01*
X3226Y882D02*
X3255Y882D01*
X3288Y882D02*
X3317Y882D01*
X3326Y882D02*
X3355Y882D01*
X3388Y882D02*
X3417Y882D01*
X3426Y882D02*
X3455Y882D01*
X3488Y882D02*
X3517Y882D01*
X3526Y882D02*
X3555Y882D01*
X3588Y882D02*
X3617Y882D01*
X3626Y882D02*
X3655Y882D01*
X3688Y882D02*
X3717Y882D01*
X3726Y882D02*
X3755Y882D01*
X3788Y882D02*
X3817Y882D01*
X3826Y882D02*
X3855Y882D01*
X3888Y882D02*
X3917Y882D01*
X3926Y882D02*
X3955Y882D01*
X3988Y882D02*
X4017Y882D01*
X4025Y882D02*
X4055Y882D01*
X4088Y882D02*
X4117Y882D01*
X4125Y882D02*
X4155Y882D01*
X4188Y882D02*
X4217Y882D01*
X4225Y882D02*
X4255Y882D01*
X4288Y882D02*
X4317Y882D01*
X4326Y882D02*
X4355Y882D01*
X4388Y882D02*
X4417Y882D01*
X4426Y882D02*
X4455Y882D01*
X4488Y882D02*
X4517Y882D01*
X4526Y882D02*
X4555Y882D01*
X4588Y882D02*
X4617Y882D01*
X4625Y882D02*
X4655Y882D01*
X3187Y881D02*
X3214Y881D01*
X3229Y881D02*
X3255Y881D01*
X3287Y881D02*
X3314Y881D01*
X3329Y881D02*
X3355Y881D01*
X3387Y881D02*
X3414Y881D01*
X3429Y881D02*
X3455Y881D01*
X3487Y881D02*
X3514Y881D01*
X3529Y881D02*
X3555Y881D01*
X3587Y881D02*
X3614Y881D01*
X3629Y881D02*
X3655Y881D01*
X3687Y881D02*
X3714Y881D01*
X3729Y881D02*
X3755Y881D01*
X3787Y881D02*
X3813Y881D01*
X3829Y881D02*
X3855Y881D01*
X3887Y881D02*
X3913Y881D01*
X3929Y881D02*
X3955Y881D01*
X3987Y881D02*
X4013Y881D01*
X4029Y881D02*
X4055Y881D01*
X4087Y881D02*
X4113Y881D01*
X4129Y881D02*
X4155Y881D01*
X4187Y881D02*
X4213Y881D01*
X4229Y881D02*
X4255Y881D01*
X4288Y881D02*
X4314Y881D01*
X4330Y881D02*
X4356Y881D01*
X4388Y881D02*
X4414Y881D01*
X4429Y881D02*
X4456Y881D01*
X4487Y881D02*
X4514Y881D01*
X4529Y881D02*
X4555Y881D01*
X4587Y881D02*
X4613Y881D01*
X4629Y881D02*
X4655Y881D01*
X3187Y880D02*
X3212Y880D01*
X3231Y880D02*
X3256Y880D01*
X3287Y880D02*
X3312Y880D01*
X3331Y880D02*
X3356Y880D01*
X3387Y880D02*
X3412Y880D01*
X3431Y880D02*
X3456Y880D01*
X3487Y880D02*
X3512Y880D01*
X3531Y880D02*
X3556Y880D01*
X3587Y880D02*
X3612Y880D01*
X3631Y880D02*
X3656Y880D01*
X3687Y880D02*
X3712Y880D01*
X3731Y880D02*
X3756Y880D01*
X3787Y880D02*
X3812Y880D01*
X3831Y880D02*
X3856Y880D01*
X3887Y880D02*
X3912Y880D01*
X3931Y880D02*
X3956Y880D01*
X3987Y880D02*
X4012Y880D01*
X4031Y880D02*
X4056Y880D01*
X4087Y880D02*
X4112Y880D01*
X4131Y880D02*
X4156Y880D01*
X4187Y880D02*
X4212Y880D01*
X4231Y880D02*
X4256Y880D01*
X4287Y880D02*
X4312Y880D01*
X4331Y880D02*
X4356Y880D01*
X4387Y880D02*
X4412Y880D01*
X4431Y880D02*
X4456Y880D01*
X4487Y880D02*
X4512Y880D01*
X4531Y880D02*
X4556Y880D01*
X4587Y880D02*
X4612Y880D01*
X4631Y880D02*
X4656Y880D01*
X3186Y879D02*
X3210Y879D01*
X3233Y879D02*
X3256Y879D01*
X3286Y879D02*
X3310Y879D01*
X3333Y879D02*
X3356Y879D01*
X3386Y879D02*
X3410Y879D01*
X3433Y879D02*
X3456Y879D01*
X3486Y879D02*
X3510Y879D01*
X3533Y879D02*
X3556Y879D01*
X3586Y879D02*
X3610Y879D01*
X3633Y879D02*
X3656Y879D01*
X3686Y879D02*
X3710Y879D01*
X3733Y879D02*
X3756Y879D01*
X3786Y879D02*
X3810Y879D01*
X3833Y879D02*
X3856Y879D01*
X3886Y879D02*
X3910Y879D01*
X3933Y879D02*
X3956Y879D01*
X3986Y879D02*
X4010Y879D01*
X4033Y879D02*
X4056Y879D01*
X4086Y879D02*
X4110Y879D01*
X4133Y879D02*
X4156Y879D01*
X4186Y879D02*
X4210Y879D01*
X4233Y879D02*
X4256Y879D01*
X4287Y879D02*
X4310Y879D01*
X4333Y879D02*
X4357Y879D01*
X4387Y879D02*
X4410Y879D01*
X4433Y879D02*
X4456Y879D01*
X4486Y879D02*
X4510Y879D01*
X4533Y879D02*
X4556Y879D01*
X4586Y879D02*
X4610Y879D01*
X4632Y879D02*
X4656Y879D01*
X3186Y878D02*
X3209Y878D01*
X3234Y878D02*
X3257Y878D01*
X3286Y878D02*
X3309Y878D01*
X3334Y878D02*
X3357Y878D01*
X3386Y878D02*
X3409Y878D01*
X3434Y878D02*
X3457Y878D01*
X3486Y878D02*
X3509Y878D01*
X3534Y878D02*
X3557Y878D01*
X3586Y878D02*
X3609Y878D01*
X3634Y878D02*
X3657Y878D01*
X3686Y878D02*
X3709Y878D01*
X3734Y878D02*
X3757Y878D01*
X3786Y878D02*
X3809Y878D01*
X3834Y878D02*
X3857Y878D01*
X3886Y878D02*
X3909Y878D01*
X3934Y878D02*
X3957Y878D01*
X3986Y878D02*
X4009Y878D01*
X4034Y878D02*
X4057Y878D01*
X4086Y878D02*
X4109Y878D01*
X4134Y878D02*
X4157Y878D01*
X4186Y878D02*
X4209Y878D01*
X4234Y878D02*
X4257Y878D01*
X4286Y878D02*
X4309Y878D01*
X4334Y878D02*
X4357Y878D01*
X4386Y878D02*
X4409Y878D01*
X4434Y878D02*
X4457Y878D01*
X4486Y878D02*
X4509Y878D01*
X4534Y878D02*
X4557Y878D01*
X4586Y878D02*
X4609Y878D01*
X4634Y878D02*
X4657Y878D01*
X3186Y877D02*
X3208Y877D01*
X3235Y877D02*
X3257Y877D01*
X3286Y877D02*
X3308Y877D01*
X3335Y877D02*
X3357Y877D01*
X3386Y877D02*
X3408Y877D01*
X3435Y877D02*
X3457Y877D01*
X3486Y877D02*
X3508Y877D01*
X3535Y877D02*
X3557Y877D01*
X3586Y877D02*
X3608Y877D01*
X3635Y877D02*
X3657Y877D01*
X3686Y877D02*
X3708Y877D01*
X3735Y877D02*
X3757Y877D01*
X3786Y877D02*
X3808Y877D01*
X3835Y877D02*
X3857Y877D01*
X3886Y877D02*
X3908Y877D01*
X3935Y877D02*
X3957Y877D01*
X3986Y877D02*
X4008Y877D01*
X4035Y877D02*
X4057Y877D01*
X4086Y877D02*
X4108Y877D01*
X4135Y877D02*
X4157Y877D01*
X4186Y877D02*
X4208Y877D01*
X4235Y877D02*
X4257Y877D01*
X4286Y877D02*
X4308Y877D01*
X4335Y877D02*
X4357Y877D01*
X4386Y877D02*
X4408Y877D01*
X4435Y877D02*
X4457Y877D01*
X4486Y877D02*
X4508Y877D01*
X4535Y877D02*
X4557Y877D01*
X4585Y877D02*
X4608Y877D01*
X4635Y877D02*
X4657Y877D01*
X3185Y876D02*
X3207Y876D01*
X3236Y876D02*
X3257Y876D01*
X3285Y876D02*
X3307Y876D01*
X3336Y876D02*
X3357Y876D01*
X3385Y876D02*
X3407Y876D01*
X3436Y876D02*
X3457Y876D01*
X3485Y876D02*
X3507Y876D01*
X3536Y876D02*
X3557Y876D01*
X3585Y876D02*
X3607Y876D01*
X3636Y876D02*
X3657Y876D01*
X3685Y876D02*
X3707Y876D01*
X3736Y876D02*
X3757Y876D01*
X3785Y876D02*
X3807Y876D01*
X3836Y876D02*
X3857Y876D01*
X3885Y876D02*
X3907Y876D01*
X3936Y876D02*
X3957Y876D01*
X3985Y876D02*
X4007Y876D01*
X4036Y876D02*
X4057Y876D01*
X4085Y876D02*
X4107Y876D01*
X4136Y876D02*
X4157Y876D01*
X4185Y876D02*
X4207Y876D01*
X4236Y876D02*
X4257Y876D01*
X4286Y876D02*
X4307Y876D01*
X4336Y876D02*
X4358Y876D01*
X4385Y876D02*
X4407Y876D01*
X4436Y876D02*
X4458Y876D01*
X4485Y876D02*
X4507Y876D01*
X4536Y876D02*
X4557Y876D01*
X4585Y876D02*
X4607Y876D01*
X4636Y876D02*
X4657Y876D01*
X3185Y875D02*
X3206Y875D01*
X3237Y875D02*
X3258Y875D01*
X3285Y875D02*
X3306Y875D01*
X3337Y875D02*
X3358Y875D01*
X3385Y875D02*
X3406Y875D01*
X3437Y875D02*
X3458Y875D01*
X3485Y875D02*
X3506Y875D01*
X3537Y875D02*
X3558Y875D01*
X3585Y875D02*
X3606Y875D01*
X3637Y875D02*
X3658Y875D01*
X3685Y875D02*
X3706Y875D01*
X3737Y875D02*
X3758Y875D01*
X3785Y875D02*
X3806Y875D01*
X3837Y875D02*
X3858Y875D01*
X3885Y875D02*
X3906Y875D01*
X3937Y875D02*
X3958Y875D01*
X3985Y875D02*
X4006Y875D01*
X4037Y875D02*
X4058Y875D01*
X4085Y875D02*
X4106Y875D01*
X4137Y875D02*
X4158Y875D01*
X4185Y875D02*
X4206Y875D01*
X4237Y875D02*
X4258Y875D01*
X4285Y875D02*
X4306Y875D01*
X4337Y875D02*
X4358Y875D01*
X4385Y875D02*
X4406Y875D01*
X4437Y875D02*
X4458Y875D01*
X4485Y875D02*
X4506Y875D01*
X4537Y875D02*
X4558Y875D01*
X4585Y875D02*
X4606Y875D01*
X4637Y875D02*
X4658Y875D01*
X3185Y874D02*
X3205Y874D01*
X3238Y874D02*
X3258Y874D01*
X3285Y874D02*
X3305Y874D01*
X3338Y874D02*
X3358Y874D01*
X3385Y874D02*
X3405Y874D01*
X3438Y874D02*
X3458Y874D01*
X3485Y874D02*
X3505Y874D01*
X3538Y874D02*
X3558Y874D01*
X3585Y874D02*
X3605Y874D01*
X3638Y874D02*
X3658Y874D01*
X3685Y874D02*
X3705Y874D01*
X3738Y874D02*
X3758Y874D01*
X3785Y874D02*
X3805Y874D01*
X3838Y874D02*
X3858Y874D01*
X3885Y874D02*
X3905Y874D01*
X3938Y874D02*
X3958Y874D01*
X3985Y874D02*
X4005Y874D01*
X4038Y874D02*
X4058Y874D01*
X4085Y874D02*
X4105Y874D01*
X4138Y874D02*
X4158Y874D01*
X4185Y874D02*
X4205Y874D01*
X4238Y874D02*
X4258Y874D01*
X4285Y874D02*
X4305Y874D01*
X4338Y874D02*
X4358Y874D01*
X4385Y874D02*
X4405Y874D01*
X4438Y874D02*
X4458Y874D01*
X4485Y874D02*
X4505Y874D01*
X4538Y874D02*
X4558Y874D01*
X4584Y874D02*
X4605Y874D01*
X4637Y874D02*
X4658Y874D01*
X3184Y873D02*
X3204Y873D01*
X3238Y873D02*
X3258Y873D01*
X3284Y873D02*
X3304Y873D01*
X3338Y873D02*
X3358Y873D01*
X3384Y873D02*
X3404Y873D01*
X3438Y873D02*
X3458Y873D01*
X3484Y873D02*
X3504Y873D01*
X3538Y873D02*
X3558Y873D01*
X3584Y873D02*
X3604Y873D01*
X3638Y873D02*
X3658Y873D01*
X3684Y873D02*
X3704Y873D01*
X3738Y873D02*
X3758Y873D01*
X3784Y873D02*
X3804Y873D01*
X3838Y873D02*
X3858Y873D01*
X3884Y873D02*
X3904Y873D01*
X3938Y873D02*
X3958Y873D01*
X3984Y873D02*
X4004Y873D01*
X4038Y873D02*
X4058Y873D01*
X4084Y873D02*
X4104Y873D01*
X4138Y873D02*
X4158Y873D01*
X4184Y873D02*
X4204Y873D01*
X4238Y873D02*
X4258Y873D01*
X4285Y873D02*
X4305Y873D01*
X4339Y873D02*
X4359Y873D01*
X4385Y873D02*
X4405Y873D01*
X4438Y873D02*
X4459Y873D01*
X4484Y873D02*
X4504Y873D01*
X4538Y873D02*
X4558Y873D01*
X4584Y873D02*
X4604Y873D01*
X4638Y873D02*
X4658Y873D01*
X3184Y872D02*
X3204Y872D01*
X3239Y872D02*
X3259Y872D01*
X3284Y872D02*
X3304Y872D01*
X3339Y872D02*
X3359Y872D01*
X3384Y872D02*
X3404Y872D01*
X3439Y872D02*
X3459Y872D01*
X3484Y872D02*
X3504Y872D01*
X3539Y872D02*
X3559Y872D01*
X3584Y872D02*
X3604Y872D01*
X3639Y872D02*
X3659Y872D01*
X3684Y872D02*
X3704Y872D01*
X3739Y872D02*
X3759Y872D01*
X3784Y872D02*
X3804Y872D01*
X3839Y872D02*
X3859Y872D01*
X3884Y872D02*
X3904Y872D01*
X3939Y872D02*
X3959Y872D01*
X3984Y872D02*
X4004Y872D01*
X4039Y872D02*
X4059Y872D01*
X4084Y872D02*
X4104Y872D01*
X4139Y872D02*
X4159Y872D01*
X4184Y872D02*
X4204Y872D01*
X4239Y872D02*
X4259Y872D01*
X4284Y872D02*
X4304Y872D01*
X4339Y872D02*
X4359Y872D01*
X4384Y872D02*
X4404Y872D01*
X4439Y872D02*
X4459Y872D01*
X4484Y872D02*
X4504Y872D01*
X4539Y872D02*
X4559Y872D01*
X4584Y872D02*
X4604Y872D01*
X4639Y872D02*
X4659Y872D01*
X3184Y871D02*
X3203Y871D01*
X3239Y871D02*
X3259Y871D01*
X3284Y871D02*
X3303Y871D01*
X3339Y871D02*
X3359Y871D01*
X3384Y871D02*
X3403Y871D01*
X3439Y871D02*
X3459Y871D01*
X3484Y871D02*
X3503Y871D01*
X3539Y871D02*
X3559Y871D01*
X3584Y871D02*
X3603Y871D01*
X3639Y871D02*
X3659Y871D01*
X3684Y871D02*
X3703Y871D01*
X3739Y871D02*
X3759Y871D01*
X3784Y871D02*
X3803Y871D01*
X3839Y871D02*
X3859Y871D01*
X3884Y871D02*
X3903Y871D01*
X3939Y871D02*
X3959Y871D01*
X3984Y871D02*
X4003Y871D01*
X4039Y871D02*
X4059Y871D01*
X4084Y871D02*
X4103Y871D01*
X4139Y871D02*
X4159Y871D01*
X4184Y871D02*
X4203Y871D01*
X4239Y871D02*
X4259Y871D01*
X4284Y871D02*
X4304Y871D01*
X4340Y871D02*
X4359Y871D01*
X4384Y871D02*
X4404Y871D01*
X4440Y871D02*
X4459Y871D01*
X4484Y871D02*
X4503Y871D01*
X4539Y871D02*
X4559Y871D01*
X4584Y871D02*
X4603Y871D01*
X4639Y871D02*
X4659Y871D01*
X3184Y870D02*
X3203Y870D01*
X3240Y870D02*
X3259Y870D01*
X3284Y870D02*
X3303Y870D01*
X3340Y870D02*
X3359Y870D01*
X3384Y870D02*
X3403Y870D01*
X3440Y870D02*
X3459Y870D01*
X3484Y870D02*
X3503Y870D01*
X3540Y870D02*
X3559Y870D01*
X3584Y870D02*
X3603Y870D01*
X3640Y870D02*
X3659Y870D01*
X3684Y870D02*
X3703Y870D01*
X3740Y870D02*
X3759Y870D01*
X3784Y870D02*
X3803Y870D01*
X3840Y870D02*
X3859Y870D01*
X3884Y870D02*
X3903Y870D01*
X3940Y870D02*
X3959Y870D01*
X3984Y870D02*
X4003Y870D01*
X4040Y870D02*
X4059Y870D01*
X4084Y870D02*
X4103Y870D01*
X4140Y870D02*
X4159Y870D01*
X4184Y870D02*
X4203Y870D01*
X4240Y870D02*
X4259Y870D01*
X4284Y870D02*
X4303Y870D01*
X4340Y870D02*
X4359Y870D01*
X4384Y870D02*
X4403Y870D01*
X4440Y870D02*
X4459Y870D01*
X4484Y870D02*
X4503Y870D01*
X4540Y870D02*
X4559Y870D01*
X4583Y870D02*
X4603Y870D01*
X4640Y870D02*
X4659Y870D01*
X3183Y869D02*
X3203Y869D01*
X3240Y869D02*
X3259Y869D01*
X3283Y869D02*
X3303Y869D01*
X3340Y869D02*
X3359Y869D01*
X3383Y869D02*
X3403Y869D01*
X3440Y869D02*
X3459Y869D01*
X3483Y869D02*
X3503Y869D01*
X3540Y869D02*
X3559Y869D01*
X3583Y869D02*
X3603Y869D01*
X3640Y869D02*
X3659Y869D01*
X3683Y869D02*
X3703Y869D01*
X3740Y869D02*
X3759Y869D01*
X3783Y869D02*
X3803Y869D01*
X3840Y869D02*
X3859Y869D01*
X3883Y869D02*
X3903Y869D01*
X3940Y869D02*
X3959Y869D01*
X3983Y869D02*
X4003Y869D01*
X4040Y869D02*
X4059Y869D01*
X4083Y869D02*
X4103Y869D01*
X4140Y869D02*
X4159Y869D01*
X4183Y869D02*
X4203Y869D01*
X4240Y869D02*
X4259Y869D01*
X4284Y869D02*
X4303Y869D01*
X4340Y869D02*
X4360Y869D01*
X4384Y869D02*
X4403Y869D01*
X4440Y869D02*
X4459Y869D01*
X4483Y869D02*
X4503Y869D01*
X4540Y869D02*
X4559Y869D01*
X4583Y869D02*
X4603Y869D01*
X4640Y869D02*
X4659Y869D01*
X3183Y868D02*
X3202Y868D01*
X3240Y868D02*
X3259Y868D01*
X3283Y868D02*
X3302Y868D01*
X3340Y868D02*
X3359Y868D01*
X3383Y868D02*
X3402Y868D01*
X3440Y868D02*
X3459Y868D01*
X3483Y868D02*
X3502Y868D01*
X3540Y868D02*
X3559Y868D01*
X3583Y868D02*
X3602Y868D01*
X3640Y868D02*
X3659Y868D01*
X3683Y868D02*
X3702Y868D01*
X3740Y868D02*
X3759Y868D01*
X3783Y868D02*
X3802Y868D01*
X3840Y868D02*
X3859Y868D01*
X3883Y868D02*
X3902Y868D01*
X3940Y868D02*
X3959Y868D01*
X3983Y868D02*
X4002Y868D01*
X4040Y868D02*
X4059Y868D01*
X4083Y868D02*
X4102Y868D01*
X4140Y868D02*
X4159Y868D01*
X4183Y868D02*
X4202Y868D01*
X4240Y868D02*
X4259Y868D01*
X4284Y868D02*
X4303Y868D01*
X4341Y868D02*
X4360Y868D01*
X4383Y868D02*
X4403Y868D01*
X4441Y868D02*
X4460Y868D01*
X4483Y868D02*
X4502Y868D01*
X4540Y868D02*
X4559Y868D01*
X4583Y868D02*
X4602Y868D01*
X4640Y868D02*
X4659Y868D01*
X3183Y867D02*
X3202Y867D01*
X3241Y867D02*
X3260Y867D01*
X3283Y867D02*
X3302Y867D01*
X3341Y867D02*
X3360Y867D01*
X3383Y867D02*
X3402Y867D01*
X3441Y867D02*
X3460Y867D01*
X3483Y867D02*
X3502Y867D01*
X3541Y867D02*
X3560Y867D01*
X3583Y867D02*
X3602Y867D01*
X3641Y867D02*
X3660Y867D01*
X3683Y867D02*
X3702Y867D01*
X3741Y867D02*
X3760Y867D01*
X3783Y867D02*
X3802Y867D01*
X3840Y867D02*
X3860Y867D01*
X3883Y867D02*
X3902Y867D01*
X3940Y867D02*
X3960Y867D01*
X3983Y867D02*
X4002Y867D01*
X4040Y867D02*
X4059Y867D01*
X4083Y867D02*
X4102Y867D01*
X4140Y867D02*
X4159Y867D01*
X4183Y867D02*
X4202Y867D01*
X4240Y867D02*
X4259Y867D01*
X4283Y867D02*
X4303Y867D01*
X4341Y867D02*
X4360Y867D01*
X4383Y867D02*
X4402Y867D01*
X4441Y867D02*
X4460Y867D01*
X4483Y867D02*
X4502Y867D01*
X4541Y867D02*
X4560Y867D01*
X4583Y867D02*
X4602Y867D01*
X4640Y867D02*
X4659Y867D01*
X3183Y866D02*
X3202Y866D01*
X3241Y866D02*
X3260Y866D01*
X3283Y866D02*
X3302Y866D01*
X3341Y866D02*
X3360Y866D01*
X3383Y866D02*
X3402Y866D01*
X3441Y866D02*
X3460Y866D01*
X3483Y866D02*
X3502Y866D01*
X3541Y866D02*
X3560Y866D01*
X3583Y866D02*
X3602Y866D01*
X3641Y866D02*
X3660Y866D01*
X3683Y866D02*
X3702Y866D01*
X3741Y866D02*
X3760Y866D01*
X3783Y866D02*
X3802Y866D01*
X3841Y866D02*
X3860Y866D01*
X3883Y866D02*
X3902Y866D01*
X3941Y866D02*
X3960Y866D01*
X3983Y866D02*
X4002Y866D01*
X4041Y866D02*
X4060Y866D01*
X4083Y866D02*
X4102Y866D01*
X4141Y866D02*
X4160Y866D01*
X4183Y866D02*
X4202Y866D01*
X4241Y866D02*
X4260Y866D01*
X4283Y866D02*
X4302Y866D01*
X4341Y866D02*
X4360Y866D01*
X4383Y866D02*
X4402Y866D01*
X4441Y866D02*
X4460Y866D01*
X4483Y866D02*
X4502Y866D01*
X4541Y866D02*
X4560Y866D01*
X4583Y866D02*
X4602Y866D01*
X4640Y866D02*
X4659Y866D01*
X3183Y865D02*
X3202Y865D01*
X3241Y865D02*
X3260Y865D01*
X3283Y865D02*
X3302Y865D01*
X3341Y865D02*
X3360Y865D01*
X3383Y865D02*
X3402Y865D01*
X3441Y865D02*
X3460Y865D01*
X3483Y865D02*
X3502Y865D01*
X3541Y865D02*
X3560Y865D01*
X3583Y865D02*
X3602Y865D01*
X3641Y865D02*
X3660Y865D01*
X3683Y865D02*
X3702Y865D01*
X3741Y865D02*
X3760Y865D01*
X3783Y865D02*
X3802Y865D01*
X3841Y865D02*
X3860Y865D01*
X3883Y865D02*
X3902Y865D01*
X3941Y865D02*
X3960Y865D01*
X3983Y865D02*
X4002Y865D01*
X4041Y865D02*
X4060Y865D01*
X4083Y865D02*
X4102Y865D01*
X4141Y865D02*
X4160Y865D01*
X4183Y865D02*
X4202Y865D01*
X4241Y865D02*
X4260Y865D01*
X4283Y865D02*
X4302Y865D01*
X4341Y865D02*
X4360Y865D01*
X4383Y865D02*
X4402Y865D01*
X4441Y865D02*
X4460Y865D01*
X4483Y865D02*
X4502Y865D01*
X4541Y865D02*
X4560Y865D01*
X4583Y865D02*
X4602Y865D01*
X4641Y865D02*
X4660Y865D01*
X3183Y864D02*
X3202Y864D01*
X3241Y864D02*
X3260Y864D01*
X3283Y864D02*
X3302Y864D01*
X3341Y864D02*
X3360Y864D01*
X3383Y864D02*
X3402Y864D01*
X3441Y864D02*
X3460Y864D01*
X3483Y864D02*
X3502Y864D01*
X3541Y864D02*
X3560Y864D01*
X3583Y864D02*
X3602Y864D01*
X3641Y864D02*
X3660Y864D01*
X3683Y864D02*
X3702Y864D01*
X3741Y864D02*
X3760Y864D01*
X3783Y864D02*
X3802Y864D01*
X3841Y864D02*
X3860Y864D01*
X3883Y864D02*
X3902Y864D01*
X3941Y864D02*
X3960Y864D01*
X3983Y864D02*
X4002Y864D01*
X4041Y864D02*
X4060Y864D01*
X4083Y864D02*
X4102Y864D01*
X4141Y864D02*
X4160Y864D01*
X4183Y864D02*
X4202Y864D01*
X4241Y864D02*
X4260Y864D01*
X4283Y864D02*
X4302Y864D01*
X4341Y864D02*
X4360Y864D01*
X4383Y864D02*
X4402Y864D01*
X4441Y864D02*
X4460Y864D01*
X4483Y864D02*
X4502Y864D01*
X4541Y864D02*
X4560Y864D01*
X4583Y864D02*
X4602Y864D01*
X4641Y864D02*
X4660Y864D01*
X3183Y863D02*
X3202Y863D01*
X3241Y863D02*
X3260Y863D01*
X3283Y863D02*
X3302Y863D01*
X3341Y863D02*
X3360Y863D01*
X3383Y863D02*
X3402Y863D01*
X3441Y863D02*
X3460Y863D01*
X3483Y863D02*
X3502Y863D01*
X3541Y863D02*
X3560Y863D01*
X3583Y863D02*
X3602Y863D01*
X3641Y863D02*
X3660Y863D01*
X3683Y863D02*
X3702Y863D01*
X3741Y863D02*
X3760Y863D01*
X3783Y863D02*
X3802Y863D01*
X3841Y863D02*
X3860Y863D01*
X3883Y863D02*
X3902Y863D01*
X3941Y863D02*
X3960Y863D01*
X3983Y863D02*
X4002Y863D01*
X4041Y863D02*
X4060Y863D01*
X4083Y863D02*
X4102Y863D01*
X4141Y863D02*
X4160Y863D01*
X4183Y863D02*
X4202Y863D01*
X4241Y863D02*
X4260Y863D01*
X4283Y863D02*
X4302Y863D01*
X4341Y863D02*
X4360Y863D01*
X4383Y863D02*
X4402Y863D01*
X4441Y863D02*
X4460Y863D01*
X4483Y863D02*
X4502Y863D01*
X4541Y863D02*
X4560Y863D01*
X4583Y863D02*
X4602Y863D01*
X4641Y863D02*
X4660Y863D01*
X3183Y862D02*
X3202Y862D01*
X3241Y862D02*
X3260Y862D01*
X3283Y862D02*
X3302Y862D01*
X3341Y862D02*
X3360Y862D01*
X3383Y862D02*
X3402Y862D01*
X3441Y862D02*
X3460Y862D01*
X3483Y862D02*
X3502Y862D01*
X3541Y862D02*
X3560Y862D01*
X3583Y862D02*
X3602Y862D01*
X3641Y862D02*
X3660Y862D01*
X3683Y862D02*
X3702Y862D01*
X3741Y862D02*
X3760Y862D01*
X3783Y862D02*
X3802Y862D01*
X3841Y862D02*
X3860Y862D01*
X3883Y862D02*
X3902Y862D01*
X3941Y862D02*
X3960Y862D01*
X3983Y862D02*
X4002Y862D01*
X4041Y862D02*
X4060Y862D01*
X4083Y862D02*
X4102Y862D01*
X4141Y862D02*
X4160Y862D01*
X4183Y862D02*
X4202Y862D01*
X4241Y862D02*
X4260Y862D01*
X4283Y862D02*
X4302Y862D01*
X4341Y862D02*
X4360Y862D01*
X4383Y862D02*
X4402Y862D01*
X4441Y862D02*
X4460Y862D01*
X4483Y862D02*
X4502Y862D01*
X4541Y862D02*
X4560Y862D01*
X4583Y862D02*
X4602Y862D01*
X4641Y862D02*
X4660Y862D01*
X3183Y861D02*
X3202Y861D01*
X3241Y861D02*
X3260Y861D01*
X3283Y861D02*
X3302Y861D01*
X3341Y861D02*
X3360Y861D01*
X3383Y861D02*
X3402Y861D01*
X3441Y861D02*
X3460Y861D01*
X3483Y861D02*
X3502Y861D01*
X3541Y861D02*
X3560Y861D01*
X3583Y861D02*
X3602Y861D01*
X3641Y861D02*
X3660Y861D01*
X3683Y861D02*
X3702Y861D01*
X3741Y861D02*
X3760Y861D01*
X3783Y861D02*
X3802Y861D01*
X3841Y861D02*
X3860Y861D01*
X3883Y861D02*
X3902Y861D01*
X3941Y861D02*
X3960Y861D01*
X3983Y861D02*
X4002Y861D01*
X4041Y861D02*
X4060Y861D01*
X4083Y861D02*
X4102Y861D01*
X4141Y861D02*
X4160Y861D01*
X4183Y861D02*
X4202Y861D01*
X4241Y861D02*
X4260Y861D01*
X4283Y861D02*
X4302Y861D01*
X4341Y861D02*
X4360Y861D01*
X4383Y861D02*
X4402Y861D01*
X4441Y861D02*
X4460Y861D01*
X4483Y861D02*
X4502Y861D01*
X4541Y861D02*
X4560Y861D01*
X4583Y861D02*
X4602Y861D01*
X4640Y861D02*
X4660Y861D01*
X3183Y860D02*
X3202Y860D01*
X3241Y860D02*
X3260Y860D01*
X3283Y860D02*
X3302Y860D01*
X3341Y860D02*
X3360Y860D01*
X3383Y860D02*
X3402Y860D01*
X3441Y860D02*
X3460Y860D01*
X3483Y860D02*
X3502Y860D01*
X3541Y860D02*
X3560Y860D01*
X3583Y860D02*
X3602Y860D01*
X3641Y860D02*
X3660Y860D01*
X3683Y860D02*
X3702Y860D01*
X3741Y860D02*
X3760Y860D01*
X3783Y860D02*
X3802Y860D01*
X3841Y860D02*
X3860Y860D01*
X3883Y860D02*
X3902Y860D01*
X3941Y860D02*
X3960Y860D01*
X3983Y860D02*
X4002Y860D01*
X4040Y860D02*
X4060Y860D01*
X4083Y860D02*
X4102Y860D01*
X4140Y860D02*
X4160Y860D01*
X4183Y860D02*
X4202Y860D01*
X4240Y860D02*
X4259Y860D01*
X4283Y860D02*
X4302Y860D01*
X4341Y860D02*
X4360Y860D01*
X4383Y860D02*
X4402Y860D01*
X4441Y860D02*
X4460Y860D01*
X4483Y860D02*
X4502Y860D01*
X4541Y860D02*
X4560Y860D01*
X4583Y860D02*
X4602Y860D01*
X4640Y860D02*
X4659Y860D01*
X3183Y859D02*
X3202Y859D01*
X3240Y859D02*
X3260Y859D01*
X3283Y859D02*
X3302Y859D01*
X3340Y859D02*
X3359Y859D01*
X3383Y859D02*
X3402Y859D01*
X3440Y859D02*
X3459Y859D01*
X3483Y859D02*
X3502Y859D01*
X3540Y859D02*
X3559Y859D01*
X3583Y859D02*
X3602Y859D01*
X3640Y859D02*
X3659Y859D01*
X3683Y859D02*
X3702Y859D01*
X3740Y859D02*
X3759Y859D01*
X3783Y859D02*
X3802Y859D01*
X3840Y859D02*
X3859Y859D01*
X3883Y859D02*
X3902Y859D01*
X3940Y859D02*
X3959Y859D01*
X3983Y859D02*
X4002Y859D01*
X4040Y859D02*
X4059Y859D01*
X4083Y859D02*
X4102Y859D01*
X4140Y859D02*
X4159Y859D01*
X4183Y859D02*
X4202Y859D01*
X4240Y859D02*
X4259Y859D01*
X4284Y859D02*
X4303Y859D01*
X4341Y859D02*
X4360Y859D01*
X4383Y859D02*
X4402Y859D01*
X4441Y859D02*
X4460Y859D01*
X4483Y859D02*
X4502Y859D01*
X4540Y859D02*
X4560Y859D01*
X4583Y859D02*
X4602Y859D01*
X4640Y859D02*
X4659Y859D01*
X3183Y858D02*
X3203Y858D01*
X3240Y858D02*
X3259Y858D01*
X3283Y858D02*
X3303Y858D01*
X3340Y858D02*
X3359Y858D01*
X3383Y858D02*
X3403Y858D01*
X3440Y858D02*
X3459Y858D01*
X3483Y858D02*
X3503Y858D01*
X3540Y858D02*
X3559Y858D01*
X3583Y858D02*
X3603Y858D01*
X3640Y858D02*
X3659Y858D01*
X3683Y858D02*
X3703Y858D01*
X3740Y858D02*
X3759Y858D01*
X3783Y858D02*
X3803Y858D01*
X3840Y858D02*
X3859Y858D01*
X3883Y858D02*
X3903Y858D01*
X3940Y858D02*
X3959Y858D01*
X3983Y858D02*
X4003Y858D01*
X4040Y858D02*
X4059Y858D01*
X4083Y858D02*
X4102Y858D01*
X4140Y858D02*
X4159Y858D01*
X4183Y858D02*
X4202Y858D01*
X4240Y858D02*
X4259Y858D01*
X4284Y858D02*
X4303Y858D01*
X4340Y858D02*
X4360Y858D01*
X4384Y858D02*
X4403Y858D01*
X4440Y858D02*
X4459Y858D01*
X4483Y858D02*
X4503Y858D01*
X4540Y858D02*
X4559Y858D01*
X4583Y858D02*
X4602Y858D01*
X4640Y858D02*
X4659Y858D01*
X3184Y857D02*
X3203Y857D01*
X3240Y857D02*
X3259Y857D01*
X3284Y857D02*
X3303Y857D01*
X3340Y857D02*
X3359Y857D01*
X3384Y857D02*
X3403Y857D01*
X3440Y857D02*
X3459Y857D01*
X3484Y857D02*
X3503Y857D01*
X3540Y857D02*
X3559Y857D01*
X3584Y857D02*
X3603Y857D01*
X3640Y857D02*
X3659Y857D01*
X3684Y857D02*
X3703Y857D01*
X3740Y857D02*
X3759Y857D01*
X3784Y857D02*
X3803Y857D01*
X3840Y857D02*
X3859Y857D01*
X3884Y857D02*
X3903Y857D01*
X3940Y857D02*
X3959Y857D01*
X3983Y857D02*
X4003Y857D01*
X4040Y857D02*
X4059Y857D01*
X4083Y857D02*
X4103Y857D01*
X4140Y857D02*
X4159Y857D01*
X4183Y857D02*
X4203Y857D01*
X4240Y857D02*
X4259Y857D01*
X4284Y857D02*
X4303Y857D01*
X4340Y857D02*
X4359Y857D01*
X4384Y857D02*
X4403Y857D01*
X4440Y857D02*
X4459Y857D01*
X4484Y857D02*
X4503Y857D01*
X4540Y857D02*
X4559Y857D01*
X4583Y857D02*
X4603Y857D01*
X4640Y857D02*
X4659Y857D01*
X3184Y856D02*
X3203Y856D01*
X3240Y856D02*
X3259Y856D01*
X3284Y856D02*
X3303Y856D01*
X3340Y856D02*
X3359Y856D01*
X3384Y856D02*
X3403Y856D01*
X3440Y856D02*
X3459Y856D01*
X3484Y856D02*
X3503Y856D01*
X3540Y856D02*
X3559Y856D01*
X3584Y856D02*
X3603Y856D01*
X3640Y856D02*
X3659Y856D01*
X3684Y856D02*
X3703Y856D01*
X3739Y856D02*
X3759Y856D01*
X3784Y856D02*
X3803Y856D01*
X3839Y856D02*
X3859Y856D01*
X3884Y856D02*
X3903Y856D01*
X3939Y856D02*
X3959Y856D01*
X3984Y856D02*
X4003Y856D01*
X4039Y856D02*
X4059Y856D01*
X4084Y856D02*
X4103Y856D01*
X4139Y856D02*
X4159Y856D01*
X4184Y856D02*
X4203Y856D01*
X4239Y856D02*
X4259Y856D01*
X4284Y856D02*
X4304Y856D01*
X4340Y856D02*
X4359Y856D01*
X4384Y856D02*
X4403Y856D01*
X4440Y856D02*
X4459Y856D01*
X4484Y856D02*
X4503Y856D01*
X4540Y856D02*
X4559Y856D01*
X4584Y856D02*
X4603Y856D01*
X4639Y856D02*
X4659Y856D01*
X3184Y855D02*
X3204Y855D01*
X3239Y855D02*
X3259Y855D01*
X3284Y855D02*
X3304Y855D01*
X3339Y855D02*
X3359Y855D01*
X3384Y855D02*
X3404Y855D01*
X3439Y855D02*
X3459Y855D01*
X3484Y855D02*
X3504Y855D01*
X3539Y855D02*
X3559Y855D01*
X3584Y855D02*
X3604Y855D01*
X3639Y855D02*
X3659Y855D01*
X3684Y855D02*
X3704Y855D01*
X3739Y855D02*
X3759Y855D01*
X3784Y855D02*
X3804Y855D01*
X3839Y855D02*
X3859Y855D01*
X3884Y855D02*
X3904Y855D01*
X3939Y855D02*
X3959Y855D01*
X3984Y855D02*
X4004Y855D01*
X4039Y855D02*
X4059Y855D01*
X4084Y855D02*
X4104Y855D01*
X4139Y855D02*
X4159Y855D01*
X4184Y855D02*
X4204Y855D01*
X4239Y855D02*
X4259Y855D01*
X4284Y855D02*
X4304Y855D01*
X4339Y855D02*
X4359Y855D01*
X4384Y855D02*
X4404Y855D01*
X4439Y855D02*
X4459Y855D01*
X4484Y855D02*
X4504Y855D01*
X4539Y855D02*
X4559Y855D01*
X4584Y855D02*
X4604Y855D01*
X4639Y855D02*
X4659Y855D01*
X3184Y854D02*
X3204Y854D01*
X3238Y854D02*
X3258Y854D01*
X3284Y854D02*
X3304Y854D01*
X3338Y854D02*
X3358Y854D01*
X3384Y854D02*
X3404Y854D01*
X3438Y854D02*
X3458Y854D01*
X3484Y854D02*
X3504Y854D01*
X3538Y854D02*
X3558Y854D01*
X3584Y854D02*
X3604Y854D01*
X3638Y854D02*
X3658Y854D01*
X3684Y854D02*
X3704Y854D01*
X3738Y854D02*
X3758Y854D01*
X3784Y854D02*
X3804Y854D01*
X3838Y854D02*
X3858Y854D01*
X3884Y854D02*
X3904Y854D01*
X3938Y854D02*
X3958Y854D01*
X3984Y854D02*
X4004Y854D01*
X4038Y854D02*
X4058Y854D01*
X4084Y854D02*
X4104Y854D01*
X4138Y854D02*
X4158Y854D01*
X4184Y854D02*
X4204Y854D01*
X4238Y854D02*
X4258Y854D01*
X4285Y854D02*
X4305Y854D01*
X4339Y854D02*
X4359Y854D01*
X4384Y854D02*
X4404Y854D01*
X4439Y854D02*
X4459Y854D01*
X4484Y854D02*
X4504Y854D01*
X4538Y854D02*
X4558Y854D01*
X4584Y854D02*
X4604Y854D01*
X4638Y854D02*
X4658Y854D01*
X3185Y853D02*
X3205Y853D01*
X3238Y853D02*
X3258Y853D01*
X3285Y853D02*
X3305Y853D01*
X3338Y853D02*
X3358Y853D01*
X3385Y853D02*
X3405Y853D01*
X3438Y853D02*
X3458Y853D01*
X3485Y853D02*
X3505Y853D01*
X3538Y853D02*
X3558Y853D01*
X3584Y853D02*
X3605Y853D01*
X3638Y853D02*
X3658Y853D01*
X3684Y853D02*
X3705Y853D01*
X3738Y853D02*
X3758Y853D01*
X3784Y853D02*
X3805Y853D01*
X3838Y853D02*
X3858Y853D01*
X3884Y853D02*
X3905Y853D01*
X3938Y853D02*
X3958Y853D01*
X3984Y853D02*
X4005Y853D01*
X4038Y853D02*
X4058Y853D01*
X4084Y853D02*
X4105Y853D01*
X4138Y853D02*
X4158Y853D01*
X4184Y853D02*
X4205Y853D01*
X4238Y853D02*
X4258Y853D01*
X4285Y853D02*
X4305Y853D01*
X4338Y853D02*
X4359Y853D01*
X4385Y853D02*
X4405Y853D01*
X4438Y853D02*
X4458Y853D01*
X4485Y853D02*
X4505Y853D01*
X4538Y853D02*
X4558Y853D01*
X4584Y853D02*
X4605Y853D01*
X4638Y853D02*
X4658Y853D01*
X3185Y852D02*
X3206Y852D01*
X3237Y852D02*
X3258Y852D01*
X3285Y852D02*
X3306Y852D01*
X3337Y852D02*
X3358Y852D01*
X3385Y852D02*
X3406Y852D01*
X3437Y852D02*
X3458Y852D01*
X3485Y852D02*
X3506Y852D01*
X3537Y852D02*
X3558Y852D01*
X3585Y852D02*
X3606Y852D01*
X3637Y852D02*
X3658Y852D01*
X3685Y852D02*
X3706Y852D01*
X3737Y852D02*
X3758Y852D01*
X3785Y852D02*
X3806Y852D01*
X3837Y852D02*
X3858Y852D01*
X3885Y852D02*
X3906Y852D01*
X3937Y852D02*
X3958Y852D01*
X3985Y852D02*
X4006Y852D01*
X4037Y852D02*
X4058Y852D01*
X4085Y852D02*
X4106Y852D01*
X4137Y852D02*
X4158Y852D01*
X4185Y852D02*
X4206Y852D01*
X4237Y852D02*
X4258Y852D01*
X4285Y852D02*
X4306Y852D01*
X4337Y852D02*
X4358Y852D01*
X4385Y852D02*
X4406Y852D01*
X4437Y852D02*
X4458Y852D01*
X4485Y852D02*
X4506Y852D01*
X4537Y852D02*
X4558Y852D01*
X4585Y852D02*
X4606Y852D01*
X4637Y852D02*
X4658Y852D01*
X3185Y851D02*
X3207Y851D01*
X3236Y851D02*
X3258Y851D01*
X3285Y851D02*
X3307Y851D01*
X3336Y851D02*
X3358Y851D01*
X3385Y851D02*
X3407Y851D01*
X3436Y851D02*
X3458Y851D01*
X3485Y851D02*
X3507Y851D01*
X3536Y851D02*
X3558Y851D01*
X3585Y851D02*
X3607Y851D01*
X3636Y851D02*
X3658Y851D01*
X3685Y851D02*
X3707Y851D01*
X3736Y851D02*
X3758Y851D01*
X3785Y851D02*
X3806Y851D01*
X3836Y851D02*
X3858Y851D01*
X3885Y851D02*
X3906Y851D01*
X3936Y851D02*
X3957Y851D01*
X3985Y851D02*
X4006Y851D01*
X4036Y851D02*
X4057Y851D01*
X4085Y851D02*
X4106Y851D01*
X4136Y851D02*
X4157Y851D01*
X4185Y851D02*
X4206Y851D01*
X4236Y851D02*
X4257Y851D01*
X4285Y851D02*
X4307Y851D01*
X4337Y851D02*
X4358Y851D01*
X4385Y851D02*
X4407Y851D01*
X4436Y851D02*
X4458Y851D01*
X4485Y851D02*
X4507Y851D01*
X4536Y851D02*
X4558Y851D01*
X4585Y851D02*
X4606Y851D01*
X4636Y851D02*
X4657Y851D01*
X3186Y850D02*
X3207Y850D01*
X3235Y850D02*
X3257Y850D01*
X3286Y850D02*
X3307Y850D01*
X3335Y850D02*
X3357Y850D01*
X3386Y850D02*
X3407Y850D01*
X3435Y850D02*
X3457Y850D01*
X3486Y850D02*
X3507Y850D01*
X3535Y850D02*
X3557Y850D01*
X3586Y850D02*
X3607Y850D01*
X3635Y850D02*
X3657Y850D01*
X3685Y850D02*
X3707Y850D01*
X3735Y850D02*
X3757Y850D01*
X3785Y850D02*
X3807Y850D01*
X3835Y850D02*
X3857Y850D01*
X3885Y850D02*
X3907Y850D01*
X3935Y850D02*
X3957Y850D01*
X3985Y850D02*
X4007Y850D01*
X4035Y850D02*
X4057Y850D01*
X4085Y850D02*
X4107Y850D01*
X4135Y850D02*
X4157Y850D01*
X4185Y850D02*
X4207Y850D01*
X4235Y850D02*
X4257Y850D01*
X4286Y850D02*
X4308Y850D01*
X4336Y850D02*
X4358Y850D01*
X4386Y850D02*
X4408Y850D01*
X4435Y850D02*
X4457Y850D01*
X4486Y850D02*
X4507Y850D01*
X4535Y850D02*
X4557Y850D01*
X4585Y850D02*
X4607Y850D01*
X4635Y850D02*
X4657Y850D01*
X3186Y849D02*
X3209Y849D01*
X3234Y849D02*
X3257Y849D01*
X3286Y849D02*
X3309Y849D01*
X3334Y849D02*
X3357Y849D01*
X3386Y849D02*
X3409Y849D01*
X3434Y849D02*
X3457Y849D01*
X3486Y849D02*
X3509Y849D01*
X3534Y849D02*
X3557Y849D01*
X3586Y849D02*
X3609Y849D01*
X3634Y849D02*
X3657Y849D01*
X3686Y849D02*
X3709Y849D01*
X3734Y849D02*
X3757Y849D01*
X3786Y849D02*
X3809Y849D01*
X3834Y849D02*
X3857Y849D01*
X3886Y849D02*
X3909Y849D01*
X3934Y849D02*
X3957Y849D01*
X3986Y849D02*
X4008Y849D01*
X4034Y849D02*
X4057Y849D01*
X4086Y849D02*
X4108Y849D01*
X4134Y849D02*
X4157Y849D01*
X4186Y849D02*
X4208Y849D01*
X4234Y849D02*
X4257Y849D01*
X4286Y849D02*
X4309Y849D01*
X4334Y849D02*
X4357Y849D01*
X4386Y849D02*
X4409Y849D01*
X4434Y849D02*
X4457Y849D01*
X4486Y849D02*
X4509Y849D01*
X4534Y849D02*
X4557Y849D01*
X4586Y849D02*
X4608Y849D01*
X4634Y849D02*
X4657Y849D01*
X3186Y848D02*
X3210Y848D01*
X3233Y848D02*
X3256Y848D01*
X3286Y848D02*
X3310Y848D01*
X3333Y848D02*
X3356Y848D01*
X3386Y848D02*
X3410Y848D01*
X3433Y848D02*
X3456Y848D01*
X3486Y848D02*
X3510Y848D01*
X3533Y848D02*
X3556Y848D01*
X3586Y848D02*
X3610Y848D01*
X3633Y848D02*
X3656Y848D01*
X3686Y848D02*
X3710Y848D01*
X3733Y848D02*
X3756Y848D01*
X3786Y848D02*
X3810Y848D01*
X3833Y848D02*
X3856Y848D01*
X3886Y848D02*
X3910Y848D01*
X3933Y848D02*
X3956Y848D01*
X3986Y848D02*
X4010Y848D01*
X4033Y848D02*
X4056Y848D01*
X4086Y848D02*
X4110Y848D01*
X4133Y848D02*
X4156Y848D01*
X4186Y848D02*
X4210Y848D01*
X4233Y848D02*
X4256Y848D01*
X4287Y848D02*
X4310Y848D01*
X4333Y848D02*
X4357Y848D01*
X4386Y848D02*
X4410Y848D01*
X4433Y848D02*
X4457Y848D01*
X4486Y848D02*
X4510Y848D01*
X4533Y848D02*
X4556Y848D01*
X4586Y848D02*
X4610Y848D01*
X4633Y848D02*
X4656Y848D01*
X3187Y847D02*
X3211Y847D01*
X3232Y847D02*
X3256Y847D01*
X3287Y847D02*
X3311Y847D01*
X3332Y847D02*
X3356Y847D01*
X3387Y847D02*
X3411Y847D01*
X3432Y847D02*
X3456Y847D01*
X3487Y847D02*
X3511Y847D01*
X3532Y847D02*
X3556Y847D01*
X3587Y847D02*
X3611Y847D01*
X3632Y847D02*
X3656Y847D01*
X3687Y847D02*
X3711Y847D01*
X3732Y847D02*
X3756Y847D01*
X3787Y847D02*
X3811Y847D01*
X3832Y847D02*
X3856Y847D01*
X3887Y847D02*
X3911Y847D01*
X3931Y847D02*
X3956Y847D01*
X3987Y847D02*
X4011Y847D01*
X4031Y847D02*
X4056Y847D01*
X4087Y847D02*
X4111Y847D01*
X4131Y847D02*
X4156Y847D01*
X4187Y847D02*
X4211Y847D01*
X4231Y847D02*
X4256Y847D01*
X4287Y847D02*
X4312Y847D01*
X4332Y847D02*
X4356Y847D01*
X4387Y847D02*
X4411Y847D01*
X4432Y847D02*
X4456Y847D01*
X4487Y847D02*
X4511Y847D01*
X4532Y847D02*
X4556Y847D01*
X4587Y847D02*
X4611Y847D01*
X4631Y847D02*
X4656Y847D01*
X3187Y846D02*
X3213Y846D01*
X3230Y846D02*
X3255Y846D01*
X3287Y846D02*
X3313Y846D01*
X3330Y846D02*
X3355Y846D01*
X3387Y846D02*
X3413Y846D01*
X3430Y846D02*
X3455Y846D01*
X3487Y846D02*
X3513Y846D01*
X3530Y846D02*
X3555Y846D01*
X3587Y846D02*
X3613Y846D01*
X3630Y846D02*
X3655Y846D01*
X3687Y846D02*
X3713Y846D01*
X3730Y846D02*
X3755Y846D01*
X3787Y846D02*
X3813Y846D01*
X3830Y846D02*
X3855Y846D01*
X3887Y846D02*
X3913Y846D01*
X3930Y846D02*
X3955Y846D01*
X3987Y846D02*
X4013Y846D01*
X4030Y846D02*
X4055Y846D01*
X4087Y846D02*
X4113Y846D01*
X4130Y846D02*
X4155Y846D01*
X4187Y846D02*
X4213Y846D01*
X4230Y846D02*
X4255Y846D01*
X4288Y846D02*
X4313Y846D01*
X4330Y846D02*
X4356Y846D01*
X4387Y846D02*
X4413Y846D01*
X4430Y846D02*
X4456Y846D01*
X4487Y846D02*
X4513Y846D01*
X4530Y846D02*
X4555Y846D01*
X4587Y846D02*
X4613Y846D01*
X4630Y846D02*
X4655Y846D01*
X3188Y845D02*
X3216Y845D01*
X3227Y845D02*
X3255Y845D01*
X3288Y845D02*
X3316Y845D01*
X3327Y845D02*
X3355Y845D01*
X3388Y845D02*
X3416Y845D01*
X3427Y845D02*
X3455Y845D01*
X3488Y845D02*
X3516Y845D01*
X3527Y845D02*
X3555Y845D01*
X3588Y845D02*
X3616Y845D01*
X3627Y845D02*
X3655Y845D01*
X3688Y845D02*
X3716Y845D01*
X3727Y845D02*
X3755Y845D01*
X3788Y845D02*
X3816Y845D01*
X3827Y845D02*
X3855Y845D01*
X3888Y845D02*
X3916Y845D01*
X3927Y845D02*
X3955Y845D01*
X3988Y845D02*
X4016Y845D01*
X4027Y845D02*
X4055Y845D01*
X4088Y845D02*
X4116Y845D01*
X4127Y845D02*
X4155Y845D01*
X4188Y845D02*
X4216Y845D01*
X4227Y845D02*
X4255Y845D01*
X4288Y845D02*
X4316Y845D01*
X4327Y845D02*
X4355Y845D01*
X4388Y845D02*
X4416Y845D01*
X4427Y845D02*
X4455Y845D01*
X4488Y845D02*
X4516Y845D01*
X4527Y845D02*
X4555Y845D01*
X4588Y845D02*
X4616Y845D01*
X4627Y845D02*
X4655Y845D01*
X3188Y844D02*
X3254Y844D01*
X3288Y844D02*
X3354Y844D01*
X3388Y844D02*
X3454Y844D01*
X3488Y844D02*
X3554Y844D01*
X3588Y844D02*
X3654Y844D01*
X3688Y844D02*
X3754Y844D01*
X3788Y844D02*
X3854Y844D01*
X3888Y844D02*
X3954Y844D01*
X3988Y844D02*
X4054Y844D01*
X4088Y844D02*
X4154Y844D01*
X4188Y844D02*
X4254Y844D01*
X4289Y844D02*
X4355Y844D01*
X4388Y844D02*
X4455Y844D01*
X4488Y844D02*
X4554Y844D01*
X4588Y844D02*
X4654Y844D01*
X3189Y843D02*
X3254Y843D01*
X3289Y843D02*
X3354Y843D01*
X3389Y843D02*
X3454Y843D01*
X3489Y843D02*
X3554Y843D01*
X3589Y843D02*
X3654Y843D01*
X3689Y843D02*
X3754Y843D01*
X3789Y843D02*
X3854Y843D01*
X3889Y843D02*
X3954Y843D01*
X3989Y843D02*
X4054Y843D01*
X4089Y843D02*
X4154Y843D01*
X4189Y843D02*
X4254Y843D01*
X4289Y843D02*
X4354Y843D01*
X4389Y843D02*
X4454Y843D01*
X4489Y843D02*
X4554Y843D01*
X4589Y843D02*
X4654Y843D01*
X3190Y842D02*
X3253Y842D01*
X3289Y842D02*
X3353Y842D01*
X3389Y842D02*
X3453Y842D01*
X3489Y842D02*
X3553Y842D01*
X3589Y842D02*
X3653Y842D01*
X3689Y842D02*
X3753Y842D01*
X3789Y842D02*
X3853Y842D01*
X3889Y842D02*
X3953Y842D01*
X3989Y842D02*
X4053Y842D01*
X4089Y842D02*
X4153Y842D01*
X4189Y842D02*
X4253Y842D01*
X4290Y842D02*
X4354Y842D01*
X4390Y842D02*
X4453Y842D01*
X4490Y842D02*
X4553Y842D01*
X4589Y842D02*
X4653Y842D01*
X3190Y841D02*
X3253Y841D01*
X3290Y841D02*
X3353Y841D01*
X3390Y841D02*
X3453Y841D01*
X3490Y841D02*
X3553Y841D01*
X3590Y841D02*
X3653Y841D01*
X3690Y841D02*
X3753Y841D01*
X3790Y841D02*
X3853Y841D01*
X3890Y841D02*
X3953Y841D01*
X3990Y841D02*
X4052Y841D01*
X4090Y841D02*
X4152Y841D01*
X4190Y841D02*
X4252Y841D01*
X4290Y841D02*
X4353Y841D01*
X4390Y841D02*
X4453Y841D01*
X4490Y841D02*
X4553Y841D01*
X4590Y841D02*
X4652Y841D01*
X3191Y840D02*
X3252Y840D01*
X3291Y840D02*
X3352Y840D01*
X3391Y840D02*
X3452Y840D01*
X3491Y840D02*
X3552Y840D01*
X3591Y840D02*
X3652Y840D01*
X3691Y840D02*
X3752Y840D01*
X3791Y840D02*
X3852Y840D01*
X3891Y840D02*
X3952Y840D01*
X3991Y840D02*
X4052Y840D01*
X4091Y840D02*
X4152Y840D01*
X4191Y840D02*
X4252Y840D01*
X4291Y840D02*
X4352Y840D01*
X4391Y840D02*
X4452Y840D01*
X4491Y840D02*
X4552Y840D01*
X4591Y840D02*
X4652Y840D01*
X3192Y839D02*
X3251Y839D01*
X3292Y839D02*
X3351Y839D01*
X3392Y839D02*
X3451Y839D01*
X3492Y839D02*
X3551Y839D01*
X3592Y839D02*
X3651Y839D01*
X3692Y839D02*
X3751Y839D01*
X3792Y839D02*
X3851Y839D01*
X3892Y839D02*
X3951Y839D01*
X3992Y839D02*
X4051Y839D01*
X4091Y839D02*
X4151Y839D01*
X4191Y839D02*
X4251Y839D01*
X4292Y839D02*
X4351Y839D01*
X4392Y839D02*
X4451Y839D01*
X4492Y839D02*
X4551Y839D01*
X4591Y839D02*
X4651Y839D01*
X3192Y838D02*
X3250Y838D01*
X3292Y838D02*
X3350Y838D01*
X3392Y838D02*
X3450Y838D01*
X3492Y838D02*
X3550Y838D01*
X3592Y838D02*
X3650Y838D01*
X3692Y838D02*
X3750Y838D01*
X3792Y838D02*
X3850Y838D01*
X3892Y838D02*
X3950Y838D01*
X3992Y838D02*
X4050Y838D01*
X4092Y838D02*
X4150Y838D01*
X4192Y838D02*
X4250Y838D01*
X4293Y838D02*
X4351Y838D01*
X4393Y838D02*
X4451Y838D01*
X4492Y838D02*
X4550Y838D01*
X4592Y838D02*
X4650Y838D01*
X3193Y837D02*
X3249Y837D01*
X3293Y837D02*
X3349Y837D01*
X3393Y837D02*
X3449Y837D01*
X3493Y837D02*
X3549Y837D01*
X3593Y837D02*
X3649Y837D01*
X3693Y837D02*
X3749Y837D01*
X3793Y837D02*
X3849Y837D01*
X3893Y837D02*
X3949Y837D01*
X3993Y837D02*
X4049Y837D01*
X4093Y837D02*
X4149Y837D01*
X4193Y837D02*
X4249Y837D01*
X4294Y837D02*
X4350Y837D01*
X4393Y837D02*
X4450Y837D01*
X4493Y837D02*
X4549Y837D01*
X4593Y837D02*
X4649Y837D01*
X3194Y836D02*
X3249Y836D01*
X3294Y836D02*
X3349Y836D01*
X3394Y836D02*
X3449Y836D01*
X3494Y836D02*
X3549Y836D01*
X3594Y836D02*
X3648Y836D01*
X3694Y836D02*
X3748Y836D01*
X3794Y836D02*
X3848Y836D01*
X3894Y836D02*
X3948Y836D01*
X3994Y836D02*
X4048Y836D01*
X4094Y836D02*
X4148Y836D01*
X4194Y836D02*
X4248Y836D01*
X4295Y836D02*
X4349Y836D01*
X4394Y836D02*
X4449Y836D01*
X4494Y836D02*
X4549Y836D01*
X4594Y836D02*
X4648Y836D01*
X3195Y835D02*
X3247Y835D01*
X3295Y835D02*
X3347Y835D01*
X3395Y835D02*
X3447Y835D01*
X3495Y835D02*
X3547Y835D01*
X3595Y835D02*
X3647Y835D01*
X3695Y835D02*
X3747Y835D01*
X3795Y835D02*
X3847Y835D01*
X3895Y835D02*
X3947Y835D01*
X3995Y835D02*
X4047Y835D01*
X4095Y835D02*
X4147Y835D01*
X4195Y835D02*
X4247Y835D01*
X4296Y835D02*
X4348Y835D01*
X4395Y835D02*
X4448Y835D01*
X4495Y835D02*
X4547Y835D01*
X4595Y835D02*
X4647Y835D01*
X3196Y834D02*
X3246Y834D01*
X3296Y834D02*
X3346Y834D01*
X3396Y834D02*
X3446Y834D01*
X3496Y834D02*
X3546Y834D01*
X3596Y834D02*
X3646Y834D01*
X3696Y834D02*
X3746Y834D01*
X3796Y834D02*
X3846Y834D01*
X3896Y834D02*
X3946Y834D01*
X3996Y834D02*
X4046Y834D01*
X4096Y834D02*
X4146Y834D01*
X4196Y834D02*
X4246Y834D01*
X4297Y834D02*
X4347Y834D01*
X4397Y834D02*
X4446Y834D01*
X4496Y834D02*
X4546Y834D01*
X4596Y834D02*
X4646Y834D01*
X3198Y833D02*
X3245Y833D01*
X3298Y833D02*
X3345Y833D01*
X3398Y833D02*
X3445Y833D01*
X3498Y833D02*
X3545Y833D01*
X3598Y833D02*
X3645Y833D01*
X3698Y833D02*
X3745Y833D01*
X3798Y833D02*
X3845Y833D01*
X3898Y833D02*
X3945Y833D01*
X3998Y833D02*
X4045Y833D01*
X4098Y833D02*
X4145Y833D01*
X4198Y833D02*
X4245Y833D01*
X4298Y833D02*
X4345Y833D01*
X4398Y833D02*
X4445Y833D01*
X4498Y833D02*
X4545Y833D01*
X4597Y833D02*
X4645Y833D01*
X3199Y832D02*
X3244Y832D01*
X3299Y832D02*
X3344Y832D01*
X3399Y832D02*
X3444Y832D01*
X3499Y832D02*
X3544Y832D01*
X3599Y832D02*
X3644Y832D01*
X3699Y832D02*
X3744Y832D01*
X3799Y832D02*
X3844Y832D01*
X3899Y832D02*
X3944Y832D01*
X3999Y832D02*
X4044Y832D01*
X4099Y832D02*
X4144Y832D01*
X4199Y832D02*
X4244Y832D01*
X4299Y832D02*
X4344Y832D01*
X4399Y832D02*
X4444Y832D01*
X4499Y832D02*
X4544Y832D01*
X4599Y832D02*
X4644Y832D01*
X3201Y831D02*
X3242Y831D01*
X3301Y831D02*
X3342Y831D01*
X3400Y831D02*
X3442Y831D01*
X3500Y831D02*
X3542Y831D01*
X3600Y831D02*
X3642Y831D01*
X3700Y831D02*
X3742Y831D01*
X3800Y831D02*
X3842Y831D01*
X3900Y831D02*
X3942Y831D01*
X4000Y831D02*
X4042Y831D01*
X4100Y831D02*
X4142Y831D01*
X4200Y831D02*
X4242Y831D01*
X4301Y831D02*
X4343Y831D01*
X4401Y831D02*
X4442Y831D01*
X4501Y831D02*
X4542Y831D01*
X4600Y831D02*
X4642Y831D01*
X3202Y830D02*
X3241Y830D01*
X3302Y830D02*
X3341Y830D01*
X3402Y830D02*
X3441Y830D01*
X3502Y830D02*
X3541Y830D01*
X3602Y830D02*
X3640Y830D01*
X3702Y830D02*
X3740Y830D01*
X3802Y830D02*
X3840Y830D01*
X3902Y830D02*
X3940Y830D01*
X4002Y830D02*
X4040Y830D01*
X4102Y830D02*
X4140Y830D01*
X4202Y830D02*
X4240Y830D01*
X4303Y830D02*
X4341Y830D01*
X4402Y830D02*
X4441Y830D01*
X4502Y830D02*
X4541Y830D01*
X4602Y830D02*
X4640Y830D01*
X3204Y829D02*
X3239Y829D01*
X3304Y829D02*
X3339Y829D01*
X3404Y829D02*
X3439Y829D01*
X3504Y829D02*
X3539Y829D01*
X3604Y829D02*
X3639Y829D01*
X3704Y829D02*
X3739Y829D01*
X3804Y829D02*
X3839Y829D01*
X3904Y829D02*
X3939Y829D01*
X4004Y829D02*
X4039Y829D01*
X4104Y829D02*
X4139Y829D01*
X4204Y829D02*
X4239Y829D01*
X4304Y829D02*
X4339Y829D01*
X4404Y829D02*
X4439Y829D01*
X4504Y829D02*
X4539Y829D01*
X4604Y829D02*
X4639Y829D01*
X3206Y828D02*
X3237Y828D01*
X3306Y828D02*
X3337Y828D01*
X3406Y828D02*
X3437Y828D01*
X3506Y828D02*
X3537Y828D01*
X3606Y828D02*
X3637Y828D01*
X3706Y828D02*
X3737Y828D01*
X3806Y828D02*
X3837Y828D01*
X3906Y828D02*
X3937Y828D01*
X4006Y828D02*
X4037Y828D01*
X4106Y828D02*
X4136Y828D01*
X4206Y828D02*
X4236Y828D01*
X4306Y828D02*
X4337Y828D01*
X4406Y828D02*
X4437Y828D01*
X4506Y828D02*
X4537Y828D01*
X4606Y828D02*
X4636Y828D01*
X3209Y827D02*
X3234Y827D01*
X3309Y827D02*
X3334Y827D01*
X3409Y827D02*
X3434Y827D01*
X3509Y827D02*
X3534Y827D01*
X3609Y827D02*
X3634Y827D01*
X3709Y827D02*
X3734Y827D01*
X3809Y827D02*
X3834Y827D01*
X3909Y827D02*
X3934Y827D01*
X4009Y827D02*
X4034Y827D01*
X4109Y827D02*
X4134Y827D01*
X4209Y827D02*
X4234Y827D01*
X4309Y827D02*
X4334Y827D01*
X4409Y827D02*
X4434Y827D01*
X4509Y827D02*
X4534Y827D01*
X4609Y827D02*
X4634Y827D01*
X3212Y826D02*
X3231Y826D01*
X3312Y826D02*
X3331Y826D01*
X3412Y826D02*
X3431Y826D01*
X3512Y826D02*
X3531Y826D01*
X3612Y826D02*
X3631Y826D01*
X3712Y826D02*
X3731Y826D01*
X3812Y826D02*
X3831Y826D01*
X3912Y826D02*
X3931Y826D01*
X4012Y826D02*
X4031Y826D01*
X4112Y826D02*
X4131Y826D01*
X4212Y826D02*
X4231Y826D01*
X4312Y826D02*
X4331Y826D01*
X4412Y826D02*
X4431Y826D01*
X4512Y826D02*
X4531Y826D01*
X4612Y826D02*
X4631Y826D01*
X3216Y825D02*
X3227Y825D01*
X3316Y825D02*
X3327Y825D01*
X3416Y825D02*
X3427Y825D01*
X3516Y825D02*
X3527Y825D01*
X3616Y825D02*
X3627Y825D01*
X3716Y825D02*
X3727Y825D01*
X3816Y825D02*
X3827Y825D01*
X3916Y825D02*
X3926Y825D01*
X4016Y825D02*
X4026Y825D01*
X4116Y825D02*
X4126Y825D01*
X4216Y825D02*
X4226Y825D01*
X4317Y825D02*
X4327Y825D01*
X4416Y825D02*
X4427Y825D01*
X4516Y825D02*
X4527Y825D01*
X4616Y825D02*
X4626Y825D01*
X685Y550D02*
X758Y550D01*
X685Y549D02*
X758Y549D01*
X685Y548D02*
X758Y548D01*
X685Y547D02*
X758Y547D01*
X685Y546D02*
X758Y546D01*
X685Y545D02*
X758Y545D01*
X685Y544D02*
X758Y544D01*
X685Y543D02*
X758Y543D01*
X685Y542D02*
X758Y542D01*
X685Y541D02*
X758Y541D01*
X685Y540D02*
X758Y540D01*
X685Y539D02*
X758Y539D01*
X685Y538D02*
X758Y538D01*
X685Y537D02*
X758Y537D01*
X685Y536D02*
X758Y536D01*
X685Y535D02*
X758Y535D01*
X685Y534D02*
X758Y534D01*
X685Y533D02*
X721Y533D01*
X723Y533D02*
X758Y533D01*
X685Y532D02*
X715Y532D01*
X728Y532D02*
X758Y532D01*
X685Y531D02*
X713Y531D01*
X731Y531D02*
X758Y531D01*
X685Y530D02*
X711Y530D01*
X733Y530D02*
X758Y530D01*
X685Y529D02*
X709Y529D01*
X734Y529D02*
X758Y529D01*
X685Y528D02*
X708Y528D01*
X735Y528D02*
X758Y528D01*
X685Y527D02*
X707Y527D01*
X736Y527D02*
X758Y527D01*
X685Y526D02*
X706Y526D01*
X737Y526D02*
X758Y526D01*
X685Y525D02*
X705Y525D01*
X738Y525D02*
X758Y525D01*
X685Y524D02*
X705Y524D01*
X739Y524D02*
X758Y524D01*
X685Y523D02*
X704Y523D01*
X739Y523D02*
X758Y523D01*
X685Y522D02*
X704Y522D01*
X740Y522D02*
X758Y522D01*
X685Y521D02*
X703Y521D01*
X740Y521D02*
X758Y521D01*
X685Y520D02*
X703Y520D01*
X741Y520D02*
X758Y520D01*
X685Y519D02*
X702Y519D01*
X741Y519D02*
X758Y519D01*
X685Y518D02*
X702Y518D01*
X741Y518D02*
X758Y518D01*
X685Y517D02*
X702Y517D01*
X741Y517D02*
X758Y517D01*
X685Y516D02*
X702Y516D01*
X742Y516D02*
X758Y516D01*
X685Y515D02*
X702Y515D01*
X742Y515D02*
X758Y515D01*
X685Y514D02*
X702Y514D01*
X742Y514D02*
X758Y514D01*
X685Y513D02*
X702Y513D01*
X742Y513D02*
X758Y513D01*
X685Y512D02*
X702Y512D01*
X742Y512D02*
X758Y512D01*
X685Y511D02*
X702Y511D01*
X742Y511D02*
X758Y511D01*
X685Y510D02*
X702Y510D01*
X742Y510D02*
X758Y510D01*
X685Y509D02*
X702Y509D01*
X741Y509D02*
X758Y509D01*
X685Y508D02*
X702Y508D01*
X741Y508D02*
X758Y508D01*
X685Y507D02*
X703Y507D01*
X741Y507D02*
X758Y507D01*
X685Y506D02*
X703Y506D01*
X740Y506D02*
X758Y506D01*
X685Y505D02*
X703Y505D01*
X740Y505D02*
X758Y505D01*
X685Y504D02*
X704Y504D01*
X739Y504D02*
X758Y504D01*
X685Y503D02*
X705Y503D01*
X739Y503D02*
X758Y503D01*
X685Y502D02*
X705Y502D01*
X738Y502D02*
X758Y502D01*
X685Y501D02*
X706Y501D01*
X737Y501D02*
X758Y501D01*
X685Y500D02*
X707Y500D01*
X737Y500D02*
X758Y500D01*
X685Y499D02*
X708Y499D01*
X736Y499D02*
X758Y499D01*
X685Y498D02*
X709Y498D01*
X734Y498D02*
X758Y498D01*
X685Y497D02*
X710Y497D01*
X733Y497D02*
X758Y497D01*
X685Y496D02*
X712Y496D01*
X731Y496D02*
X758Y496D01*
X685Y495D02*
X714Y495D01*
X729Y495D02*
X758Y495D01*
X685Y494D02*
X718Y494D01*
X725Y494D02*
X758Y494D01*
X685Y493D02*
X758Y493D01*
X685Y492D02*
X758Y492D01*
X685Y491D02*
X758Y491D01*
X685Y490D02*
X758Y490D01*
X685Y489D02*
X758Y489D01*
X685Y488D02*
X758Y488D01*
X685Y487D02*
X758Y487D01*
X685Y486D02*
X758Y486D01*
X685Y485D02*
X758Y485D01*
X685Y484D02*
X758Y484D01*
X685Y483D02*
X758Y483D01*
X685Y482D02*
X758Y482D01*
X685Y481D02*
X758Y481D01*
X685Y480D02*
X758Y480D01*
X685Y479D02*
X758Y479D01*
X685Y478D02*
X758Y478D01*
X685Y477D02*
X758Y477D01*
D02*
G04 End of Copper0*
M02*