G04 MADE WITH FRITZING*
G04 WWW.FRITZING.ORG*
G04 DOUBLE SIDED*
G04 HOLES PLATED*
G04 CONTOUR ON CENTER OF CONTOUR VECTOR*
%ASAXBY*%
%FSLAX23Y23*%
%MOIN*%
%OFA0B0*%
%SFA1.0B1.0*%
%ADD10C,0.082917*%
%ADD11C,0.088000*%
%ADD12C,0.084000*%
%ADD13C,0.135984*%
%ADD14C,0.085433*%
%ADD15C,0.085000*%
%ADD16C,0.072992*%
%ADD17C,0.090000*%
%ADD18R,0.072992X0.072992*%
%ADD19R,0.090000X0.089986*%
%ADD20R,0.085000X0.085000*%
%ADD21R,0.001000X0.001000*%
%LNMASK0*%
G90*
G70*
G54D10*
X4672Y3563D03*
X4672Y5163D03*
X4672Y3463D03*
X4672Y3363D03*
X4672Y3263D03*
X4672Y3163D03*
X3272Y2863D03*
X4672Y3063D03*
X4672Y2963D03*
X2772Y5123D03*
X4672Y4563D03*
X4672Y4463D03*
X4672Y4363D03*
X4672Y4263D03*
X4072Y2863D03*
X4672Y4163D03*
X4672Y4063D03*
X4672Y3963D03*
X4672Y3863D03*
X2772Y4363D03*
X2872Y2863D03*
X3672Y2863D03*
X4472Y2863D03*
X2772Y5523D03*
X4672Y4763D03*
X2772Y4763D03*
X3072Y2863D03*
X3472Y2863D03*
X3872Y2863D03*
X2772Y3163D03*
X4272Y2863D03*
X2772Y3263D03*
X2772Y3363D03*
X2772Y3463D03*
X2772Y3563D03*
X2772Y3663D03*
X2772Y3763D03*
X2772Y3863D03*
X2772Y5723D03*
X2772Y5323D03*
X2772Y4923D03*
X4672Y5363D03*
X4672Y4963D03*
X2772Y4163D03*
X2772Y4563D03*
X2772Y2863D03*
X2972Y2863D03*
X3172Y2863D03*
X3372Y2863D03*
X3572Y2863D03*
X3772Y2863D03*
X3972Y2863D03*
X4172Y2863D03*
X4372Y2863D03*
X2772Y5823D03*
X2772Y5623D03*
X2772Y5423D03*
X2772Y5223D03*
X2772Y5023D03*
X4672Y5463D03*
X4672Y5263D03*
X4672Y5063D03*
X4672Y4863D03*
X2772Y4063D03*
X2772Y4263D03*
X2772Y4463D03*
X2772Y4663D03*
X2772Y2763D03*
X2872Y2763D03*
X2972Y2763D03*
X3072Y2763D03*
X3172Y2763D03*
X3272Y2763D03*
X3372Y2763D03*
X3472Y2763D03*
X3572Y2763D03*
X3672Y2763D03*
X3772Y2763D03*
X3872Y2763D03*
X3972Y2763D03*
X4072Y2763D03*
X4172Y2763D03*
X4272Y2763D03*
X4372Y2763D03*
X4472Y2763D03*
X4672Y3663D03*
X4672Y3563D03*
X4672Y5163D03*
X4672Y3463D03*
X4672Y3363D03*
X4672Y3263D03*
X4672Y3163D03*
X3272Y2863D03*
X4672Y3063D03*
X4672Y2963D03*
X2772Y5123D03*
X4672Y4563D03*
X4672Y4463D03*
X4672Y4363D03*
X4672Y4263D03*
X4072Y2863D03*
X4672Y4163D03*
X4672Y4063D03*
X4672Y3963D03*
X4672Y3863D03*
X2772Y4363D03*
X2872Y2863D03*
X3672Y2863D03*
X4472Y2863D03*
X2772Y5523D03*
X4672Y4763D03*
X2772Y4763D03*
X3072Y2863D03*
X3472Y2863D03*
X3872Y2863D03*
X2772Y3163D03*
X4272Y2863D03*
X2772Y3263D03*
X2772Y3363D03*
X2772Y3463D03*
X2772Y3563D03*
X2772Y3663D03*
X2772Y3763D03*
X2772Y3863D03*
X2772Y5723D03*
X2772Y5323D03*
X2772Y4923D03*
X4672Y5363D03*
X4672Y4963D03*
X2772Y4163D03*
X2772Y4563D03*
X2772Y2863D03*
X2972Y2863D03*
X3172Y2863D03*
X3372Y2863D03*
X3572Y2863D03*
X3772Y2863D03*
X3972Y2863D03*
X4172Y2863D03*
X4372Y2863D03*
X2772Y5823D03*
X2772Y5623D03*
X2772Y5423D03*
X2772Y5223D03*
X2772Y5023D03*
X4672Y5463D03*
X4672Y5263D03*
X4672Y5063D03*
X4672Y4863D03*
X2772Y4063D03*
X2772Y4263D03*
X2772Y4463D03*
X2772Y4663D03*
X2772Y2763D03*
X2872Y2763D03*
X2972Y2763D03*
X3072Y2763D03*
X3172Y2763D03*
X3272Y2763D03*
X3372Y2763D03*
X3472Y2763D03*
X3572Y2763D03*
X3672Y2763D03*
X3772Y2763D03*
X3872Y2763D03*
X3972Y2763D03*
X4072Y2763D03*
X4172Y2763D03*
X4272Y2763D03*
X4372Y2763D03*
X4472Y2763D03*
X4672Y3663D03*
G54D11*
X2622Y3463D03*
X2622Y3363D03*
X2622Y3463D03*
X2622Y3363D03*
X2872Y413D03*
X2872Y413D03*
X4422Y4563D03*
X4422Y4463D03*
X4422Y4363D03*
X4422Y4263D03*
X4422Y4163D03*
X4422Y4063D03*
X4422Y4563D03*
X4422Y4463D03*
X4422Y4363D03*
X4422Y4263D03*
X4422Y4163D03*
X4422Y4063D03*
X2472Y5513D03*
X2472Y5413D03*
X2472Y5313D03*
X2472Y5213D03*
X2472Y5113D03*
X2472Y5013D03*
X2472Y4913D03*
X2472Y5513D03*
X2472Y5413D03*
X2472Y5313D03*
X2472Y5213D03*
X2472Y5113D03*
X2472Y5013D03*
X2472Y4913D03*
X2622Y3263D03*
X2622Y3163D03*
X2622Y3263D03*
X2622Y3163D03*
G54D12*
X822Y863D03*
X722Y813D03*
X822Y763D03*
X822Y663D03*
X822Y563D03*
X722Y713D03*
X722Y613D03*
X722Y513D03*
G54D13*
X472Y463D03*
X472Y913D03*
G54D12*
X822Y863D03*
X722Y813D03*
X822Y763D03*
X822Y663D03*
X822Y563D03*
X722Y713D03*
X722Y613D03*
X722Y513D03*
G54D13*
X472Y463D03*
X472Y913D03*
G54D12*
X822Y1513D03*
X722Y1463D03*
X822Y1413D03*
X822Y1313D03*
X822Y1213D03*
X722Y1363D03*
X722Y1263D03*
X722Y1163D03*
G54D13*
X472Y1113D03*
X472Y1563D03*
G54D12*
X822Y1513D03*
X722Y1463D03*
X822Y1413D03*
X822Y1313D03*
X822Y1213D03*
X722Y1363D03*
X722Y1263D03*
X722Y1163D03*
G54D13*
X472Y1113D03*
X472Y1563D03*
G54D12*
X822Y2163D03*
X722Y2113D03*
X822Y2063D03*
X822Y1963D03*
X822Y1863D03*
X722Y2013D03*
X722Y1913D03*
X722Y1813D03*
G54D13*
X472Y1763D03*
X472Y2213D03*
G54D12*
X822Y2163D03*
X722Y2113D03*
X822Y2063D03*
X822Y1963D03*
X822Y1863D03*
X722Y2013D03*
X722Y1913D03*
X722Y1813D03*
G54D13*
X472Y1763D03*
X472Y2213D03*
G54D12*
X822Y3463D03*
X722Y3413D03*
X822Y3363D03*
X822Y3263D03*
X822Y3163D03*
X722Y3313D03*
X722Y3213D03*
X722Y3113D03*
G54D13*
X472Y3063D03*
X472Y3513D03*
G54D12*
X822Y3463D03*
X722Y3413D03*
X822Y3363D03*
X822Y3263D03*
X822Y3163D03*
X722Y3313D03*
X722Y3213D03*
X722Y3113D03*
G54D13*
X472Y3063D03*
X472Y3513D03*
G54D12*
X822Y2813D03*
X722Y2763D03*
X822Y2713D03*
X822Y2613D03*
X822Y2513D03*
X722Y2663D03*
X722Y2563D03*
X722Y2463D03*
G54D13*
X472Y2413D03*
X472Y2863D03*
G54D12*
X822Y2813D03*
X722Y2763D03*
X822Y2713D03*
X822Y2613D03*
X822Y2513D03*
X722Y2663D03*
X722Y2563D03*
X722Y2463D03*
G54D13*
X472Y2413D03*
X472Y2863D03*
G54D12*
X822Y4113D03*
X722Y4063D03*
X822Y4013D03*
X822Y3913D03*
X822Y3813D03*
X722Y3963D03*
X722Y3863D03*
X722Y3763D03*
G54D13*
X472Y3713D03*
X472Y4163D03*
G54D12*
X822Y4113D03*
X722Y4063D03*
X822Y4013D03*
X822Y3913D03*
X822Y3813D03*
X722Y3963D03*
X722Y3863D03*
X722Y3763D03*
G54D13*
X472Y3713D03*
X472Y4163D03*
G54D11*
X2572Y413D03*
X2572Y413D03*
G54D14*
X122Y613D03*
X122Y1263D03*
X122Y1913D03*
X122Y2563D03*
X122Y3213D03*
X122Y3863D03*
X322Y713D03*
X322Y1363D03*
X322Y2013D03*
X322Y2663D03*
X322Y3313D03*
X322Y3963D03*
X222Y813D03*
X222Y1463D03*
X222Y2113D03*
X222Y2763D03*
X222Y3413D03*
X222Y4063D03*
G54D11*
X4172Y2663D03*
X4172Y2663D03*
X3972Y2963D03*
X4072Y2963D03*
X4172Y2963D03*
X3972Y2963D03*
X4072Y2963D03*
X4172Y2963D03*
X3572Y2963D03*
X3672Y2963D03*
X3572Y2963D03*
X3672Y2963D03*
X4272Y2663D03*
X4372Y2663D03*
X4272Y2663D03*
X4372Y2663D03*
X4272Y2963D03*
X4372Y2963D03*
X4272Y2963D03*
X4372Y2963D03*
G54D14*
X1622Y3813D03*
X922Y463D03*
X922Y1113D03*
X922Y1763D03*
X922Y2413D03*
X922Y3063D03*
X922Y3713D03*
X3972Y2613D03*
X3872Y2613D03*
X1672Y563D03*
X1672Y1213D03*
X1672Y3163D03*
X1672Y1863D03*
X1672Y2513D03*
X3772Y2663D03*
X4072Y2613D03*
X1872Y4563D03*
X1622Y3913D03*
X3872Y2963D03*
X3772Y2963D03*
X3472Y3163D03*
X3372Y3063D03*
X3472Y2413D03*
X3372Y2413D03*
X3272Y2413D03*
X3272Y2963D03*
X1672Y1963D03*
X1672Y663D03*
X1672Y1313D03*
X1672Y2613D03*
X1672Y3263D03*
X1672Y1413D03*
X2072Y1413D03*
X2022Y2063D03*
X1672Y2063D03*
X2022Y2713D03*
X1672Y2713D03*
X1672Y3363D03*
X2020Y3367D03*
X2072Y4013D03*
X1622Y4013D03*
G54D13*
X200Y7301D03*
X4922Y7289D03*
X194Y205D03*
X4926Y203D03*
G54D15*
X3422Y3263D03*
X3972Y3263D03*
X3272Y3363D03*
X3972Y3363D03*
G54D11*
X4822Y3663D03*
X4822Y3563D03*
X4822Y3463D03*
X4822Y3363D03*
X4822Y3663D03*
X4822Y3563D03*
X4822Y3463D03*
X4822Y3363D03*
G54D16*
X3772Y361D03*
X3772Y263D03*
X3772Y361D03*
X3772Y263D03*
X3372Y361D03*
X3372Y263D03*
X3372Y361D03*
X3372Y263D03*
G54D15*
X3422Y1763D03*
X3422Y1463D03*
X3422Y1763D03*
X3422Y1463D03*
X3522Y1763D03*
X3522Y1463D03*
X3522Y1763D03*
X3522Y1463D03*
X3072Y3563D03*
X3072Y4163D03*
G54D17*
X4172Y7313D03*
X4372Y7313D03*
X4172Y7313D03*
X4372Y7313D03*
G54D15*
X4522Y563D03*
X4622Y563D03*
X4522Y563D03*
X4622Y563D03*
X4372Y6763D03*
X4272Y6763D03*
X4372Y6763D03*
X4272Y6763D03*
G54D18*
X3772Y361D03*
X3772Y361D03*
X3372Y361D03*
X3372Y361D03*
G54D19*
X4172Y7313D03*
X4172Y7313D03*
G54D20*
X4522Y563D03*
X4522Y563D03*
X4372Y6763D03*
X4372Y6763D03*
G54D21*
X680Y3805D02*
X763Y3805D01*
X680Y3804D02*
X763Y3804D01*
X680Y3803D02*
X763Y3803D01*
X680Y3802D02*
X763Y3802D01*
X680Y3801D02*
X763Y3801D01*
X680Y3800D02*
X763Y3800D01*
X680Y3799D02*
X763Y3799D01*
X680Y3798D02*
X763Y3798D01*
X680Y3797D02*
X763Y3797D01*
X680Y3796D02*
X763Y3796D01*
X680Y3795D02*
X763Y3795D01*
X680Y3794D02*
X763Y3794D01*
X680Y3793D02*
X763Y3793D01*
X680Y3792D02*
X763Y3792D01*
X680Y3791D02*
X763Y3791D01*
X680Y3790D02*
X763Y3790D01*
X680Y3789D02*
X763Y3789D01*
X680Y3788D02*
X763Y3788D01*
X680Y3787D02*
X763Y3787D01*
X680Y3786D02*
X763Y3786D01*
X680Y3785D02*
X763Y3785D01*
X680Y3784D02*
X763Y3784D01*
X680Y3783D02*
X763Y3783D01*
X680Y3782D02*
X763Y3782D01*
X680Y3781D02*
X763Y3781D01*
X680Y3780D02*
X763Y3780D01*
X680Y3779D02*
X763Y3779D01*
X680Y3778D02*
X763Y3778D01*
X680Y3777D02*
X716Y3777D01*
X728Y3777D02*
X763Y3777D01*
X680Y3776D02*
X714Y3776D01*
X730Y3776D02*
X763Y3776D01*
X680Y3775D02*
X712Y3775D01*
X731Y3775D02*
X763Y3775D01*
X680Y3774D02*
X711Y3774D01*
X732Y3774D02*
X763Y3774D01*
X680Y3773D02*
X710Y3773D01*
X733Y3773D02*
X763Y3773D01*
X680Y3772D02*
X709Y3772D01*
X734Y3772D02*
X763Y3772D01*
X680Y3771D02*
X709Y3771D01*
X735Y3771D02*
X763Y3771D01*
X680Y3770D02*
X708Y3770D01*
X735Y3770D02*
X763Y3770D01*
X680Y3769D02*
X708Y3769D01*
X736Y3769D02*
X763Y3769D01*
X680Y3768D02*
X707Y3768D01*
X736Y3768D02*
X763Y3768D01*
X680Y3767D02*
X707Y3767D01*
X736Y3767D02*
X763Y3767D01*
X680Y3766D02*
X707Y3766D01*
X737Y3766D02*
X763Y3766D01*
X680Y3765D02*
X707Y3765D01*
X737Y3765D02*
X763Y3765D01*
X680Y3764D02*
X707Y3764D01*
X737Y3764D02*
X763Y3764D01*
X680Y3763D02*
X707Y3763D01*
X737Y3763D02*
X763Y3763D01*
X680Y3762D02*
X707Y3762D01*
X737Y3762D02*
X763Y3762D01*
X680Y3761D02*
X707Y3761D01*
X737Y3761D02*
X763Y3761D01*
X680Y3760D02*
X707Y3760D01*
X737Y3760D02*
X763Y3760D01*
X680Y3759D02*
X707Y3759D01*
X736Y3759D02*
X763Y3759D01*
X680Y3758D02*
X707Y3758D01*
X736Y3758D02*
X763Y3758D01*
X680Y3757D02*
X708Y3757D01*
X735Y3757D02*
X763Y3757D01*
X680Y3756D02*
X708Y3756D01*
X735Y3756D02*
X763Y3756D01*
X680Y3755D02*
X709Y3755D01*
X734Y3755D02*
X763Y3755D01*
X680Y3754D02*
X710Y3754D01*
X733Y3754D02*
X763Y3754D01*
X680Y3753D02*
X711Y3753D01*
X733Y3753D02*
X763Y3753D01*
X680Y3752D02*
X712Y3752D01*
X731Y3752D02*
X763Y3752D01*
X680Y3751D02*
X713Y3751D01*
X730Y3751D02*
X763Y3751D01*
X680Y3750D02*
X715Y3750D01*
X728Y3750D02*
X763Y3750D01*
X680Y3749D02*
X718Y3749D01*
X726Y3749D02*
X763Y3749D01*
X680Y3748D02*
X763Y3748D01*
X680Y3747D02*
X763Y3747D01*
X680Y3746D02*
X763Y3746D01*
X680Y3745D02*
X763Y3745D01*
X680Y3744D02*
X763Y3744D01*
X680Y3743D02*
X763Y3743D01*
X680Y3742D02*
X763Y3742D01*
X680Y3741D02*
X763Y3741D01*
X680Y3740D02*
X763Y3740D01*
X680Y3739D02*
X763Y3739D01*
X680Y3738D02*
X763Y3738D01*
X680Y3737D02*
X763Y3737D01*
X680Y3736D02*
X763Y3736D01*
X680Y3735D02*
X763Y3735D01*
X680Y3734D02*
X763Y3734D01*
X680Y3733D02*
X763Y3733D01*
X680Y3732D02*
X763Y3732D01*
X680Y3731D02*
X763Y3731D01*
X680Y3730D02*
X763Y3730D01*
X680Y3729D02*
X763Y3729D01*
X680Y3728D02*
X763Y3728D01*
X680Y3727D02*
X763Y3727D01*
X680Y3726D02*
X763Y3726D01*
X680Y3725D02*
X763Y3725D01*
X680Y3724D02*
X763Y3724D01*
X680Y3723D02*
X763Y3723D01*
X680Y3722D02*
X763Y3722D01*
X680Y3155D02*
X763Y3155D01*
X680Y3154D02*
X763Y3154D01*
X680Y3153D02*
X763Y3153D01*
X680Y3152D02*
X763Y3152D01*
X680Y3151D02*
X763Y3151D01*
X680Y3150D02*
X763Y3150D01*
X680Y3149D02*
X763Y3149D01*
X680Y3148D02*
X763Y3148D01*
X680Y3147D02*
X763Y3147D01*
X680Y3146D02*
X763Y3146D01*
X680Y3145D02*
X763Y3145D01*
X680Y3144D02*
X763Y3144D01*
X680Y3143D02*
X763Y3143D01*
X680Y3142D02*
X763Y3142D01*
X680Y3141D02*
X763Y3141D01*
X680Y3140D02*
X763Y3140D01*
X680Y3139D02*
X763Y3139D01*
X680Y3138D02*
X763Y3138D01*
X680Y3137D02*
X763Y3137D01*
X680Y3136D02*
X763Y3136D01*
X680Y3135D02*
X763Y3135D01*
X680Y3134D02*
X763Y3134D01*
X680Y3133D02*
X763Y3133D01*
X680Y3132D02*
X763Y3132D01*
X680Y3131D02*
X763Y3131D01*
X680Y3130D02*
X763Y3130D01*
X680Y3129D02*
X763Y3129D01*
X680Y3128D02*
X763Y3128D01*
X680Y3127D02*
X716Y3127D01*
X728Y3127D02*
X763Y3127D01*
X680Y3126D02*
X714Y3126D01*
X730Y3126D02*
X763Y3126D01*
X680Y3125D02*
X712Y3125D01*
X731Y3125D02*
X763Y3125D01*
X680Y3124D02*
X711Y3124D01*
X732Y3124D02*
X763Y3124D01*
X680Y3123D02*
X710Y3123D01*
X733Y3123D02*
X763Y3123D01*
X680Y3122D02*
X709Y3122D01*
X734Y3122D02*
X763Y3122D01*
X680Y3121D02*
X709Y3121D01*
X735Y3121D02*
X763Y3121D01*
X680Y3120D02*
X708Y3120D01*
X735Y3120D02*
X763Y3120D01*
X680Y3119D02*
X708Y3119D01*
X736Y3119D02*
X763Y3119D01*
X680Y3118D02*
X707Y3118D01*
X736Y3118D02*
X763Y3118D01*
X680Y3117D02*
X707Y3117D01*
X736Y3117D02*
X763Y3117D01*
X680Y3116D02*
X707Y3116D01*
X737Y3116D02*
X763Y3116D01*
X680Y3115D02*
X707Y3115D01*
X737Y3115D02*
X763Y3115D01*
X680Y3114D02*
X707Y3114D01*
X737Y3114D02*
X763Y3114D01*
X680Y3113D02*
X707Y3113D01*
X737Y3113D02*
X763Y3113D01*
X680Y3112D02*
X707Y3112D01*
X737Y3112D02*
X763Y3112D01*
X680Y3111D02*
X707Y3111D01*
X737Y3111D02*
X763Y3111D01*
X680Y3110D02*
X707Y3110D01*
X737Y3110D02*
X763Y3110D01*
X680Y3109D02*
X707Y3109D01*
X736Y3109D02*
X763Y3109D01*
X680Y3108D02*
X707Y3108D01*
X736Y3108D02*
X763Y3108D01*
X680Y3107D02*
X708Y3107D01*
X735Y3107D02*
X763Y3107D01*
X680Y3106D02*
X708Y3106D01*
X735Y3106D02*
X763Y3106D01*
X680Y3105D02*
X709Y3105D01*
X734Y3105D02*
X763Y3105D01*
X680Y3104D02*
X710Y3104D01*
X733Y3104D02*
X763Y3104D01*
X680Y3103D02*
X711Y3103D01*
X733Y3103D02*
X763Y3103D01*
X680Y3102D02*
X712Y3102D01*
X731Y3102D02*
X763Y3102D01*
X680Y3101D02*
X713Y3101D01*
X730Y3101D02*
X763Y3101D01*
X680Y3100D02*
X715Y3100D01*
X728Y3100D02*
X763Y3100D01*
X680Y3099D02*
X718Y3099D01*
X726Y3099D02*
X763Y3099D01*
X680Y3098D02*
X763Y3098D01*
X680Y3097D02*
X763Y3097D01*
X680Y3096D02*
X763Y3096D01*
X680Y3095D02*
X763Y3095D01*
X680Y3094D02*
X763Y3094D01*
X680Y3093D02*
X763Y3093D01*
X680Y3092D02*
X763Y3092D01*
X680Y3091D02*
X763Y3091D01*
X680Y3090D02*
X763Y3090D01*
X680Y3089D02*
X763Y3089D01*
X680Y3088D02*
X763Y3088D01*
X680Y3087D02*
X763Y3087D01*
X680Y3086D02*
X763Y3086D01*
X680Y3085D02*
X763Y3085D01*
X680Y3084D02*
X763Y3084D01*
X680Y3083D02*
X763Y3083D01*
X680Y3082D02*
X763Y3082D01*
X680Y3081D02*
X763Y3081D01*
X680Y3080D02*
X763Y3080D01*
X680Y3079D02*
X763Y3079D01*
X680Y3078D02*
X763Y3078D01*
X680Y3077D02*
X763Y3077D01*
X680Y3076D02*
X763Y3076D01*
X680Y3075D02*
X763Y3075D01*
X680Y3074D02*
X763Y3074D01*
X680Y3073D02*
X763Y3073D01*
X680Y3072D02*
X763Y3072D01*
X680Y2505D02*
X763Y2505D01*
X680Y2504D02*
X763Y2504D01*
X680Y2503D02*
X763Y2503D01*
X680Y2502D02*
X763Y2502D01*
X680Y2501D02*
X763Y2501D01*
X680Y2500D02*
X763Y2500D01*
X680Y2499D02*
X763Y2499D01*
X680Y2498D02*
X763Y2498D01*
X680Y2497D02*
X763Y2497D01*
X680Y2496D02*
X763Y2496D01*
X680Y2495D02*
X763Y2495D01*
X680Y2494D02*
X763Y2494D01*
X680Y2493D02*
X763Y2493D01*
X680Y2492D02*
X763Y2492D01*
X680Y2491D02*
X763Y2491D01*
X680Y2490D02*
X763Y2490D01*
X680Y2489D02*
X763Y2489D01*
X680Y2488D02*
X763Y2488D01*
X680Y2487D02*
X763Y2487D01*
X680Y2486D02*
X763Y2486D01*
X680Y2485D02*
X763Y2485D01*
X680Y2484D02*
X763Y2484D01*
X680Y2483D02*
X763Y2483D01*
X680Y2482D02*
X763Y2482D01*
X680Y2481D02*
X763Y2481D01*
X680Y2480D02*
X763Y2480D01*
X680Y2479D02*
X763Y2479D01*
X680Y2478D02*
X763Y2478D01*
X680Y2477D02*
X716Y2477D01*
X728Y2477D02*
X763Y2477D01*
X680Y2476D02*
X714Y2476D01*
X730Y2476D02*
X763Y2476D01*
X680Y2475D02*
X712Y2475D01*
X731Y2475D02*
X763Y2475D01*
X680Y2474D02*
X711Y2474D01*
X732Y2474D02*
X763Y2474D01*
X680Y2473D02*
X710Y2473D01*
X733Y2473D02*
X763Y2473D01*
X680Y2472D02*
X709Y2472D01*
X734Y2472D02*
X763Y2472D01*
X680Y2471D02*
X709Y2471D01*
X735Y2471D02*
X763Y2471D01*
X680Y2470D02*
X708Y2470D01*
X735Y2470D02*
X763Y2470D01*
X680Y2469D02*
X708Y2469D01*
X736Y2469D02*
X763Y2469D01*
X680Y2468D02*
X707Y2468D01*
X736Y2468D02*
X763Y2468D01*
X680Y2467D02*
X707Y2467D01*
X736Y2467D02*
X763Y2467D01*
X680Y2466D02*
X707Y2466D01*
X737Y2466D02*
X763Y2466D01*
X680Y2465D02*
X707Y2465D01*
X737Y2465D02*
X763Y2465D01*
X680Y2464D02*
X707Y2464D01*
X737Y2464D02*
X763Y2464D01*
X680Y2463D02*
X707Y2463D01*
X737Y2463D02*
X763Y2463D01*
X680Y2462D02*
X707Y2462D01*
X737Y2462D02*
X763Y2462D01*
X680Y2461D02*
X707Y2461D01*
X737Y2461D02*
X763Y2461D01*
X680Y2460D02*
X707Y2460D01*
X737Y2460D02*
X763Y2460D01*
X680Y2459D02*
X707Y2459D01*
X736Y2459D02*
X763Y2459D01*
X680Y2458D02*
X707Y2458D01*
X736Y2458D02*
X763Y2458D01*
X680Y2457D02*
X708Y2457D01*
X735Y2457D02*
X763Y2457D01*
X680Y2456D02*
X708Y2456D01*
X735Y2456D02*
X763Y2456D01*
X680Y2455D02*
X709Y2455D01*
X734Y2455D02*
X763Y2455D01*
X680Y2454D02*
X710Y2454D01*
X733Y2454D02*
X763Y2454D01*
X680Y2453D02*
X711Y2453D01*
X733Y2453D02*
X763Y2453D01*
X680Y2452D02*
X712Y2452D01*
X731Y2452D02*
X763Y2452D01*
X680Y2451D02*
X713Y2451D01*
X730Y2451D02*
X763Y2451D01*
X680Y2450D02*
X715Y2450D01*
X728Y2450D02*
X763Y2450D01*
X680Y2449D02*
X718Y2449D01*
X726Y2449D02*
X763Y2449D01*
X680Y2448D02*
X763Y2448D01*
X680Y2447D02*
X763Y2447D01*
X680Y2446D02*
X763Y2446D01*
X680Y2445D02*
X763Y2445D01*
X680Y2444D02*
X763Y2444D01*
X680Y2443D02*
X763Y2443D01*
X680Y2442D02*
X763Y2442D01*
X680Y2441D02*
X763Y2441D01*
X680Y2440D02*
X763Y2440D01*
X680Y2439D02*
X763Y2439D01*
X680Y2438D02*
X763Y2438D01*
X680Y2437D02*
X763Y2437D01*
X680Y2436D02*
X763Y2436D01*
X680Y2435D02*
X763Y2435D01*
X680Y2434D02*
X763Y2434D01*
X680Y2433D02*
X763Y2433D01*
X680Y2432D02*
X763Y2432D01*
X680Y2431D02*
X763Y2431D01*
X680Y2430D02*
X763Y2430D01*
X680Y2429D02*
X763Y2429D01*
X680Y2428D02*
X763Y2428D01*
X680Y2427D02*
X763Y2427D01*
X680Y2426D02*
X763Y2426D01*
X680Y2425D02*
X763Y2425D01*
X680Y2424D02*
X763Y2424D01*
X680Y2423D02*
X763Y2423D01*
X680Y2422D02*
X763Y2422D01*
X3214Y2006D02*
X3229Y2006D01*
X3314Y2006D02*
X3329Y2006D01*
X3414Y2006D02*
X3429Y2006D01*
X3514Y2006D02*
X3529Y2006D01*
X3614Y2006D02*
X3629Y2006D01*
X3714Y2006D02*
X3729Y2006D01*
X3814Y2006D02*
X3829Y2006D01*
X3914Y2006D02*
X3929Y2006D01*
X4014Y2006D02*
X4028Y2006D01*
X4114Y2006D02*
X4128Y2006D01*
X4214Y2006D02*
X4228Y2006D01*
X4314Y2006D02*
X4329Y2006D01*
X4414Y2006D02*
X4429Y2006D01*
X4514Y2006D02*
X4529Y2006D01*
X4614Y2006D02*
X4628Y2006D01*
X3210Y2005D02*
X3233Y2005D01*
X3310Y2005D02*
X3333Y2005D01*
X3410Y2005D02*
X3433Y2005D01*
X3510Y2005D02*
X3533Y2005D01*
X3610Y2005D02*
X3633Y2005D01*
X3710Y2005D02*
X3733Y2005D01*
X3810Y2005D02*
X3833Y2005D01*
X3910Y2005D02*
X3933Y2005D01*
X4010Y2005D02*
X4033Y2005D01*
X4110Y2005D02*
X4133Y2005D01*
X4210Y2005D02*
X4233Y2005D01*
X4310Y2005D02*
X4333Y2005D01*
X4410Y2005D02*
X4433Y2005D01*
X4510Y2005D02*
X4533Y2005D01*
X4610Y2005D02*
X4633Y2005D01*
X3207Y2004D02*
X3236Y2004D01*
X3307Y2004D02*
X3336Y2004D01*
X3407Y2004D02*
X3436Y2004D01*
X3507Y2004D02*
X3536Y2004D01*
X3607Y2004D02*
X3636Y2004D01*
X3707Y2004D02*
X3736Y2004D01*
X3807Y2004D02*
X3836Y2004D01*
X3907Y2004D02*
X3936Y2004D01*
X4007Y2004D02*
X4036Y2004D01*
X4107Y2004D02*
X4136Y2004D01*
X4207Y2004D02*
X4236Y2004D01*
X4307Y2004D02*
X4336Y2004D01*
X4407Y2004D02*
X4436Y2004D01*
X4507Y2004D02*
X4536Y2004D01*
X4606Y2004D02*
X4636Y2004D01*
X3204Y2003D02*
X3239Y2003D01*
X3304Y2003D02*
X3339Y2003D01*
X3404Y2003D02*
X3439Y2003D01*
X3504Y2003D02*
X3539Y2003D01*
X3604Y2003D02*
X3639Y2003D01*
X3704Y2003D02*
X3739Y2003D01*
X3804Y2003D02*
X3839Y2003D01*
X3904Y2003D02*
X3939Y2003D01*
X4004Y2003D02*
X4039Y2003D01*
X4104Y2003D02*
X4139Y2003D01*
X4204Y2003D02*
X4239Y2003D01*
X4304Y2003D02*
X4339Y2003D01*
X4404Y2003D02*
X4439Y2003D01*
X4504Y2003D02*
X4539Y2003D01*
X4604Y2003D02*
X4638Y2003D01*
X3202Y2002D02*
X3241Y2002D01*
X3302Y2002D02*
X3341Y2002D01*
X3402Y2002D02*
X3441Y2002D01*
X3502Y2002D02*
X3541Y2002D01*
X3602Y2002D02*
X3641Y2002D01*
X3702Y2002D02*
X3741Y2002D01*
X3802Y2002D02*
X3841Y2002D01*
X3902Y2002D02*
X3941Y2002D01*
X4002Y2002D02*
X4041Y2002D01*
X4102Y2002D02*
X4141Y2002D01*
X4202Y2002D02*
X4241Y2002D01*
X4302Y2002D02*
X4341Y2002D01*
X4402Y2002D02*
X4441Y2002D01*
X4502Y2002D02*
X4541Y2002D01*
X4602Y2002D02*
X4641Y2002D01*
X3200Y2001D02*
X3243Y2001D01*
X3300Y2001D02*
X3343Y2001D01*
X3400Y2001D02*
X3442Y2001D01*
X3500Y2001D02*
X3542Y2001D01*
X3600Y2001D02*
X3642Y2001D01*
X3700Y2001D02*
X3742Y2001D01*
X3800Y2001D02*
X3842Y2001D01*
X3900Y2001D02*
X3942Y2001D01*
X4000Y2001D02*
X4042Y2001D01*
X4100Y2001D02*
X4142Y2001D01*
X4200Y2001D02*
X4242Y2001D01*
X4301Y2001D02*
X4343Y2001D01*
X4400Y2001D02*
X4443Y2001D01*
X4500Y2001D02*
X4543Y2001D01*
X4600Y2001D02*
X4642Y2001D01*
X3199Y2000D02*
X3244Y2000D01*
X3299Y2000D02*
X3344Y2000D01*
X3399Y2000D02*
X3444Y2000D01*
X3499Y2000D02*
X3544Y2000D01*
X3599Y2000D02*
X3644Y2000D01*
X3699Y2000D02*
X3744Y2000D01*
X3799Y2000D02*
X3844Y2000D01*
X3899Y2000D02*
X3944Y2000D01*
X3999Y2000D02*
X4044Y2000D01*
X4099Y2000D02*
X4144Y2000D01*
X4198Y2000D02*
X4244Y2000D01*
X4299Y2000D02*
X4344Y2000D01*
X4399Y2000D02*
X4444Y2000D01*
X4499Y2000D02*
X4544Y2000D01*
X4598Y2000D02*
X4644Y2000D01*
X3197Y1999D02*
X3246Y1999D01*
X3297Y1999D02*
X3346Y1999D01*
X3397Y1999D02*
X3446Y1999D01*
X3497Y1999D02*
X3546Y1999D01*
X3597Y1999D02*
X3646Y1999D01*
X3697Y1999D02*
X3746Y1999D01*
X3797Y1999D02*
X3846Y1999D01*
X3897Y1999D02*
X3946Y1999D01*
X3997Y1999D02*
X4046Y1999D01*
X4097Y1999D02*
X4146Y1999D01*
X4197Y1999D02*
X4246Y1999D01*
X4297Y1999D02*
X4346Y1999D01*
X4397Y1999D02*
X4446Y1999D01*
X4497Y1999D02*
X4546Y1999D01*
X4597Y1999D02*
X4646Y1999D01*
X3196Y1998D02*
X3247Y1998D01*
X3296Y1998D02*
X3347Y1998D01*
X3396Y1998D02*
X3447Y1998D01*
X3496Y1998D02*
X3547Y1998D01*
X3596Y1998D02*
X3647Y1998D01*
X3696Y1998D02*
X3747Y1998D01*
X3796Y1998D02*
X3847Y1998D01*
X3896Y1998D02*
X3947Y1998D01*
X3996Y1998D02*
X4047Y1998D01*
X4096Y1998D02*
X4147Y1998D01*
X4196Y1998D02*
X4247Y1998D01*
X4296Y1998D02*
X4347Y1998D01*
X4396Y1998D02*
X4447Y1998D01*
X4496Y1998D02*
X4547Y1998D01*
X4596Y1998D02*
X4647Y1998D01*
X3194Y1997D02*
X3248Y1997D01*
X3294Y1997D02*
X3348Y1997D01*
X3394Y1997D02*
X3448Y1997D01*
X3494Y1997D02*
X3548Y1997D01*
X3594Y1997D02*
X3648Y1997D01*
X3694Y1997D02*
X3748Y1997D01*
X3794Y1997D02*
X3848Y1997D01*
X3894Y1997D02*
X3948Y1997D01*
X3994Y1997D02*
X4048Y1997D01*
X4094Y1997D02*
X4148Y1997D01*
X4194Y1997D02*
X4248Y1997D01*
X4295Y1997D02*
X4349Y1997D01*
X4394Y1997D02*
X4449Y1997D01*
X4494Y1997D02*
X4548Y1997D01*
X4594Y1997D02*
X4648Y1997D01*
X3193Y1996D02*
X3250Y1996D01*
X3293Y1996D02*
X3350Y1996D01*
X3393Y1996D02*
X3450Y1996D01*
X3493Y1996D02*
X3550Y1996D01*
X3593Y1996D02*
X3650Y1996D01*
X3693Y1996D02*
X3750Y1996D01*
X3793Y1996D02*
X3850Y1996D01*
X3893Y1996D02*
X3950Y1996D01*
X3993Y1996D02*
X4050Y1996D01*
X4093Y1996D02*
X4150Y1996D01*
X4193Y1996D02*
X4250Y1996D01*
X4293Y1996D02*
X4350Y1996D01*
X4393Y1996D02*
X4450Y1996D01*
X4493Y1996D02*
X4550Y1996D01*
X4593Y1996D02*
X4649Y1996D01*
X3192Y1995D02*
X3251Y1995D01*
X3292Y1995D02*
X3351Y1995D01*
X3392Y1995D02*
X3451Y1995D01*
X3492Y1995D02*
X3551Y1995D01*
X3592Y1995D02*
X3651Y1995D01*
X3692Y1995D02*
X3751Y1995D01*
X3792Y1995D02*
X3851Y1995D01*
X3892Y1995D02*
X3951Y1995D01*
X3992Y1995D02*
X4051Y1995D01*
X4092Y1995D02*
X4151Y1995D01*
X4192Y1995D02*
X4251Y1995D01*
X4292Y1995D02*
X4351Y1995D01*
X4392Y1995D02*
X4451Y1995D01*
X4492Y1995D02*
X4551Y1995D01*
X4592Y1995D02*
X4651Y1995D01*
X3191Y1994D02*
X3252Y1994D01*
X3291Y1994D02*
X3352Y1994D01*
X3391Y1994D02*
X3452Y1994D01*
X3491Y1994D02*
X3552Y1994D01*
X3591Y1994D02*
X3652Y1994D01*
X3691Y1994D02*
X3752Y1994D01*
X3791Y1994D02*
X3852Y1994D01*
X3891Y1994D02*
X3952Y1994D01*
X3991Y1994D02*
X4052Y1994D01*
X4091Y1994D02*
X4152Y1994D01*
X4191Y1994D02*
X4252Y1994D01*
X4291Y1994D02*
X4352Y1994D01*
X4391Y1994D02*
X4452Y1994D01*
X4491Y1994D02*
X4552Y1994D01*
X4591Y1994D02*
X4652Y1994D01*
X3190Y1993D02*
X3253Y1993D01*
X3290Y1993D02*
X3353Y1993D01*
X3390Y1993D02*
X3453Y1993D01*
X3490Y1993D02*
X3553Y1993D01*
X3590Y1993D02*
X3653Y1993D01*
X3690Y1993D02*
X3753Y1993D01*
X3790Y1993D02*
X3853Y1993D01*
X3890Y1993D02*
X3953Y1993D01*
X3990Y1993D02*
X4053Y1993D01*
X4090Y1993D02*
X4153Y1993D01*
X4190Y1993D02*
X4253Y1993D01*
X4290Y1993D02*
X4353Y1993D01*
X4390Y1993D02*
X4453Y1993D01*
X4490Y1993D02*
X4553Y1993D01*
X4590Y1993D02*
X4653Y1993D01*
X3189Y1992D02*
X3254Y1992D01*
X3289Y1992D02*
X3354Y1992D01*
X3389Y1992D02*
X3454Y1992D01*
X3489Y1992D02*
X3554Y1992D01*
X3589Y1992D02*
X3654Y1992D01*
X3689Y1992D02*
X3754Y1992D01*
X3789Y1992D02*
X3854Y1992D01*
X3889Y1992D02*
X3954Y1992D01*
X3989Y1992D02*
X4054Y1992D01*
X4089Y1992D02*
X4154Y1992D01*
X4189Y1992D02*
X4254Y1992D01*
X4289Y1992D02*
X4354Y1992D01*
X4389Y1992D02*
X4454Y1992D01*
X4489Y1992D02*
X4554Y1992D01*
X4589Y1992D02*
X4653Y1992D01*
X3188Y1991D02*
X3255Y1991D01*
X3288Y1991D02*
X3355Y1991D01*
X3388Y1991D02*
X3455Y1991D01*
X3488Y1991D02*
X3555Y1991D01*
X3588Y1991D02*
X3655Y1991D01*
X3688Y1991D02*
X3754Y1991D01*
X3788Y1991D02*
X3854Y1991D01*
X3888Y1991D02*
X3954Y1991D01*
X3988Y1991D02*
X4054Y1991D01*
X4088Y1991D02*
X4154Y1991D01*
X4188Y1991D02*
X4254Y1991D01*
X4289Y1991D02*
X4355Y1991D01*
X4388Y1991D02*
X4455Y1991D01*
X4488Y1991D02*
X4555Y1991D01*
X4588Y1991D02*
X4654Y1991D01*
X3187Y1990D02*
X3255Y1990D01*
X3287Y1990D02*
X3355Y1990D01*
X3387Y1990D02*
X3455Y1990D01*
X3487Y1990D02*
X3555Y1990D01*
X3587Y1990D02*
X3655Y1990D01*
X3687Y1990D02*
X3755Y1990D01*
X3787Y1990D02*
X3855Y1990D01*
X3887Y1990D02*
X3955Y1990D01*
X3987Y1990D02*
X4055Y1990D01*
X4087Y1990D02*
X4155Y1990D01*
X4187Y1990D02*
X4255Y1990D01*
X4288Y1990D02*
X4356Y1990D01*
X4388Y1990D02*
X4455Y1990D01*
X4487Y1990D02*
X4555Y1990D01*
X4587Y1990D02*
X4655Y1990D01*
X3187Y1989D02*
X3256Y1989D01*
X3287Y1989D02*
X3356Y1989D01*
X3387Y1989D02*
X3456Y1989D01*
X3487Y1989D02*
X3556Y1989D01*
X3587Y1989D02*
X3656Y1989D01*
X3687Y1989D02*
X3756Y1989D01*
X3787Y1989D02*
X3856Y1989D01*
X3887Y1989D02*
X3956Y1989D01*
X3987Y1989D02*
X4056Y1989D01*
X4087Y1989D02*
X4156Y1989D01*
X4187Y1989D02*
X4256Y1989D01*
X4287Y1989D02*
X4356Y1989D01*
X4387Y1989D02*
X4456Y1989D01*
X4487Y1989D02*
X4556Y1989D01*
X4587Y1989D02*
X4656Y1989D01*
X3186Y1988D02*
X3257Y1988D01*
X3286Y1988D02*
X3357Y1988D01*
X3386Y1988D02*
X3457Y1988D01*
X3486Y1988D02*
X3557Y1988D01*
X3586Y1988D02*
X3657Y1988D01*
X3686Y1988D02*
X3757Y1988D01*
X3786Y1988D02*
X3857Y1988D01*
X3886Y1988D02*
X3957Y1988D01*
X3986Y1988D02*
X4057Y1988D01*
X4086Y1988D02*
X4157Y1988D01*
X4186Y1988D02*
X4257Y1988D01*
X4286Y1988D02*
X4357Y1988D01*
X4386Y1988D02*
X4457Y1988D01*
X4486Y1988D02*
X4557Y1988D01*
X4586Y1988D02*
X4657Y1988D01*
X3185Y1987D02*
X3257Y1987D01*
X3285Y1987D02*
X3357Y1987D01*
X3385Y1987D02*
X3457Y1987D01*
X3485Y1987D02*
X3557Y1987D01*
X3585Y1987D02*
X3657Y1987D01*
X3685Y1987D02*
X3757Y1987D01*
X3785Y1987D02*
X3857Y1987D01*
X3885Y1987D02*
X3957Y1987D01*
X3985Y1987D02*
X4057Y1987D01*
X4085Y1987D02*
X4157Y1987D01*
X4185Y1987D02*
X4257Y1987D01*
X4286Y1987D02*
X4358Y1987D01*
X4385Y1987D02*
X4458Y1987D01*
X4485Y1987D02*
X4557Y1987D01*
X4585Y1987D02*
X4657Y1987D01*
X3185Y1986D02*
X3258Y1986D01*
X3285Y1986D02*
X3358Y1986D01*
X3385Y1986D02*
X3458Y1986D01*
X3485Y1986D02*
X3558Y1986D01*
X3585Y1986D02*
X3658Y1986D01*
X3685Y1986D02*
X3758Y1986D01*
X3785Y1986D02*
X3858Y1986D01*
X3885Y1986D02*
X3958Y1986D01*
X3985Y1986D02*
X4058Y1986D01*
X4085Y1986D02*
X4158Y1986D01*
X4185Y1986D02*
X4258Y1986D01*
X4285Y1986D02*
X4358Y1986D01*
X4385Y1986D02*
X4458Y1986D01*
X4485Y1986D02*
X4558Y1986D01*
X4584Y1986D02*
X4658Y1986D01*
X3184Y1985D02*
X3259Y1985D01*
X3284Y1985D02*
X3359Y1985D01*
X3384Y1985D02*
X3459Y1985D01*
X3484Y1985D02*
X3559Y1985D01*
X3584Y1985D02*
X3659Y1985D01*
X3684Y1985D02*
X3759Y1985D01*
X3784Y1985D02*
X3859Y1985D01*
X3884Y1985D02*
X3959Y1985D01*
X3984Y1985D02*
X4059Y1985D01*
X4084Y1985D02*
X4159Y1985D01*
X4184Y1985D02*
X4259Y1985D01*
X4284Y1985D02*
X4359Y1985D01*
X4384Y1985D02*
X4459Y1985D01*
X4484Y1985D02*
X4559Y1985D01*
X4584Y1985D02*
X4659Y1985D01*
X3183Y1984D02*
X3259Y1984D01*
X3283Y1984D02*
X3359Y1984D01*
X3383Y1984D02*
X3459Y1984D01*
X3483Y1984D02*
X3559Y1984D01*
X3583Y1984D02*
X3659Y1984D01*
X3683Y1984D02*
X3759Y1984D01*
X3783Y1984D02*
X3859Y1984D01*
X3883Y1984D02*
X3959Y1984D01*
X3983Y1984D02*
X4059Y1984D01*
X4083Y1984D02*
X4159Y1984D01*
X4183Y1984D02*
X4259Y1984D01*
X4284Y1984D02*
X4360Y1984D01*
X4384Y1984D02*
X4459Y1984D01*
X4483Y1984D02*
X4559Y1984D01*
X4583Y1984D02*
X4659Y1984D01*
X3183Y1983D02*
X3260Y1983D01*
X3283Y1983D02*
X3360Y1983D01*
X3383Y1983D02*
X3460Y1983D01*
X3483Y1983D02*
X3560Y1983D01*
X3583Y1983D02*
X3660Y1983D01*
X3683Y1983D02*
X3760Y1983D01*
X3783Y1983D02*
X3860Y1983D01*
X3883Y1983D02*
X3960Y1983D01*
X3983Y1983D02*
X4060Y1983D01*
X4083Y1983D02*
X4160Y1983D01*
X4183Y1983D02*
X4260Y1983D01*
X4283Y1983D02*
X4360Y1983D01*
X4383Y1983D02*
X4460Y1983D01*
X4483Y1983D02*
X4560Y1983D01*
X4583Y1983D02*
X4660Y1983D01*
X3182Y1982D02*
X3260Y1982D01*
X3282Y1982D02*
X3360Y1982D01*
X3382Y1982D02*
X3460Y1982D01*
X3482Y1982D02*
X3560Y1982D01*
X3582Y1982D02*
X3660Y1982D01*
X3682Y1982D02*
X3760Y1982D01*
X3782Y1982D02*
X3860Y1982D01*
X3882Y1982D02*
X3960Y1982D01*
X3982Y1982D02*
X4060Y1982D01*
X4082Y1982D02*
X4160Y1982D01*
X4182Y1982D02*
X4260Y1982D01*
X4283Y1982D02*
X4361Y1982D01*
X4383Y1982D02*
X4461Y1982D01*
X4482Y1982D02*
X4560Y1982D01*
X4582Y1982D02*
X4660Y1982D01*
X3182Y1981D02*
X3261Y1981D01*
X3282Y1981D02*
X3361Y1981D01*
X3382Y1981D02*
X3461Y1981D01*
X3482Y1981D02*
X3561Y1981D01*
X3582Y1981D02*
X3661Y1981D01*
X3682Y1981D02*
X3761Y1981D01*
X3782Y1981D02*
X3861Y1981D01*
X3882Y1981D02*
X3961Y1981D01*
X3982Y1981D02*
X4061Y1981D01*
X4082Y1981D02*
X4161Y1981D01*
X4182Y1981D02*
X4261Y1981D01*
X4282Y1981D02*
X4361Y1981D01*
X4382Y1981D02*
X4461Y1981D01*
X4482Y1981D02*
X4561Y1981D01*
X4582Y1981D02*
X4661Y1981D01*
X3181Y1980D02*
X3261Y1980D01*
X3281Y1980D02*
X3361Y1980D01*
X3381Y1980D02*
X3461Y1980D01*
X3481Y1980D02*
X3561Y1980D01*
X3581Y1980D02*
X3661Y1980D01*
X3681Y1980D02*
X3761Y1980D01*
X3781Y1980D02*
X3861Y1980D01*
X3881Y1980D02*
X3961Y1980D01*
X3981Y1980D02*
X4061Y1980D01*
X4081Y1980D02*
X4161Y1980D01*
X4181Y1980D02*
X4261Y1980D01*
X4282Y1980D02*
X4362Y1980D01*
X4382Y1980D02*
X4461Y1980D01*
X4481Y1980D02*
X4561Y1980D01*
X4581Y1980D02*
X4661Y1980D01*
X3181Y1979D02*
X3262Y1979D01*
X3281Y1979D02*
X3362Y1979D01*
X3381Y1979D02*
X3462Y1979D01*
X3481Y1979D02*
X3562Y1979D01*
X3581Y1979D02*
X3662Y1979D01*
X3681Y1979D02*
X3762Y1979D01*
X3781Y1979D02*
X3862Y1979D01*
X3881Y1979D02*
X3962Y1979D01*
X3981Y1979D02*
X4062Y1979D01*
X4081Y1979D02*
X4162Y1979D01*
X4181Y1979D02*
X4262Y1979D01*
X4281Y1979D02*
X4362Y1979D01*
X4381Y1979D02*
X4462Y1979D01*
X4481Y1979D02*
X4562Y1979D01*
X4581Y1979D02*
X4662Y1979D01*
X3181Y1978D02*
X3262Y1978D01*
X3281Y1978D02*
X3362Y1978D01*
X3381Y1978D02*
X3462Y1978D01*
X3481Y1978D02*
X3562Y1978D01*
X3581Y1978D02*
X3662Y1978D01*
X3681Y1978D02*
X3762Y1978D01*
X3781Y1978D02*
X3862Y1978D01*
X3881Y1978D02*
X3962Y1978D01*
X3981Y1978D02*
X4062Y1978D01*
X4081Y1978D02*
X4162Y1978D01*
X4181Y1978D02*
X4262Y1978D01*
X4281Y1978D02*
X4362Y1978D01*
X4381Y1978D02*
X4462Y1978D01*
X4481Y1978D02*
X4562Y1978D01*
X4581Y1978D02*
X4662Y1978D01*
X3180Y1977D02*
X3262Y1977D01*
X3280Y1977D02*
X3362Y1977D01*
X3380Y1977D02*
X3462Y1977D01*
X3480Y1977D02*
X3562Y1977D01*
X3580Y1977D02*
X3662Y1977D01*
X3680Y1977D02*
X3762Y1977D01*
X3780Y1977D02*
X3862Y1977D01*
X3880Y1977D02*
X3962Y1977D01*
X3980Y1977D02*
X4062Y1977D01*
X4080Y1977D02*
X4162Y1977D01*
X4180Y1977D02*
X4262Y1977D01*
X4281Y1977D02*
X4363Y1977D01*
X4381Y1977D02*
X4463Y1977D01*
X4480Y1977D02*
X4562Y1977D01*
X4580Y1977D02*
X4662Y1977D01*
X3180Y1976D02*
X3263Y1976D01*
X3280Y1976D02*
X3363Y1976D01*
X3380Y1976D02*
X3463Y1976D01*
X3480Y1976D02*
X3563Y1976D01*
X3580Y1976D02*
X3663Y1976D01*
X3680Y1976D02*
X3763Y1976D01*
X3780Y1976D02*
X3863Y1976D01*
X3880Y1976D02*
X3963Y1976D01*
X3980Y1976D02*
X4063Y1976D01*
X4080Y1976D02*
X4163Y1976D01*
X4180Y1976D02*
X4263Y1976D01*
X4280Y1976D02*
X4363Y1976D01*
X4380Y1976D02*
X4463Y1976D01*
X4480Y1976D02*
X4563Y1976D01*
X4580Y1976D02*
X4663Y1976D01*
X3180Y1975D02*
X3263Y1975D01*
X3280Y1975D02*
X3363Y1975D01*
X3380Y1975D02*
X3463Y1975D01*
X3480Y1975D02*
X3563Y1975D01*
X3580Y1975D02*
X3663Y1975D01*
X3680Y1975D02*
X3763Y1975D01*
X3780Y1975D02*
X3863Y1975D01*
X3880Y1975D02*
X3963Y1975D01*
X3980Y1975D02*
X4063Y1975D01*
X4080Y1975D02*
X4163Y1975D01*
X4180Y1975D02*
X4263Y1975D01*
X4280Y1975D02*
X4363Y1975D01*
X4380Y1975D02*
X4463Y1975D01*
X4480Y1975D02*
X4563Y1975D01*
X4580Y1975D02*
X4663Y1975D01*
X3179Y1974D02*
X3263Y1974D01*
X3279Y1974D02*
X3363Y1974D01*
X3379Y1974D02*
X3463Y1974D01*
X3479Y1974D02*
X3563Y1974D01*
X3579Y1974D02*
X3663Y1974D01*
X3679Y1974D02*
X3763Y1974D01*
X3779Y1974D02*
X3863Y1974D01*
X3879Y1974D02*
X3963Y1974D01*
X3979Y1974D02*
X4063Y1974D01*
X4079Y1974D02*
X4163Y1974D01*
X4179Y1974D02*
X4263Y1974D01*
X4280Y1974D02*
X4364Y1974D01*
X4380Y1974D02*
X4463Y1974D01*
X4479Y1974D02*
X4563Y1974D01*
X4579Y1974D02*
X4663Y1974D01*
X3179Y1973D02*
X3264Y1973D01*
X3279Y1973D02*
X3364Y1973D01*
X3379Y1973D02*
X3463Y1973D01*
X3479Y1973D02*
X3563Y1973D01*
X3579Y1973D02*
X3663Y1973D01*
X3679Y1973D02*
X3763Y1973D01*
X3779Y1973D02*
X3863Y1973D01*
X3879Y1973D02*
X3963Y1973D01*
X3979Y1973D02*
X4063Y1973D01*
X4079Y1973D02*
X4163Y1973D01*
X4179Y1973D02*
X4263Y1973D01*
X4280Y1973D02*
X4364Y1973D01*
X4379Y1973D02*
X4464Y1973D01*
X4479Y1973D02*
X4564Y1973D01*
X4579Y1973D02*
X4663Y1973D01*
X3179Y1972D02*
X3264Y1972D01*
X3279Y1972D02*
X3364Y1972D01*
X3379Y1972D02*
X3464Y1972D01*
X3479Y1972D02*
X3564Y1972D01*
X3579Y1972D02*
X3664Y1972D01*
X3679Y1972D02*
X3764Y1972D01*
X3779Y1972D02*
X3864Y1972D01*
X3879Y1972D02*
X3964Y1972D01*
X3979Y1972D02*
X4064Y1972D01*
X4079Y1972D02*
X4164Y1972D01*
X4179Y1972D02*
X4264Y1972D01*
X4279Y1972D02*
X4364Y1972D01*
X4379Y1972D02*
X4464Y1972D01*
X4479Y1972D02*
X4564Y1972D01*
X4579Y1972D02*
X4664Y1972D01*
X3179Y1971D02*
X3264Y1971D01*
X3279Y1971D02*
X3364Y1971D01*
X3379Y1971D02*
X3464Y1971D01*
X3479Y1971D02*
X3564Y1971D01*
X3579Y1971D02*
X3664Y1971D01*
X3679Y1971D02*
X3764Y1971D01*
X3779Y1971D02*
X3864Y1971D01*
X3879Y1971D02*
X3964Y1971D01*
X3979Y1971D02*
X4064Y1971D01*
X4079Y1971D02*
X4164Y1971D01*
X4179Y1971D02*
X4264Y1971D01*
X4279Y1971D02*
X4364Y1971D01*
X4379Y1971D02*
X4464Y1971D01*
X4479Y1971D02*
X4564Y1971D01*
X4579Y1971D02*
X4664Y1971D01*
X3179Y1970D02*
X3264Y1970D01*
X3279Y1970D02*
X3364Y1970D01*
X3379Y1970D02*
X3464Y1970D01*
X3479Y1970D02*
X3564Y1970D01*
X3579Y1970D02*
X3664Y1970D01*
X3679Y1970D02*
X3764Y1970D01*
X3779Y1970D02*
X3864Y1970D01*
X3879Y1970D02*
X3964Y1970D01*
X3979Y1970D02*
X4064Y1970D01*
X4079Y1970D02*
X4164Y1970D01*
X4179Y1970D02*
X4264Y1970D01*
X4279Y1970D02*
X4364Y1970D01*
X4379Y1970D02*
X4464Y1970D01*
X4479Y1970D02*
X4564Y1970D01*
X4578Y1970D02*
X4664Y1970D01*
X3178Y1969D02*
X3264Y1969D01*
X3278Y1969D02*
X3364Y1969D01*
X3378Y1969D02*
X3464Y1969D01*
X3478Y1969D02*
X3564Y1969D01*
X3578Y1969D02*
X3664Y1969D01*
X3678Y1969D02*
X3764Y1969D01*
X3778Y1969D02*
X3864Y1969D01*
X3878Y1969D02*
X3964Y1969D01*
X3978Y1969D02*
X4064Y1969D01*
X4078Y1969D02*
X4164Y1969D01*
X4178Y1969D02*
X4264Y1969D01*
X4279Y1969D02*
X4365Y1969D01*
X4379Y1969D02*
X4464Y1969D01*
X4478Y1969D02*
X4564Y1969D01*
X4578Y1969D02*
X4664Y1969D01*
X3178Y1968D02*
X3264Y1968D01*
X3278Y1968D02*
X3364Y1968D01*
X3378Y1968D02*
X3464Y1968D01*
X3478Y1968D02*
X3564Y1968D01*
X3578Y1968D02*
X3664Y1968D01*
X3678Y1968D02*
X3764Y1968D01*
X3778Y1968D02*
X3864Y1968D01*
X3878Y1968D02*
X3964Y1968D01*
X3978Y1968D02*
X4064Y1968D01*
X4078Y1968D02*
X4164Y1968D01*
X4178Y1968D02*
X4264Y1968D01*
X4279Y1968D02*
X4365Y1968D01*
X4378Y1968D02*
X4465Y1968D01*
X4478Y1968D02*
X4564Y1968D01*
X4578Y1968D02*
X4664Y1968D01*
X3178Y1967D02*
X3265Y1967D01*
X3278Y1967D02*
X3365Y1967D01*
X3378Y1967D02*
X3465Y1967D01*
X3478Y1967D02*
X3565Y1967D01*
X3578Y1967D02*
X3665Y1967D01*
X3678Y1967D02*
X3765Y1967D01*
X3778Y1967D02*
X3864Y1967D01*
X3878Y1967D02*
X3964Y1967D01*
X3978Y1967D02*
X4064Y1967D01*
X4078Y1967D02*
X4164Y1967D01*
X4178Y1967D02*
X4264Y1967D01*
X4279Y1967D02*
X4365Y1967D01*
X4378Y1967D02*
X4465Y1967D01*
X4478Y1967D02*
X4565Y1967D01*
X4578Y1967D02*
X4664Y1967D01*
X3178Y1966D02*
X3265Y1966D01*
X3278Y1966D02*
X3365Y1966D01*
X3378Y1966D02*
X3465Y1966D01*
X3478Y1966D02*
X3565Y1966D01*
X3578Y1966D02*
X3665Y1966D01*
X3678Y1966D02*
X3765Y1966D01*
X3778Y1966D02*
X3865Y1966D01*
X3878Y1966D02*
X3965Y1966D01*
X3978Y1966D02*
X4065Y1966D01*
X4078Y1966D02*
X4165Y1966D01*
X4178Y1966D02*
X4264Y1966D01*
X4278Y1966D02*
X4365Y1966D01*
X4378Y1966D02*
X4465Y1966D01*
X4478Y1966D02*
X4565Y1966D01*
X4578Y1966D02*
X4664Y1966D01*
X3178Y1965D02*
X3265Y1965D01*
X3278Y1965D02*
X3365Y1965D01*
X3378Y1965D02*
X3465Y1965D01*
X3478Y1965D02*
X3565Y1965D01*
X3578Y1965D02*
X3665Y1965D01*
X3678Y1965D02*
X3765Y1965D01*
X3778Y1965D02*
X3865Y1965D01*
X3878Y1965D02*
X3965Y1965D01*
X3978Y1965D02*
X4065Y1965D01*
X4078Y1965D02*
X4165Y1965D01*
X4178Y1965D02*
X4265Y1965D01*
X4278Y1965D02*
X4365Y1965D01*
X4378Y1965D02*
X4465Y1965D01*
X4478Y1965D02*
X4565Y1965D01*
X4578Y1965D02*
X4665Y1965D01*
X3178Y1964D02*
X3265Y1964D01*
X3278Y1964D02*
X3365Y1964D01*
X3378Y1964D02*
X3465Y1964D01*
X3478Y1964D02*
X3565Y1964D01*
X3578Y1964D02*
X3665Y1964D01*
X3678Y1964D02*
X3765Y1964D01*
X3778Y1964D02*
X3865Y1964D01*
X3878Y1964D02*
X3965Y1964D01*
X3978Y1964D02*
X4065Y1964D01*
X4078Y1964D02*
X4165Y1964D01*
X4178Y1964D02*
X4265Y1964D01*
X4278Y1964D02*
X4365Y1964D01*
X4378Y1964D02*
X4465Y1964D01*
X4478Y1964D02*
X4565Y1964D01*
X4578Y1964D02*
X4665Y1964D01*
X3178Y1963D02*
X3265Y1963D01*
X3278Y1963D02*
X3365Y1963D01*
X3378Y1963D02*
X3465Y1963D01*
X3478Y1963D02*
X3565Y1963D01*
X3578Y1963D02*
X3665Y1963D01*
X3678Y1963D02*
X3765Y1963D01*
X3778Y1963D02*
X3865Y1963D01*
X3878Y1963D02*
X3965Y1963D01*
X3978Y1963D02*
X4065Y1963D01*
X4078Y1963D02*
X4165Y1963D01*
X4178Y1963D02*
X4265Y1963D01*
X4278Y1963D02*
X4365Y1963D01*
X4378Y1963D02*
X4465Y1963D01*
X4478Y1963D02*
X4565Y1963D01*
X4578Y1963D02*
X4665Y1963D01*
X3178Y1962D02*
X3265Y1962D01*
X3278Y1962D02*
X3365Y1962D01*
X3378Y1962D02*
X3465Y1962D01*
X3478Y1962D02*
X3565Y1962D01*
X3578Y1962D02*
X3665Y1962D01*
X3678Y1962D02*
X3765Y1962D01*
X3778Y1962D02*
X3865Y1962D01*
X3878Y1962D02*
X3965Y1962D01*
X3978Y1962D02*
X4065Y1962D01*
X4078Y1962D02*
X4165Y1962D01*
X4178Y1962D02*
X4265Y1962D01*
X4278Y1962D02*
X4365Y1962D01*
X4378Y1962D02*
X4465Y1962D01*
X4478Y1962D02*
X4565Y1962D01*
X4578Y1962D02*
X4665Y1962D01*
X3178Y1961D02*
X3265Y1961D01*
X3278Y1961D02*
X3365Y1961D01*
X3378Y1961D02*
X3465Y1961D01*
X3478Y1961D02*
X3565Y1961D01*
X3578Y1961D02*
X3665Y1961D01*
X3678Y1961D02*
X3765Y1961D01*
X3778Y1961D02*
X3865Y1961D01*
X3878Y1961D02*
X3965Y1961D01*
X3978Y1961D02*
X4065Y1961D01*
X4078Y1961D02*
X4165Y1961D01*
X4178Y1961D02*
X4265Y1961D01*
X4278Y1961D02*
X4365Y1961D01*
X4378Y1961D02*
X4465Y1961D01*
X4478Y1961D02*
X4565Y1961D01*
X4578Y1961D02*
X4665Y1961D01*
X3178Y1960D02*
X3265Y1960D01*
X3278Y1960D02*
X3365Y1960D01*
X3378Y1960D02*
X3465Y1960D01*
X3478Y1960D02*
X3565Y1960D01*
X3578Y1960D02*
X3665Y1960D01*
X3678Y1960D02*
X3765Y1960D01*
X3778Y1960D02*
X3865Y1960D01*
X3878Y1960D02*
X3965Y1960D01*
X3978Y1960D02*
X4065Y1960D01*
X4078Y1960D02*
X4165Y1960D01*
X4178Y1960D02*
X4265Y1960D01*
X4278Y1960D02*
X4365Y1960D01*
X4378Y1960D02*
X4465Y1960D01*
X4478Y1960D02*
X4565Y1960D01*
X4578Y1960D02*
X4664Y1960D01*
X3178Y1959D02*
X3265Y1959D01*
X3278Y1959D02*
X3365Y1959D01*
X3378Y1959D02*
X3465Y1959D01*
X3478Y1959D02*
X3565Y1959D01*
X3578Y1959D02*
X3665Y1959D01*
X3678Y1959D02*
X3765Y1959D01*
X3778Y1959D02*
X3865Y1959D01*
X3878Y1959D02*
X3964Y1959D01*
X3978Y1959D02*
X4064Y1959D01*
X4078Y1959D02*
X4164Y1959D01*
X4178Y1959D02*
X4264Y1959D01*
X4278Y1959D02*
X4365Y1959D01*
X4378Y1959D02*
X4465Y1959D01*
X4478Y1959D02*
X4565Y1959D01*
X4578Y1959D02*
X4664Y1959D01*
X3178Y1958D02*
X3264Y1958D01*
X3278Y1958D02*
X3364Y1958D01*
X3378Y1958D02*
X3464Y1958D01*
X3478Y1958D02*
X3564Y1958D01*
X3578Y1958D02*
X3664Y1958D01*
X3678Y1958D02*
X3764Y1958D01*
X3778Y1958D02*
X3864Y1958D01*
X3878Y1958D02*
X3964Y1958D01*
X3978Y1958D02*
X4064Y1958D01*
X4078Y1958D02*
X4164Y1958D01*
X4178Y1958D02*
X4264Y1958D01*
X4279Y1958D02*
X4365Y1958D01*
X4378Y1958D02*
X4465Y1958D01*
X4478Y1958D02*
X4564Y1958D01*
X4578Y1958D02*
X4664Y1958D01*
X3178Y1957D02*
X3264Y1957D01*
X3278Y1957D02*
X3364Y1957D01*
X3378Y1957D02*
X3464Y1957D01*
X3478Y1957D02*
X3564Y1957D01*
X3578Y1957D02*
X3664Y1957D01*
X3678Y1957D02*
X3764Y1957D01*
X3778Y1957D02*
X3864Y1957D01*
X3878Y1957D02*
X3964Y1957D01*
X3978Y1957D02*
X4064Y1957D01*
X4078Y1957D02*
X4164Y1957D01*
X4178Y1957D02*
X4264Y1957D01*
X4279Y1957D02*
X4365Y1957D01*
X4379Y1957D02*
X4464Y1957D01*
X4478Y1957D02*
X4564Y1957D01*
X4578Y1957D02*
X4664Y1957D01*
X3179Y1956D02*
X3264Y1956D01*
X3279Y1956D02*
X3364Y1956D01*
X3379Y1956D02*
X3464Y1956D01*
X3479Y1956D02*
X3564Y1956D01*
X3579Y1956D02*
X3664Y1956D01*
X3679Y1956D02*
X3764Y1956D01*
X3779Y1956D02*
X3864Y1956D01*
X3879Y1956D02*
X3964Y1956D01*
X3979Y1956D02*
X4064Y1956D01*
X4078Y1956D02*
X4164Y1956D01*
X4178Y1956D02*
X4264Y1956D01*
X4279Y1956D02*
X4364Y1956D01*
X4379Y1956D02*
X4464Y1956D01*
X4479Y1956D02*
X4564Y1956D01*
X4578Y1956D02*
X4664Y1956D01*
X3179Y1955D02*
X3264Y1955D01*
X3279Y1955D02*
X3364Y1955D01*
X3379Y1955D02*
X3464Y1955D01*
X3479Y1955D02*
X3564Y1955D01*
X3579Y1955D02*
X3664Y1955D01*
X3679Y1955D02*
X3764Y1955D01*
X3779Y1955D02*
X3864Y1955D01*
X3879Y1955D02*
X3964Y1955D01*
X3979Y1955D02*
X4064Y1955D01*
X4079Y1955D02*
X4164Y1955D01*
X4179Y1955D02*
X4264Y1955D01*
X4279Y1955D02*
X4364Y1955D01*
X4379Y1955D02*
X4464Y1955D01*
X4479Y1955D02*
X4564Y1955D01*
X4579Y1955D02*
X4664Y1955D01*
X3179Y1954D02*
X3264Y1954D01*
X3279Y1954D02*
X3364Y1954D01*
X3379Y1954D02*
X3464Y1954D01*
X3479Y1954D02*
X3564Y1954D01*
X3579Y1954D02*
X3664Y1954D01*
X3679Y1954D02*
X3764Y1954D01*
X3779Y1954D02*
X3864Y1954D01*
X3879Y1954D02*
X3964Y1954D01*
X3979Y1954D02*
X4064Y1954D01*
X4079Y1954D02*
X4164Y1954D01*
X4179Y1954D02*
X4264Y1954D01*
X4279Y1954D02*
X4364Y1954D01*
X4379Y1954D02*
X4464Y1954D01*
X4479Y1954D02*
X4564Y1954D01*
X4579Y1954D02*
X4664Y1954D01*
X3179Y1953D02*
X3264Y1953D01*
X3279Y1953D02*
X3364Y1953D01*
X3379Y1953D02*
X3464Y1953D01*
X3479Y1953D02*
X3564Y1953D01*
X3579Y1953D02*
X3664Y1953D01*
X3679Y1953D02*
X3764Y1953D01*
X3779Y1953D02*
X3864Y1953D01*
X3879Y1953D02*
X3963Y1953D01*
X3979Y1953D02*
X4063Y1953D01*
X4079Y1953D02*
X4163Y1953D01*
X4179Y1953D02*
X4263Y1953D01*
X4280Y1953D02*
X4364Y1953D01*
X4379Y1953D02*
X4464Y1953D01*
X4479Y1953D02*
X4564Y1953D01*
X4579Y1953D02*
X4663Y1953D01*
X3179Y1952D02*
X3263Y1952D01*
X3279Y1952D02*
X3363Y1952D01*
X3379Y1952D02*
X3463Y1952D01*
X3479Y1952D02*
X3563Y1952D01*
X3579Y1952D02*
X3663Y1952D01*
X3679Y1952D02*
X3763Y1952D01*
X3779Y1952D02*
X3863Y1952D01*
X3879Y1952D02*
X3963Y1952D01*
X3979Y1952D02*
X4063Y1952D01*
X4079Y1952D02*
X4163Y1952D01*
X4179Y1952D02*
X4263Y1952D01*
X4280Y1952D02*
X4364Y1952D01*
X4380Y1952D02*
X4463Y1952D01*
X4479Y1952D02*
X4563Y1952D01*
X4579Y1952D02*
X4663Y1952D01*
X3180Y1951D02*
X3263Y1951D01*
X3280Y1951D02*
X3363Y1951D01*
X3380Y1951D02*
X3463Y1951D01*
X3480Y1951D02*
X3563Y1951D01*
X3580Y1951D02*
X3663Y1951D01*
X3680Y1951D02*
X3763Y1951D01*
X3780Y1951D02*
X3863Y1951D01*
X3880Y1951D02*
X3963Y1951D01*
X3980Y1951D02*
X4063Y1951D01*
X4080Y1951D02*
X4163Y1951D01*
X4180Y1951D02*
X4263Y1951D01*
X4280Y1951D02*
X4363Y1951D01*
X4380Y1951D02*
X4463Y1951D01*
X4480Y1951D02*
X4563Y1951D01*
X4580Y1951D02*
X4663Y1951D01*
X3180Y1950D02*
X3263Y1950D01*
X3280Y1950D02*
X3363Y1950D01*
X3380Y1950D02*
X3463Y1950D01*
X3480Y1950D02*
X3563Y1950D01*
X3580Y1950D02*
X3663Y1950D01*
X3680Y1950D02*
X3763Y1950D01*
X3780Y1950D02*
X3863Y1950D01*
X3880Y1950D02*
X3963Y1950D01*
X3980Y1950D02*
X4063Y1950D01*
X4080Y1950D02*
X4163Y1950D01*
X4180Y1950D02*
X4263Y1950D01*
X4280Y1950D02*
X4363Y1950D01*
X4380Y1950D02*
X4463Y1950D01*
X4480Y1950D02*
X4563Y1950D01*
X4580Y1950D02*
X4663Y1950D01*
X3180Y1949D02*
X3262Y1949D01*
X3280Y1949D02*
X3362Y1949D01*
X3380Y1949D02*
X3462Y1949D01*
X3480Y1949D02*
X3562Y1949D01*
X3580Y1949D02*
X3662Y1949D01*
X3680Y1949D02*
X3762Y1949D01*
X3780Y1949D02*
X3862Y1949D01*
X3880Y1949D02*
X3962Y1949D01*
X3980Y1949D02*
X4062Y1949D01*
X4080Y1949D02*
X4162Y1949D01*
X4180Y1949D02*
X4262Y1949D01*
X4281Y1949D02*
X4363Y1949D01*
X4380Y1949D02*
X4463Y1949D01*
X4480Y1949D02*
X4562Y1949D01*
X4580Y1949D02*
X4662Y1949D01*
X3181Y1948D02*
X3262Y1948D01*
X3281Y1948D02*
X3362Y1948D01*
X3381Y1948D02*
X3462Y1948D01*
X3481Y1948D02*
X3562Y1948D01*
X3581Y1948D02*
X3662Y1948D01*
X3681Y1948D02*
X3762Y1948D01*
X3781Y1948D02*
X3862Y1948D01*
X3881Y1948D02*
X3962Y1948D01*
X3981Y1948D02*
X4062Y1948D01*
X4081Y1948D02*
X4162Y1948D01*
X4180Y1948D02*
X4262Y1948D01*
X4281Y1948D02*
X4362Y1948D01*
X4381Y1948D02*
X4462Y1948D01*
X4481Y1948D02*
X4562Y1948D01*
X4580Y1948D02*
X4662Y1948D01*
X3181Y1947D02*
X3262Y1947D01*
X3281Y1947D02*
X3362Y1947D01*
X3381Y1947D02*
X3462Y1947D01*
X3481Y1947D02*
X3562Y1947D01*
X3581Y1947D02*
X3662Y1947D01*
X3681Y1947D02*
X3762Y1947D01*
X3781Y1947D02*
X3862Y1947D01*
X3881Y1947D02*
X3962Y1947D01*
X3981Y1947D02*
X4062Y1947D01*
X4081Y1947D02*
X4162Y1947D01*
X4181Y1947D02*
X4262Y1947D01*
X4281Y1947D02*
X4362Y1947D01*
X4381Y1947D02*
X4462Y1947D01*
X4481Y1947D02*
X4562Y1947D01*
X4581Y1947D02*
X4662Y1947D01*
X3181Y1946D02*
X3261Y1946D01*
X3281Y1946D02*
X3361Y1946D01*
X3381Y1946D02*
X3461Y1946D01*
X3481Y1946D02*
X3561Y1946D01*
X3581Y1946D02*
X3661Y1946D01*
X3681Y1946D02*
X3761Y1946D01*
X3781Y1946D02*
X3861Y1946D01*
X3881Y1946D02*
X3961Y1946D01*
X3981Y1946D02*
X4061Y1946D01*
X4081Y1946D02*
X4161Y1946D01*
X4181Y1946D02*
X4261Y1946D01*
X4282Y1946D02*
X4362Y1946D01*
X4382Y1946D02*
X4462Y1946D01*
X4481Y1946D02*
X4561Y1946D01*
X4581Y1946D02*
X4661Y1946D01*
X3182Y1945D02*
X3261Y1945D01*
X3282Y1945D02*
X3361Y1945D01*
X3382Y1945D02*
X3461Y1945D01*
X3482Y1945D02*
X3561Y1945D01*
X3582Y1945D02*
X3661Y1945D01*
X3682Y1945D02*
X3761Y1945D01*
X3782Y1945D02*
X3861Y1945D01*
X3882Y1945D02*
X3961Y1945D01*
X3982Y1945D02*
X4061Y1945D01*
X4082Y1945D02*
X4161Y1945D01*
X4182Y1945D02*
X4261Y1945D01*
X4282Y1945D02*
X4361Y1945D01*
X4382Y1945D02*
X4461Y1945D01*
X4482Y1945D02*
X4561Y1945D01*
X4582Y1945D02*
X4661Y1945D01*
X3182Y1944D02*
X3260Y1944D01*
X3282Y1944D02*
X3360Y1944D01*
X3382Y1944D02*
X3460Y1944D01*
X3482Y1944D02*
X3560Y1944D01*
X3582Y1944D02*
X3660Y1944D01*
X3682Y1944D02*
X3760Y1944D01*
X3782Y1944D02*
X3860Y1944D01*
X3882Y1944D02*
X3960Y1944D01*
X3982Y1944D02*
X4060Y1944D01*
X4082Y1944D02*
X4160Y1944D01*
X4182Y1944D02*
X4260Y1944D01*
X4283Y1944D02*
X4361Y1944D01*
X4382Y1944D02*
X4461Y1944D01*
X4482Y1944D02*
X4560Y1944D01*
X4582Y1944D02*
X4660Y1944D01*
X3183Y1943D02*
X3260Y1943D01*
X3283Y1943D02*
X3360Y1943D01*
X3383Y1943D02*
X3460Y1943D01*
X3483Y1943D02*
X3560Y1943D01*
X3583Y1943D02*
X3660Y1943D01*
X3683Y1943D02*
X3760Y1943D01*
X3783Y1943D02*
X3860Y1943D01*
X3883Y1943D02*
X3960Y1943D01*
X3983Y1943D02*
X4060Y1943D01*
X4083Y1943D02*
X4160Y1943D01*
X4183Y1943D02*
X4260Y1943D01*
X4283Y1943D02*
X4360Y1943D01*
X4383Y1943D02*
X4460Y1943D01*
X4483Y1943D02*
X4560Y1943D01*
X4583Y1943D02*
X4660Y1943D01*
X3183Y1942D02*
X3259Y1942D01*
X3283Y1942D02*
X3359Y1942D01*
X3383Y1942D02*
X3459Y1942D01*
X3483Y1942D02*
X3559Y1942D01*
X3583Y1942D02*
X3659Y1942D01*
X3683Y1942D02*
X3759Y1942D01*
X3783Y1942D02*
X3859Y1942D01*
X3883Y1942D02*
X3959Y1942D01*
X3983Y1942D02*
X4059Y1942D01*
X4083Y1942D02*
X4159Y1942D01*
X4183Y1942D02*
X4259Y1942D01*
X4284Y1942D02*
X4360Y1942D01*
X4383Y1942D02*
X4460Y1942D01*
X4483Y1942D02*
X4559Y1942D01*
X4583Y1942D02*
X4659Y1942D01*
X3184Y1941D02*
X3259Y1941D01*
X3284Y1941D02*
X3359Y1941D01*
X3384Y1941D02*
X3459Y1941D01*
X3484Y1941D02*
X3559Y1941D01*
X3584Y1941D02*
X3659Y1941D01*
X3684Y1941D02*
X3759Y1941D01*
X3784Y1941D02*
X3859Y1941D01*
X3884Y1941D02*
X3959Y1941D01*
X3984Y1941D02*
X4059Y1941D01*
X4084Y1941D02*
X4159Y1941D01*
X4184Y1941D02*
X4259Y1941D01*
X4284Y1941D02*
X4359Y1941D01*
X4384Y1941D02*
X4459Y1941D01*
X4484Y1941D02*
X4559Y1941D01*
X4584Y1941D02*
X4659Y1941D01*
X3185Y1940D02*
X3258Y1940D01*
X3285Y1940D02*
X3358Y1940D01*
X3384Y1940D02*
X3458Y1940D01*
X3484Y1940D02*
X3558Y1940D01*
X3584Y1940D02*
X3658Y1940D01*
X3684Y1940D02*
X3758Y1940D01*
X3784Y1940D02*
X3858Y1940D01*
X3884Y1940D02*
X3958Y1940D01*
X3984Y1940D02*
X4058Y1940D01*
X4084Y1940D02*
X4158Y1940D01*
X4184Y1940D02*
X4258Y1940D01*
X4285Y1940D02*
X4359Y1940D01*
X4385Y1940D02*
X4458Y1940D01*
X4485Y1940D02*
X4558Y1940D01*
X4584Y1940D02*
X4658Y1940D01*
X3185Y1939D02*
X3258Y1939D01*
X3285Y1939D02*
X3358Y1939D01*
X3385Y1939D02*
X3458Y1939D01*
X3485Y1939D02*
X3558Y1939D01*
X3585Y1939D02*
X3658Y1939D01*
X3685Y1939D02*
X3758Y1939D01*
X3785Y1939D02*
X3858Y1939D01*
X3885Y1939D02*
X3958Y1939D01*
X3985Y1939D02*
X4058Y1939D01*
X4085Y1939D02*
X4158Y1939D01*
X4185Y1939D02*
X4258Y1939D01*
X4285Y1939D02*
X4358Y1939D01*
X4385Y1939D02*
X4458Y1939D01*
X4485Y1939D02*
X4558Y1939D01*
X4585Y1939D02*
X4657Y1939D01*
X3186Y1938D02*
X3257Y1938D01*
X3286Y1938D02*
X3357Y1938D01*
X3386Y1938D02*
X3457Y1938D01*
X3486Y1938D02*
X3557Y1938D01*
X3586Y1938D02*
X3657Y1938D01*
X3686Y1938D02*
X3757Y1938D01*
X3786Y1938D02*
X3857Y1938D01*
X3886Y1938D02*
X3957Y1938D01*
X3986Y1938D02*
X4057Y1938D01*
X4086Y1938D02*
X4157Y1938D01*
X4186Y1938D02*
X4257Y1938D01*
X4286Y1938D02*
X4357Y1938D01*
X4386Y1938D02*
X4457Y1938D01*
X4486Y1938D02*
X4557Y1938D01*
X4586Y1938D02*
X4657Y1938D01*
X3187Y1937D02*
X3256Y1937D01*
X3287Y1937D02*
X3356Y1937D01*
X3387Y1937D02*
X3456Y1937D01*
X3487Y1937D02*
X3556Y1937D01*
X3586Y1937D02*
X3656Y1937D01*
X3686Y1937D02*
X3756Y1937D01*
X3786Y1937D02*
X3856Y1937D01*
X3886Y1937D02*
X3956Y1937D01*
X3986Y1937D02*
X4056Y1937D01*
X4086Y1937D02*
X4156Y1937D01*
X4186Y1937D02*
X4256Y1937D01*
X4287Y1937D02*
X4357Y1937D01*
X4387Y1937D02*
X4456Y1937D01*
X4487Y1937D02*
X4556Y1937D01*
X4586Y1937D02*
X4656Y1937D01*
X3187Y1936D02*
X3255Y1936D01*
X3287Y1936D02*
X3355Y1936D01*
X3387Y1936D02*
X3455Y1936D01*
X3487Y1936D02*
X3555Y1936D01*
X3587Y1936D02*
X3655Y1936D01*
X3687Y1936D02*
X3755Y1936D01*
X3787Y1936D02*
X3855Y1936D01*
X3887Y1936D02*
X3955Y1936D01*
X3987Y1936D02*
X4055Y1936D01*
X4087Y1936D02*
X4155Y1936D01*
X4187Y1936D02*
X4255Y1936D01*
X4288Y1936D02*
X4356Y1936D01*
X4387Y1936D02*
X4456Y1936D01*
X4487Y1936D02*
X4555Y1936D01*
X4587Y1936D02*
X4655Y1936D01*
X3188Y1935D02*
X3255Y1935D01*
X3288Y1935D02*
X3355Y1935D01*
X3388Y1935D02*
X3455Y1935D01*
X3488Y1935D02*
X3555Y1935D01*
X3588Y1935D02*
X3655Y1935D01*
X3688Y1935D02*
X3755Y1935D01*
X3788Y1935D02*
X3855Y1935D01*
X3888Y1935D02*
X3955Y1935D01*
X3988Y1935D02*
X4055Y1935D01*
X4088Y1935D02*
X4155Y1935D01*
X4188Y1935D02*
X4255Y1935D01*
X4288Y1935D02*
X4355Y1935D01*
X4388Y1935D02*
X4455Y1935D01*
X4488Y1935D02*
X4555Y1935D01*
X4588Y1935D02*
X4655Y1935D01*
X3189Y1934D02*
X3254Y1934D01*
X3289Y1934D02*
X3354Y1934D01*
X3389Y1934D02*
X3454Y1934D01*
X3489Y1934D02*
X3554Y1934D01*
X3589Y1934D02*
X3654Y1934D01*
X3689Y1934D02*
X3754Y1934D01*
X3789Y1934D02*
X3854Y1934D01*
X3889Y1934D02*
X3954Y1934D01*
X3989Y1934D02*
X4054Y1934D01*
X4089Y1934D02*
X4154Y1934D01*
X4189Y1934D02*
X4254Y1934D01*
X4289Y1934D02*
X4354Y1934D01*
X4389Y1934D02*
X4454Y1934D01*
X4489Y1934D02*
X4554Y1934D01*
X4589Y1934D02*
X4654Y1934D01*
X3190Y1933D02*
X3253Y1933D01*
X3290Y1933D02*
X3353Y1933D01*
X3390Y1933D02*
X3453Y1933D01*
X3490Y1933D02*
X3553Y1933D01*
X3590Y1933D02*
X3653Y1933D01*
X3690Y1933D02*
X3753Y1933D01*
X3790Y1933D02*
X3853Y1933D01*
X3890Y1933D02*
X3953Y1933D01*
X3990Y1933D02*
X4053Y1933D01*
X4090Y1933D02*
X4153Y1933D01*
X4190Y1933D02*
X4253Y1933D01*
X4290Y1933D02*
X4353Y1933D01*
X4390Y1933D02*
X4453Y1933D01*
X4490Y1933D02*
X4553Y1933D01*
X4590Y1933D02*
X4653Y1933D01*
X3191Y1932D02*
X3252Y1932D01*
X3291Y1932D02*
X3352Y1932D01*
X3391Y1932D02*
X3452Y1932D01*
X3491Y1932D02*
X3552Y1932D01*
X3591Y1932D02*
X3652Y1932D01*
X3691Y1932D02*
X3752Y1932D01*
X3791Y1932D02*
X3852Y1932D01*
X3891Y1932D02*
X3952Y1932D01*
X3991Y1932D02*
X4052Y1932D01*
X4091Y1932D02*
X4152Y1932D01*
X4191Y1932D02*
X4252Y1932D01*
X4291Y1932D02*
X4352Y1932D01*
X4391Y1932D02*
X4452Y1932D01*
X4491Y1932D02*
X4552Y1932D01*
X4591Y1932D02*
X4652Y1932D01*
X3192Y1931D02*
X3251Y1931D01*
X3292Y1931D02*
X3351Y1931D01*
X3392Y1931D02*
X3451Y1931D01*
X3492Y1931D02*
X3551Y1931D01*
X3592Y1931D02*
X3651Y1931D01*
X3692Y1931D02*
X3751Y1931D01*
X3792Y1931D02*
X3851Y1931D01*
X3892Y1931D02*
X3951Y1931D01*
X3992Y1931D02*
X4051Y1931D01*
X4092Y1931D02*
X4151Y1931D01*
X4192Y1931D02*
X4251Y1931D01*
X4292Y1931D02*
X4351Y1931D01*
X4392Y1931D02*
X4451Y1931D01*
X4492Y1931D02*
X4551Y1931D01*
X4592Y1931D02*
X4651Y1931D01*
X3193Y1930D02*
X3250Y1930D01*
X3293Y1930D02*
X3350Y1930D01*
X3393Y1930D02*
X3450Y1930D01*
X3493Y1930D02*
X3550Y1930D01*
X3593Y1930D02*
X3650Y1930D01*
X3693Y1930D02*
X3750Y1930D01*
X3793Y1930D02*
X3850Y1930D01*
X3893Y1930D02*
X3950Y1930D01*
X3993Y1930D02*
X4050Y1930D01*
X4093Y1930D02*
X4150Y1930D01*
X4193Y1930D02*
X4250Y1930D01*
X4293Y1930D02*
X4350Y1930D01*
X4393Y1930D02*
X4450Y1930D01*
X4493Y1930D02*
X4550Y1930D01*
X4593Y1930D02*
X4650Y1930D01*
X3194Y1929D02*
X3249Y1929D01*
X3294Y1929D02*
X3349Y1929D01*
X3394Y1929D02*
X3449Y1929D01*
X3494Y1929D02*
X3549Y1929D01*
X3594Y1929D02*
X3649Y1929D01*
X3694Y1929D02*
X3749Y1929D01*
X3794Y1929D02*
X3849Y1929D01*
X3894Y1929D02*
X3949Y1929D01*
X3994Y1929D02*
X4049Y1929D01*
X4094Y1929D02*
X4149Y1929D01*
X4194Y1929D02*
X4249Y1929D01*
X4294Y1929D02*
X4349Y1929D01*
X4394Y1929D02*
X4449Y1929D01*
X4494Y1929D02*
X4549Y1929D01*
X4594Y1929D02*
X4649Y1929D01*
X3195Y1928D02*
X3247Y1928D01*
X3295Y1928D02*
X3347Y1928D01*
X3395Y1928D02*
X3447Y1928D01*
X3495Y1928D02*
X3547Y1928D01*
X3595Y1928D02*
X3647Y1928D01*
X3695Y1928D02*
X3747Y1928D01*
X3795Y1928D02*
X3847Y1928D01*
X3895Y1928D02*
X3947Y1928D01*
X3995Y1928D02*
X4047Y1928D01*
X4095Y1928D02*
X4147Y1928D01*
X4195Y1928D02*
X4247Y1928D01*
X4296Y1928D02*
X4348Y1928D01*
X4396Y1928D02*
X4448Y1928D01*
X4495Y1928D02*
X4547Y1928D01*
X4595Y1928D02*
X4647Y1928D01*
X3197Y1927D02*
X3246Y1927D01*
X3297Y1927D02*
X3346Y1927D01*
X3397Y1927D02*
X3446Y1927D01*
X3497Y1927D02*
X3546Y1927D01*
X3597Y1927D02*
X3646Y1927D01*
X3697Y1927D02*
X3746Y1927D01*
X3797Y1927D02*
X3846Y1927D01*
X3897Y1927D02*
X3946Y1927D01*
X3997Y1927D02*
X4046Y1927D01*
X4097Y1927D02*
X4146Y1927D01*
X4197Y1927D02*
X4246Y1927D01*
X4297Y1927D02*
X4346Y1927D01*
X4397Y1927D02*
X4446Y1927D01*
X4497Y1927D02*
X4546Y1927D01*
X4597Y1927D02*
X4646Y1927D01*
X3198Y1926D02*
X3244Y1926D01*
X3298Y1926D02*
X3344Y1926D01*
X3398Y1926D02*
X3444Y1926D01*
X3498Y1926D02*
X3544Y1926D01*
X3598Y1926D02*
X3644Y1926D01*
X3698Y1926D02*
X3744Y1926D01*
X3798Y1926D02*
X3844Y1926D01*
X3898Y1926D02*
X3944Y1926D01*
X3998Y1926D02*
X4044Y1926D01*
X4098Y1926D02*
X4144Y1926D01*
X4198Y1926D02*
X4244Y1926D01*
X4299Y1926D02*
X4345Y1926D01*
X4398Y1926D02*
X4445Y1926D01*
X4498Y1926D02*
X4544Y1926D01*
X4598Y1926D02*
X4644Y1926D01*
X3200Y1925D02*
X3243Y1925D01*
X3300Y1925D02*
X3343Y1925D01*
X3400Y1925D02*
X3443Y1925D01*
X3500Y1925D02*
X3543Y1925D01*
X3600Y1925D02*
X3643Y1925D01*
X3700Y1925D02*
X3743Y1925D01*
X3800Y1925D02*
X3843Y1925D01*
X3900Y1925D02*
X3943Y1925D01*
X4000Y1925D02*
X4043Y1925D01*
X4100Y1925D02*
X4143Y1925D01*
X4200Y1925D02*
X4243Y1925D01*
X4300Y1925D02*
X4343Y1925D01*
X4400Y1925D02*
X4443Y1925D01*
X4500Y1925D02*
X4543Y1925D01*
X4600Y1925D02*
X4643Y1925D01*
X3202Y1924D02*
X3241Y1924D01*
X3302Y1924D02*
X3341Y1924D01*
X3402Y1924D02*
X3441Y1924D01*
X3502Y1924D02*
X3541Y1924D01*
X3602Y1924D02*
X3641Y1924D01*
X3702Y1924D02*
X3741Y1924D01*
X3802Y1924D02*
X3841Y1924D01*
X3902Y1924D02*
X3941Y1924D01*
X4002Y1924D02*
X4041Y1924D01*
X4102Y1924D02*
X4141Y1924D01*
X4201Y1924D02*
X4241Y1924D01*
X4302Y1924D02*
X4341Y1924D01*
X4402Y1924D02*
X4441Y1924D01*
X4502Y1924D02*
X4541Y1924D01*
X4601Y1924D02*
X4641Y1924D01*
X3204Y1923D02*
X3239Y1923D01*
X3304Y1923D02*
X3339Y1923D01*
X3404Y1923D02*
X3439Y1923D01*
X3504Y1923D02*
X3539Y1923D01*
X3604Y1923D02*
X3639Y1923D01*
X3704Y1923D02*
X3739Y1923D01*
X3804Y1923D02*
X3839Y1923D01*
X3904Y1923D02*
X3939Y1923D01*
X4004Y1923D02*
X4039Y1923D01*
X4104Y1923D02*
X4139Y1923D01*
X4204Y1923D02*
X4239Y1923D01*
X4304Y1923D02*
X4339Y1923D01*
X4404Y1923D02*
X4439Y1923D01*
X4504Y1923D02*
X4539Y1923D01*
X4603Y1923D02*
X4639Y1923D01*
X3206Y1922D02*
X3237Y1922D01*
X3306Y1922D02*
X3337Y1922D01*
X3406Y1922D02*
X3437Y1922D01*
X3506Y1922D02*
X3537Y1922D01*
X3606Y1922D02*
X3637Y1922D01*
X3706Y1922D02*
X3737Y1922D01*
X3806Y1922D02*
X3837Y1922D01*
X3906Y1922D02*
X3937Y1922D01*
X4006Y1922D02*
X4037Y1922D01*
X4106Y1922D02*
X4137Y1922D01*
X4206Y1922D02*
X4237Y1922D01*
X4306Y1922D02*
X4337Y1922D01*
X4406Y1922D02*
X4437Y1922D01*
X4506Y1922D02*
X4537Y1922D01*
X4606Y1922D02*
X4637Y1922D01*
X3209Y1921D02*
X3234Y1921D01*
X3309Y1921D02*
X3334Y1921D01*
X3409Y1921D02*
X3434Y1921D01*
X3509Y1921D02*
X3534Y1921D01*
X3609Y1921D02*
X3634Y1921D01*
X3709Y1921D02*
X3734Y1921D01*
X3809Y1921D02*
X3834Y1921D01*
X3909Y1921D02*
X3934Y1921D01*
X4009Y1921D02*
X4034Y1921D01*
X4109Y1921D02*
X4134Y1921D01*
X4209Y1921D02*
X4234Y1921D01*
X4309Y1921D02*
X4334Y1921D01*
X4409Y1921D02*
X4434Y1921D01*
X4509Y1921D02*
X4534Y1921D01*
X4609Y1921D02*
X4634Y1921D01*
X3213Y1920D02*
X3230Y1920D01*
X3313Y1920D02*
X3330Y1920D01*
X3413Y1920D02*
X3430Y1920D01*
X3513Y1920D02*
X3530Y1920D01*
X3613Y1920D02*
X3630Y1920D01*
X3713Y1920D02*
X3730Y1920D01*
X3813Y1920D02*
X3830Y1920D01*
X3913Y1920D02*
X3930Y1920D01*
X4013Y1920D02*
X4030Y1920D01*
X4113Y1920D02*
X4130Y1920D01*
X4213Y1920D02*
X4230Y1920D01*
X4313Y1920D02*
X4330Y1920D01*
X4413Y1920D02*
X4430Y1920D01*
X4513Y1920D02*
X4530Y1920D01*
X4613Y1920D02*
X4630Y1920D01*
X680Y1855D02*
X763Y1855D01*
X680Y1854D02*
X763Y1854D01*
X680Y1853D02*
X763Y1853D01*
X680Y1852D02*
X763Y1852D01*
X680Y1851D02*
X763Y1851D01*
X680Y1850D02*
X763Y1850D01*
X680Y1849D02*
X763Y1849D01*
X680Y1848D02*
X763Y1848D01*
X680Y1847D02*
X763Y1847D01*
X680Y1846D02*
X763Y1846D01*
X680Y1845D02*
X763Y1845D01*
X680Y1844D02*
X763Y1844D01*
X680Y1843D02*
X763Y1843D01*
X680Y1842D02*
X763Y1842D01*
X680Y1841D02*
X763Y1841D01*
X680Y1840D02*
X763Y1840D01*
X680Y1839D02*
X763Y1839D01*
X680Y1838D02*
X763Y1838D01*
X680Y1837D02*
X763Y1837D01*
X680Y1836D02*
X763Y1836D01*
X680Y1835D02*
X763Y1835D01*
X680Y1834D02*
X763Y1834D01*
X680Y1833D02*
X763Y1833D01*
X680Y1832D02*
X763Y1832D01*
X680Y1831D02*
X763Y1831D01*
X680Y1830D02*
X763Y1830D01*
X680Y1829D02*
X763Y1829D01*
X680Y1828D02*
X721Y1828D01*
X723Y1828D02*
X763Y1828D01*
X680Y1827D02*
X716Y1827D01*
X728Y1827D02*
X763Y1827D01*
X680Y1826D02*
X714Y1826D01*
X730Y1826D02*
X763Y1826D01*
X680Y1825D02*
X712Y1825D01*
X731Y1825D02*
X763Y1825D01*
X680Y1824D02*
X711Y1824D01*
X732Y1824D02*
X763Y1824D01*
X680Y1823D02*
X710Y1823D01*
X733Y1823D02*
X763Y1823D01*
X680Y1822D02*
X709Y1822D01*
X734Y1822D02*
X763Y1822D01*
X680Y1821D02*
X709Y1821D01*
X735Y1821D02*
X763Y1821D01*
X680Y1820D02*
X708Y1820D01*
X735Y1820D02*
X763Y1820D01*
X680Y1819D02*
X708Y1819D01*
X736Y1819D02*
X763Y1819D01*
X680Y1818D02*
X707Y1818D01*
X736Y1818D02*
X763Y1818D01*
X680Y1817D02*
X707Y1817D01*
X736Y1817D02*
X763Y1817D01*
X680Y1816D02*
X707Y1816D01*
X737Y1816D02*
X763Y1816D01*
X680Y1815D02*
X707Y1815D01*
X737Y1815D02*
X763Y1815D01*
X680Y1814D02*
X707Y1814D01*
X737Y1814D02*
X763Y1814D01*
X680Y1813D02*
X707Y1813D01*
X737Y1813D02*
X763Y1813D01*
X680Y1812D02*
X707Y1812D01*
X737Y1812D02*
X763Y1812D01*
X680Y1811D02*
X707Y1811D01*
X737Y1811D02*
X763Y1811D01*
X680Y1810D02*
X707Y1810D01*
X737Y1810D02*
X763Y1810D01*
X680Y1809D02*
X707Y1809D01*
X736Y1809D02*
X763Y1809D01*
X680Y1808D02*
X707Y1808D01*
X736Y1808D02*
X763Y1808D01*
X680Y1807D02*
X708Y1807D01*
X735Y1807D02*
X763Y1807D01*
X680Y1806D02*
X708Y1806D01*
X735Y1806D02*
X763Y1806D01*
X680Y1805D02*
X709Y1805D01*
X734Y1805D02*
X763Y1805D01*
X680Y1804D02*
X710Y1804D01*
X733Y1804D02*
X763Y1804D01*
X680Y1803D02*
X711Y1803D01*
X733Y1803D02*
X763Y1803D01*
X680Y1802D02*
X712Y1802D01*
X731Y1802D02*
X763Y1802D01*
X680Y1801D02*
X713Y1801D01*
X730Y1801D02*
X763Y1801D01*
X680Y1800D02*
X715Y1800D01*
X728Y1800D02*
X763Y1800D01*
X680Y1799D02*
X718Y1799D01*
X725Y1799D02*
X763Y1799D01*
X680Y1798D02*
X763Y1798D01*
X680Y1797D02*
X763Y1797D01*
X680Y1796D02*
X763Y1796D01*
X680Y1795D02*
X763Y1795D01*
X680Y1794D02*
X763Y1794D01*
X680Y1793D02*
X763Y1793D01*
X680Y1792D02*
X763Y1792D01*
X680Y1791D02*
X763Y1791D01*
X680Y1790D02*
X763Y1790D01*
X680Y1789D02*
X763Y1789D01*
X680Y1788D02*
X763Y1788D01*
X680Y1787D02*
X763Y1787D01*
X680Y1786D02*
X763Y1786D01*
X680Y1785D02*
X763Y1785D01*
X680Y1784D02*
X763Y1784D01*
X680Y1783D02*
X763Y1783D01*
X680Y1782D02*
X763Y1782D01*
X680Y1781D02*
X763Y1781D01*
X680Y1780D02*
X763Y1780D01*
X680Y1779D02*
X763Y1779D01*
X680Y1778D02*
X763Y1778D01*
X680Y1777D02*
X763Y1777D01*
X680Y1776D02*
X763Y1776D01*
X680Y1775D02*
X763Y1775D01*
X680Y1774D02*
X763Y1774D01*
X680Y1773D02*
X763Y1773D01*
X680Y1772D02*
X763Y1772D01*
X680Y1205D02*
X763Y1205D01*
X680Y1204D02*
X763Y1204D01*
X680Y1203D02*
X763Y1203D01*
X680Y1202D02*
X763Y1202D01*
X680Y1201D02*
X763Y1201D01*
X680Y1200D02*
X763Y1200D01*
X680Y1199D02*
X763Y1199D01*
X680Y1198D02*
X763Y1198D01*
X680Y1197D02*
X763Y1197D01*
X680Y1196D02*
X763Y1196D01*
X680Y1195D02*
X763Y1195D01*
X680Y1194D02*
X763Y1194D01*
X680Y1193D02*
X763Y1193D01*
X680Y1192D02*
X763Y1192D01*
X680Y1191D02*
X763Y1191D01*
X680Y1190D02*
X763Y1190D01*
X680Y1189D02*
X763Y1189D01*
X680Y1188D02*
X763Y1188D01*
X680Y1187D02*
X763Y1187D01*
X680Y1186D02*
X763Y1186D01*
X680Y1185D02*
X763Y1185D01*
X680Y1184D02*
X763Y1184D01*
X680Y1183D02*
X763Y1183D01*
X680Y1182D02*
X763Y1182D01*
X680Y1181D02*
X763Y1181D01*
X680Y1180D02*
X763Y1180D01*
X680Y1179D02*
X763Y1179D01*
X680Y1178D02*
X721Y1178D01*
X723Y1178D02*
X763Y1178D01*
X680Y1177D02*
X716Y1177D01*
X728Y1177D02*
X763Y1177D01*
X680Y1176D02*
X714Y1176D01*
X730Y1176D02*
X763Y1176D01*
X680Y1175D02*
X712Y1175D01*
X731Y1175D02*
X763Y1175D01*
X680Y1174D02*
X711Y1174D01*
X732Y1174D02*
X763Y1174D01*
X680Y1173D02*
X710Y1173D01*
X733Y1173D02*
X763Y1173D01*
X680Y1172D02*
X709Y1172D01*
X734Y1172D02*
X763Y1172D01*
X680Y1171D02*
X709Y1171D01*
X735Y1171D02*
X763Y1171D01*
X680Y1170D02*
X708Y1170D01*
X735Y1170D02*
X763Y1170D01*
X680Y1169D02*
X708Y1169D01*
X736Y1169D02*
X763Y1169D01*
X680Y1168D02*
X707Y1168D01*
X736Y1168D02*
X763Y1168D01*
X680Y1167D02*
X707Y1167D01*
X736Y1167D02*
X763Y1167D01*
X680Y1166D02*
X707Y1166D01*
X737Y1166D02*
X763Y1166D01*
X680Y1165D02*
X707Y1165D01*
X737Y1165D02*
X763Y1165D01*
X680Y1164D02*
X707Y1164D01*
X737Y1164D02*
X763Y1164D01*
X680Y1163D02*
X707Y1163D01*
X737Y1163D02*
X763Y1163D01*
X680Y1162D02*
X707Y1162D01*
X737Y1162D02*
X763Y1162D01*
X680Y1161D02*
X707Y1161D01*
X737Y1161D02*
X763Y1161D01*
X680Y1160D02*
X707Y1160D01*
X737Y1160D02*
X763Y1160D01*
X680Y1159D02*
X707Y1159D01*
X736Y1159D02*
X763Y1159D01*
X680Y1158D02*
X707Y1158D01*
X736Y1158D02*
X763Y1158D01*
X680Y1157D02*
X708Y1157D01*
X735Y1157D02*
X763Y1157D01*
X680Y1156D02*
X708Y1156D01*
X735Y1156D02*
X763Y1156D01*
X680Y1155D02*
X709Y1155D01*
X734Y1155D02*
X763Y1155D01*
X680Y1154D02*
X710Y1154D01*
X733Y1154D02*
X763Y1154D01*
X680Y1153D02*
X711Y1153D01*
X733Y1153D02*
X763Y1153D01*
X680Y1152D02*
X712Y1152D01*
X731Y1152D02*
X763Y1152D01*
X680Y1151D02*
X713Y1151D01*
X730Y1151D02*
X763Y1151D01*
X680Y1150D02*
X715Y1150D01*
X728Y1150D02*
X763Y1150D01*
X680Y1149D02*
X718Y1149D01*
X725Y1149D02*
X763Y1149D01*
X680Y1148D02*
X763Y1148D01*
X680Y1147D02*
X763Y1147D01*
X680Y1146D02*
X763Y1146D01*
X680Y1145D02*
X763Y1145D01*
X680Y1144D02*
X763Y1144D01*
X680Y1143D02*
X763Y1143D01*
X680Y1142D02*
X763Y1142D01*
X680Y1141D02*
X763Y1141D01*
X680Y1140D02*
X763Y1140D01*
X680Y1139D02*
X763Y1139D01*
X680Y1138D02*
X763Y1138D01*
X680Y1137D02*
X763Y1137D01*
X680Y1136D02*
X763Y1136D01*
X680Y1135D02*
X763Y1135D01*
X680Y1134D02*
X763Y1134D01*
X680Y1133D02*
X763Y1133D01*
X680Y1132D02*
X763Y1132D01*
X680Y1131D02*
X763Y1131D01*
X680Y1130D02*
X763Y1130D01*
X680Y1129D02*
X763Y1129D01*
X680Y1128D02*
X763Y1128D01*
X680Y1127D02*
X763Y1127D01*
X680Y1126D02*
X763Y1126D01*
X680Y1125D02*
X763Y1125D01*
X680Y1124D02*
X763Y1124D01*
X680Y1123D02*
X763Y1123D01*
X680Y1122D02*
X763Y1122D01*
X3218Y907D02*
X3225Y907D01*
X3318Y907D02*
X3325Y907D01*
X3418Y907D02*
X3425Y907D01*
X3518Y907D02*
X3525Y907D01*
X3618Y907D02*
X3625Y907D01*
X3718Y907D02*
X3725Y907D01*
X3818Y907D02*
X3825Y907D01*
X3918Y907D02*
X3925Y907D01*
X4018Y907D02*
X4025Y907D01*
X4118Y907D02*
X4125Y907D01*
X4218Y907D02*
X4225Y907D01*
X4318Y907D02*
X4325Y907D01*
X4418Y907D02*
X4425Y907D01*
X4518Y907D02*
X4525Y907D01*
X4618Y907D02*
X4625Y907D01*
X3212Y906D02*
X3231Y906D01*
X3312Y906D02*
X3331Y906D01*
X3412Y906D02*
X3431Y906D01*
X3512Y906D02*
X3531Y906D01*
X3612Y906D02*
X3631Y906D01*
X3712Y906D02*
X3731Y906D01*
X3812Y906D02*
X3831Y906D01*
X3912Y906D02*
X3931Y906D01*
X4012Y906D02*
X4031Y906D01*
X4112Y906D02*
X4131Y906D01*
X4212Y906D02*
X4231Y906D01*
X4312Y906D02*
X4331Y906D01*
X4412Y906D02*
X4431Y906D01*
X4512Y906D02*
X4531Y906D01*
X4612Y906D02*
X4631Y906D01*
X3208Y905D02*
X3235Y905D01*
X3308Y905D02*
X3335Y905D01*
X3408Y905D02*
X3435Y905D01*
X3508Y905D02*
X3535Y905D01*
X3608Y905D02*
X3635Y905D01*
X3708Y905D02*
X3735Y905D01*
X3808Y905D02*
X3835Y905D01*
X3908Y905D02*
X3935Y905D01*
X4008Y905D02*
X4035Y905D01*
X4108Y905D02*
X4135Y905D01*
X4208Y905D02*
X4234Y905D01*
X4308Y905D02*
X4335Y905D01*
X4408Y905D02*
X4435Y905D01*
X4508Y905D02*
X4535Y905D01*
X4608Y905D02*
X4634Y905D01*
X3205Y904D02*
X3237Y904D01*
X3305Y904D02*
X3337Y904D01*
X3405Y904D02*
X3437Y904D01*
X3505Y904D02*
X3537Y904D01*
X3605Y904D02*
X3637Y904D01*
X3705Y904D02*
X3737Y904D01*
X3805Y904D02*
X3837Y904D01*
X3905Y904D02*
X3937Y904D01*
X4005Y904D02*
X4037Y904D01*
X4105Y904D02*
X4137Y904D01*
X4205Y904D02*
X4237Y904D01*
X4306Y904D02*
X4338Y904D01*
X4406Y904D02*
X4438Y904D01*
X4505Y904D02*
X4537Y904D01*
X4605Y904D02*
X4637Y904D01*
X3203Y903D02*
X3240Y903D01*
X3303Y903D02*
X3340Y903D01*
X3403Y903D02*
X3440Y903D01*
X3503Y903D02*
X3540Y903D01*
X3603Y903D02*
X3640Y903D01*
X3703Y903D02*
X3740Y903D01*
X3803Y903D02*
X3840Y903D01*
X3903Y903D02*
X3940Y903D01*
X4003Y903D02*
X4039Y903D01*
X4103Y903D02*
X4139Y903D01*
X4203Y903D02*
X4239Y903D01*
X4303Y903D02*
X4340Y903D01*
X4403Y903D02*
X4440Y903D01*
X4503Y903D02*
X4540Y903D01*
X4603Y903D02*
X4639Y903D01*
X3201Y902D02*
X3242Y902D01*
X3301Y902D02*
X3342Y902D01*
X3401Y902D02*
X3442Y902D01*
X3501Y902D02*
X3542Y902D01*
X3601Y902D02*
X3642Y902D01*
X3701Y902D02*
X3742Y902D01*
X3801Y902D02*
X3842Y902D01*
X3901Y902D02*
X3942Y902D01*
X4001Y902D02*
X4042Y902D01*
X4101Y902D02*
X4142Y902D01*
X4201Y902D02*
X4241Y902D01*
X4301Y902D02*
X4342Y902D01*
X4401Y902D02*
X4442Y902D01*
X4501Y902D02*
X4542Y902D01*
X4601Y902D02*
X4641Y902D01*
X3199Y901D02*
X3243Y901D01*
X3299Y901D02*
X3343Y901D01*
X3399Y901D02*
X3443Y901D01*
X3499Y901D02*
X3543Y901D01*
X3599Y901D02*
X3643Y901D01*
X3699Y901D02*
X3743Y901D01*
X3799Y901D02*
X3843Y901D01*
X3899Y901D02*
X3943Y901D01*
X3999Y901D02*
X4043Y901D01*
X4099Y901D02*
X4143Y901D01*
X4199Y901D02*
X4243Y901D01*
X4300Y901D02*
X4344Y901D01*
X4400Y901D02*
X4443Y901D01*
X4499Y901D02*
X4543Y901D01*
X4599Y901D02*
X4643Y901D01*
X3198Y900D02*
X3245Y900D01*
X3298Y900D02*
X3345Y900D01*
X3398Y900D02*
X3445Y900D01*
X3498Y900D02*
X3545Y900D01*
X3598Y900D02*
X3645Y900D01*
X3698Y900D02*
X3745Y900D01*
X3798Y900D02*
X3845Y900D01*
X3898Y900D02*
X3945Y900D01*
X3998Y900D02*
X4045Y900D01*
X4098Y900D02*
X4145Y900D01*
X4198Y900D02*
X4245Y900D01*
X4298Y900D02*
X4345Y900D01*
X4398Y900D02*
X4445Y900D01*
X4498Y900D02*
X4545Y900D01*
X4598Y900D02*
X4645Y900D01*
X3196Y899D02*
X3246Y899D01*
X3296Y899D02*
X3346Y899D01*
X3396Y899D02*
X3446Y899D01*
X3496Y899D02*
X3546Y899D01*
X3596Y899D02*
X3646Y899D01*
X3696Y899D02*
X3746Y899D01*
X3796Y899D02*
X3846Y899D01*
X3896Y899D02*
X3946Y899D01*
X3996Y899D02*
X4046Y899D01*
X4096Y899D02*
X4146Y899D01*
X4196Y899D02*
X4246Y899D01*
X4297Y899D02*
X4347Y899D01*
X4397Y899D02*
X4447Y899D01*
X4496Y899D02*
X4546Y899D01*
X4596Y899D02*
X4646Y899D01*
X3195Y898D02*
X3248Y898D01*
X3295Y898D02*
X3348Y898D01*
X3395Y898D02*
X3448Y898D01*
X3495Y898D02*
X3548Y898D01*
X3595Y898D02*
X3648Y898D01*
X3695Y898D02*
X3748Y898D01*
X3795Y898D02*
X3848Y898D01*
X3895Y898D02*
X3948Y898D01*
X3995Y898D02*
X4048Y898D01*
X4095Y898D02*
X4148Y898D01*
X4195Y898D02*
X4248Y898D01*
X4295Y898D02*
X4348Y898D01*
X4395Y898D02*
X4448Y898D01*
X4495Y898D02*
X4548Y898D01*
X4595Y898D02*
X4648Y898D01*
X3194Y897D02*
X3249Y897D01*
X3294Y897D02*
X3349Y897D01*
X3394Y897D02*
X3449Y897D01*
X3494Y897D02*
X3549Y897D01*
X3594Y897D02*
X3649Y897D01*
X3694Y897D02*
X3749Y897D01*
X3794Y897D02*
X3849Y897D01*
X3894Y897D02*
X3949Y897D01*
X3994Y897D02*
X4049Y897D01*
X4094Y897D02*
X4149Y897D01*
X4194Y897D02*
X4249Y897D01*
X4294Y897D02*
X4349Y897D01*
X4394Y897D02*
X4449Y897D01*
X4494Y897D02*
X4549Y897D01*
X4594Y897D02*
X4649Y897D01*
X3193Y896D02*
X3250Y896D01*
X3293Y896D02*
X3350Y896D01*
X3393Y896D02*
X3450Y896D01*
X3493Y896D02*
X3550Y896D01*
X3593Y896D02*
X3650Y896D01*
X3693Y896D02*
X3750Y896D01*
X3793Y896D02*
X3850Y896D01*
X3893Y896D02*
X3950Y896D01*
X3993Y896D02*
X4050Y896D01*
X4093Y896D02*
X4150Y896D01*
X4192Y896D02*
X4250Y896D01*
X4293Y896D02*
X4350Y896D01*
X4393Y896D02*
X4450Y896D01*
X4493Y896D02*
X4550Y896D01*
X4592Y896D02*
X4650Y896D01*
X3192Y895D02*
X3251Y895D01*
X3291Y895D02*
X3351Y895D01*
X3391Y895D02*
X3451Y895D01*
X3491Y895D02*
X3551Y895D01*
X3591Y895D02*
X3651Y895D01*
X3691Y895D02*
X3751Y895D01*
X3791Y895D02*
X3851Y895D01*
X3891Y895D02*
X3951Y895D01*
X3991Y895D02*
X4051Y895D01*
X4091Y895D02*
X4151Y895D01*
X4191Y895D02*
X4251Y895D01*
X4292Y895D02*
X4352Y895D01*
X4392Y895D02*
X4451Y895D01*
X4492Y895D02*
X4551Y895D01*
X4591Y895D02*
X4651Y895D01*
X3190Y894D02*
X3252Y894D01*
X3290Y894D02*
X3352Y894D01*
X3390Y894D02*
X3452Y894D01*
X3490Y894D02*
X3552Y894D01*
X3590Y894D02*
X3652Y894D01*
X3690Y894D02*
X3752Y894D01*
X3790Y894D02*
X3852Y894D01*
X3890Y894D02*
X3952Y894D01*
X3990Y894D02*
X4052Y894D01*
X4090Y894D02*
X4152Y894D01*
X4190Y894D02*
X4252Y894D01*
X4291Y894D02*
X4353Y894D01*
X4391Y894D02*
X4452Y894D01*
X4490Y894D02*
X4552Y894D01*
X4590Y894D02*
X4652Y894D01*
X3190Y893D02*
X3253Y893D01*
X3290Y893D02*
X3353Y893D01*
X3390Y893D02*
X3453Y893D01*
X3490Y893D02*
X3553Y893D01*
X3590Y893D02*
X3653Y893D01*
X3690Y893D02*
X3753Y893D01*
X3789Y893D02*
X3853Y893D01*
X3889Y893D02*
X3953Y893D01*
X3989Y893D02*
X4053Y893D01*
X4089Y893D02*
X4153Y893D01*
X4189Y893D02*
X4253Y893D01*
X4290Y893D02*
X4354Y893D01*
X4390Y893D02*
X4453Y893D01*
X4490Y893D02*
X4553Y893D01*
X4589Y893D02*
X4653Y893D01*
X3189Y892D02*
X3254Y892D01*
X3289Y892D02*
X3354Y892D01*
X3389Y892D02*
X3454Y892D01*
X3489Y892D02*
X3554Y892D01*
X3589Y892D02*
X3654Y892D01*
X3689Y892D02*
X3754Y892D01*
X3789Y892D02*
X3854Y892D01*
X3889Y892D02*
X3954Y892D01*
X3989Y892D02*
X4054Y892D01*
X4089Y892D02*
X4154Y892D01*
X4189Y892D02*
X4254Y892D01*
X4289Y892D02*
X4354Y892D01*
X4389Y892D02*
X4454Y892D01*
X4489Y892D02*
X4554Y892D01*
X4588Y892D02*
X4654Y892D01*
X3188Y891D02*
X3255Y891D01*
X3288Y891D02*
X3355Y891D01*
X3388Y891D02*
X3455Y891D01*
X3488Y891D02*
X3555Y891D01*
X3588Y891D02*
X3655Y891D01*
X3688Y891D02*
X3755Y891D01*
X3788Y891D02*
X3855Y891D01*
X3888Y891D02*
X3955Y891D01*
X3988Y891D02*
X4055Y891D01*
X4088Y891D02*
X4155Y891D01*
X4188Y891D02*
X4255Y891D01*
X4288Y891D02*
X4355Y891D01*
X4388Y891D02*
X4455Y891D01*
X4488Y891D02*
X4555Y891D01*
X4588Y891D02*
X4655Y891D01*
X3187Y890D02*
X3256Y890D01*
X3287Y890D02*
X3356Y890D01*
X3387Y890D02*
X3456Y890D01*
X3487Y890D02*
X3556Y890D01*
X3587Y890D02*
X3656Y890D01*
X3687Y890D02*
X3756Y890D01*
X3787Y890D02*
X3856Y890D01*
X3887Y890D02*
X3956Y890D01*
X3987Y890D02*
X4056Y890D01*
X4087Y890D02*
X4156Y890D01*
X4187Y890D02*
X4256Y890D01*
X4287Y890D02*
X4356Y890D01*
X4387Y890D02*
X4456Y890D01*
X4487Y890D02*
X4556Y890D01*
X4587Y890D02*
X4655Y890D01*
X3186Y889D02*
X3256Y889D01*
X3286Y889D02*
X3356Y889D01*
X3386Y889D02*
X3456Y889D01*
X3486Y889D02*
X3556Y889D01*
X3586Y889D02*
X3656Y889D01*
X3686Y889D02*
X3756Y889D01*
X3786Y889D02*
X3856Y889D01*
X3886Y889D02*
X3956Y889D01*
X3986Y889D02*
X4056Y889D01*
X4086Y889D02*
X4156Y889D01*
X4186Y889D02*
X4256Y889D01*
X4287Y889D02*
X4357Y889D01*
X4387Y889D02*
X4457Y889D01*
X4486Y889D02*
X4556Y889D01*
X4586Y889D02*
X4656Y889D01*
X3186Y888D02*
X3257Y888D01*
X3286Y888D02*
X3357Y888D01*
X3386Y888D02*
X3457Y888D01*
X3486Y888D02*
X3557Y888D01*
X3586Y888D02*
X3657Y888D01*
X3686Y888D02*
X3757Y888D01*
X3786Y888D02*
X3857Y888D01*
X3886Y888D02*
X3957Y888D01*
X3986Y888D02*
X4057Y888D01*
X4086Y888D02*
X4157Y888D01*
X4186Y888D02*
X4257Y888D01*
X4286Y888D02*
X4357Y888D01*
X4386Y888D02*
X4457Y888D01*
X4486Y888D02*
X4557Y888D01*
X4585Y888D02*
X4657Y888D01*
X3185Y887D02*
X3258Y887D01*
X3285Y887D02*
X3358Y887D01*
X3385Y887D02*
X3458Y887D01*
X3485Y887D02*
X3558Y887D01*
X3585Y887D02*
X3658Y887D01*
X3685Y887D02*
X3758Y887D01*
X3785Y887D02*
X3858Y887D01*
X3885Y887D02*
X3958Y887D01*
X3985Y887D02*
X4058Y887D01*
X4085Y887D02*
X4158Y887D01*
X4185Y887D02*
X4258Y887D01*
X4285Y887D02*
X4358Y887D01*
X4385Y887D02*
X4458Y887D01*
X4485Y887D02*
X4558Y887D01*
X4585Y887D02*
X4658Y887D01*
X3184Y886D02*
X3258Y886D01*
X3284Y886D02*
X3358Y886D01*
X3384Y886D02*
X3458Y886D01*
X3484Y886D02*
X3558Y886D01*
X3584Y886D02*
X3658Y886D01*
X3684Y886D02*
X3758Y886D01*
X3784Y886D02*
X3858Y886D01*
X3884Y886D02*
X3958Y886D01*
X3984Y886D02*
X4058Y886D01*
X4084Y886D02*
X4158Y886D01*
X4184Y886D02*
X4258Y886D01*
X4285Y886D02*
X4359Y886D01*
X4385Y886D02*
X4459Y886D01*
X4484Y886D02*
X4558Y886D01*
X4584Y886D02*
X4658Y886D01*
X3184Y885D02*
X3259Y885D01*
X3284Y885D02*
X3359Y885D01*
X3384Y885D02*
X3459Y885D01*
X3484Y885D02*
X3559Y885D01*
X3584Y885D02*
X3659Y885D01*
X3684Y885D02*
X3759Y885D01*
X3784Y885D02*
X3859Y885D01*
X3884Y885D02*
X3959Y885D01*
X3984Y885D02*
X4059Y885D01*
X4084Y885D02*
X4159Y885D01*
X4184Y885D02*
X4259Y885D01*
X4284Y885D02*
X4359Y885D01*
X4384Y885D02*
X4459Y885D01*
X4484Y885D02*
X4559Y885D01*
X4584Y885D02*
X4659Y885D01*
X3183Y884D02*
X3260Y884D01*
X3283Y884D02*
X3360Y884D01*
X3383Y884D02*
X3460Y884D01*
X3483Y884D02*
X3560Y884D01*
X3583Y884D02*
X3660Y884D01*
X3683Y884D02*
X3760Y884D01*
X3783Y884D02*
X3860Y884D01*
X3883Y884D02*
X3960Y884D01*
X3983Y884D02*
X4059Y884D01*
X4083Y884D02*
X4159Y884D01*
X4183Y884D02*
X4259Y884D01*
X4283Y884D02*
X4360Y884D01*
X4383Y884D02*
X4460Y884D01*
X4483Y884D02*
X4560Y884D01*
X4583Y884D02*
X4659Y884D01*
X3183Y883D02*
X3260Y883D01*
X3283Y883D02*
X3360Y883D01*
X3383Y883D02*
X3460Y883D01*
X3483Y883D02*
X3560Y883D01*
X3583Y883D02*
X3660Y883D01*
X3683Y883D02*
X3760Y883D01*
X3783Y883D02*
X3860Y883D01*
X3883Y883D02*
X3960Y883D01*
X3983Y883D02*
X4060Y883D01*
X4083Y883D02*
X4160Y883D01*
X4183Y883D02*
X4260Y883D01*
X4283Y883D02*
X4360Y883D01*
X4383Y883D02*
X4460Y883D01*
X4483Y883D02*
X4560Y883D01*
X4582Y883D02*
X4660Y883D01*
X3182Y882D02*
X3261Y882D01*
X3282Y882D02*
X3361Y882D01*
X3382Y882D02*
X3461Y882D01*
X3482Y882D02*
X3561Y882D01*
X3582Y882D02*
X3661Y882D01*
X3682Y882D02*
X3761Y882D01*
X3782Y882D02*
X3861Y882D01*
X3882Y882D02*
X3961Y882D01*
X3982Y882D02*
X4060Y882D01*
X4082Y882D02*
X4160Y882D01*
X4182Y882D02*
X4260Y882D01*
X4282Y882D02*
X4361Y882D01*
X4382Y882D02*
X4461Y882D01*
X4482Y882D02*
X4561Y882D01*
X4582Y882D02*
X4660Y882D01*
X3182Y881D02*
X3261Y881D01*
X3282Y881D02*
X3361Y881D01*
X3382Y881D02*
X3461Y881D01*
X3482Y881D02*
X3561Y881D01*
X3582Y881D02*
X3661Y881D01*
X3682Y881D02*
X3761Y881D01*
X3782Y881D02*
X3861Y881D01*
X3882Y881D02*
X3961Y881D01*
X3982Y881D02*
X4061Y881D01*
X4082Y881D02*
X4161Y881D01*
X4182Y881D02*
X4261Y881D01*
X4282Y881D02*
X4361Y881D01*
X4382Y881D02*
X4461Y881D01*
X4482Y881D02*
X4561Y881D01*
X4582Y881D02*
X4661Y881D01*
X3181Y880D02*
X3262Y880D01*
X3281Y880D02*
X3362Y880D01*
X3381Y880D02*
X3461Y880D01*
X3481Y880D02*
X3561Y880D01*
X3581Y880D02*
X3661Y880D01*
X3681Y880D02*
X3761Y880D01*
X3781Y880D02*
X3861Y880D01*
X3881Y880D02*
X3961Y880D01*
X3981Y880D02*
X4061Y880D01*
X4081Y880D02*
X4161Y880D01*
X4181Y880D02*
X4261Y880D01*
X4282Y880D02*
X4362Y880D01*
X4381Y880D02*
X4462Y880D01*
X4481Y880D02*
X4562Y880D01*
X4581Y880D02*
X4661Y880D01*
X3181Y879D02*
X3262Y879D01*
X3281Y879D02*
X3362Y879D01*
X3381Y879D02*
X3462Y879D01*
X3481Y879D02*
X3562Y879D01*
X3581Y879D02*
X3662Y879D01*
X3681Y879D02*
X3762Y879D01*
X3781Y879D02*
X3862Y879D01*
X3881Y879D02*
X3962Y879D01*
X3981Y879D02*
X4062Y879D01*
X4081Y879D02*
X4162Y879D01*
X4181Y879D02*
X4262Y879D01*
X4281Y879D02*
X4362Y879D01*
X4381Y879D02*
X4462Y879D01*
X4481Y879D02*
X4562Y879D01*
X4581Y879D02*
X4662Y879D01*
X3181Y878D02*
X3262Y878D01*
X3281Y878D02*
X3362Y878D01*
X3381Y878D02*
X3462Y878D01*
X3480Y878D02*
X3562Y878D01*
X3580Y878D02*
X3662Y878D01*
X3680Y878D02*
X3762Y878D01*
X3780Y878D02*
X3862Y878D01*
X3880Y878D02*
X3962Y878D01*
X3980Y878D02*
X4062Y878D01*
X4080Y878D02*
X4162Y878D01*
X4180Y878D02*
X4262Y878D01*
X4281Y878D02*
X4363Y878D01*
X4381Y878D02*
X4462Y878D01*
X4481Y878D02*
X4562Y878D01*
X4580Y878D02*
X4662Y878D01*
X3180Y877D02*
X3263Y877D01*
X3280Y877D02*
X3363Y877D01*
X3380Y877D02*
X3463Y877D01*
X3480Y877D02*
X3563Y877D01*
X3580Y877D02*
X3663Y877D01*
X3680Y877D02*
X3763Y877D01*
X3780Y877D02*
X3863Y877D01*
X3880Y877D02*
X3962Y877D01*
X3980Y877D02*
X4062Y877D01*
X4080Y877D02*
X4162Y877D01*
X4180Y877D02*
X4262Y877D01*
X4280Y877D02*
X4363Y877D01*
X4380Y877D02*
X4463Y877D01*
X4480Y877D02*
X4563Y877D01*
X4580Y877D02*
X4662Y877D01*
X3180Y876D02*
X3263Y876D01*
X3280Y876D02*
X3363Y876D01*
X3380Y876D02*
X3463Y876D01*
X3480Y876D02*
X3563Y876D01*
X3580Y876D02*
X3663Y876D01*
X3680Y876D02*
X3763Y876D01*
X3780Y876D02*
X3863Y876D01*
X3880Y876D02*
X3963Y876D01*
X3980Y876D02*
X4063Y876D01*
X4080Y876D02*
X4163Y876D01*
X4180Y876D02*
X4263Y876D01*
X4280Y876D02*
X4363Y876D01*
X4380Y876D02*
X4463Y876D01*
X4480Y876D02*
X4563Y876D01*
X4580Y876D02*
X4663Y876D01*
X3180Y875D02*
X3263Y875D01*
X3280Y875D02*
X3363Y875D01*
X3380Y875D02*
X3463Y875D01*
X3480Y875D02*
X3563Y875D01*
X3580Y875D02*
X3663Y875D01*
X3680Y875D02*
X3763Y875D01*
X3780Y875D02*
X3863Y875D01*
X3880Y875D02*
X3963Y875D01*
X3980Y875D02*
X4063Y875D01*
X4080Y875D02*
X4163Y875D01*
X4179Y875D02*
X4263Y875D01*
X4280Y875D02*
X4363Y875D01*
X4380Y875D02*
X4463Y875D01*
X4480Y875D02*
X4563Y875D01*
X4579Y875D02*
X4663Y875D01*
X3179Y874D02*
X3263Y874D01*
X3279Y874D02*
X3363Y874D01*
X3379Y874D02*
X3463Y874D01*
X3479Y874D02*
X3563Y874D01*
X3579Y874D02*
X3663Y874D01*
X3679Y874D02*
X3763Y874D01*
X3779Y874D02*
X3863Y874D01*
X3879Y874D02*
X3963Y874D01*
X3979Y874D02*
X4063Y874D01*
X4079Y874D02*
X4163Y874D01*
X4179Y874D02*
X4263Y874D01*
X4280Y874D02*
X4364Y874D01*
X4380Y874D02*
X4464Y874D01*
X4479Y874D02*
X4563Y874D01*
X4579Y874D02*
X4663Y874D01*
X3179Y873D02*
X3264Y873D01*
X3279Y873D02*
X3364Y873D01*
X3379Y873D02*
X3464Y873D01*
X3479Y873D02*
X3564Y873D01*
X3579Y873D02*
X3664Y873D01*
X3679Y873D02*
X3764Y873D01*
X3779Y873D02*
X3864Y873D01*
X3879Y873D02*
X3964Y873D01*
X3979Y873D02*
X4064Y873D01*
X4079Y873D02*
X4164Y873D01*
X4179Y873D02*
X4264Y873D01*
X4279Y873D02*
X4364Y873D01*
X4379Y873D02*
X4464Y873D01*
X4479Y873D02*
X4564Y873D01*
X4579Y873D02*
X4663Y873D01*
X3179Y872D02*
X3264Y872D01*
X3279Y872D02*
X3364Y872D01*
X3379Y872D02*
X3464Y872D01*
X3479Y872D02*
X3564Y872D01*
X3579Y872D02*
X3664Y872D01*
X3679Y872D02*
X3764Y872D01*
X3779Y872D02*
X3864Y872D01*
X3879Y872D02*
X3964Y872D01*
X3979Y872D02*
X4064Y872D01*
X4079Y872D02*
X4164Y872D01*
X4179Y872D02*
X4264Y872D01*
X4279Y872D02*
X4364Y872D01*
X4379Y872D02*
X4464Y872D01*
X4479Y872D02*
X4564Y872D01*
X4579Y872D02*
X4664Y872D01*
X3179Y871D02*
X3264Y871D01*
X3279Y871D02*
X3364Y871D01*
X3379Y871D02*
X3464Y871D01*
X3479Y871D02*
X3564Y871D01*
X3579Y871D02*
X3664Y871D01*
X3679Y871D02*
X3764Y871D01*
X3779Y871D02*
X3864Y871D01*
X3879Y871D02*
X3964Y871D01*
X3979Y871D02*
X4064Y871D01*
X4079Y871D02*
X4164Y871D01*
X4179Y871D02*
X4264Y871D01*
X4279Y871D02*
X4364Y871D01*
X4379Y871D02*
X4464Y871D01*
X4479Y871D02*
X4564Y871D01*
X4579Y871D02*
X4664Y871D01*
X3179Y870D02*
X3264Y870D01*
X3279Y870D02*
X3364Y870D01*
X3379Y870D02*
X3464Y870D01*
X3479Y870D02*
X3564Y870D01*
X3579Y870D02*
X3664Y870D01*
X3679Y870D02*
X3764Y870D01*
X3778Y870D02*
X3864Y870D01*
X3878Y870D02*
X3964Y870D01*
X3978Y870D02*
X4064Y870D01*
X4078Y870D02*
X4164Y870D01*
X4178Y870D02*
X4264Y870D01*
X4279Y870D02*
X4365Y870D01*
X4379Y870D02*
X4464Y870D01*
X4479Y870D02*
X4564Y870D01*
X4578Y870D02*
X4664Y870D01*
X3178Y869D02*
X3264Y869D01*
X3278Y869D02*
X3364Y869D01*
X3378Y869D02*
X3464Y869D01*
X3478Y869D02*
X3564Y869D01*
X3578Y869D02*
X3664Y869D01*
X3678Y869D02*
X3764Y869D01*
X3778Y869D02*
X3864Y869D01*
X3878Y869D02*
X3964Y869D01*
X3978Y869D02*
X4064Y869D01*
X4078Y869D02*
X4164Y869D01*
X4178Y869D02*
X4264Y869D01*
X4279Y869D02*
X4365Y869D01*
X4379Y869D02*
X4465Y869D01*
X4478Y869D02*
X4564Y869D01*
X4578Y869D02*
X4664Y869D01*
X3178Y868D02*
X3265Y868D01*
X3278Y868D02*
X3365Y868D01*
X3378Y868D02*
X3464Y868D01*
X3478Y868D02*
X3564Y868D01*
X3578Y868D02*
X3664Y868D01*
X3678Y868D02*
X3764Y868D01*
X3778Y868D02*
X3864Y868D01*
X3878Y868D02*
X3964Y868D01*
X3978Y868D02*
X4064Y868D01*
X4078Y868D02*
X4164Y868D01*
X4178Y868D02*
X4264Y868D01*
X4279Y868D02*
X4365Y868D01*
X4378Y868D02*
X4465Y868D01*
X4478Y868D02*
X4565Y868D01*
X4578Y868D02*
X4664Y868D01*
X3178Y867D02*
X3265Y867D01*
X3278Y867D02*
X3365Y867D01*
X3378Y867D02*
X3465Y867D01*
X3478Y867D02*
X3565Y867D01*
X3578Y867D02*
X3665Y867D01*
X3678Y867D02*
X3765Y867D01*
X3778Y867D02*
X3865Y867D01*
X3878Y867D02*
X3965Y867D01*
X3978Y867D02*
X4064Y867D01*
X4078Y867D02*
X4164Y867D01*
X4178Y867D02*
X4264Y867D01*
X4278Y867D02*
X4365Y867D01*
X4378Y867D02*
X4465Y867D01*
X4478Y867D02*
X4565Y867D01*
X4578Y867D02*
X4664Y867D01*
X3178Y866D02*
X3265Y866D01*
X3278Y866D02*
X3365Y866D01*
X3378Y866D02*
X3465Y866D01*
X3478Y866D02*
X3565Y866D01*
X3578Y866D02*
X3665Y866D01*
X3678Y866D02*
X3765Y866D01*
X3778Y866D02*
X3865Y866D01*
X3878Y866D02*
X3965Y866D01*
X3978Y866D02*
X4065Y866D01*
X4078Y866D02*
X4165Y866D01*
X4178Y866D02*
X4265Y866D01*
X4278Y866D02*
X4365Y866D01*
X4378Y866D02*
X4465Y866D01*
X4478Y866D02*
X4565Y866D01*
X4578Y866D02*
X4664Y866D01*
X3178Y865D02*
X3265Y865D01*
X3278Y865D02*
X3365Y865D01*
X3378Y865D02*
X3465Y865D01*
X3478Y865D02*
X3565Y865D01*
X3578Y865D02*
X3665Y865D01*
X3678Y865D02*
X3765Y865D01*
X3778Y865D02*
X3865Y865D01*
X3878Y865D02*
X3965Y865D01*
X3978Y865D02*
X4065Y865D01*
X4078Y865D02*
X4165Y865D01*
X4178Y865D02*
X4265Y865D01*
X4278Y865D02*
X4365Y865D01*
X4378Y865D02*
X4465Y865D01*
X4478Y865D02*
X4565Y865D01*
X4578Y865D02*
X4665Y865D01*
X3178Y864D02*
X3265Y864D01*
X3278Y864D02*
X3365Y864D01*
X3378Y864D02*
X3465Y864D01*
X3478Y864D02*
X3565Y864D01*
X3578Y864D02*
X3665Y864D01*
X3678Y864D02*
X3765Y864D01*
X3778Y864D02*
X3865Y864D01*
X3878Y864D02*
X3965Y864D01*
X3978Y864D02*
X4065Y864D01*
X4078Y864D02*
X4165Y864D01*
X4178Y864D02*
X4265Y864D01*
X4278Y864D02*
X4365Y864D01*
X4378Y864D02*
X4465Y864D01*
X4478Y864D02*
X4565Y864D01*
X4578Y864D02*
X4665Y864D01*
X3178Y863D02*
X3265Y863D01*
X3278Y863D02*
X3365Y863D01*
X3378Y863D02*
X3465Y863D01*
X3478Y863D02*
X3565Y863D01*
X3578Y863D02*
X3665Y863D01*
X3678Y863D02*
X3765Y863D01*
X3778Y863D02*
X3865Y863D01*
X3878Y863D02*
X3965Y863D01*
X3978Y863D02*
X4065Y863D01*
X4078Y863D02*
X4165Y863D01*
X4178Y863D02*
X4265Y863D01*
X4278Y863D02*
X4365Y863D01*
X4378Y863D02*
X4465Y863D01*
X4478Y863D02*
X4565Y863D01*
X4578Y863D02*
X4665Y863D01*
X3178Y862D02*
X3265Y862D01*
X3278Y862D02*
X3365Y862D01*
X3378Y862D02*
X3465Y862D01*
X3478Y862D02*
X3565Y862D01*
X3578Y862D02*
X3665Y862D01*
X3678Y862D02*
X3765Y862D01*
X3778Y862D02*
X3865Y862D01*
X3878Y862D02*
X3965Y862D01*
X3978Y862D02*
X4065Y862D01*
X4078Y862D02*
X4165Y862D01*
X4178Y862D02*
X4265Y862D01*
X4278Y862D02*
X4365Y862D01*
X4378Y862D02*
X4465Y862D01*
X4478Y862D02*
X4565Y862D01*
X4578Y862D02*
X4665Y862D01*
X3178Y861D02*
X3265Y861D01*
X3278Y861D02*
X3365Y861D01*
X3378Y861D02*
X3465Y861D01*
X3478Y861D02*
X3565Y861D01*
X3578Y861D02*
X3665Y861D01*
X3678Y861D02*
X3765Y861D01*
X3778Y861D02*
X3865Y861D01*
X3878Y861D02*
X3965Y861D01*
X3978Y861D02*
X4065Y861D01*
X4078Y861D02*
X4165Y861D01*
X4178Y861D02*
X4265Y861D01*
X4278Y861D02*
X4365Y861D01*
X4378Y861D02*
X4465Y861D01*
X4478Y861D02*
X4565Y861D01*
X4578Y861D02*
X4664Y861D01*
X3178Y860D02*
X3265Y860D01*
X3278Y860D02*
X3365Y860D01*
X3378Y860D02*
X3465Y860D01*
X3478Y860D02*
X3565Y860D01*
X3578Y860D02*
X3665Y860D01*
X3678Y860D02*
X3765Y860D01*
X3778Y860D02*
X3865Y860D01*
X3878Y860D02*
X3965Y860D01*
X3978Y860D02*
X4065Y860D01*
X4078Y860D02*
X4164Y860D01*
X4178Y860D02*
X4264Y860D01*
X4278Y860D02*
X4365Y860D01*
X4378Y860D02*
X4465Y860D01*
X4478Y860D02*
X4565Y860D01*
X4578Y860D02*
X4664Y860D01*
X3178Y859D02*
X3265Y859D01*
X3278Y859D02*
X3365Y859D01*
X3378Y859D02*
X3465Y859D01*
X3478Y859D02*
X3565Y859D01*
X3578Y859D02*
X3664Y859D01*
X3678Y859D02*
X3764Y859D01*
X3778Y859D02*
X3864Y859D01*
X3878Y859D02*
X3964Y859D01*
X3978Y859D02*
X4064Y859D01*
X4078Y859D02*
X4164Y859D01*
X4178Y859D02*
X4264Y859D01*
X4279Y859D02*
X4365Y859D01*
X4378Y859D02*
X4465Y859D01*
X4478Y859D02*
X4565Y859D01*
X4578Y859D02*
X4664Y859D01*
X3178Y858D02*
X3264Y858D01*
X3278Y858D02*
X3364Y858D01*
X3378Y858D02*
X3464Y858D01*
X3478Y858D02*
X3564Y858D01*
X3578Y858D02*
X3664Y858D01*
X3678Y858D02*
X3764Y858D01*
X3778Y858D02*
X3864Y858D01*
X3878Y858D02*
X3964Y858D01*
X3978Y858D02*
X4064Y858D01*
X4078Y858D02*
X4164Y858D01*
X4178Y858D02*
X4264Y858D01*
X4279Y858D02*
X4365Y858D01*
X4379Y858D02*
X4465Y858D01*
X4478Y858D02*
X4564Y858D01*
X4578Y858D02*
X4664Y858D01*
X3179Y857D02*
X3264Y857D01*
X3279Y857D02*
X3364Y857D01*
X3379Y857D02*
X3464Y857D01*
X3478Y857D02*
X3564Y857D01*
X3578Y857D02*
X3664Y857D01*
X3678Y857D02*
X3764Y857D01*
X3778Y857D02*
X3864Y857D01*
X3878Y857D02*
X3964Y857D01*
X3978Y857D02*
X4064Y857D01*
X4078Y857D02*
X4164Y857D01*
X4178Y857D02*
X4264Y857D01*
X4279Y857D02*
X4365Y857D01*
X4379Y857D02*
X4464Y857D01*
X4479Y857D02*
X4564Y857D01*
X4578Y857D02*
X4664Y857D01*
X3179Y856D02*
X3264Y856D01*
X3279Y856D02*
X3364Y856D01*
X3379Y856D02*
X3464Y856D01*
X3479Y856D02*
X3564Y856D01*
X3579Y856D02*
X3664Y856D01*
X3679Y856D02*
X3764Y856D01*
X3779Y856D02*
X3864Y856D01*
X3879Y856D02*
X3964Y856D01*
X3979Y856D02*
X4064Y856D01*
X4079Y856D02*
X4164Y856D01*
X4179Y856D02*
X4264Y856D01*
X4279Y856D02*
X4364Y856D01*
X4379Y856D02*
X4464Y856D01*
X4479Y856D02*
X4564Y856D01*
X4579Y856D02*
X4664Y856D01*
X3179Y855D02*
X3264Y855D01*
X3279Y855D02*
X3364Y855D01*
X3379Y855D02*
X3464Y855D01*
X3479Y855D02*
X3564Y855D01*
X3579Y855D02*
X3664Y855D01*
X3679Y855D02*
X3764Y855D01*
X3779Y855D02*
X3864Y855D01*
X3879Y855D02*
X3964Y855D01*
X3979Y855D02*
X4064Y855D01*
X4079Y855D02*
X4164Y855D01*
X4179Y855D02*
X4264Y855D01*
X4279Y855D02*
X4364Y855D01*
X4379Y855D02*
X4464Y855D01*
X4479Y855D02*
X4564Y855D01*
X4579Y855D02*
X4664Y855D01*
X3179Y854D02*
X3264Y854D01*
X3279Y854D02*
X3364Y854D01*
X3379Y854D02*
X3464Y854D01*
X3479Y854D02*
X3564Y854D01*
X3579Y854D02*
X3664Y854D01*
X3679Y854D02*
X3764Y854D01*
X3779Y854D02*
X3864Y854D01*
X3879Y854D02*
X3964Y854D01*
X3979Y854D02*
X4064Y854D01*
X4079Y854D02*
X4164Y854D01*
X4179Y854D02*
X4264Y854D01*
X4279Y854D02*
X4364Y854D01*
X4379Y854D02*
X4464Y854D01*
X4479Y854D02*
X4564Y854D01*
X4579Y854D02*
X4664Y854D01*
X3179Y853D02*
X3263Y853D01*
X3279Y853D02*
X3363Y853D01*
X3379Y853D02*
X3463Y853D01*
X3479Y853D02*
X3563Y853D01*
X3579Y853D02*
X3663Y853D01*
X3679Y853D02*
X3763Y853D01*
X3779Y853D02*
X3863Y853D01*
X3879Y853D02*
X3963Y853D01*
X3979Y853D02*
X4063Y853D01*
X4079Y853D02*
X4163Y853D01*
X4179Y853D02*
X4263Y853D01*
X4280Y853D02*
X4364Y853D01*
X4379Y853D02*
X4464Y853D01*
X4479Y853D02*
X4563Y853D01*
X4579Y853D02*
X4663Y853D01*
X3180Y852D02*
X3263Y852D01*
X3280Y852D02*
X3363Y852D01*
X3380Y852D02*
X3463Y852D01*
X3480Y852D02*
X3563Y852D01*
X3580Y852D02*
X3663Y852D01*
X3679Y852D02*
X3763Y852D01*
X3779Y852D02*
X3863Y852D01*
X3879Y852D02*
X3963Y852D01*
X3979Y852D02*
X4063Y852D01*
X4079Y852D02*
X4163Y852D01*
X4179Y852D02*
X4263Y852D01*
X4280Y852D02*
X4364Y852D01*
X4380Y852D02*
X4463Y852D01*
X4480Y852D02*
X4563Y852D01*
X4579Y852D02*
X4663Y852D01*
X3180Y851D02*
X3263Y851D01*
X3280Y851D02*
X3363Y851D01*
X3380Y851D02*
X3463Y851D01*
X3480Y851D02*
X3563Y851D01*
X3580Y851D02*
X3663Y851D01*
X3680Y851D02*
X3763Y851D01*
X3780Y851D02*
X3863Y851D01*
X3880Y851D02*
X3963Y851D01*
X3980Y851D02*
X4063Y851D01*
X4080Y851D02*
X4163Y851D01*
X4180Y851D02*
X4263Y851D01*
X4280Y851D02*
X4363Y851D01*
X4380Y851D02*
X4463Y851D01*
X4480Y851D02*
X4563Y851D01*
X4580Y851D02*
X4663Y851D01*
X3180Y850D02*
X3263Y850D01*
X3280Y850D02*
X3363Y850D01*
X3380Y850D02*
X3463Y850D01*
X3480Y850D02*
X3563Y850D01*
X3580Y850D02*
X3663Y850D01*
X3680Y850D02*
X3763Y850D01*
X3780Y850D02*
X3863Y850D01*
X3880Y850D02*
X3963Y850D01*
X3980Y850D02*
X4063Y850D01*
X4080Y850D02*
X4163Y850D01*
X4180Y850D02*
X4263Y850D01*
X4280Y850D02*
X4363Y850D01*
X4380Y850D02*
X4463Y850D01*
X4480Y850D02*
X4563Y850D01*
X4580Y850D02*
X4663Y850D01*
X3180Y849D02*
X3262Y849D01*
X3280Y849D02*
X3362Y849D01*
X3380Y849D02*
X3462Y849D01*
X3480Y849D02*
X3562Y849D01*
X3580Y849D02*
X3662Y849D01*
X3680Y849D02*
X3762Y849D01*
X3780Y849D02*
X3862Y849D01*
X3880Y849D02*
X3962Y849D01*
X3980Y849D02*
X4062Y849D01*
X4080Y849D02*
X4162Y849D01*
X4180Y849D02*
X4262Y849D01*
X4281Y849D02*
X4363Y849D01*
X4381Y849D02*
X4462Y849D01*
X4480Y849D02*
X4562Y849D01*
X4580Y849D02*
X4662Y849D01*
X3181Y848D02*
X3262Y848D01*
X3281Y848D02*
X3362Y848D01*
X3381Y848D02*
X3462Y848D01*
X3481Y848D02*
X3562Y848D01*
X3581Y848D02*
X3662Y848D01*
X3681Y848D02*
X3762Y848D01*
X3781Y848D02*
X3862Y848D01*
X3881Y848D02*
X3962Y848D01*
X3981Y848D02*
X4062Y848D01*
X4081Y848D02*
X4162Y848D01*
X4181Y848D02*
X4262Y848D01*
X4281Y848D02*
X4362Y848D01*
X4381Y848D02*
X4462Y848D01*
X4481Y848D02*
X4562Y848D01*
X4581Y848D02*
X4662Y848D01*
X3181Y847D02*
X3262Y847D01*
X3281Y847D02*
X3362Y847D01*
X3381Y847D02*
X3462Y847D01*
X3481Y847D02*
X3562Y847D01*
X3581Y847D02*
X3662Y847D01*
X3681Y847D02*
X3762Y847D01*
X3781Y847D02*
X3862Y847D01*
X3881Y847D02*
X3962Y847D01*
X3981Y847D02*
X4062Y847D01*
X4081Y847D02*
X4161Y847D01*
X4181Y847D02*
X4261Y847D01*
X4281Y847D02*
X4362Y847D01*
X4381Y847D02*
X4462Y847D01*
X4481Y847D02*
X4562Y847D01*
X4581Y847D02*
X4661Y847D01*
X3182Y846D02*
X3261Y846D01*
X3282Y846D02*
X3361Y846D01*
X3382Y846D02*
X3461Y846D01*
X3482Y846D02*
X3561Y846D01*
X3582Y846D02*
X3661Y846D01*
X3681Y846D02*
X3761Y846D01*
X3781Y846D02*
X3861Y846D01*
X3881Y846D02*
X3961Y846D01*
X3981Y846D02*
X4061Y846D01*
X4081Y846D02*
X4161Y846D01*
X4181Y846D02*
X4261Y846D01*
X4282Y846D02*
X4362Y846D01*
X4382Y846D02*
X4461Y846D01*
X4482Y846D02*
X4561Y846D01*
X4581Y846D02*
X4661Y846D01*
X3182Y845D02*
X3261Y845D01*
X3282Y845D02*
X3361Y845D01*
X3382Y845D02*
X3461Y845D01*
X3482Y845D02*
X3561Y845D01*
X3582Y845D02*
X3661Y845D01*
X3682Y845D02*
X3761Y845D01*
X3782Y845D02*
X3861Y845D01*
X3882Y845D02*
X3961Y845D01*
X3982Y845D02*
X4061Y845D01*
X4082Y845D02*
X4161Y845D01*
X4182Y845D02*
X4261Y845D01*
X4282Y845D02*
X4361Y845D01*
X4382Y845D02*
X4461Y845D01*
X4482Y845D02*
X4561Y845D01*
X4582Y845D02*
X4661Y845D01*
X3183Y844D02*
X3260Y844D01*
X3283Y844D02*
X3360Y844D01*
X3383Y844D02*
X3460Y844D01*
X3482Y844D02*
X3560Y844D01*
X3582Y844D02*
X3660Y844D01*
X3682Y844D02*
X3760Y844D01*
X3782Y844D02*
X3860Y844D01*
X3882Y844D02*
X3960Y844D01*
X3982Y844D02*
X4060Y844D01*
X4082Y844D02*
X4160Y844D01*
X4182Y844D02*
X4260Y844D01*
X4283Y844D02*
X4361Y844D01*
X4383Y844D02*
X4460Y844D01*
X4483Y844D02*
X4560Y844D01*
X4582Y844D02*
X4660Y844D01*
X3183Y843D02*
X3260Y843D01*
X3283Y843D02*
X3360Y843D01*
X3383Y843D02*
X3460Y843D01*
X3483Y843D02*
X3560Y843D01*
X3583Y843D02*
X3660Y843D01*
X3683Y843D02*
X3760Y843D01*
X3783Y843D02*
X3860Y843D01*
X3883Y843D02*
X3960Y843D01*
X3983Y843D02*
X4060Y843D01*
X4083Y843D02*
X4160Y843D01*
X4183Y843D02*
X4260Y843D01*
X4283Y843D02*
X4360Y843D01*
X4383Y843D02*
X4460Y843D01*
X4483Y843D02*
X4560Y843D01*
X4583Y843D02*
X4660Y843D01*
X3184Y842D02*
X3259Y842D01*
X3284Y842D02*
X3359Y842D01*
X3384Y842D02*
X3459Y842D01*
X3484Y842D02*
X3559Y842D01*
X3584Y842D02*
X3659Y842D01*
X3684Y842D02*
X3759Y842D01*
X3783Y842D02*
X3859Y842D01*
X3883Y842D02*
X3959Y842D01*
X3983Y842D02*
X4059Y842D01*
X4083Y842D02*
X4159Y842D01*
X4183Y842D02*
X4259Y842D01*
X4284Y842D02*
X4360Y842D01*
X4384Y842D02*
X4459Y842D01*
X4484Y842D02*
X4559Y842D01*
X4583Y842D02*
X4659Y842D01*
X3184Y841D02*
X3259Y841D01*
X3284Y841D02*
X3359Y841D01*
X3384Y841D02*
X3459Y841D01*
X3484Y841D02*
X3559Y841D01*
X3584Y841D02*
X3659Y841D01*
X3684Y841D02*
X3759Y841D01*
X3784Y841D02*
X3858Y841D01*
X3884Y841D02*
X3958Y841D01*
X3984Y841D02*
X4058Y841D01*
X4084Y841D02*
X4158Y841D01*
X4184Y841D02*
X4258Y841D01*
X4285Y841D02*
X4359Y841D01*
X4384Y841D02*
X4459Y841D01*
X4484Y841D02*
X4559Y841D01*
X4584Y841D02*
X4658Y841D01*
X3185Y840D02*
X3258Y840D01*
X3285Y840D02*
X3358Y840D01*
X3385Y840D02*
X3458Y840D01*
X3485Y840D02*
X3558Y840D01*
X3585Y840D02*
X3658Y840D01*
X3685Y840D02*
X3758Y840D01*
X3785Y840D02*
X3858Y840D01*
X3885Y840D02*
X3958Y840D01*
X3985Y840D02*
X4058Y840D01*
X4085Y840D02*
X4158Y840D01*
X4185Y840D02*
X4258Y840D01*
X4285Y840D02*
X4358Y840D01*
X4385Y840D02*
X4458Y840D01*
X4485Y840D02*
X4558Y840D01*
X4585Y840D02*
X4658Y840D01*
X3185Y839D02*
X3257Y839D01*
X3285Y839D02*
X3357Y839D01*
X3385Y839D02*
X3457Y839D01*
X3485Y839D02*
X3557Y839D01*
X3585Y839D02*
X3657Y839D01*
X3685Y839D02*
X3757Y839D01*
X3785Y839D02*
X3857Y839D01*
X3885Y839D02*
X3957Y839D01*
X3985Y839D02*
X4057Y839D01*
X4085Y839D02*
X4157Y839D01*
X4185Y839D02*
X4257Y839D01*
X4286Y839D02*
X4358Y839D01*
X4386Y839D02*
X4457Y839D01*
X4485Y839D02*
X4557Y839D01*
X4585Y839D02*
X4657Y839D01*
X3186Y838D02*
X3257Y838D01*
X3286Y838D02*
X3357Y838D01*
X3386Y838D02*
X3457Y838D01*
X3486Y838D02*
X3557Y838D01*
X3586Y838D02*
X3657Y838D01*
X3686Y838D02*
X3757Y838D01*
X3786Y838D02*
X3857Y838D01*
X3886Y838D02*
X3957Y838D01*
X3986Y838D02*
X4057Y838D01*
X4086Y838D02*
X4157Y838D01*
X4186Y838D02*
X4256Y838D01*
X4286Y838D02*
X4357Y838D01*
X4386Y838D02*
X4457Y838D01*
X4486Y838D02*
X4557Y838D01*
X4586Y838D02*
X4656Y838D01*
X3187Y837D02*
X3256Y837D01*
X3287Y837D02*
X3356Y837D01*
X3387Y837D02*
X3456Y837D01*
X3487Y837D02*
X3556Y837D01*
X3587Y837D02*
X3656Y837D01*
X3687Y837D02*
X3756Y837D01*
X3787Y837D02*
X3856Y837D01*
X3887Y837D02*
X3956Y837D01*
X3987Y837D02*
X4056Y837D01*
X4087Y837D02*
X4156Y837D01*
X4187Y837D02*
X4256Y837D01*
X4287Y837D02*
X4356Y837D01*
X4387Y837D02*
X4456Y837D01*
X4487Y837D02*
X4556Y837D01*
X4587Y837D02*
X4656Y837D01*
X3188Y836D02*
X3255Y836D01*
X3288Y836D02*
X3355Y836D01*
X3388Y836D02*
X3455Y836D01*
X3488Y836D02*
X3555Y836D01*
X3588Y836D02*
X3655Y836D01*
X3688Y836D02*
X3755Y836D01*
X3788Y836D02*
X3855Y836D01*
X3888Y836D02*
X3955Y836D01*
X3988Y836D02*
X4055Y836D01*
X4088Y836D02*
X4155Y836D01*
X4187Y836D02*
X4255Y836D01*
X4288Y836D02*
X4355Y836D01*
X4388Y836D02*
X4455Y836D01*
X4488Y836D02*
X4555Y836D01*
X4587Y836D02*
X4655Y836D01*
X3188Y835D02*
X3254Y835D01*
X3288Y835D02*
X3354Y835D01*
X3388Y835D02*
X3454Y835D01*
X3488Y835D02*
X3554Y835D01*
X3588Y835D02*
X3654Y835D01*
X3688Y835D02*
X3754Y835D01*
X3788Y835D02*
X3854Y835D01*
X3888Y835D02*
X3954Y835D01*
X3988Y835D02*
X4054Y835D01*
X4088Y835D02*
X4154Y835D01*
X4188Y835D02*
X4254Y835D01*
X4289Y835D02*
X4355Y835D01*
X4389Y835D02*
X4455Y835D01*
X4488Y835D02*
X4554Y835D01*
X4588Y835D02*
X4654Y835D01*
X3189Y834D02*
X3253Y834D01*
X3289Y834D02*
X3353Y834D01*
X3389Y834D02*
X3453Y834D01*
X3489Y834D02*
X3553Y834D01*
X3589Y834D02*
X3653Y834D01*
X3689Y834D02*
X3753Y834D01*
X3789Y834D02*
X3853Y834D01*
X3889Y834D02*
X3953Y834D01*
X3989Y834D02*
X4053Y834D01*
X4089Y834D02*
X4153Y834D01*
X4189Y834D02*
X4253Y834D01*
X4290Y834D02*
X4354Y834D01*
X4389Y834D02*
X4454Y834D01*
X4489Y834D02*
X4553Y834D01*
X4589Y834D02*
X4653Y834D01*
X3190Y833D02*
X3253Y833D01*
X3290Y833D02*
X3353Y833D01*
X3390Y833D02*
X3453Y833D01*
X3490Y833D02*
X3553Y833D01*
X3590Y833D02*
X3653Y833D01*
X3690Y833D02*
X3752Y833D01*
X3790Y833D02*
X3852Y833D01*
X3890Y833D02*
X3952Y833D01*
X3990Y833D02*
X4052Y833D01*
X4090Y833D02*
X4152Y833D01*
X4190Y833D02*
X4252Y833D01*
X4291Y833D02*
X4353Y833D01*
X4390Y833D02*
X4453Y833D01*
X4490Y833D02*
X4553Y833D01*
X4590Y833D02*
X4652Y833D01*
X3191Y832D02*
X3252Y832D01*
X3291Y832D02*
X3352Y832D01*
X3391Y832D02*
X3452Y832D01*
X3491Y832D02*
X3552Y832D01*
X3591Y832D02*
X3652Y832D01*
X3691Y832D02*
X3752Y832D01*
X3791Y832D02*
X3852Y832D01*
X3891Y832D02*
X3951Y832D01*
X3991Y832D02*
X4051Y832D01*
X4091Y832D02*
X4151Y832D01*
X4191Y832D02*
X4251Y832D01*
X4292Y832D02*
X4352Y832D01*
X4391Y832D02*
X4452Y832D01*
X4491Y832D02*
X4552Y832D01*
X4591Y832D02*
X4651Y832D01*
X3192Y831D02*
X3250Y831D01*
X3292Y831D02*
X3350Y831D01*
X3392Y831D02*
X3450Y831D01*
X3492Y831D02*
X3550Y831D01*
X3592Y831D02*
X3650Y831D01*
X3692Y831D02*
X3750Y831D01*
X3792Y831D02*
X3850Y831D01*
X3892Y831D02*
X3950Y831D01*
X3992Y831D02*
X4050Y831D01*
X4092Y831D02*
X4150Y831D01*
X4192Y831D02*
X4250Y831D01*
X4293Y831D02*
X4351Y831D01*
X4392Y831D02*
X4451Y831D01*
X4492Y831D02*
X4550Y831D01*
X4592Y831D02*
X4650Y831D01*
X3193Y830D02*
X3249Y830D01*
X3293Y830D02*
X3349Y830D01*
X3393Y830D02*
X3449Y830D01*
X3493Y830D02*
X3549Y830D01*
X3593Y830D02*
X3649Y830D01*
X3693Y830D02*
X3749Y830D01*
X3793Y830D02*
X3849Y830D01*
X3893Y830D02*
X3949Y830D01*
X3993Y830D02*
X4049Y830D01*
X4093Y830D02*
X4149Y830D01*
X4193Y830D02*
X4249Y830D01*
X4294Y830D02*
X4350Y830D01*
X4394Y830D02*
X4450Y830D01*
X4493Y830D02*
X4549Y830D01*
X4593Y830D02*
X4649Y830D01*
X3195Y829D02*
X3248Y829D01*
X3295Y829D02*
X3348Y829D01*
X3395Y829D02*
X3448Y829D01*
X3495Y829D02*
X3548Y829D01*
X3595Y829D02*
X3648Y829D01*
X3695Y829D02*
X3748Y829D01*
X3795Y829D02*
X3848Y829D01*
X3895Y829D02*
X3948Y829D01*
X3995Y829D02*
X4048Y829D01*
X4095Y829D02*
X4148Y829D01*
X4195Y829D02*
X4248Y829D01*
X4295Y829D02*
X4348Y829D01*
X4395Y829D02*
X4448Y829D01*
X4495Y829D02*
X4548Y829D01*
X4595Y829D02*
X4648Y829D01*
X3196Y828D02*
X3247Y828D01*
X3296Y828D02*
X3347Y828D01*
X3396Y828D02*
X3447Y828D01*
X3496Y828D02*
X3547Y828D01*
X3596Y828D02*
X3647Y828D01*
X3696Y828D02*
X3747Y828D01*
X3796Y828D02*
X3847Y828D01*
X3896Y828D02*
X3947Y828D01*
X3996Y828D02*
X4047Y828D01*
X4096Y828D02*
X4147Y828D01*
X4196Y828D02*
X4247Y828D01*
X4296Y828D02*
X4347Y828D01*
X4396Y828D02*
X4447Y828D01*
X4496Y828D02*
X4547Y828D01*
X4596Y828D02*
X4647Y828D01*
X3197Y827D02*
X3245Y827D01*
X3297Y827D02*
X3345Y827D01*
X3397Y827D02*
X3445Y827D01*
X3497Y827D02*
X3545Y827D01*
X3597Y827D02*
X3645Y827D01*
X3697Y827D02*
X3745Y827D01*
X3797Y827D02*
X3845Y827D01*
X3897Y827D02*
X3945Y827D01*
X3997Y827D02*
X4045Y827D01*
X4097Y827D02*
X4145Y827D01*
X4197Y827D02*
X4245Y827D01*
X4298Y827D02*
X4346Y827D01*
X4398Y827D02*
X4446Y827D01*
X4497Y827D02*
X4545Y827D01*
X4597Y827D02*
X4645Y827D01*
X3199Y826D02*
X3244Y826D01*
X3299Y826D02*
X3344Y826D01*
X3399Y826D02*
X3444Y826D01*
X3499Y826D02*
X3544Y826D01*
X3599Y826D02*
X3644Y826D01*
X3699Y826D02*
X3744Y826D01*
X3799Y826D02*
X3844Y826D01*
X3899Y826D02*
X3944Y826D01*
X3999Y826D02*
X4044Y826D01*
X4099Y826D02*
X4144Y826D01*
X4199Y826D02*
X4244Y826D01*
X4299Y826D02*
X4344Y826D01*
X4399Y826D02*
X4444Y826D01*
X4499Y826D02*
X4544Y826D01*
X4599Y826D02*
X4644Y826D01*
X3201Y825D02*
X3242Y825D01*
X3301Y825D02*
X3342Y825D01*
X3401Y825D02*
X3442Y825D01*
X3501Y825D02*
X3542Y825D01*
X3601Y825D02*
X3642Y825D01*
X3701Y825D02*
X3742Y825D01*
X3801Y825D02*
X3842Y825D01*
X3901Y825D02*
X3942Y825D01*
X4001Y825D02*
X4042Y825D01*
X4101Y825D02*
X4142Y825D01*
X4201Y825D02*
X4242Y825D01*
X4301Y825D02*
X4342Y825D01*
X4401Y825D02*
X4442Y825D01*
X4501Y825D02*
X4542Y825D01*
X4600Y825D02*
X4642Y825D01*
X3203Y824D02*
X3240Y824D01*
X3303Y824D02*
X3340Y824D01*
X3403Y824D02*
X3440Y824D01*
X3503Y824D02*
X3540Y824D01*
X3603Y824D02*
X3640Y824D01*
X3703Y824D02*
X3740Y824D01*
X3802Y824D02*
X3840Y824D01*
X3902Y824D02*
X3940Y824D01*
X4002Y824D02*
X4040Y824D01*
X4102Y824D02*
X4140Y824D01*
X4202Y824D02*
X4240Y824D01*
X4303Y824D02*
X4341Y824D01*
X4403Y824D02*
X4440Y824D01*
X4503Y824D02*
X4540Y824D01*
X4602Y824D02*
X4640Y824D01*
X3205Y823D02*
X3238Y823D01*
X3305Y823D02*
X3338Y823D01*
X3405Y823D02*
X3438Y823D01*
X3505Y823D02*
X3538Y823D01*
X3605Y823D02*
X3638Y823D01*
X3705Y823D02*
X3738Y823D01*
X3805Y823D02*
X3838Y823D01*
X3905Y823D02*
X3938Y823D01*
X4005Y823D02*
X4038Y823D01*
X4105Y823D02*
X4138Y823D01*
X4205Y823D02*
X4238Y823D01*
X4305Y823D02*
X4338Y823D01*
X4405Y823D02*
X4438Y823D01*
X4505Y823D02*
X4538Y823D01*
X4604Y823D02*
X4638Y823D01*
X3207Y822D02*
X3235Y822D01*
X3307Y822D02*
X3335Y822D01*
X3407Y822D02*
X3435Y822D01*
X3507Y822D02*
X3535Y822D01*
X3607Y822D02*
X3635Y822D01*
X3707Y822D02*
X3735Y822D01*
X3807Y822D02*
X3835Y822D01*
X3907Y822D02*
X3935Y822D01*
X4007Y822D02*
X4035Y822D01*
X4107Y822D02*
X4135Y822D01*
X4207Y822D02*
X4235Y822D01*
X4308Y822D02*
X4336Y822D01*
X4408Y822D02*
X4436Y822D01*
X4507Y822D02*
X4535Y822D01*
X4607Y822D02*
X4635Y822D01*
X3211Y821D02*
X3232Y821D01*
X3311Y821D02*
X3332Y821D01*
X3411Y821D02*
X3432Y821D01*
X3511Y821D02*
X3532Y821D01*
X3611Y821D02*
X3632Y821D01*
X3711Y821D02*
X3732Y821D01*
X3811Y821D02*
X3832Y821D01*
X3911Y821D02*
X3932Y821D01*
X4011Y821D02*
X4032Y821D01*
X4111Y821D02*
X4132Y821D01*
X4211Y821D02*
X4232Y821D01*
X4311Y821D02*
X4332Y821D01*
X4411Y821D02*
X4432Y821D01*
X4511Y821D02*
X4532Y821D01*
X4611Y821D02*
X4632Y821D01*
X3216Y820D02*
X3227Y820D01*
X3316Y820D02*
X3327Y820D01*
X3416Y820D02*
X3427Y820D01*
X3516Y820D02*
X3527Y820D01*
X3616Y820D02*
X3627Y820D01*
X3716Y820D02*
X3727Y820D01*
X3816Y820D02*
X3827Y820D01*
X3916Y820D02*
X3927Y820D01*
X4016Y820D02*
X4027Y820D01*
X4116Y820D02*
X4127Y820D01*
X4216Y820D02*
X4227Y820D01*
X4316Y820D02*
X4327Y820D01*
X4416Y820D02*
X4427Y820D01*
X4516Y820D02*
X4527Y820D01*
X4616Y820D02*
X4627Y820D01*
X680Y555D02*
X763Y555D01*
X680Y554D02*
X763Y554D01*
X680Y553D02*
X763Y553D01*
X680Y552D02*
X763Y552D01*
X680Y551D02*
X763Y551D01*
X680Y550D02*
X763Y550D01*
X680Y549D02*
X763Y549D01*
X680Y548D02*
X763Y548D01*
X680Y547D02*
X763Y547D01*
X680Y546D02*
X763Y546D01*
X680Y545D02*
X763Y545D01*
X680Y544D02*
X763Y544D01*
X680Y543D02*
X763Y543D01*
X680Y542D02*
X763Y542D01*
X680Y541D02*
X763Y541D01*
X680Y540D02*
X763Y540D01*
X680Y539D02*
X763Y539D01*
X680Y538D02*
X763Y538D01*
X680Y537D02*
X763Y537D01*
X680Y536D02*
X763Y536D01*
X680Y535D02*
X763Y535D01*
X680Y534D02*
X763Y534D01*
X680Y533D02*
X763Y533D01*
X680Y532D02*
X763Y532D01*
X680Y531D02*
X763Y531D01*
X680Y530D02*
X763Y530D01*
X680Y529D02*
X763Y529D01*
X680Y528D02*
X721Y528D01*
X723Y528D02*
X763Y528D01*
X680Y527D02*
X716Y527D01*
X728Y527D02*
X763Y527D01*
X680Y526D02*
X714Y526D01*
X730Y526D02*
X763Y526D01*
X680Y525D02*
X712Y525D01*
X731Y525D02*
X763Y525D01*
X680Y524D02*
X711Y524D01*
X732Y524D02*
X763Y524D01*
X680Y523D02*
X710Y523D01*
X733Y523D02*
X763Y523D01*
X680Y522D02*
X709Y522D01*
X734Y522D02*
X763Y522D01*
X680Y521D02*
X709Y521D01*
X735Y521D02*
X763Y521D01*
X680Y520D02*
X708Y520D01*
X735Y520D02*
X763Y520D01*
X680Y519D02*
X708Y519D01*
X736Y519D02*
X763Y519D01*
X680Y518D02*
X707Y518D01*
X736Y518D02*
X763Y518D01*
X680Y517D02*
X707Y517D01*
X736Y517D02*
X763Y517D01*
X680Y516D02*
X707Y516D01*
X737Y516D02*
X763Y516D01*
X680Y515D02*
X707Y515D01*
X737Y515D02*
X763Y515D01*
X680Y514D02*
X707Y514D01*
X737Y514D02*
X763Y514D01*
X680Y513D02*
X707Y513D01*
X737Y513D02*
X763Y513D01*
X680Y512D02*
X707Y512D01*
X737Y512D02*
X763Y512D01*
X680Y511D02*
X707Y511D01*
X737Y511D02*
X763Y511D01*
X680Y510D02*
X707Y510D01*
X736Y510D02*
X763Y510D01*
X680Y509D02*
X707Y509D01*
X736Y509D02*
X763Y509D01*
X680Y508D02*
X707Y508D01*
X736Y508D02*
X763Y508D01*
X680Y507D02*
X708Y507D01*
X735Y507D02*
X763Y507D01*
X680Y506D02*
X708Y506D01*
X735Y506D02*
X763Y506D01*
X680Y505D02*
X709Y505D01*
X734Y505D02*
X763Y505D01*
X680Y504D02*
X710Y504D01*
X733Y504D02*
X763Y504D01*
X680Y503D02*
X711Y503D01*
X733Y503D02*
X763Y503D01*
X680Y502D02*
X712Y502D01*
X731Y502D02*
X763Y502D01*
X680Y501D02*
X713Y501D01*
X730Y501D02*
X763Y501D01*
X680Y500D02*
X715Y500D01*
X728Y500D02*
X763Y500D01*
X680Y499D02*
X718Y499D01*
X725Y499D02*
X763Y499D01*
X680Y498D02*
X763Y498D01*
X680Y497D02*
X763Y497D01*
X680Y496D02*
X763Y496D01*
X680Y495D02*
X763Y495D01*
X680Y494D02*
X763Y494D01*
X680Y493D02*
X763Y493D01*
X680Y492D02*
X763Y492D01*
X680Y491D02*
X763Y491D01*
X680Y490D02*
X763Y490D01*
X680Y489D02*
X763Y489D01*
X680Y488D02*
X763Y488D01*
X680Y487D02*
X763Y487D01*
X680Y486D02*
X763Y486D01*
X680Y485D02*
X763Y485D01*
X680Y484D02*
X763Y484D01*
X680Y483D02*
X763Y483D01*
X680Y482D02*
X763Y482D01*
X680Y481D02*
X763Y481D01*
X680Y480D02*
X763Y480D01*
X680Y479D02*
X763Y479D01*
X680Y478D02*
X763Y478D01*
X680Y477D02*
X763Y477D01*
X680Y476D02*
X763Y476D01*
X680Y475D02*
X763Y475D01*
X680Y474D02*
X763Y474D01*
X680Y473D02*
X763Y473D01*
X680Y472D02*
X763Y472D01*
D02*
G04 End of Mask0*
M02*